<?xml version="1.0" encoding="UTF-8"?>
<svg id="Layer_1" data-name="Layer 1" xmlns="http://www.w3.org/2000/svg" viewBox="0 0 164.98 112.89">
  <defs>
    <style>
      .cls-1 {
        fill: #eec919;
      }

      .cls-2 {
        fill: #deeffd;
      }
    </style>
  </defs>
  <rect class="cls-2" x="0" width="164.98" height="112.89"/>
  <g>
    <path class="cls-1" d="M70.38,77.62c0,2.28-1.86,4.35-4.35,4.35s-4.35-1.86-4.35-4.35v-18.63c0-2.28,1.86-4.35,4.35-4.35s4.35,1.86,4.35,4.35v18.63Zm12.42,4.97c0,2.28-1.86,4.35-4.35,4.35s-4.14-1.86-4.14-4.35v-28.36c0-2.28,1.86-4.35,4.35-4.35s4.35,1.86,4.35,4.35v28.37h-.21Zm-25.05-9.12c0,2.28-1.86,4.35-4.35,4.35s-4.35-1.86-4.35-4.35v-10.14c0-2.28,1.86-4.35,4.35-4.35s4.35,2.07,4.35,4.35v10.14Zm37.48,13.67c0,2.28-1.86,4.35-4.35,4.35-2.28,0-4.14-2.07-4.14-4.35V49.47c0-2.28,1.86-4.35,4.35-4.35,2.28,0,4.35,1.86,4.35,4.35v37.68h-.21Z"/>
    <path class="cls-1" d="M108.89,85.29c-.83,0-1.45-.21-2.28-.41l-5.18-1.66c-.83-.21-1.45-1.24-1.04-2.07,.21-.83,1.24-1.45,2.07-1.04l5.38,1.66c1.04,.41,2.28,.21,3.31-.62,1.04-.62,1.45-1.86,1.45-2.9V43.67c0-1.66-1.04-3.11-2.48-3.52l-50.72-15.32c-1.04-.41-2.28-.21-3.31,.41-.83,.83-1.45,1.86-1.45,3.11v23.81c0,1.04-.83,1.66-1.66,1.66-1.04,0-1.66-.83-1.66-1.66V28.35c0-2.28,1.04-4.35,2.9-5.59,1.87-1.45,4.15-1.66,6.22-1.04l50.52,15.32c2.9,.83,4.97,3.73,4.97,6.83v34.58c0,2.28-1.04,4.35-2.9,5.8-1.24,.41-2.69,1.04-4.14,1.04"/>
  </g>
</svg>