<?xml version="1.0" encoding="UTF-8"?>
<svg id="Layer_1" data-name="Layer 1" xmlns="http://www.w3.org/2000/svg" viewBox="0 0 50 50">
  <defs>
    <style>
      .cls-1 {
        fill: #9fa3a6;
      }

      .cls-2 {
        fill: #fff;
      }

      .cls-3 {
        fill: #82d9f9;
      }

      .cls-4 {
        fill: #ec5352;
      }

      .cls-5 {
        fill: #fe8e00;
      }

      .cls-6 {
        fill: #98cb61;
      }

      .cls-7 {
        fill: #54607b;
      }

      .cls-8 {
        fill: #f0f2f2;
      }
    </style>
  </defs>
  <path class="cls-2" d="M2.41,31.84l3.08-3.08,10.74,10.74-3.08,3.08L2.41,31.84Z"/>
  <path class="cls-2" d="M5.48,28.77l-3.07,3.07L.39,26.74l5.1,2.03Z"/>
  <path class="cls-6" d="M16.22,39.51l-3.08,3.08,2.61,2.61c.1,.1,.26,.1,.35,0l2.72-2.72c.1-.1,.1-.26,0-.35l-2.61-2.61h0Z"/>
  <path class="cls-2" d="M20.76,35.39l-2.57,2.57c-.18,.18-.46,.18-.64,0l-6.49-6.49-3.72-3.73L.35,20.77c-.18-.17-.18-.46,0-.64,0,0,0,0,0,0l2.57-2.57c.18-.18,.46-.18,.64,0,0,0,0,0,0,0l6.98,6.98,3.72,3.73,6.49,6.49c.18,.18,.18,.46,0,.64h0Z"/>
  <path class="cls-2" d="M38.95,7.67V48.28c0,.78-.63,1.41-1.41,1.41H14.51c-.78,0-1.41-.63-1.41-1.41V7.67c0-.78,.63-1.41,1.41-1.41h23.03c.78,0,1.41,.63,1.41,1.41h0Z"/>
  <path class="cls-8" d="M17.99,6.26v2.38h-2.44c-.49,0-.9,.4-.9,.89v.77h-1.56v-2.64c0-.78,.63-1.41,1.41-1.41,0,0,3.48,0,3.48,0Zm20.95,29.03v13c0,.78-.63,1.41-1.41,1.41h-1.77c-.52,0-.95-.42-.95-.95v-1.44h1.68c.49,0,.89-.4,.89-.89v-11.13h1.56Zm0-18.12v10.12c-.3-.14-.58-.3-.84-.48-.08-.06-.19-.08-.29-.07l-.43,.07v-8.56c.45-.44,.98-.8,1.56-1.07h0Z"/>
  <path class="cls-2" d="M37.39,9.54V46.41c0,.49-.4,.89-.89,.89H15.56c-.49,0-.9-.4-.9-.89V9.54c0-.49,.4-.89,.9-.89h20.94c.49,0,.89,.4,.89,.89h0Z"/>
  <path class="cls-8" d="M17.99,8.64v1.28c0,.21-.17,.39-.39,.39h-2.95v-.77c0-.49,.4-.89,.9-.89,0,0,2.44,0,2.44,0Zm19.4,26.64v11.13c0,.49-.4,.89-.89,.89h-1.68v-11.15c0-.48,.39-.87,.87-.87h1.7Zm0-17.05v8.56l-.19,.03-1.11,.17c-.29,.04-.53-.23-.43-.51l.57-1.6c.03-.1,.03-.2-.02-.29-.46-.97-.65-2.08-.47-3.23,.19-1.22,.79-2.31,1.65-3.14h0Z"/>
  <path class="cls-8" d="M35.46,24.98v10.1c0,.39-.32,.71-.71,.72H17.31c-.39,0-.71-.32-.71-.71h0v-10.1c0-.39,.32-.71,.71-.72h17.44c.39,0,.71,.32,.72,.71h0Z"/>
  <path class="cls-5" d="M34.19,30.05h-5.79c-.26,0-.47-.21-.47-.47h0v-3.58c0-.26,.21-.47,.47-.47h5.79c.26,0,.47,.21,.47,.47h0v3.58c0,.26-.21,.47-.47,.47h0Z"/>
  <path class="cls-2" d="M34.09,29.6s-.06,0-.09-.03l-2.25-1.51c-.08-.05-.1-.15-.05-.23s.15-.1,.23-.05h0l2.25,1.51c.08,.05,.1,.15,.05,.23-.03,.05-.08,.07-.14,.07h0Zm-5.59,0c-.09,0-.17-.07-.17-.16,0-.06,.03-.11,.07-.14l2.25-1.51c.08-.05,.18-.03,.23,.05s.03,.18-.05,.23l-2.25,1.51s-.06,.03-.09,.03h0Z"/>
  <path class="cls-2" d="M31.29,28.46s-.07,0-.09-.03l-2.8-1.88c-.07-.05-.09-.16-.04-.23,.05-.07,.15-.09,.22-.04l2.7,1.81,2.7-1.81c.07-.05,.18-.04,.23,.04,.05,.07,.04,.18-.04,.23,0,0,0,0,0,0l-2.8,1.88s-.06,.03-.09,.03Z"/>
  <path class="cls-6" d="M16.59,37.89h8.99v6.51h-8.99v-6.51Zm10.64,1.17h6.86m-6.86,1.39h6.86m-6.86,1.39h6.86m-6.86,1.39h2.39"/>
  <path class="cls-2" d="M38.11,25.93l-1.11,.17c-.29,.04-.53-.23-.43-.51l.57-1.6c.03-.1,.03-.2-.02-.29-.48-1-.65-2.13-.47-3.23,.42-2.69,2.82-4.73,5.6-4.74,3.64-.02,6.36,3.2,5.66,6.69-.53,2.65-3,4.58-5.76,4.5-1.17-.03-2.25-.41-3.13-1.01-.08-.06-.19-.08-.29-.07l-.61,.09"/>
  <path class="cls-4" d="M40.77,22.85l-1.54-1.06s-.08-.06-.1-.09c-.02-.03-.03-.07-.03-.11v-.11s0-.08,.03-.11c.02-.03,.05-.06,.1-.1l1.54-1.05s.06-.04,.09-.04,.05,0,.07,.03,.03,.04,.03,.07v.35s0,.07-.03,.09-.05,.05-.09,.08l-1.1,.74,1.1,.74s.07,.05,.09,.08,.03,.05,.03,.09v.36s0,.05-.03,.07-.04,.03-.06,.03c-.03,0-.07-.01-.09-.04Zm.62,.64s-.03-.04-.03-.07c0-.02,0-.03,0-.05l1.55-3.72s.03-.05,.05-.07c.03-.02,.06-.03,.09-.03h.3s.05,0,.07,.03c.02,.02,.03,.04,.03,.07,0,.02,0,.03,0,.05l-1.56,3.72s-.03,.05-.05,.07c-.02,.02-.05,.03-.09,.03h-.3s-.05,0-.06-.03h0Zm2.5-.63s-.03-.04-.03-.07v-.36s0-.07,.03-.09,.05-.05,.09-.08l1.1-.74-1.1-.74s-.07-.05-.09-.08-.03-.05-.03-.09v-.35s0-.05,.03-.07,.04-.03,.06-.03c.03,0,.06,.01,.09,.04l1.55,1.05s.08,.07,.1,.1c.02,.03,.03,.07,.03,.11v.11s-.01,.08-.03,.11-.05,.06-.1,.09l-1.55,1.06s-.06,.04-.09,.04c-.02,0-.05,0-.06-.03h0Z"/>
  <path class="cls-2" d="M17.32,.69V9.25c0,.21-.17,.39-.39,.39H8.38c-.21,0-.39-.17-.39-.39V.69c0-.21,.17-.39,.39-.39h8.55c.21,0,.39,.17,.39,.39Z"/>
  <path class="cls-3" d="M14.66,5.55h0s0,.02,0,.03c0,.36-.35,.66-.79,.66s-.79-.29-.79-.66,.35-.66,.79-.66c.09,0,.18,.01,.26,.04v-1.52l-2,.5v2.46c0,.36-.35,.66-.79,.66s-.79-.29-.79-.66,.35-.66,.79-.66c.09,0,.18,.01,.26,.04V3.39c0-.07,.04-.12,.11-.14l2.77-.7c.09-.02,.18,.05,.18,.14v2.87h0Z"/>
  <path class="cls-2" d="M36.81,49.69h12.03c.52,0,.95-.42,.95-.95v-11.3h-13.92v11.3c0,.52,.42,.95,.95,.95h0Zm-.08-14.41h12.19c.48,0,.87,.39,.87,.87v1.28h-13.92v-1.28c0-.48,.39-.87,.87-.87Z"/>
  <path class="cls-6" d="M39.37,39.71h-1.96c-.11,0-.19-.09-.19-.19s.09-.19,.19-.19h1.97c.11,0,.19,.09,.19,.19s-.09,.19-.19,.19h0Z"/>
  <path class="cls-5" d="M39.89,41.9h-2.64c-.11,0-.19-.09-.19-.19s.09-.19,.19-.19h2.64c.11,0,.19,.09,.19,.19s-.09,.19-.19,.19Z"/>
  <path class="cls-6" d="M47.19,44.09h-7.3c-.11,0-.19-.09-.19-.19s.09-.19,.19-.19h7.3c.11,0,.19,.09,.19,.19s-.09,.19-.19,.19h0Z"/>
  <path class="cls-1" d="M18.69,13.54h2.68v2.68h-2.68v-2.68Zm5.64,0h2.68v2.68h-2.68v-2.68Zm5.64,0h2.68v2.68h-2.68v-2.68Zm-11.29,3.86h2.68v2.68h-2.68v-2.68Zm5.64,0h2.68v2.68h-2.68v-2.68Zm5.64,0h2.68v2.68h-2.68v-2.68Z"/>
  <g>
    <path class="cls-7" d="M5.14,25.83c.08,.08,.2,.08,.27,0,.08-.08,.08-.2,0-.27h0L.48,20.63c-.1-.1-.1-.26,0-.36,0,0,0,0,0,0l2.57-2.57c.1-.1,.27-.1,.37,0l1.04,1.04-1.47,1.47c-.08,.07-.08,.19,0,.27,.07,.08,.19,.08,.27,0,0,0,0,0,0,0l1.47-1.47,1.15,1.15-.67,.67c-.08,.07-.08,.2,0,.27,.07,.08,.2,.08,.27,0,0,0,0,0,0,0l.67-.67,1.15,1.15-1.47,1.47c-.08,.07-.08,.19,0,.27,.07,.08,.19,.08,.27,0,0,0,0,0,0,0l1.47-1.47,1.15,1.15-.67,.67c-.08,.07-.08,.2,0,.27,.07,.08,.2,.08,.27,0,0,0,0,0,0,0l.67-.67,1.15,1.15-1.47,1.47c-.08,.07-.08,.2,0,.27,.07,.08,.2,.08,.27,0,0,0,0,0,0,0l1.47-1.47,1.15,1.15-.67,.67c-.08,.07-.08,.2,0,.27,.07,.08,.2,.08,.27,0,0,0,0,0,0,0l.67-.67,.27,.27c.07,.08,.2,.08,.27,0s.08-.2,0-.27c0,0,0,0,0,0L3.7,17.42c-.25-.25-.66-.25-.92,0L.21,19.99c-.25,.25-.26,.66,0,.91,0,0,0,0,0,0,3.65,3.65,4.91,4.9,4.93,4.93Zm14.42-13.43h1.15c.11,0,.19-.09,.19-.19s-.09-.19-.19-.19h-1.15c-.11,0-.19,.09-.19,.19s.09,.19,.19,.19Zm.07,8.9c0,.11,.08,.19,.19,.19h1.15c.11,0,.19-.08,.19-.19s-.09-.19-.19-.19h-1.15c-.11,0-.19,.09-.19,.19Zm2.24-8.9h1.15c.11,0,.19-.09,.19-.19s-.09-.19-.19-.19h-1.15c-.11,0-.19,.09-.19,.19s.08,.19,.19,.19Zm-4.61,0h1.15c.11,0,.19-.09,.19-.19s-.08-.19-.19-.19h-1.15c-.11,0-.19,.09-.19,.19s.09,.19,.19,.19Zm-.66,1.8c.11,0,.19-.08,.19-.19v-1.15c0-.11-.09-.19-.19-.19s-.19,.09-.19,.19v1.15c0,.11,.08,.19,.19,.19Zm5.34,7.1c0,.11,.09,.19,.19,.19h1.15c.11,0,.19-.08,.19-.19s-.09-.19-.19-.19h-1.15c-.11,0-.19,.09-.19,.19Zm-4.61,0c0,.11,.09,.19,.19,.19h1.15c.11,0,.19-.08,.19-.19s-.09-.19-.19-.19h-1.15c-.11,0-.19,.09-.19,.19Zm6.91,0c0,.11,.09,.19,.19,.19h1.15c.11,0,.19-.08,.19-.19s-.08-.19-.19-.19h-1.15c-.11,0-.19,.09-.19,.19Zm6.85-8.9h1.15c.11,0,.19-.09,.19-.19s-.09-.19-.19-.19h-1.15c-.11,0-.19,.09-.19,.19s.08,.19,.19,.19Zm.07,8.9c0,.11,.09,.19,.19,.19h1.15c.11,0,.19-.08,.19-.19s-.09-.19-.19-.19h-1.15c-.11,0-.19,.09-.19,.19Zm-6.98-8.9h1.15c.11,0,.19-.09,.19-.19s-.09-.19-.19-.19h-1.15c-.11,0-.19,.09-.19,.19s.09,.19,.19,.19Zm9.21,0h1.15c.11,0,.19-.09,.19-.19s-.09-.19-.19-.19h-1.15c-.11,0-.19,.09-.19,.19s.09,.19,.19,.19Zm-4.54,8.9c0,.11,.08,.19,.19,.19h1.15c.11,0,.19-.08,.19-.19s-.09-.19-.19-.19h-1.15c-.11,0-.19,.09-.19,.19Zm-12.25-4.8c.11,0,.19-.09,.19-.19v-1.15c0-.11-.09-.19-.19-.19s-.19,.08-.19,.19v1.15c0,.11,.08,.19,.19,.19Zm12.18-4.1h1.15c.11,0,.19-.09,.19-.19s-.09-.19-.19-.19h-1.15c-.11,0-.19,.09-.19,.19s.09,.19,.19,.19Zm6.02,8.71h-1.15c-.11,0-.19,.09-.19,.19s.09,.19,.19,.19h1.15c.11,0,.19-.08,.19-.19s-.08-.19-.19-.19Zm.67-1.79c-.11,0-.19,.09-.19,.19v1.15c0,.11,.09,.19,.19,.19s.19-.09,.19-.19v-1.15c0-.11-.09-.19-.19-.19Zm-7.64-7.11c0-.11-.08-.19-.19-.19h-1.15c-.11,0-.19,.09-.19,.19s.09,.19,.19,.19h1.15c.11,0,.19-.09,.19-.19Zm.26,9.09c0-.11-.09-.19-.19-.19h-1.15c-.11,0-.19,.09-.19,.19s.08,.19,.19,.19h1.15c.11,0,.19-.08,.19-.19Zm7.38-4.29c-.11,0-.19,.08-.19,.19v1.15c0,.11,.09,.19,.19,.19s.19-.09,.19-.19v-1.15c0-.11-.09-.19-.19-.19Zm0-2.31c-.11,0-.19,.09-.19,.19v1.15c0,.11,.09,.19,.19,.19s.19-.08,.19-.19v-1.15c0-.11-.09-.19-.19-.19Zm-18.87,6.4c.11,0,.19-.08,.19-.19v-1.15c0-.11-.09-.19-.19-.19s-.19,.09-.19,.19v1.17c0,.1,.09,.18,.19,.18Zm18.87-8.71c-.11,0-.19,.09-.19,.19v1.15c0,.11,.09,.19,.19,.19s.19-.08,.19-.19v-1.16c0-.11-.09-.19-.19-.19Zm-18.87,6.4c.11,0,.19-.09,.19-.19v-1.15c0-.11-.09-.19-.19-.19s-.19,.09-.19,.19v1.15c0,.11,.08,.19,.19,.19Zm17.17,12.31h-4.94c-.11,0-.19,.09-.19,.19s.09,.19,.19,.19h4.94c.11,0,.19-.09,.19-.19s-.09-.19-.19-.19Zm0,1.09h-4.94c-.11,0-.19,.09-.19,.19s.09,.19,.19,.19h4.94c.11,0,.19-.08,.19-.19s-.09-.19-.19-.19Zm0,1.09h-4.94c-.11,0-.19,.08-.19,.19s.09,.19,.19,.19h4.94c.11,0,.19-.09,.19-.19s-.09-.19-.19-.19Zm0,1.09h-4.94c-.11,0-.19,.09-.19,.19s.09,.19,.19,.19h4.94c.11,0,.19-.09,.19-.19s-.09-.19-.19-.19Zm-9.95-3.28h-4.94c-.11,0-.19,.09-.19,.19s.08,.19,.19,.19h4.94c.11,0,.19-.09,.19-.19s-.08-.19-.19-.19Zm0,1.09h-4.94c-.11,0-.19,.08-.19,.19h0c0,.11,.08,.2,.19,.2h4.94c.11,0,.19-.08,.19-.19s-.08-.19-.19-.19Zm0,1.09h-4.94c-.11,0-.19,.08-.19,.19,0,.03,0,.06,.02,.08,.03,.07,.09,.12,.18,.12h4.94c.11,0,.19-.09,.19-.19s-.08-.19-.19-.19Zm0,1.09h-4.94c-.11,0-.19,.09-.19,.19s.08,.19,.19,.19h4.94c.11,0,.19-.09,.19-.19s-.08-.19-.19-.19Zm-3.23-7.32l-1.37,1.89c-.05,.07,0,.17,.09,.17h5.06c.09,0,.14-.1,.09-.17l-1.8-2.49c-.04-.06-.13-.06-.17,0l-.99,1.37c-.04,.06-.13,.06-.17,0l-.55-.77s-.1-.06-.15-.03c0,0-.02,.02-.03,.03h0Zm-2.37-.37c0,.33,.27,.59,.59,.59s.59-.26,.59-.59c0-.33-.28-.59-.61-.58-.32,0-.57,.26-.58,.58Zm7.36,10.99h-8.99c-.11,0-.19,.09-.19,.19v6.5c0,.11,.09,.19,.19,.19h8.99c.11,0,.19-.08,.19-.19v-6.5c0-.11-.09-.19-.19-.19Zm-.19,6.5h-8.6v-6.12h8.6v6.12Zm8.71-5.34h-6.86c-.11,0-.19,.09-.19,.19s.09,.19,.19,.19h6.86c.11,0,.19-.09,.19-.19s-.09-.19-.19-.19Zm0,1.39h-6.86c-.11,0-.19,.08-.19,.19s.09,.19,.19,.19h6.86c.11,0,.19-.09,.19-.19s-.09-.19-.19-.19Zm0,1.39h-6.86c-.11,0-.19,.08-.19,.19s.09,.19,.19,.19h6.86c.11,0,.19-.09,.19-.19s-.09-.19-.19-.19Zm-4.47,1.39h-2.39c-.11,0-.19,.09-.19,.19s.09,.19,.19,.19h2.39c.11,0,.19-.08,.19-.19s-.09-.19-.19-.19Zm10.22-16.45c.72,.32,1.49,.49,2.29,.52,2.89,.08,5.42-1.95,5.96-4.65,.72-3.59-2.05-6.92-5.81-6.92h-.03c-.68,0-1.36,.13-2,.36-.1,.04-.15,.15-.12,.25s.15,.15,.25,.12c0,0,0,0,0,0,.6-.22,1.23-.33,1.87-.34,3.54-.01,6.14,3.11,5.47,6.46-.51,2.55-2.91,4.43-5.57,4.34-.75-.02-1.47-.18-2.14-.48-.1-.04-.21,0-.25,.1s0,.21,.1,.25h0Z"/>
    <path class="cls-7" d="M48.92,35.09h-11.33v-8.89s1.24-.19,1.17-.18h0v8.21c0,.11,.09,.19,.19,.19s.19-.09,.19-.19v-8.36c0-.17-.22-.24-.39-.23-.04,0-1.19,.17-1.17,.17l-.62,.09c-.14,.02-.27-.11-.22-.25l.45-1.27,.12-.33c.05-.14,.04-.3-.03-.44-.03-.06-.06-.13-.09-.19h0c-.39-.93-.52-1.93-.36-2.92,.21-1.35,.97-2.64,2.23-3.55,.05-.04,.08-.1,.08-.16V7.67c0-.88-.72-1.6-1.6-1.6H18.39c-.11,0-.19,.08-.19,.19s.09,.19,.19,.19h19.15c.67,0,1.22,.54,1.22,1.22h0v9.03c-.45,.33-.84,.71-1.17,1.14V9.54c0-.6-.49-1.09-1.09-1.09H17.51V.69c0-.32-.26-.58-.58-.58H8.38c-.32,0-.58,.26-.58,.58V9.25c0,.32,.26,.58,.58,.58h3.59c.11,0,.19-.09,.19-.19s-.08-.19-.19-.19h-3.59c-.11,0-.19-.09-.19-.19V.69c0-.11,.09-.19,.19-.19h8.55c.11,0,.19,.08,.19,.19V9.25c0,.11-.09,.19-.19,.19h-3.64s-.39-.03-.39,.22V27.41l-1.35,1.35c-.08,.08-.08,.2,0,.27,.08,.08,.2,.07,.27,0l1.08-1.08v5.1l-6.51-6.51c-.08-.08-.2-.08-.27,0-.08,.07-.08,.2,0,.27,0,0,0,0,0,0l6.78,6.78v2.32l-7.28-7.28s0,0-.09-.05L.46,26.56c-.16-.06-.31,.1-.25,.25l2.02,5.08s.01,.05,.05,.08l10.64,10.64v5.67c0,.88,.72,1.6,1.6,1.6h20.4c.11,0,.19-.09,.19-.19s-.09-.19-.19-.19H14.51c-.67,0-1.22-.55-1.22-1.22V9.83h1.17V46.41c0,.6,.49,1.09,1.09,1.09h20.12v1.24c0,.63,.51,1.14,1.14,1.14h12.03c.63,0,1.14-.51,1.14-1.14v-12.59c0-.58-.48-1.06-1.06-1.06ZM1.26,28.43l.81-.81h0l3.06,1.22-2.66,2.66-1.22-3.07h0Zm11.65,13.64L2.68,31.84l2.8-2.8,7.42,7.42v5.61h0Zm36.01-6.59c.37,0,.68,.3,.68,.68v1.09h-13.54v-1.09c0-.37,.3-.68,.68-.68h12.19ZM15.55,47.11c-.39,0-.7-.31-.7-.7V9.83h2.08c.32,0,.58-.26,.58-.58v-.41h18.98c.39,0,.7,.31,.7,.7v8.87c-.38,.62-.63,1.32-.74,2.04-.18,1.15,0,2.3,.49,3.34,.02,.05,.03,.1,0,.14l-.57,1.6c-.13,.37,.15,.77,.55,.77,.09,0,.13-.01,.27-.03v8.83h-.47c-.59,0-1.06,.48-1.06,1.06v10.96H15.55Zm34.04,1.63c0,.42-.34,.76-.75,.76h-12.03c-.42,0-.76-.34-.76-.76v-11.11h13.54v11.11h0Z"/>
    <path class="cls-7" d="M48.39,36.72c.2,0,.36-.16,.36-.36s-.16-.36-.36-.36-.36,.16-.36,.36,.16,.36,.36,.36Zm-1.24,0c.2,0,.36-.16,.36-.36s-.16-.36-.36-.36-.36,.16-.36,.36,.16,.36,.36,.36Zm-1.24,0c.2,0,.36-.16,.36-.36s-.16-.36-.36-.36-.36,.16-.36,.36,.16,.36,.36,.36Zm-5.76,4.08h5.43c.11,0,.19-.09,.19-.19s-.09-.19-.19-.19h-5.43c-.11,0-.19,.09-.19,.19s.08,.19,.19,.19Zm5.62,2c0-.11-.09-.19-.19-.19-8.9,0-8.34,0-8.37,0-.08,.02-.14,.1-.14,.19s.06,.16,.14,.19c.03,.01-.59,0,8.37,0,.11,0,.19-.09,.19-.19Zm-6.06,2.19c0,.11,.09,.19,.19,.19h9.13c.11,0,.19-.09,.19-.19s-.09-.19-.19-.19h-9.13c-.11,0-.19,.08-.19,.19Zm8.39,.9h-8.2c-.11,0-.19,.09-.19,.19s.09,.19,.19,.19h8.2c.11,0,.19-.09,.19-.19s-.09-.19-.19-.19Zm-.9,1.09h-7.3c-.11,0-.19,.09-.19,.19s.09,.19,.19,.19h7.3c.11,0,.19-.08,.19-.19s-.09-.19-.19-.19Zm.82-42.96c.13,0,.24-.11,.24-.24v-1.04c0-.13-.11-.24-.24-.24s-.24,.11-.24,.24v1.04c0,.13,.11,.24,.24,.24h0Zm0,3.42c.13,0,.24-.11,.24-.24v-2.02c0-.13-.11-.24-.24-.24s-.24,.11-.24,.24v2.02c0,.13,.11,.24,.24,.24h0ZM1.71,3.85c.13,0,.24-.11,.24-.24h0v-1.04c0-.13-.11-.24-.24-.24s-.24,.11-.24,.24v1.04c0,.13,.11,.24,.24,.24h0Zm0,3.42c.13,0,.24-.11,.24-.24v-2.02c0-.13-.11-.24-.24-.24s-.24,.11-.24,.24v2.02c0,.13,.11,.24,.24,.24Zm5.4,5.32c.13,0,.24-.11,.24-.24h0v-1.04c0-.13-.11-.24-.24-.24s-.24,.11-.24,.24v1.04c0,.13,.11,.24,.24,.24h0Zm0,3.42c.13,0,.24-.11,.24-.24h0v-2.02c0-.13-.11-.24-.24-.24s-.24,.11-.24,.24v2.02c0,.13,.11,.24,.24,.24ZM2.24,35.63c-.13,0-.24,.11-.24,.24v1.04c0,.13,.11,.24,.24,.24,.13,0,.24-.11,.24-.24h0v-1.04c0-.13-.11-.24-.24-.24Zm0,2.44c-.13,0-.24,.11-.24,.24v2.02c0,.13,.11,.24,.24,.24,.13,0,.24-.11,.24-.24h0v-2.02c0-.13-.11-.24-.24-.24h0Zm3.93,4.13c-.13,0-.24,.11-.24,.24v1.04c0,.13,.11,.24,.24,.24s.24-.11,.24-.24v-1.04c0-.13-.11-.24-.24-.24Zm0,2.44c-.13,0-.24,.11-.24,.24v2.02c0,.13,.11,.24,.24,.24s.24-.11,.24-.24v-2.02c0-.13-.11-.24-.24-.24h0ZM43.45,8.69c.13,0,.24-.11,.24-.24v-1.04c0-.13-.11-.24-.24-.24s-.24,.11-.24,.24v1.04c0,.13,.11,.24,.24,.24h0Zm0,3.42c.13,0,.24-.11,.24-.24v-2.02c0-.13-.11-.24-.24-.24s-.24,.11-.24,.24h0v2.02c0,.13,.11,.24,.24,.24h0ZM11.07,19.24c.13,0,.24-.11,.24-.24h0v-1.04c0-.13-.11-.24-.24-.24s-.24,.11-.24,.24h0v1.04c0,.13,.11,.24,.24,.24Zm-.24,3.17c0,.13,.11,.24,.24,.24s.24-.11,.24-.24v-2.02c0-.13-.11-.24-.24-.24s-.24,.11-.24,.24v2.02h0Zm37.02,5.39v1.04c0,.13,.11,.24,.24,.24s.24-.11,.24-.24v-1.04c0-.13-.11-.24-.24-.24s-.24,.11-.24,.24Zm.24,2.19c-.13,0-.24,.11-.24,.24v2.02c0,.13,.11,.24,.24,.24s.24-.11,.24-.24v-2.02c0-.13-.11-.24-.24-.24h0ZM29.98,5.01c.13,0,.24-.11,.24-.24V2.75c0-.13-.11-.24-.24-.24s-.24,.11-.24,.24h0v2.02c0,.13,.11,.24,.24,.24h0Z"/>
  </g>
</svg>