<?xml version="1.0" encoding="UTF-8"?>
<svg id="Layer_1" data-name="Layer 1" xmlns="http://www.w3.org/2000/svg" viewBox="0 0 164.98 112.89">
  <defs>
    <style>
      .cls-1 {
        fill: #deeffd;
      }

      .cls-2 {
        fill: #262f3e;
      }

      .cls-3 {
        fill: #f8991d;
        fill-rule: evenodd;
      }
    </style>
  </defs>
  <rect class="cls-1" width="164.98" height="112.89"/>
  <g>
    <path class="cls-2" d="M58.69,47.51c0,1.34,.14,2.43,.4,3.23,.29,.8,.65,1.67,1.16,2.61,.18,.29,.25,.58,.25,.84,0,.37-.22,.73-.69,1.09l-2.29,1.53c-.33,.22-.65,.33-.94,.33-.37,0-.73-.18-1.09-.51-.51-.55-.94-1.12-1.31-1.7-.37-.61-.73-1.31-1.12-2.14-2.83,3.33-6.39,5-10.66,5-3.04,0-5.47-.87-7.25-2.61s-2.68-4.06-2.68-6.96c0-3.08,1.09-5.58,3.3-7.47,2.2-1.88,5.15-2.83,8.88-2.83,1.23,0,2.51,.11,3.84,.29,1.34,.18,2.72,.47,4.17,.8v-2.65c0-2.76-.58-4.68-1.7-5.8-1.16-1.12-3.12-1.67-5.91-1.67-1.27,0-2.57,.14-3.92,.47-1.34,.33-2.65,.73-3.92,1.23-.58,.25-1.02,.4-1.27,.47-.23,.04-.41,.08-.56,.08-.51,0-.76-.37-.76-1.12v-1.78c0-.58,.08-1.02,.25-1.27,.18-.25,.51-.51,1.02-.76,1.27-.65,2.8-1.2,4.57-1.63,1.78-.47,3.66-.69,5.66-.69,4.31,0,7.47,.98,9.5,2.94,2,1.96,3.01,4.94,3.01,8.92v11.75h.07Zm-14.72,5.51c1.2,0,2.43-.22,3.74-.65,1.31-.43,2.47-1.23,3.45-2.32,.58-.69,1.02-1.45,1.23-2.32,.22-.87,.37-1.92,.37-3.16v-1.53c-1.05-.25-2.18-.47-3.33-.61s-2.29-.22-3.41-.22c-2.43,0-4.21,.47-5.41,1.45-1.2,.98-1.78,2.35-1.78,4.17,0,1.7,.43,2.98,1.34,3.84,.87,.89,2.13,1.33,3.8,1.33Zm29.12,3.92c-.65,0-1.09-.11-1.38-.37-.29-.22-.55-.73-.76-1.41l-8.52-28.03c-.22-.73-.33-1.2-.33-1.45,0-.58,.29-.9,.87-.9h3.55c.69,0,1.16,.11,1.41,.37,.29,.22,.51,.73,.73,1.41l6.09,24.01,5.66-24.01c.18-.73,.4-1.2,.69-1.41s.8-.37,1.45-.37h2.9c.69,0,1.16,.11,1.45,.37,.29,.22,.55,.73,.69,1.41l5.73,24.3,6.27-24.3c.22-.73,.47-1.2,.73-1.41,.29-.22,.76-.37,1.41-.37h3.37c.58,0,.9,.29,.9,.9,0,.18-.04,.37-.08,.58s-.11,.51-.25,.9l-8.74,28.04c-.22,.73-.47,1.2-.76,1.41s-.76,.37-1.38,.37h-3.12c-.69,0-1.16-.11-1.45-.37s-.55-.73-.69-1.45l-5.6-23.39-5.58,23.36c-.18,.73-.4,1.2-.69,1.45s-.8,.37-1.45,.37h-3.12Zm46.6,.97c-1.88,0-3.77-.22-5.58-.65s-3.23-.9-4.17-1.45c-.58-.33-.98-.69-1.12-1.02-.14-.33-.22-.69-.22-1.02v-1.85c0-.76,.29-1.12,.84-1.12,.22,0,.43,.04,.65,.11s.55,.22,.9,.37c1.23,.55,2.57,.98,3.99,1.27,1.45,.29,2.86,.43,4.31,.43,2.29,0,4.06-.4,5.29-1.2,1.23-.8,1.88-1.96,1.88-3.45,0-1.02-.33-1.85-.98-2.54-.65-.69-1.88-1.31-3.66-1.88l-5.26-1.63c-2.65-.84-4.61-2.07-5.8-3.7-1.2-1.59-1.82-3.37-1.82-5.26,0-1.53,.33-2.86,.98-4.02s1.53-2.18,2.61-2.98c1.09-.84,2.32-1.45,3.77-1.88s2.98-.61,4.57-.61c.8,0,1.63,.04,2.43,.14,.84,.11,1.59,.25,2.35,.4,.73,.18,1.41,.37,2.07,.58,.65,.22,1.16,.43,1.53,.65,.51,.29,.87,.58,1.09,.9,.22,.29,.33,.69,.33,1.2v1.7c0,.76-.29,1.16-.84,1.16-.29,0-.76-.14-1.38-.43-2.07-.94-4.39-1.41-6.96-1.41-2.07,0-3.7,.33-4.82,1.02-1.12,.69-1.7,1.74-1.7,3.23,0,1.02,.37,1.88,1.09,2.57,.73,.69,2.07,1.38,3.99,2l5.15,1.63c2.61,.84,4.5,2,5.62,3.48s1.67,3.19,1.67,5.08c0,1.56-.33,2.98-.94,4.21-.65,1.23-1.53,2.32-2.65,3.19-1.12,.9-2.47,1.56-4.02,2.03-1.65,.48-3.35,.73-5.21,.73Z"/>
    <g>
      <path class="cls-3" d="M126.55,75.55c-11.93,8.82-29.27,13.5-44.17,13.5-20.89,0-39.72-7.72-53.93-20.56-1.12-1.02-.11-2.39,1.23-1.59,15.38,8.92,34.35,14.32,53.97,14.32,13.24,0,27.78-2.76,41.17-8.41,1.99-.92,3.69,1.29,1.73,2.74Z"/>
      <path class="cls-3" d="M131.52,69.89c-1.53-1.96-10.09-.94-13.97-.47-1.16,.14-1.34-.87-.29-1.63,6.82-4.78,18.03-3.41,19.34-1.82,1.31,1.63-.37,12.84-6.74,18.21-.98,.84-1.92,.4-1.49-.69,1.45-3.59,4.68-11.68,3.16-13.6Z"/>
    </g>
  </g>
</svg>