<?xml version="1.0" encoding="UTF-8"?>
<svg id="Layer_1" data-name="Layer 1" xmlns="http://www.w3.org/2000/svg" viewBox="0 0 50 50">
  <defs>
    <style>
      .cls-1 {
        fill: #fff;
      }

      .cls-2 {
        fill: #5ad8fa;
      }

      .cls-3 {
        fill: #ffa4a4;
      }

      .cls-4 {
        fill: #234387;
      }
    </style>
  </defs>
  <path class="cls-4" d="M38.84,38.55c-.28,0-.5-.22-.5-.5V11.16c0-.28,.22-.5,.5-.5s.5,.22,.5,.5v26.9c0,.28-.22,.5-.5,.5Z"/>
  <path class="cls-4" d="M38.84,11.66H11.16c-.28,0-.5-.22-.5-.5s.22-.5,.5-.5h27.69c.28,0,.5,.22,.5,.5s-.22,.5-.5,.5Z"/>
  <path class="cls-4" d="M11.16,39.34c-.28,0-.5-.22-.5-.5V11.16c0-.28,.22-.5,.5-.5s.5,.22,.5,.5v27.69c0,.28-.22,.5-.5,.5Z"/>
  <path class="cls-4" d="M38.84,39.34H11.16c-.28,0-.5-.22-.5-.5s.22-.5,.5-.5h27.69c.28,0,.5,.22,.5,.5s-.22,.5-.5,.5Z"/>
  <path class="cls-2" d="M23.86,32.97c-1.22,0-2.36-.47-3.22-1.33l-2.37-2.37c-1.78-1.78-1.78-4.67,0-6.44l4.33-4.33c.86-.86,2-1.33,3.22-1.33s2.36,.47,3.22,1.33l2.37,2.37c.86,.86,1.33,2,1.33,3.22s-.47,2.36-1.33,3.22l-4.33,4.33c-.86,.86-2,1.33-3.22,1.33Z"/>
  <path class="cls-4" d="M23.86,33.47c-1.35,0-2.62-.53-3.57-1.48l-2.37-2.37c-1.97-1.97-1.97-5.18,0-7.15l4.33-4.33c.95-.95,2.22-1.48,3.57-1.48s2.62,.53,3.57,1.48l2.37,2.37c.95,.95,1.48,2.22,1.48,3.57s-.53,2.62-1.48,3.57l-4.33,4.33c-.95,.95-2.22,1.48-3.57,1.48Zm1.96-15.81c-1.08,0-2.1,.42-2.87,1.19l-4.33,4.33c-1.58,1.58-1.58,4.15,0,5.74l2.37,2.37c.77,.77,1.78,1.19,2.87,1.19s2.1-.42,2.87-1.19l4.33-4.33c.77-.77,1.19-1.78,1.19-2.87s-.42-2.1-1.19-2.87l-2.37-2.37c-.77-.77-1.78-1.19-2.87-1.19Z"/>
  <path class="cls-1" d="M22.76,29.51l-2.37-2.37c-.61-.61-.61-1.59,0-2.2l4.33-4.33c.61-.61,1.59-.61,2.2,0l2.37,2.37c.61,.61,.61,1.59,0,2.2l-4.33,4.33c-.61,.61-1.59,.61-2.2,0Z"/>
  <path class="cls-4" d="M23.86,30.47c-.55,0-1.06-.21-1.45-.6h0l-2.37-2.37c-.39-.39-.6-.9-.6-1.45s.21-1.06,.6-1.45l4.33-4.33c.39-.39,.9-.6,1.45-.6s1.06,.21,1.45,.6l2.37,2.37c.39,.39,.6,.9,.6,1.45s-.21,1.06-.6,1.45l-4.33,4.33c-.39,.39-.9,.6-1.45,.6Zm1.96-9.81c-.28,0-.55,.11-.75,.31l-4.33,4.33c-.2,.2-.31,.46-.31,.75s.11,.55,.31,.75l2.37,2.37h0c.2,.2,.46,.31,.75,.31s.55-.11,.75-.31l4.33-4.33c.2-.2,.31-.46,.31-.75s-.11-.55-.31-.75l-2.37-2.37c-.2-.2-.46-.31-.75-.31Z"/>
  <path class="cls-2" d="M32.75,14.42l-7.18,7.18c-.76,.76-.76,1.99,0,2.74,.76,.76,1.99,.76,2.74,0l7.18-7.18-2.74-2.74Z"/>
  <path class="cls-4" d="M26.94,25.41c-.62,0-1.25-.24-1.72-.71-.46-.46-.71-1.07-.71-1.72s.25-1.26,.71-1.72l7.18-7.18c.19-.19,.51-.19,.71,0,.19,.19,.19,.51,0,.71l-7.18,7.18c-.27,.27-.42,.63-.42,1.02s.15,.75,.42,1.02c.28,.28,.65,.42,1.02,.42,.37,0,.74-.14,1.02-.42l7.18-7.18c.19-.19,.51-.19,.71,0,.19,.19,.19,.51,0,.71l-7.18,7.18c-.48,.48-1.1,.71-1.72,.71Z"/>
  <path class="cls-2" d="M17.27,35.38l6.83-6.83c.76-.76,.76-1.99,0-2.74-.76-.76-1.99-.76-2.74,0l-6.83,6.83,2.74,2.74Z"/>
  <path class="cls-4" d="M17.27,35.88c-.13,0-.26-.05-.35-.15-.19-.19-.19-.51,0-.71l6.83-6.83c.27-.27,.42-.63,.42-1.02s-.15-.75-.42-1.02c-.27-.27-.63-.42-1.02-.42s-.75,.15-1.02,.42l-6.83,6.83c-.19,.19-.51,.19-.71,0s-.19-.51,0-.71l6.83-6.83c.46-.46,1.07-.71,1.72-.71s1.26,.25,1.72,.71c.46,.46,.71,1.07,.71,1.72s-.25,1.26-.71,1.73l-6.83,6.83c-.1,.1-.22,.15-.35,.15Z"/>
  <path class="cls-1" d="M44.03,3.14h-10.38c-1.56,0-2.83,1.27-2.83,2.83v10.38c0,1.56,1.27,2.83,2.83,2.83h10.38c1.56,0,2.83-1.27,2.83-2.83V5.97c0-1.56-1.27-2.83-2.83-2.83Z"/>
  <path class="cls-4" d="M44.03,19.67h-10.38c-1.84,0-3.33-1.49-3.33-3.33V5.97c0-1.84,1.49-3.33,3.33-3.33h10.38c1.84,0,3.33,1.49,3.33,3.33v10.38c0,1.84-1.49,3.33-3.33,3.33ZM33.65,3.64c-1.29,0-2.33,1.05-2.33,2.33v10.38c0,1.29,1.05,2.33,2.33,2.33h10.38c1.29,0,2.33-1.05,2.33-2.33V5.97c0-1.29-1.05-2.33-2.33-2.33h-10.38Z"/>
  <g>
    <path class="cls-3" d="M44.03,30.82h-10.38c-1.56,0-2.83,1.27-2.83,2.83v10.38c0,1.56,1.27,2.83,2.83,2.83h10.38c1.56,0,2.83-1.27,2.83-2.83v-10.38c0-1.56-1.27-2.83-2.83-2.83Z"/>
    <path class="cls-4" d="M44.03,47.36h-10.38c-1.84,0-3.33-1.49-3.33-3.33v-10.38c0-1.84,1.49-3.33,3.33-3.33h10.38c1.84,0,3.33,1.49,3.33,3.33v10.38c0,1.84-1.49,3.33-3.33,3.33Zm-10.38-16.04c-1.29,0-2.33,1.05-2.33,2.33v10.38c0,1.29,1.05,2.33,2.33,2.33h10.38c1.29,0,2.33-1.05,2.33-2.33v-10.38c0-1.29-1.05-2.33-2.33-2.33h-10.38Z"/>
  </g>
  <g>
    <path class="cls-3" d="M16.35,3.14H5.97c-1.56,0-2.83,1.27-2.83,2.83v10.38c0,1.56,1.27,2.83,2.83,2.83h10.38c1.56,0,2.83-1.27,2.83-2.83V5.97c0-1.56-1.27-2.83-2.83-2.83Z"/>
    <path class="cls-4" d="M16.35,19.67H5.97c-1.84,0-3.33-1.49-3.33-3.33V5.97c0-1.84,1.49-3.33,3.33-3.33h10.38c1.84,0,3.33,1.49,3.33,3.33v10.38c0,1.84-1.49,3.33-3.33,3.33ZM5.97,3.64c-1.29,0-2.33,1.05-2.33,2.33v10.38c0,1.29,1.05,2.33,2.33,2.33h10.38c1.29,0,2.33-1.05,2.33-2.33V5.97c0-1.29-1.05-2.33-2.33-2.33H5.97Z"/>
  </g>
  <g>
    <path class="cls-1" d="M16.35,30.82H5.97c-1.56,0-2.83,1.27-2.83,2.83v10.38c0,1.56,1.27,2.83,2.83,2.83h10.38c1.56,0,2.83-1.27,2.83-2.83v-10.38c0-1.56-1.27-2.83-2.83-2.83Z"/>
    <path class="cls-4" d="M16.35,47.36H5.97c-1.84,0-3.33-1.49-3.33-3.33v-10.38c0-1.84,1.49-3.33,3.33-3.33h10.38c1.84,0,3.33,1.49,3.33,3.33v10.38c0,1.84-1.49,3.33-3.33,3.33ZM5.97,31.32c-1.29,0-2.33,1.05-2.33,2.33v10.38c0,1.29,1.05,2.33,2.33,2.33h10.38c1.29,0,2.33-1.05,2.33-2.33v-10.38c0-1.29-1.05-2.33-2.33-2.33H5.97Z"/>
  </g>
</svg>