<?xml version="1.0" encoding="UTF-8"?>
<svg id="Layer_1" data-name="Layer 1" xmlns="http://www.w3.org/2000/svg" viewBox="0 0 164.98 112.89">
  <defs>
    <style>
      .cls-1 {
        fill: #deeffd;
      }

      .cls-2 {
        fill: #424143;
      }

      .cls-3 {
        fill: #f05423;
      }
    </style>
  </defs>
  <rect class="cls-1" width="164.98" height="112.89"/>
  <g>
    <path class="cls-2" d="M69.04,74.35h-6.95V38.02h6.95v13.38c1.09-1.31,3.57-2.63,6.2-2.63,7.28,0,11.34,5.97,11.34,13.15s-4.06,13.04-11.34,13.04c-2.63,0-5.15-1.31-6.2-2.63v2.02h0Zm0-8.34c.83,1.8,2.63,2.86,4.66,2.86,3.72,0,5.97-3,5.97-7.07s-2.26-7.07-5.97-7.07c-2.03,0-3.94,1.2-4.66,2.86v8.42Z"/>
    <path class="cls-2" d="M117.09,48.76c5.15,0,8.27,3.57,8.27,9.21v16.38h-6.95v-14.92c0-2.63-1.2-4.43-3.57-4.43-1.8,0-3.46,1.09-3.83,3.23v16.15h-6.95v-14.95c0-2.63-1.09-4.43-3.46-4.43-1.8,0-3.46,1.09-3.94,3.23v16.15h-6.95v-24.98h6.68v2.03c1.2-1.54,3.57-2.63,6.35-2.63,3,0,5.26,1.31,6.68,3.23,1.69-1.8,4.1-3.27,7.67-3.27Z"/>
    <path class="cls-2" d="M140.04,48.76c6.35,0,10.29,3.72,11.01,8.98h-6.8c-.37-1.91-1.91-3.12-4.17-3.12-3.23,0-5.15,2.86-5.15,7.17s1.91,7.07,5.15,7.07c2.26,0,3.72-1.2,4.17-3.12h6.8c-.71,5.37-4.66,8.98-11.01,8.98-7.07,0-12.06-5.37-12.06-13.04,.11-7.67,5-12.93,12.06-12.93Z"/>
    <path class="cls-3" d="M18.59,85.13c-2.26,0-4.66-1.8-4.66-5.26v-8.11c0-3.23,2.03-6.95,4.88-8.49l11.34-6.68-11.34-6.69c-2.74-1.8-4.88-5.37-4.88-8.6v-8.27c0-3.46,2.4-5.26,4.77-5.26,.94,0,2.03,.23,3,.83l25.59,15.18c1.8,1.09,2.74,2.74,2.74,4.43,0,1.8-1.09,3.46-2.74,4.43l-6.08,3.57,6.08,3.57c1.8,1.09,2.86,2.74,2.86,4.43,0,1.8-1.09,3.46-2.86,4.43l-25.58,15.67c-1.09,.57-2.03,.83-3.12,.83Zm17.1-25.36l-13.98,8.27c-1.09,.6-2.14,2.51-2.14,3.72v7.28l24.27-14.35-8.15-4.92Zm-16.12-25.81v7.28c0,1.2,1.09,3.12,2.14,3.72l13.98,8.27,8.27-4.88-24.39-14.39Z"/>
  </g>
</svg>