<?xml version="1.0" encoding="UTF-8"?>
<svg id="Layer_1" data-name="Layer 1" xmlns="http://www.w3.org/2000/svg" viewBox="0 0 50 50">
  <defs>
    <style>
      .cls-1 {
        fill: #2e3133;
      }

      .cls-2 {
        fill: #fff;
      }

      .cls-3 {
        fill: #23282a;
      }

      .cls-4 {
        fill: #1a2024;
      }

      .cls-5 {
        fill: #2d110a;
      }

      .cls-6 {
        fill: #f95632;
      }

      .cls-7 {
        fill: #22272a;
      }

      .cls-8 {
        fill: #4ba9b6;
      }

      .cls-9 {
        fill: #c1ced4;
      }

      .cls-10 {
        fill: #63d1db;
      }

      .cls-11 {
        fill: #92a6b0;
      }

      .cls-12 {
        fill: #bc4528;
      }
    </style>
  </defs>
  <path class="cls-9" d="M26.28,3.44c-8.54,0-15.46,6.92-15.46,15.46,0,4.52,1.95,8.59,5.04,11.42,.15,.13,.29,.25,.44,.38,2.42,2.2,3.94,5.37,3.94,8.9v1h12.08v-1c0-3.53,1.52-6.69,3.94-8.9,.15-.13,.3-.25,.44-.38,3.09-2.83,5.04-6.89,5.04-11.42,0-8.54-6.92-15.46-15.46-15.46Zm0,27.16c-6.46,0-11.7-5.24-11.7-11.7s5.24-11.7,11.7-11.7,11.7,5.24,11.7,11.7c0,6.46-5.24,11.7-11.7,11.7Z"/>
  <path class="cls-1" d="M32.31,47.59h-12.08v-7.53h12.08v7.53Zm-11.03-1.05h9.98v-5.43h-9.98v5.43Z"/>
  <path class="cls-1" d="M18.9,40.07h14.75v1.05h-14.75v-1.05Zm0,2.16h14.75v1.05h-14.75v-1.05Zm0,2.16h14.75v1.05h-14.75v-1.05Zm0,2.16h14.75v1.05h-14.75v-1.05Zm3.78,2.16h7.19v1.05h-7.19v-1.05Z"/>
  <path class="cls-6" d="M32.57,28.56c.27,.11,.56,.17,.85,.17,1.23,0,2.22-.99,2.22-2.22,0-.17-.02-.34-.05-.49,.56-.02,1.09-.26,1.48-.65,.82-.81,.87-2.12,.13-3,.79-.36,1.29-1.15,1.29-2.02,0-.87-.5-1.66-1.29-2.02,.74-.88,.69-2.19-.13-3-.39-.4-.92-.63-1.48-.65,.04-.16,.05-.33,.05-.49,0-1.23-1-2.22-2.22-2.22h0c-.29,0-.58,.06-.85,.17-.2-1.02-1.1-1.8-2.18-1.8-1.23,0-2.23,1-2.23,2.22v15.58c0,1.23,.99,2.22,2.22,2.22,0,0,0,0,0,0,1.08,0,1.98-.77,2.18-1.8Zm-10.41,0c-.27,.11-.56,.17-.85,.17-1.23,0-2.22-.99-2.22-2.22,0-.17,.02-.34,.05-.49-.56-.02-1.09-.26-1.48-.65-.81-.82-.87-2.12-.13-3-.79-.36-1.29-1.15-1.29-2.02,0-.87,.5-1.66,1.29-2.02-.73-.87-.69-2.18,.13-3,.39-.4,.92-.63,1.48-.65-.04-.16-.05-.33-.05-.49,0-1.23,1-2.22,2.22-2.22h0c.3,0,.58,.06,.85,.17,.2-1.04,1.12-1.8,2.18-1.8,1.23,0,2.22,.99,2.22,2.22h0v15.58c0,1.23-.99,2.22-2.22,2.22h0c-1.08,0-1.98-.77-2.18-1.8Z"/>
  <g>
    <path class="cls-1" d="M22.5,29.03c-1.51,0-2.75-1.23-2.75-2.75s1.23-2.75,2.75-2.75v1.05c-.94,0-1.7,.76-1.7,1.7s.76,1.7,1.7,1.7,1.7-.76,1.7-1.7V10.7c0-.94-.76-1.7-1.7-1.7-.94,0-1.7,.76-1.7,1.7s.76,1.7,1.7,1.7v1.05c-1.51,0-2.75-1.23-2.75-2.75s1.23-2.75,2.75-2.75,2.75,1.23,2.75,2.75v15.58c0,1.51-1.23,2.75-2.75,2.75Z"/>
    <path class="cls-1" d="M21.39,17.91c-1.51,0-2.75-1.23-2.75-2.75h1.05c0,.94,.76,1.7,1.7,1.7v1.05h0Zm-1.7,3.91h-1.05c0-1.51,1.23-2.75,2.75-2.75v1.05c-.94,0-1.7,.76-1.7,1.7Zm5.56,1.12h-1.05c0-.94-.76-1.7-1.7-1.7v-1.05c1.51,0,2.75,1.23,2.75,2.75Zm-2.75-6.15v-1.05c.94,0,1.7-.76,1.7-1.7h1.05c0,1.52-1.23,2.75-2.75,2.75Zm-5.71-3.85c-.04-.2-.07-.4-.07-.61,0-1.52,1.23-2.75,2.75-2.75,.36,0,.72,.07,1.05,.21l-.41,.97c-.2-.09-.42-.13-.64-.13-.94,0-1.7,.76-1.7,1.7,0,.12,.01,.25,.04,.38l-1.03,.23Z"/>
    <path class="cls-1" d="M15.45,16.99c-1.07-1.07-1.07-2.81,0-3.89,.51-.52,1.21-.81,1.94-.81h0c.73,0,1.43,.29,1.94,.81l-.74,.74c-.32-.32-.75-.5-1.2-.5h0c-.45,0-.88,.18-1.2,.5-.66,.66-.66,1.74,0,2.4,0,0-.74,.74-.74,.74Z"/>
    <path class="cls-1" d="M16.63,21.24c-1.51,0-2.75-1.23-2.75-2.75s1.23-2.75,2.75-2.75v1.05c-.94,0-1.7,.76-1.7,1.7s.76,1.7,1.7,1.7v1.05Z"/>
    <path class="cls-1" d="M17.4,24.69c-.73,0-1.43-.29-1.94-.81-1.07-1.07-1.07-2.81,0-3.88l.74,.74c-.66,.66-.66,1.74,0,2.4,.32,.32,.75,.5,1.2,.5,.45,0,.88-.18,1.2-.5l.74,.74c-.51,.52-1.21,.81-1.94,.81h0Z"/>
    <path class="cls-1" d="M19.48,27.4c-1.52,0-2.75-1.23-2.75-2.75,0-.2,.02-.4,.07-.61l1.02,.23c-.03,.13-.04,.25-.04,.38,0,.94,.76,1.7,1.7,1.7,.22,0,.44-.04,.64-.13l.4,.97c-.33,.14-.69,.21-1.05,.21Zm9.08,1.63c-1.51,0-2.75-1.23-2.75-2.75V10.7c0-1.52,1.23-2.75,2.75-2.75s2.75,1.23,2.75,2.75-1.23,2.75-2.75,2.75v-1.05c.94,0,1.7-.76,1.7-1.7s-.76-1.7-1.7-1.7-1.7,.76-1.7,1.7v15.58c0,.94,.76,1.7,1.7,1.7,.94,0,1.7-.76,1.7-1.7s-.76-1.7-1.7-1.7v-1.05c1.52,0,2.75,1.23,2.75,2.75s-1.23,2.75-2.75,2.75Z"/>
    <path class="cls-1" d="M29.67,17.91v-1.05c.94,0,1.7-.76,1.7-1.7h1.05c0,1.51-1.23,2.75-2.75,2.75Zm2.75,3.91h-1.05c0-.94-.76-1.7-1.7-1.7v-1.05c1.51,0,2.75,1.23,2.75,2.75Zm-5.56,1.12h-1.05c0-1.52,1.23-2.75,2.75-2.75v1.05c-.94,0-1.7,.76-1.7,1.7Zm1.7-6.15c-1.51,0-2.75-1.23-2.75-2.75h1.05c0,.94,.76,1.7,1.7,1.7v1.05Zm5.71-3.85l-1.02-.23c.03-.12,.04-.25,.04-.38,0-.94-.76-1.7-1.7-1.7-.22,0-.44,.04-.65,.13l-.4-.97c.33-.14,.69-.21,1.05-.21,1.51,0,2.75,1.23,2.75,2.75,0,.2-.02,.41-.07,.61Z"/>
    <path class="cls-1" d="M35.6,16.99l-.74-.74c.32-.32,.5-.75,.5-1.2s-.18-.88-.5-1.2c-.32-.32-.75-.5-1.2-.5h0c-.45,0-.88,.18-1.2,.5l-.74-.74c.51-.52,1.21-.81,1.94-.81h0c.73,0,1.42,.29,1.94,.81,.52,.52,.81,1.21,.81,1.94s-.29,1.42-.81,1.94Z"/>
    <path class="cls-1" d="M34.43,21.24v-1.05c.94,0,1.7-.76,1.7-1.7s-.76-1.7-1.7-1.7v-1.05c1.52,0,2.75,1.23,2.75,2.75s-1.23,2.75-2.75,2.75Z"/>
    <path class="cls-1" d="M33.66,24.69c-.73,0-1.43-.29-1.94-.81l.74-.74c.32,.32,.75,.5,1.2,.5,.45,0,.88-.18,1.2-.5,.32-.32,.5-.75,.5-1.2,0-.45-.18-.88-.5-1.2l.74-.74c.52,.51,.81,1.21,.81,1.94,0,.73-.29,1.43-.81,1.94-.51,.52-1.21,.81-1.94,.81h0Z"/>
    <path class="cls-1" d="M31.58,27.4c-.36,0-.71-.07-1.05-.21l.4-.97c.21,.09,.43,.13,.65,.13,.93,0,1.7-.76,1.7-1.7,0-.13-.01-.26-.04-.38l1.02-.23c.04,.2,.07,.4,.07,.61,0,1.51-1.23,2.75-2.75,2.75Z"/>
  </g>
  <g>
    <path class="cls-5" d="M28.55,20.19c-.13,0-.26,.01-.39,.03v1.07c.13-.03,.26-.05,.39-.05v-1.05Zm0-4.45c-.13,0-.26-.02-.39-.05v1.07c.13,.02,.26,.03,.39,.03v-1.05Zm2.81-.58c0,.94-.76,1.7-1.7,1.7v1.05c1.51,0,2.75-1.23,2.75-2.75h-1.05Zm-1.7,3.91v1.05c.94,0,1.7,.76,1.7,1.7h1.05c0-1.51-1.23-2.75-2.75-2.75Z"/>
    <path class="cls-5" d="M37.18,18.49c0-.89-.43-1.68-1.08-2.18,.2-.39,.31-.82,.31-1.27,0-.06,0-.12,0-.17-.26-.11-.53-.18-.81-.19,.04-.16,.05-.33,.05-.49,0-.56-.21-1.1-.6-1.51-.22-.13-.46-.23-.72-.29,0-.02,0-.03,0-.05,0-.06,0-.12,0-.18-.28-.13-.59-.19-.91-.19-.06,0-.12,0-.17,0,.03,.11,.04,.23,.04,.35-.59,.08-1.14,.35-1.56,.78l.74,.74c.32-.32,.75-.5,1.2-.5h0c.45,0,.88,.18,1.2,.5,.32,.32,.5,.75,.5,1.2,0,.28-.07,.55-.2,.8-.24-.07-.48-.1-.73-.1v1.05c.94,0,1.7,.76,1.7,1.7s-.76,1.7-1.7,1.7v1.05c.25,0,.5-.04,.73-.1,.13,.24,.2,.52,.2,.8,0,.45-.18,.88-.5,1.2-.32,.32-.75,.5-1.2,.5-.45,0-.88-.18-1.2-.5l-.74,.74c.42,.42,.97,.7,1.56,.78,0,.93-.76,1.69-1.7,1.69-.1,0-.19,0-.29-.03,0-.01,0-.03,0-.04,0-1.52-1.23-2.75-2.75-2.75v1.05c.94,0,1.7,.76,1.7,1.7s-.76,1.7-1.7,1.7c-.13,0-.26-.02-.39-.05v.2c0,.31,.07,.61,.18,.88,.07,0,.14,.01,.21,.01,1.14,0,2.11-.69,2.53-1.68,.17,.03,.33,.05,.5,.05,1.51,0,2.75-1.23,2.75-2.75,0-.02,0-.03,0-.05,.48-.12,.92-.37,1.28-.72,.52-.51,.81-1.21,.81-1.94,0-.45-.11-.88-.31-1.27,.66-.5,1.08-1.29,1.08-2.18h0Zm-11.38-7.6v15.39c0,.73,.29,1.39,.75,1.89,0-.01,0-.02,0-.03V12.56c0-.64-.28-1.25-.76-1.67Zm4.58-.56c-.06,0-.12,0-.18,0,.03,.12,.04,.24,.04,.36,0,.94-.76,1.7-1.7,1.7v1.05c1.52,0,2.75-1.23,2.75-2.75,0-.02,0-.03,0-.05,.07-.01,.14-.02,.21-.02-.34-.2-.72-.3-1.12-.3h0Zm-13.97,10.89c.07,0,.13,.01,.2,.01v-1.05c-.13,0-.25-.01-.37-.04,0,.07-.01,.13-.01,.2,0,.3,.06,.6,.18,.88Zm2.22,.59h1.05c0-.94,.76-1.7,1.7-1.7v-1.05c-1.51,0-2.75,1.23-2.75,2.75Zm-.46,3.94c-.26-.31-.41-.69-.41-1.1,.59-.08,1.14-.35,1.57-.78l-.74-.74c-.41,.41-1.01,.59-1.58,.45-.06,.66,.17,1.31,.64,1.77,.16,.15,.33,.29,.53,.39Zm3.21-8.89c-.94,0-1.7-.76-1.7-1.7h-1.05c0,1.52,1.23,2.75,2.75,2.75v-1.05h0Zm1.11-3.41v-1.05c-.42,0-.82-.16-1.13-.44-.02,0-.04,0-.06,0-.38,0-.75,.1-1.08,.28,.49,.73,1.33,1.21,2.27,1.21Z"/>
    <path class="cls-5" d="M25.25,26.28V10.7c0-.06,0-.12,0-.17-.28-.13-.59-.19-.9-.19-.06,0-.12,0-.18,0,.03,.12,.04,.24,.04,.36v3.34c0,.94-.76,1.7-1.7,1.7v1.05c.64,0,1.23-.22,1.7-.59v4.58c-.48-.38-1.08-.59-1.7-.59v1.05c.94,0,1.7,.76,1.7,1.7v3.34c0,.94-.76,1.7-1.7,1.7s-1.7-.76-1.7-1.7,.76-1.7,1.7-1.7v-1.05c-1.51,0-2.75,1.23-2.75,2.75,0,.01,0,.03,0,.04-.09,.02-.19,.03-.28,.03-.13,0-.25-.02-.38-.04,0,.07-.01,.13-.01,.2,0,.3,.06,.6,.18,.88,.07,0,.14,.01,.21,.01,.17,0,.34-.02,.5-.05,.25,.59,.71,1.08,1.28,1.37,.02,0,.04,0,.05,0,.29,0,.58-.06,.85-.17,.03,.16,.08,.31,.15,.46,.07,0,.13,0,.2,0,1.52,0,2.75-1.23,2.75-2.75Z"/>
  </g>
  <path class="cls-7" d="M16.74,12.11c.68-.95,1.5-1.8,2.43-2.51-1.3,.15-2.32,1.2-2.43,2.51Zm5.25-4.11c-.43,.08-.84,.27-1.19,.55,.39-.2,.78-.39,1.19-.55Zm-7.1,8.16c.32-1.32,.86-2.58,1.61-3.71-.39,.13-.75,.35-1.05,.65-.83,.83-1.01,2.06-.56,3.07Zm.95,8.02c-.5-.97-.85-2.01-1.06-3.08-.3,.95-.07,2.02,.67,2.77,.12,.12,.25,.22,.38,.31Zm-1.27-5.3c0-.85,.09-1.68,.26-2.48-.58,.5-.95,1.24-.95,2.07,0,.75,.3,1.42,.79,1.92-.07-.5-.1-1.01-.1-1.51Z"/>
  <path class="cls-10" d="M35.97,26.71h12.52v8.39h-12.52v-8.39Z"/>
  <path class="cls-1" d="M49.97,37.67h-13.04v-1.05h11.99v-7.87h1.05v8.92Z"/>
  <g>
    <path class="cls-2" d="M43.88,29.94l-3.99,3.99h7.98l-3.99-3.99Z"/>
    <path class="cls-2" d="M41.03,31.33l-2.6,2.61h5.21l-2.61-2.61Zm1.67-1.7c0,.46-.37,.83-.83,.84-.46,0-.84-.37-.84-.84,0-.46,.37-.84,.84-.84,0,0,0,0,0,0,.46,0,.83,.37,.83,.84h0Z"/>
  </g>
  <g>
    <path class="cls-1" d="M8.21,35.63c-2.6,0-4.72-2.12-4.72-4.72s2.12-4.72,4.72-4.72,4.72,2.12,4.72,4.72-2.12,4.72-4.72,4.72Zm0-8.4c-2.02,0-3.67,1.65-3.67,3.67s1.65,3.67,3.67,3.67,3.67-1.65,3.67-3.67-1.65-3.67-3.67-3.67Z"/>
    <path class="cls-1" d="M7.27,29.33l2.73,1.57-2.73,1.57v-3.15Z"/>
  </g>
  <path class="cls-9" d="M16.46,7.53V15.96H6.06l-2.16,2.16v-2.15h-1.31V7.53h13.86Z"/>
  <path class="cls-1" d="M4.36,12.25h7.01v1.05H4.36v-1.05ZM0,10.12H11.37v1.05H0v-1.05Z"/>
  <g>
    <path class="cls-1" d="M45.31,19.27c-1.06,0-1.91-.86-1.91-1.91s.86-1.91,1.91-1.91,1.91,.86,1.91,1.91-.86,1.91-1.91,1.91Zm0-2.78c-.48,0-.86,.39-.87,.86,0,.48,.39,.86,.86,.86s.86-.39,.86-.86c0-.48-.39-.86-.86-.86h0Zm2.78-3.88c-1.06,0-1.91-.86-1.91-1.91h1.05c0,.48,.39,.86,.86,.86v1.05Z"/>
    <path class="cls-1" d="M50,13.47h-1.05c0-.48-.39-.86-.86-.86v-1.05c1.05,0,1.91,.86,1.91,1.91Zm-3.83-2.78h1.05v6.66h-1.05v-6.66Z"/>
  </g>
  <path class="cls-1" d="M38.68,6.98h-7.32V1.96h7.32V6.98Zm-6.27-1.05h5.22V3.01h-5.22v2.92Z"/>
  <path class="cls-9" d="M17.35,36.57c0,.81-.66,1.47-1.47,1.47h0c-.81-.01-1.46-.69-1.45-1.5,.01-.79,.65-1.43,1.45-1.45,.81,0,1.47,.66,1.47,1.47h0Z"/>
  <path class="cls-10" d="M23.45,3.44c0,1.76-1.43,3.19-3.19,3.19s-3.19-1.43-3.19-3.19S18.5,.25,20.26,.25s3.19,1.43,3.19,3.19Z"/>
  <path class="cls-12" d="M29.46,30.15c.29,.13,.61,.2,.92,.2,1,0,1.84-.66,2.12-1.56-.94,.6-1.97,1.05-3.04,1.36Zm7.91-7.55c-.83,2.46-2.44,4.58-4.6,6.02,.21,.06,.43,.1,.65,.1,1.23,0,2.22-.99,2.22-2.22,0-.17-.02-.34-.05-.49,.56-.02,1.09-.26,1.48-.65,.75-.75,.85-1.9,.3-2.76h0Zm1.12-2.26c0-.52-.18-1.02-.51-1.42,0,1.1-.16,2.2-.47,3.26,.62-.41,.99-1.1,.99-1.84h0Z"/>
  <path class="cls-8" d="M35.97,26.71v4.26c.09-.09,.18-.18,.28-.27,.15-.13,.3-.25,.44-.38,1.15-1.05,2.13-2.27,2.92-3.61h-3.64Z"/>
  <path class="cls-3" d="M34.69,5.93h-2.28v-1.22c-.34-.15-.69-.28-1.05-.41v2.68h4.76c-.46-.38-.94-.73-1.43-1.05Z"/>
  <path class="cls-8" d="M20.26,6.62c1.67,0,3.04-1.29,3.18-2.92-1.89,.35-3.7,1.06-5.33,2.08,.59,.54,1.36,.85,2.16,.85Z"/>
  <path class="cls-11" d="M14.94,15.96c.32-1.22,.83-2.38,1.52-3.44V7.53h-.66c-2.38,2.19-4.07,5.12-4.7,8.43h3.84Z"/>
  <path class="cls-4" d="M16.46,15.75c-.19,.01-.38,.04-.56,.09-.34-.64-.24-1.46,.3-2,.08-.08,.17-.15,.26-.22v-1.16c-.38,.13-.72,.35-1.01,.64-.77,.77-.98,1.89-.65,2.86h1.65v-.2h0Z"/>
  <path class="cls-3" d="M4.36,12.25h7.01v1.05H4.36v-1.05Zm-1.76-2.13H11.37v1.05H2.6v-1.05Z"/>
</svg>