<?xml version="1.0" encoding="UTF-8"?>
<svg id="Layer_1" data-name="Layer 1" xmlns="http://www.w3.org/2000/svg" viewBox="0 0 50 50">
  <defs>
    <style>
      .cls-1 {
        fill: #accafb;
      }

      .cls-2 {
        fill: #fff;
      }

      .cls-3 {
        fill: #dddedf;
      }

      .cls-4 {
        fill: #61cb7d;
      }

      .cls-5 {
        fill: #888988;
      }

      .cls-6 {
        fill: #f0f1f2;
      }

      .cls-7 {
        fill: #cde0ff;
      }

      .cls-8 {
        fill: #4285f4;
      }

      .cls-9 {
        fill: #fbbc05;
      }

      .cls-10 {
        fill: none;
      }

      .cls-11 {
        fill: #34a853;
      }

      .cls-12 {
        fill: #ea4335;
      }
    </style>
  </defs>
  <polygon class="cls-3" points="18.11 2.24 17.98 3.31 19 3.67 17.04 4.88 16.02 4.52 16.15 3.45 18.11 2.24"/>
  <polygon class="cls-2" points="9.68 18.5 7.51 18.5 7.51 16.73 7.51 15.47 9.68 15.47 9.68 18.5"/>
  <path class="cls-6" d="M9.68,15.47h-2.18v1.26c.36,.05,.72,.08,1.09,.08,.37,0,.73-.03,1.09-.08v-1.25Z"/>
  <path class="cls-2" d="M8.6,14.54c-3.26,0-5.9-2.64-5.9-5.9,0-3.26,2.64-5.9,5.9-5.9s5.9,2.64,5.9,5.9c0,3.26-2.64,5.9-5.9,5.9Z"/>
  <path class="cls-7" d="M8.6,14.54c-3.26,0-5.9-2.64-5.9-5.9S5.34,2.74,8.6,2.74s5.9,2.64,5.9,5.9-2.64,5.9-5.9,5.9Z"/>
  <polygon class="cls-2" points="9.68 18.5 7.51 18.5 7.51 16.73 7.51 15.47 9.68 15.47 9.68 18.5"/>
  <path class="cls-6" d="M9.68,15.47h-2.18v1.26c.36,.05,.72,.08,1.09,.08,.37,0,.73-.03,1.09-.08v-1.25Z"/>
  <path class="cls-2" d="M9.98,18.74v5.84c0,.38-.15,.73-.41,.98-.29,.29-.7,.45-1.15,.4-.7-.09-1.21-.7-1.21-1.4v-5.84c0-.83,.73-1.49,1.59-1.37,.69,.1,1.18,.71,1.18,1.4Z"/>
  <path class="cls-6" d="M9.98,21.4v3.18c0,.38-.15,.73-.41,.98-.29,.29-.7,.45-1.15,.4-.7-.09-1.21-.7-1.21-1.4v-3.15s2.77,0,2.77,0Z"/>
  <path class="cls-6" d="M8.89,25.94s.09-.08,.13-.12c.25-.25,.41-.6,.41-.98v-5.84c0-.69-.5-1.3-1.18-1.4-.17-.02-.34-.02-.5,.02,.28-.22,.65-.33,1.05-.27,.69,.1,1.18,.71,1.18,1.4v5.84c0,.38-.16,.73-.41,.98-.18,.18-.42,.32-.68,.37Z"/>
  <path class="cls-2" d="M13.91,6.27c.17,.39,.3,.79,.38,1.19m-.15,3.21c-.83,2.26-3,3.87-5.54,3.87-3.26,0-5.9-2.64-5.9-5.9,0-3.26,2.64-5.9,5.9-5.9s5.9,2.64,5.9,5.9c0,.28-.02,.55-.06,.81"/>
  <path class="cls-7" d="M8.6,1C4.38,1,.96,4.42,.96,8.64s3.42,7.64,7.64,7.64,7.64-3.42,7.64-7.64S12.81,1,8.6,1Zm0,13.54c-3.26,0-5.9-2.64-5.9-5.9S5.34,2.74,8.6,2.74s5.9,2.64,5.9,5.9-2.64,5.9-5.9,5.9Z"/>
  <polygon class="cls-12" points="18.21 1.83 18.08 2.9 19.09 3.26 17.14 4.47 16.12 4.11 16.25 3.04 18.21 1.83"/>
  <line class="cls-10" x1="8.56" y1="8.8" x2="18.99" y2="2.33"/>
  <circle class="cls-8" cx="27.63" cy="13.13" r="2.23"/>
  <path class="cls-2" d="M15.11,15.65l.82,2.61c-.72,.23-1.49-.17-1.72-.89-.23-.72,.17-1.49,.89-1.72Z"/>
  <path class="cls-6" d="M15.11,15.65l.83,2.61c-.26,.08-.53,.08-.77,.01l-.69-2.19c.16-.2,.38-.35,.64-.43Z"/>
  <path class="cls-2" d="M20.85,22.82l-2.01,.64c-.08,.03-.16,0-.21-.07-.42-.58-.78-1.2-1.09-1.87-.4-.85-.72-1.77-.96-2.75l2.42-.77c-.04,1.34,.4,2.49,1.12,3.51,.24,.34,.51,.67,.81,1,.09,.1,.05,.27-.08,.31Z"/>
  <path class="cls-6" d="M20.85,22.82l-2.01,.64c-.08,.03-.16,0-.21-.07-.42-.58-.78-1.2-1.09-1.87h2.58c.24,.34,.51,.67,.81,1,.09,.1,.05,.27-.08,.31Z"/>
  <path class="cls-9" d="M19.28,17.91l-3.21,1.02c-.13,.04-.28-.03-.32-.17l-1.08-3.43c-.04-.13,.03-.28,.17-.32l3.21-1.02,1.24,3.91Z"/>
  <path class="cls-2" d="M25.13,8l3.4,10.76c-3.32-.87-6.43-1.21-9.25-.85l-1.23-3.9c2.52-1.33,4.87-3.39,7.08-6.01Z"/>
  <path class="cls-6" d="M25.13,8l3.4,10.76c-.23-.06-.46-.12-.69-.17l-3.18-10.05c.16-.18,.31-.35,.46-.54Z"/>
  <path class="cls-9" d="M28.79,18.68l-.26,.08-3.4-10.76,.26-.08c.52-.16,1.08,.12,1.24,.65l2.8,8.87c.16,.52-.12,1.08-.65,1.24Z"/>
  <g>
    <path class="cls-2" d="M39.81,46.67v1.86c0,.32-.26,.58-.58,.58H.8c-.33,0-.58-.26-.58-.58v-1.86c0-.32,.26-.58,.58-.58H39.22c.32,0,.58,.26,.58,.58Z"/>
    <path class="cls-6" d="M39.81,46.67v1.86c0,.32-.26,.58-.58,.58h-.18c-.23,0-.42-.19-.42-.42v-2.61h.6c.32,0,.58,.26,.58,.58Z"/>
    <path class="cls-6" d="M39.81,46.67v1.16c0-.32-.26-.58-.58-.58H.8c-.33,0-.58,.26-.58,.58v-1.16c0-.32,.26-.58,.58-.58H39.22c.32,0,.58,.26,.58,.58Zm-2.24-23.79v23.21H2.46V22.88c0-.48,.4-.88,.88-.88H36.69c.49,0,.88,.39,.88,.88Z"/>
    <path class="cls-3" d="M37.57,22.88v.44h-2.8v-1.32h1.92c.49,0,.88,.39,.88,.88Z"/>
    <rect class="cls-2" x="4.21" y="23.75" width="31.6" height="20.58"/>
    <rect class="cls-6" x="6.05" y="26.84" width="26.72" height="5.37"/>
    <rect class="cls-6" x="6.05" y="34.24" width="10.51" height="8.19"/>
    <rect class="cls-1" x="6.65" y="26.25" width="26.72" height="5.37"/>
    <rect class="cls-1" x="6.65" y="33.64" width="10.51" height="8.19"/>
  </g>
  <g>
    <path class="cls-2" d="M49.79,31.98v16.71c0,.23-.19,.42-.42,.42h-9.37c-.23,0-.42-.19-.42-.42V31.98c0-.23,.19-.42,.42-.42h9.37c.23,0,.42,.19,.42,.42Z"/>
    <path class="cls-6" d="M48.82,33.58v14.02c0,.09-.07,.17-.17,.17h-7.96c-.09,0-.16-.07-.16-.17v-14.02c0-.09,.07-.17,.16-.17h7.96c.09,0,.17,.07,.17,.17Z"/>
  </g>
  <g>
    <path class="cls-3" d="M47.76,39.3c.21,2.1-1.54,3.85-3.64,3.64-1.55-.16-2.8-1.41-2.96-2.96-.21-2.09,1.54-3.84,3.63-3.63,1.55,.15,2.81,1.4,2.96,2.96Z"/>
    <path class="cls-2" d="M41.61,38.76c-.21,2.1,1.54,3.85,3.64,3.64,1.55-.16,2.8-1.41,2.96-2.96,.21-2.09-1.54-3.84-3.63-3.63-1.55,.15-2.81,1.4-2.96,2.96Z"/>
    <path class="cls-6" d="M46.42,39.57l-2.31,1.64c-.1,.07-.24,0-.24-.12v-3.28c0-.12,.14-.19,.24-.12l2.31,1.64c.09,.06,.09,.19,0,.25Z"/>
    <path class="cls-4" d="M46.65,39.22l-2.31,1.64c-.1,.07-.24,0-.24-.12v-3.28c0-.12,.14-.19,.24-.12l2.31,1.64c.09,.06,.09,.19,0,.25Z"/>
  </g>
  <g>
    <rect class="cls-2" x="35.38" y="12.79" width="14.37" height="9.93"/>
    <polygon class="cls-8" points="49.78 22.71 40.96 22.71 42.2 21.09 45.37 16.94 49.78 22.71"/>
    <polygon class="cls-5" points="43.44 22.71 40.96 22.71 42.2 21.09 43.44 22.71"/>
    <polygon class="cls-8" points="42.66 22.71 35.38 22.71 39.02 17.95 42.66 22.71"/>
    <circle class="cls-9" cx="40.96" cy="15.75" r="1.16"/>
  </g>
  <g>
    <path class="cls-2" d="M41.17,4.43c-1.53,1.75-1.52,4.4,.02,6.14,.63,.72,1.43,1.19,2.27,1.42,.08,.02,.15,.07,.19,.14l.73,1.22c.12,.21,.42,.21,.55,0l.73-1.21c.04-.07,.11-.12,.2-.14,.86-.22,1.67-.69,2.31-1.41,1.55-1.74,1.56-4.42,.02-6.17-1.87-2.12-5.15-2.11-7.01,.02Z"/>
    <path class="cls-6" d="M46.96,7.05c.05,1.73-2.46,3.13-2.46,3.13,0,0-2.51-1.4-2.46-3.13,.02-.81,.66-1.47,1.47-1.47,.38,0,.73,.15,.99,.39,.26-.24,.61-.39,.99-.39,.81,0,1.45,.66,1.47,1.47Z"/>
    <path class="cls-12" d="M47.33,6.84c.05,1.73-2.46,3.13-2.46,3.13,0,0-2.51-1.4-2.46-3.13,.02-.81,.66-1.47,1.47-1.47,.38,0,.73,.15,.99,.39,.26-.24,.61-.39,.99-.39,.81,0,1.45,.66,1.47,1.47Z"/>
  </g>
  <g>
    <path class="cls-11" d="M12.13,8.77c0,.11,.08,.2,.19,.2,.1,0,.19-.08,.19-.19,.02-.53-.07-1.05-.25-1.54-.04-.1-.15-.15-.25-.11-.1,.04-.15,.15-.11,.25,.17,.45,.24,.91,.23,1.39Zm-2.32-3.5c.6,.23,1.13,.62,1.53,1.12,.04,.05,.09,.07,.15,.07,.04,0,.08-.01,.12-.04,.08-.07,.1-.19,.03-.27-.44-.56-1.03-.99-1.7-1.24-.1-.04-.21,.01-.25,.11-.04,.1,.01,.21,.11,.25Zm-4.92,2.16s.05,.01,.07,.01c.08,0,.15-.05,.18-.12,.57-1.46,2.02-2.38,3.58-2.29,.11,0,.2-.08,.2-.18,0-.11-.08-.2-.18-.2-1.71-.1-3.32,.91-3.96,2.53-.04,.1,0,.21,.11,.25Zm2.18,4.54c-1.38-.6-2.25-1.99-2.18-3.49,0-.11-.08-.2-.18-.2-.11,0-.2,.08-.2,.18-.08,1.66,.88,3.2,2.41,3.86,.03,.01,.05,.02,.08,.02,.07,0,.15-.04,.18-.12,.04-.1,0-.21-.1-.25Zm4.96-1.82c-.1-.05-.21,0-.26,.09-.64,1.3-2.03,2.14-3.54,2.02-.1,0-.2,.07-.21,.18,0,.11,.07,.2,.18,.21,1.66,.13,3.2-.78,3.91-2.24,.05-.1,0-.21-.09-.26Zm-2.84-4.37s.03,0,.04,0c.09,0,.17-.06,.19-.15l.31-1.33c.06-.25-.32-.34-.38-.09l-.31,1.33c-.02,.1,.04,.21,.14,.23Zm-1.39,5.88c-.1-.02-.21,.04-.23,.14l-.31,1.33c-.02,.1,.04,.21,.14,.23,.01,0,.03,0,.04,0,.09,0,.17-.06,.19-.15l.31-1.33c.02-.1-.04-.21-.14-.23Zm-2.43-3.48c.09,0,.17-.06,.19-.15,.02-.1-.04-.21-.14-.23l-1.33-.31c-.1-.02-.21,.04-.23,.14s.04,.21,.14,.23l1.33,.31s.03,0,.04,0Zm6.3,1.09c-.1-.02-.21,.04-.23,.14s.04,.21,.14,.23c1.05,.19,1.48,.5,1.56,.17,.02-.1-.44-.24-1.47-.55Zm7.4,9.79c-.1,.02-.17,.12-.15,.23,.14,.7,.42,1.36,.83,2.02,.04,.06,.1,.09,.16,.09,.04,0,.07,0,.1-.03,.09-.06,.12-.18,.06-.27-.39-.62-.65-1.24-.78-1.89-.02-.1-.12-.17-.23-.15Zm-14.85,4.5c-.11,0-.19,.09-.19,.19v20.58c0,.11,.09,.19,.19,.19h31.6c.11,0,.19-.09,.19-.19V23.75c0-.11-.09-.19-.19-.19-6.49,0-24.98,0-31.6,0Zm31.41,20.58H4.4V23.95h31.22v20.19Z"/>
    <path class="cls-11" d="M18.61,34.23h14.17c.11,0,.19-.09,.19-.19s-.09-.19-.19-.19h-14.17c-.11,0-.19,.09-.19,.19s.09,.19,.19,.19Zm0,2.13h14.17c.11,0,.19-.09,.19-.19s-.09-.19-.19-.19h-14.17c-.11,0-.19,.09-.19,.19s.09,.19,.19,.19Zm0,2.13h14.17c.11,0,.19-.09,.19-.19s-.09-.19-.19-.19h-14.17c-.11,0-.19,.09-.19,.19s.09,.19,.19,.19Zm0,2.13h9.81c.11,0,.19-.09,.19-.19s-.09-.19-.19-.19h-9.81c-.11,0-.19,.09-.19,.19s.09,.19,.19,.19Z"/>
    <path class="cls-11" d="M49.36,31.36h-9.37c-.34,0-.61,.27-.61,.61v13.28c0,.11,.09,.19,.19,.19s.19-.09,.19-.19v-13.28c0-.13,.1-.23,.23-.23h9.37c.13,0,.23,.1,.23,.23v16.71c0,.13-.1,.23-.22,.23h-9.37s-.06,0-.09-.02c-.08-.03-.13-.11-.13-.21v-2.49c0-.05-.02-.1-.05-.14-.01-.01-.03-.02-.04-.03-.13-.09-.28-.15-.45-.15h-1.46V23.9c0-.11-.09-.19-.19-.19s-.19,.09-.19,.19v21.99H2.65V22.88c0-.38,.31-.68,.68-.68h31.85v.52c0,.11,.09,.19,.19,.19h14.37s.01,0,.02,0c0,0,0,0,0,0,0,0,.01,0,.02,0,.04,0,.08-.01,.12-.04,.08-.07,.1-.19,.04-.27h0V12.79c0-.11-.09-.19-.19-.19h-4.13l.21-.35s.04-.05,.08-.06c.93-.24,1.76-.75,2.4-1.47,1.63-1.83,1.64-4.59,.02-6.43-1.95-2.21-5.38-2.19-7.3,.02-1.6,1.83-1.59,4.57,.02,6.39,1.17,1.33,2.37,1.39,2.45,1.53l.22,.37h-8.33c-.11,0-.19,.09-.19,.19v8.16c0,.11,.09,.19,.19,.19s.19-.09,.19-.19v-7.97h8.37c.19,.26,.29,.71,.72,.71,.18,0,.35-.09,.44-.25l.28-.46h4.17v9.11l-4.03-5.26c-.07-.1-.23-.1-.31,0l-2.96,3.87c-.07,.08-.05,.21,.04,.27,.09,.07,.21,.05,.27-.04l2.8-3.67,4.02,5.26h-6.64l-3.59-4.69c-.07-.1-.23-.1-.31,0l-2.8,3.66c-.07,.08-.05,.21,.04,.27,.09,.07,.21,.05,.27-.04l2.64-3.46,3.25,4.25h-6.7v-.52c0-.11-.09-.19-.19-.19H17.89c-.45-.88-.81-1.85-1.09-2.91,2.06-.65,.6-.19,1.99-.63,0,.17,.01,.34,.03,.51,.01,.11,.11,.18,.21,.17,.1-.01,.18-.11,.17-.21-.02-.19-.03-.39-.03-.59l.13-.04c3.03-.38,6.19,.06,9.15,.84,0,0,.01,0,.02,0h0s.03,0,.05,0c.02,0,.04,0,.06,0h.02s.24-.08,.24-.08c.62-.2,.97-.86,.77-1.49l-.7-2.21c.58-.37,1-.98,1.11-1.71h0c.18-1.32-.74-2.55-2.06-2.73-.15-.02-.3-.03-.45-.02l-.7-2.2c-.2-.62-.85-.97-1.49-.77-.24,.08-.29,.08-.34,.13,0,0,0,0,0,0-2.26,2.68-4.6,4.67-6.96,5.93h0s-.02,0-.03,0l-3.21,1.01c-.11,.04-.21,.11-.26,.22-.06,.11-.07,.23-.03,.34l.1,.32c-.51,.38-.76,1.06-.55,1.72,.13,.4,.4,.72,.77,.92,.21,.11,.44,.17,.67,.17l.1,.31c.03,.11,.11,.21,.22,.26,.07,.03,.14,.05,.21,.05,.04,0,.09,0,.14-.02l.31-.1c.26,1.01,.6,1.94,1.02,2.79H7.4v-3.09s0-.01,0-.02c0-.7,.63-1.26,1.37-1.16,.58,.09,.99,.6,1.01,1.16,0,.02,0,.03,0,.05v2.47c0,.11,.09,.19,.19,.19s.19-.09,.19-.19v-2.47c0-.35-.11-.67-.3-.94v-1.44c3.71-.61,6.55-3.84,6.55-7.72,0-1.4-.37-2.72-1.02-3.86l.74-.46,.93,.33s.04,0,.07,0c.03,0,.07,0,.1-.03l1.96-1.21c.06-.04,.1-.11,.09-.19s-.06-.14-.13-.16l-.64-.22,.58-.36c.09-.06,.12-.17,.06-.27s-.17-.12-.27-.06l-.58,.36,.08-.67c0-.07-.03-.15-.09-.19-.06-.04-.14-.04-.21,0l-1.96,1.21c-.05,.03-.08,.08-.09,.14l-.12,.99-.73,.45c-1.39-2.19-3.83-3.64-6.61-3.64C4.28,.81,.77,4.32,.77,8.64c0,3.88,2.84,7.11,6.55,7.72v1.43c-.19,.27-.3,.58-.3,.92v3.09H3.33c-.59,0-1.07,.48-1.07,1.07v23.01H.8c-.43,0-.78,.35-.78,.78v1.86c0,.43,.35,.78,.78,.78H39.22c.15,0,.29-.04,.41-.12,.1,.08,.23,.12,.36,.12h9.37c.34,0,.61-.27,.61-.61V31.98c0-.34-.27-.61-.61-.61Zm-4.71-18.05c-.12,0-.14-.17-.27-.33-.01-.02-.61-1.02-.58-.95-.27-.45-1.24-.18-2.49-1.59-.74-.84-1.11-1.89-1.11-2.95,0-4.1,5.11-6.03,7.82-2.95,1.49,1.69,1.48,4.23-.02,5.91-.59,.66-1.36,1.13-2.21,1.36-.13,.03-.25,.12-.31,.23-.01,.02-.61,1-.57,.94-.13,.17-.14,.33-.27,.33Zm-16.75-2.2c1.11,.15,1.89,1.18,1.73,2.29-.08,.58-.4,1.07-.84,1.38l-1.17-3.69c.09,0,.19,0,.28,.02Zm-2.47-3.01c.42-.13,.87,.1,1,.52,0,.02,2.83,8.97,2.8,8.87,.03,.08,.04,.16,.04,.24,0,.34-.22,.65-.56,.76l-.08,.02c-2.23-7.05-1.15-3.65-3.29-10.39l.08-.03Zm-.4,.29c.8,2.55,.08,.26,3.19,10.1-2.84-.72-5.91-1.13-8.82-.79l-1.14-3.6c2.58-1.4,4.86-3.5,6.77-5.71Zm-10.07,9.6c-.28-.15-.48-.39-.58-.69-.13-.42-.02-.88,.31-1.2l.64,2.01c-.13-.02-.25-.06-.36-.12Zm1.03,.75s-.04,0-.04,0c-.01,0-.03-.02-.03-.03l-.07-.23-.94-2.96-.08-.24s0-.04,0-.05c0,0,.02-.02,.04-.03l3.03-.96,1.12,3.55-.1,.03c-.3,.09,1.08-.34-2.93,.92Zm2.64-15.43l-1.53,.95-.55-.19,1.53-.95,.55,.19Zm-2.22-.15l1.53-.95-.07,.58-1.53,.95,.07-.58ZM1.15,8.64C1.15,4.54,4.49,1.2,8.6,1.2c2.64,0,4.96,1.38,6.29,3.46l-1.14,.7c-.88-1.39-2.21-2.33-4.06-2.72-3.63-.71-7.18,2.14-7.18,6s3.64,6.82,7.47,5.94c.02-.02,1.92-.33,3.37-2.11,.03-.1,1.95-2.14,1.16-5.35-.13-.5-.32-.98-.56-1.42l1.14-.71c.61,1.08,.96,2.33,.96,3.65,0,4.1-3.33,7.44-7.44,7.44-4.07,0-7.44-3.31-7.44-7.44Zm7.44,5.71c-3.15,0-5.71-2.56-5.71-5.71C2.89,2.93,10.36,.82,13.4,5.57l-4.52,2.8c-.06-.04-.13-.07-.2-.09-.31-.07-.63,.12-.7,.43-.07,.31,.12,.63,.43,.7,.31,.07,.63-.12,.7-.43,.02-.1,.02-.2-.01-.3h0s4.49-2.78,4.49-2.78c2.03,3.7-.58,8.44-5.01,8.44Zm0,2.12c.3,0,.6-.02,.89-.05v1c-.19-.14-.42-.23-.66-.27-.4-.06-.8,.04-1.12,.26v-.99c.29,.03,.59,.05,.89,.05Zm30.63,32.45H.8c-.22,0-.39-.17-.39-.39v-1.86c0-.22,.17-.39,.39-.39,1.02,0,35.23,0,38.42,0,.06,0,.11,.01,.16,.03v2.38c0,.06,0,.12,.03,.18-.05,.03-.12,.05-.19,.05Z"/>
    <circle class="cls-11" cx="43.52" cy="32.36" r=".22"/>
    <path class="cls-11" d="M46,32.55c.11,0,.19-.09,.19-.19s-.09-.19-.19-.19h-1.78c-.11,0-.19,.09-.19,.19s.09,.19,.19,.19h1.78Zm-4.61,6.55c0,1.93,1.57,3.51,3.51,3.51s3.51-1.57,3.51-3.51-1.57-3.51-3.51-3.51-3.51,1.57-3.51,3.51Zm3.51-3.12c1.72,0,3.12,1.4,3.12,3.12s-1.4,3.12-3.12,3.12-3.12-1.4-3.12-3.12c0-1.72,1.4-3.12,3.12-3.12ZM31.16,9.67c1.45,.68,2.07,2.41,1.39,3.86-.05,.1,0,.21,.09,.26,.03,.01,.05,.02,.08,.02,.07,0,.14-.04,.18-.11,.77-1.64,.06-3.6-1.58-4.37-.1-.05-.21,0-.26,.09-.05,.1,0,.21,.09,.26Z"/>
    <path class="cls-11" d="M30.67,10.48c.5,.23,.87,.65,1.06,1.17,.19,.52,.16,1.08-.07,1.58-.05,.1,0,.21,.09,.26,.03,.01,.05,.02,.08,.02,.07,0,.14-.04,.18-.11,.28-.59,.31-1.26,.09-1.87-.22-.62-.67-1.11-1.26-1.39-.1-.05-.21,0-.26,.09-.05,.1,0,.21,.09,.26Z"/>
    <path class="cls-11" d="M30.18,11.28c.29,.14,.52,.38,.63,.69,.11,.31,.1,.64-.04,.93-.05,.1,0,.21,.09,.26,.03,.01,.05,.02,.08,.02,.07,0,.14-.04,.18-.11,.18-.39,.2-.83,.06-1.23s-.44-.73-.83-.91c-.1-.05-.21,0-.26,.09-.05,.1,0,.21,.09,.26Zm7.61-7.86h0c-.13,0-.24,.12-.24,.25l.06,2.06c0,.13,.11,.24,.24,.24h0c.13,0,.24-.12,.24-.25l-.06-2.06c0-.13-.11-.24-.24-.24Zm-.04-1h0c.13,0,.24-.12,.24-.25l-.04-1.24c0-.13-.11-.24-.24-.24h0c-.13,0-.24,.12-.24,.25l.04,1.24c0,.13,.11,.24,.24,.24Zm-5.1,15.39h0c-.13,0-.24,.12-.24,.25l.06,2.06c0,.13,.11,.24,.24,.24h0c.13,0,.24-.12,.24-.25l-.06-2.06c0-.13-.11-.24-.24-.24ZM23.84,4.43h0c.13,0,.24-.12,.24-.25l-.06-2.06c0-.13-.11-.24-.24-.24h0c-.13,0-.24,.12-.24,.25l.06,2.06c0,.13,.11,.24,.24,.24ZM3.83,19.23h0c.13,0,.24-.12,.24-.25l-.06-2.06c0-.13-.11-.24-.24-.24h0c-.13,0-.24,.12-.24,.25l.06,2.06c0,.13,.11,.24,.24,.24Zm40.23,5.74c-.13,0-.24,.12-.24,.25l.06,2.06c0,.13,.11,.24,.24,.24h0c.13,0,.24-.12,.24-.25l-.06-2.06c0-.13-.12-.24-.25-.24Z"/>
  </g>
</svg>