<?xml version="1.0" encoding="UTF-8"?>
<svg id="Layer_1" data-name="Layer 1" xmlns="http://www.w3.org/2000/svg" xmlns:xlink="http://www.w3.org/1999/xlink" viewBox="0 0 779.91 579">
  <defs>
    <style>
      .cls-1, .cls-2 {
        fill: #fff;
      }

      .cls-3 {
        fill: #f37168;
      }

      .cls-4, .cls-5 {
        fill: #9ec8ff;
      }

      .cls-6 {
        fill: #93bbf0;
      }

      .cls-7 {
        fill: #75a1de;
      }

      .cls-2, .cls-5 {
        opacity: .5;
      }

      .cls-8 {
        fill: #f5dc95;
      }

      .cls-9 {
        fill: #cce2ff;
      }

      .cls-10 {
        fill: #f09959;
      }

      .cls-11 {
        fill: #2e5b9a;
      }

      .cls-12 {
        fill: #74b570;
      }

      .cls-13 {
        fill: #94bdf2;
      }

      .cls-14 {
        fill: #7a4e34;
      }

      .cls-15 {
        fill: #6791c9;
      }

      .cls-16 {
        fill: #a8ceff;
      }

      .cls-17 {
        fill: #ffb8b3;
      }

      .cls-18 {
        clip-path: url(#clippath);
      }

      .cls-19 {
        fill: #e38540;
      }

      .cls-20 {
        fill: #fae8b6;
      }

      .cls-21 {
        fill: none;
      }

      .cls-22 {
        fill: #9cd499;
      }

      .cls-23 {
        fill: #d54a41;
      }

      .cls-24 {
        fill: #f2e5de;
      }

      .cls-25 {
        fill: #a86b48;
      }

      .cls-26 {
        fill: #303c60;
      }

      .cls-27 {
        fill: #96cfe0;
      }

      .cls-28 {
        fill: #3e6bab;
      }

      .cls-29 {
        fill: #f39892;
      }

      .cls-30 {
        fill: #e7f3fe;
      }

      .cls-31 {
        fill: #a2dff2;
      }

      .cls-32 {
        fill: #4476bd;
      }
    </style>
    <clipPath id="clippath">
      <path class="cls-21" d="M61.85,100.24c-16.76,0-30.36,13.59-30.36,30.36s13.59,30.36,30.36,30.36,30.36-13.59,30.36-30.36-13.59-30.36-30.36-30.36Zm0,46.44c-8.88,0-16.08-7.2-16.08-16.08s7.2-16.08,16.08-16.08,16.08,7.2,16.08,16.08-7.2,16.08-16.08,16.08Z"/>
    </clipPath>
  </defs>
  <path class="cls-30" d="M107.02,96.57c110.04-40.85,221.89-4.74,297.74,73.93,75.85,78.66,235.05-54.3,319.47,24.24,57.62,53.6,31.23,191.4-47.78,251.08-107.38,81.13-507.44,83.56-573.82,55.72-113.43-47.57-.72-135.66-53.67-220.11C-13.49,181.81,58.39,114.62,107.02,96.57Z"/>
  <path class="cls-9" d="M726.44,478.09c-55.08-2.69-242.47,1.87-299.46,3.65-56.99,1.78-123.14-2.35-157.5-8.41-34.36-6.07-232.99,.52-223.98,16.83,9.01,16.31,88.5,7.3,178.63,13.85,90.14,6.56,292.86-.82,338.58,0,45.73,.82,87.66-1.64,146.59-4.92s49.07-19.43,17.14-21Z"/>
  <g>
    <path class="cls-5" d="M606.97,119.09c.22-1.95,.33-3.92,.33-5.93,0-1.06-.03-2.11-.1-3.15l-9.8-3.17c-.6-4.13-1.79-8.07-3.47-11.74l6.5-7.99c-1.5-2.64-3.23-5.15-5.15-7.48l-9.8,3.2c-2.86-2.92-6.12-5.43-9.7-7.46l.56-10.29c-2.73-1.24-5.59-2.26-8.55-3.03l-6.05,8.35c-2.36-.4-4.78-.61-7.25-.61-1.68,0-3.35,.1-4.98,.29l-5.6-8.66c-3,.61-5.91,1.48-8.7,2.57v10.31c-3.68,1.83-7.07,4.17-10.07,6.93l-9.61-3.71c-2.04,2.23-3.9,4.64-5.54,7.2l6.07,8.33c-1.88,3.58-3.27,7.45-4.09,11.54l-9.95,2.65c-.22,1.95-.33,3.92-.33,5.93,0,1.06,.03,2.11,.1,3.15l9.8,3.17c.6,4.13,1.79,8.07,3.47,11.74l-6.5,7.99c1.5,2.64,3.23,5.15,5.15,7.48l9.8-3.2c2.86,2.92,6.12,5.43,9.7,7.46l-.56,10.29c2.73,1.24,5.59,2.26,8.55,3.03l6.05-8.35c2.36,.4,4.78,.61,7.25,.61,1.68,0,3.35-.1,4.98-.29l5.6,8.66c3-.61,5.91-1.48,8.7-2.57v-10.31c3.68-1.83,7.07-4.17,10.07-6.93l9.61,3.71c2.04-2.23,3.9-4.64,5.54-7.2l-6.07-8.33c1.88-3.58,3.27-7.45,4.09-11.54l9.95-2.65Zm-52.47,14.78c-11.44,0-20.71-9.27-20.71-20.71s9.27-20.71,20.71-20.71,20.71,9.27,20.71,20.71-9.27,20.71-20.71,20.71Z"/>
    <path class="cls-1" d="M582.75,137.08c-.24,0-.48-.08-.68-.25-.45-.38-.51-1.05-.14-1.5,5.16-6.21,8-14.08,8-22.17,0-3.87-.63-7.68-1.88-11.3-.19-.56,.1-1.16,.66-1.36,.56-.19,1.16,.1,1.36,.66,1.33,3.85,2,7.89,2,12,0,8.58-3.02,16.94-8.5,23.53-.21,.25-.51,.38-.82,.38Z"/>
    <path class="cls-1" d="M579.75,88.19c-.26,0-.53-.1-.73-.29-3.47-3.27-7.49-5.74-11.94-7.36-.55-.2-.84-.81-.64-1.37s.81-.84,1.37-.64c4.73,1.72,9,4.34,12.68,7.81,.43,.4,.45,1.08,.05,1.51-.21,.22-.49,.34-.78,.34Z"/>
    <path class="cls-1" d="M546.47,79.56c-.48,0-.91-.32-1.03-.81-.14-.57,.2-1.15,.77-1.3,2.94-.74,5.98-1.12,9.04-1.12,.59,0,1.07,.48,1.07,1.07s-.48,1.07-1.07,1.07c-2.88,0-5.75,.35-8.52,1.05-.09,.02-.18,.03-.26,.03Z"/>
  </g>
  <rect class="cls-5" x="192.53" y="61.57" width="330.04" height="198.24"/>
  <rect class="cls-1" x="208.6" y="66.41" width="310.5" height="181.99"/>
  <g>
    <path class="cls-26" d="M473.38,160.46c14.8-14.09,40.09-13.77,39.55,7.68-.53,21.45,1.24,23.46,7.33,34.72,21.13,39.04-25.18,36.74-44.5,38.02-19.31,1.28-17.71-35.11-14.3-55.27s7.59-21.03,11.92-25.15Z"/>
    <path class="cls-32" d="M480.27,283.43c-4.74,39.84-13.36,69.29-14.32,88.17-.96,18.89-4.8,93.25-4.8,93.25,0,0,10.56-.74,11.52-2.34,.96-1.6,19.85-43.53,18.89-69.46-.96-25.93,18.86-65.35,18.86-65.35l-4.78-38.68-25.37-5.59Z"/>
    <path class="cls-28" d="M484.83,300.78l-7.42,3.1c-2.02,12.63-4.25,23.99-6.22,34.06,11.81,7.63,17.91,33.06,20.52,48.61,1.33-17.4,9.54-38.42,14.63-50.04l-21.51-35.74Z"/>
    <path class="cls-32" d="M519.09,279.42s15.99,20.4,15.49,43.53c-.76,35.22-4.6,45.28,2.08,82.21,2.61,14.43-5.76,61.61-5.76,61.61,0,0-7.15,.56-10.99-1.35,.32-3.47-4.62-59.87-14.25-85.79-4.66-12.55-11.21-47.72-14.73-67.88-3.52-20.17-4.16-24.33-2.88-24.33s31.05-8,31.05-8Z"/>
    <path class="cls-10" d="M427.99,222.77s.71-10.55-.43-13.81c-1.14-3.26-10.96-6.11-10.96-6.11,0,0-.43,15.08,.57,16.93,1,1.85,6.83,7.11,6.83,7.11l3.98-4.13Z"/>
    <path class="cls-31" d="M483.19,215.08c-22.48,24.19-29.81,34.37-31.52,34.37-5.34-9.42-23.06-29.34-23.06-29.34l-7.56,4.86s17.46,45.62,28.56,46.09c11.1,.47,33.65-15.73,33.94-17.59,.29-1.86-.36-38.39-.36-38.39Z"/>
    <path class="cls-27" d="M459.75,268.71c11-4.48,23.59-13.84,23.81-15.23,.29-1.86-.36-38.39-.36-38.39-4.9,5.27-9.18,9.95-12.89,14.04-4.03,15-3.76,31.32-10.55,39.58Z"/>
    <path class="cls-31" d="M506.03,199.16s21.51,10.78,26.2,29.87c4.7,19.09-9.2,42.66-10.9,55.25-1.71,12.58-40.97,14.8-40.97,1.33s-9.84-40.32-9.28-47.3c1.3-16.38,25.25-36.45,25.25-36.45l9.71-2.69Z"/>
    <path class="cls-10" d="M499.78,174.43l9.23,28.48s-9.86,7.61-26.73,25.91c.66-12.18,10.86-25.46,10.86-25.46l-6.99-26.89,13.63-2.04Z"/>
    <path class="cls-19" d="M504.08,187.71l-4.31-13.28-13.63,2.04,6.99,26.89s-.68,1.09-1.69,2.8c6.58-4.88,10.62-10.96,12.63-18.44Z"/>
    <path class="cls-10" d="M494.69,180.86c-2.49,9.06-12.14,14.05-18.99,12.17-6.85-1.88-8.32-9.93-5.83-18.99,2.49-9.06,10.07-14.88,16.92-13,6.85,1.88,10.39,10.76,7.9,19.82Z"/>
    <path class="cls-31" d="M478.64,272.83c2.99,18.95-8.11,59.49-8.11,59.49,0,0,6.62,1.5,26.47-.42s28.6-21.73,31.59-22.28c2.99-.55,4.52,18.43,6,19.93,1.47,1.5,1.7-23.98-2.15-33.99-6.83-17.75-5.49-25.29-2.94-36.04,4.54-19.13-50.84,13.31-50.84,13.31Z"/>
    <path class="cls-32" d="M461.63,455.53c1.79,7.26-1.74,13.02-6.46,17.22-3.84,3.41-15.65,4.87-15.08,6.57,.57,1.71,14.51,2.25,19.21,1.54,4.7-.71,5.98-2.99,11.82-2.98,3.83,0,4.54-3.11,2.83-6.96-1.71-3.85-2.3-5.98-.76-9.43,1.54-3.45-11.55-5.95-11.55-5.95Z"/>
    <path class="cls-32" d="M531.3,455.53c-.28,7.54-1.16,13.16,.69,16.65,7.14,5.98,13.08,12.76,10.81,13.23-10.81,2.23-14.94-4.25-21.06-6.09-7.51-2.26,.71-11.69-2.23-23.8-1.64-6.73,11.34-5.11,11.34-5.11l.45,5.11Z"/>
    <path class="cls-27" d="M534.03,301.74c-.43-2.36-.96-4.49-1.61-6.18-6.83-17.75-5.49-25.29-2.94-36.04,.2-.85,.28-1.59,.26-2.25,.58-1.92,1.11-3.86,1.58-5.82l-2.32-20.92-16.71-19.85c-12.53,18.35-4.07,41.19-5.95,53.78-1.88,12.59-22.87,28.65-22.87,28.65l.68,4.47c.94,6.13,6.62,10.38,12.76,9.53,8.65-1.2,20-3.61,25.05-8.3,4.89-4.53,9.21-1.03,12.07,2.93Z"/>
    <path class="cls-10" d="M488.38,292.39s-9.27,2.59-10.37,3.17c-1.11,.58-1.72,3.64-1.72,3.64,0,0-5.3,4.6-3.27,6.24,2.03,1.63,5.66,5.76,10.46,3.84,2.94-1.18,5.23-12,7.16-12.08,1.93-.09-2.25-4.8-2.25-4.8Z"/>
    <path class="cls-31" d="M514.62,208.26c9.92,.28,18.91,18.14,22.04,33.63,3.13,15.49,6.43,37.52,6.43,37.52,0,0-16.43,12.97-32.67,16.76-14.16,3.31-21.4,4.6-21.4,4.6l-2.87-8.09,33.89-19.91s-12.46-23.48-13.7-41.19c-1.24-17.71,.74-23.55,8.28-23.33Z"/>
    <rect class="cls-8" x="395.85" y="201.63" width="25.21" height="16.01" transform="translate(-33.26 84.45) rotate(-11.35)"/>
    <path class="cls-10" d="M422.04,221.49c.34-6.49-2.88-15.35-4.73-15.34-1.85,.01,.57,5.8-.43,9.64-.54,2.08,5.15,5.69,5.15,5.69Z"/>
    <path class="cls-26" d="M471.69,163.87c.55,17.78,21.32,16.42,27.01,15.32,5.69-1.1-6.93,37.52,3.91,39.75,7.96,1.64,6.17-10.82,15.01-9.98,3.91,.37,7.84,6.42,7.84,6.42,0,0-.59-3.73-3.58-6.42-2.99-2.69-10.82-19.19-12.88-31-2.06-11.81-16-19.45-20.13-19.68s-14.23,4.46-14.23,4.46l-2.97,1.14Z"/>
    <path class="cls-26" d="M502.43,222.97c-.28,0-.57-.03-.86-.09-3.47-.74-5.15-4.39-5.3-11.48-.12-6.08,.88-13.88,1.95-22.14,.43-3.34,.87-6.79,1.24-10.13,.03-.29,.29-.49,.57-.46,.29,.03,.49,.29,.46,.57-.37,3.35-.81,6.81-1.24,10.15-2.06,15.98-4,31.07,2.53,32.46,.2,.04,.41,.06,.61,.06,3.75,0,7.13-7.32,9.11-14.44,.08-.28,.36-.44,.64-.36,.28,.08,.44,.36,.36,.64-1.3,4.7-4.8,15.21-10.08,15.21Z"/>
    <path class="cls-26" d="M501.04,227.1c-1.18,0-2.21-.46-3.07-1.37-7.08-7.49-.08-45.04,.22-46.64,.05-.28,.33-.47,.61-.41,.28,.05,.47,.33,.41,.61-.07,.39-7.21,38.63-.49,45.73,.78,.83,1.71,1.16,2.83,1.01,3.68-.49,5.8-5.47,7.67-9.88,1.82-4.27,3.53-8.3,6.57-8.2,.29,0,.51,.25,.5,.54,0,.29-.25,.52-.54,.5-.02,0-.05,0-.08,0-2.28,0-3.85,3.68-5.5,7.57-1.98,4.66-4.23,9.94-8.49,10.5-.22,.03-.43,.04-.65,.04Z"/>
    <path class="cls-10" d="M499.47,182.61c-1.46,1.89-3.76,2.56-5.12,1.5-1.37-1.06-1.29-3.45,.18-5.33,1.46-1.89,3.76-2.56,5.12-1.5,1.37,1.06,1.29,3.45-.18,5.33Z"/>
  </g>
  <g>
    <path class="cls-26" d="M338.07,248.47c5.07,10.14,.87,21.82-9.1,25.94-10.04,4.15-21.02,1.79-26.09-8.35-5.07-10.14-1.3-22.3,8.41-27.16,9.72-4.86,21.71-.58,26.78,9.56Z"/>
    <path class="cls-26" d="M310.73,275.63c-1.12,0-3.33-.4-6.13-2.88-2.3-2.04-3.95-5.17-4.65-8.82-.88-4.6-.31-9.88,1.71-15.71,.09-.27,.39-.42,.66-.32,.27,.09,.42,.39,.32,.66-1.96,5.65-2.52,10.76-1.67,15.18,.66,3.42,2.19,6.34,4.32,8.23,3.56,3.16,5.94,2.58,5.97,2.58,.28-.07,.56,.09,.64,.37,.07,.27-.08,.56-.36,.64-.04,.01-.32,.09-.8,.09Z"/>
    <g>
      <path class="cls-16" d="M326.24,287.93c5.77,1.29,13.06,17.33,16.63,27.61,3.6,10.36,9.7,23.22,13.69,27.21,3.99,3.99,30.24,13.26,30.24,13.26,0,0-64.85,.13-63.53,0,1.33-.13,2.96-68.07,2.96-68.07Z"/>
      <path class="cls-6" d="M360.67,350.85c-3.55-.51-16.36,1.14-10.91-1.14,5.45-2.28,4.69-5.2,4.69-5.2,0,0-7.74,6.47-9.13,.81-1.2-4.88-1.66-22.09-6.23-39.35-3.77-8.56-8.71-17.12-12.86-18.05,0,0-.15,6.08-.39,14.59,1.59,18.85,4.3,46.55,4.98,53.53,8.6,.01,22.98,0,35.02-.02l8-.38s-9.64-4.3-13.19-4.8Z"/>
      <path class="cls-16" d="M305.02,284.38s-18.36,10.26-22.64,12.44c-4.28,2.18,11.99,66.22,15.61,68.96,3.62,2.74,35.47,.47,39.1-2.99,3.63-3.46-2.78-14.07,.36-35.31,3.14-21.25-9.57-39.59-11.21-39.55-1.63,.04-12.29-3.55-12.29-3.55h-8.93Z"/>
      <path class="cls-6" d="M297.99,365.78c3.62,2.74,26.41,2.81,36.12-.21,1.1-.34,6.07-2.32,6.18-4.18-1.17-.22-5.82,.34-7.71-.1-6.56-1.51-10.18-9.64-10.18-9.64,0,0-3.61-1.3-11.7-4.72-8.08-3.42-4.76-13.79-4.95-18.36-.19-4.57-7.99-19.5-22.64-30.81l-1.34,.6c-1.04,10.41,12.86,64.89,16.21,67.42Z"/>
      <g>
        <path class="cls-7" d="M424.13,315.54h-44.21l-20.13,42.85h48.7l18.23-38.79c.89-1.89-.49-4.06-2.58-4.06Z"/>
        <path class="cls-28" d="M362.42,358.99h-26.6c-1.65,0-2.99-1.34-2.99-2.99s1.34-2.99,2.99-2.99h24.7l16.7-35.93c.7-1.5,2.47-2.15,3.97-1.45,1.5,.7,2.15,2.47,1.45,3.97l-17.5,37.66c-.49,1.05-1.55,1.73-2.71,1.73Z"/>
      </g>
      <path class="cls-10" d="M316.29,349.84c11.54,2.16,14.38,4.81,20.67,5.82,7.13,1.15,6.28,2.73,.99,2.73s-18.61,.21-23.17-.81c-4.57-1.01,1.52-7.74,1.52-7.74Z"/>
      <path class="cls-16" d="M280.94,298.02c-8.84,28.28-21.38,60.37-19.39,60.37s52.78,2.05,54.78,.34c2-1.71,1.43-8.27,1.14-9.13-.29-.86-28.87-5.93-28.87-5.93,0,0,3.76-7.34,5.19-21.67,1.43-14.34-11.18-29.34-12.85-23.98Z"/>
    </g>
    <path class="cls-10" d="M311.75,259.8l-7.12,26.03s12.04,18.79,15.35,17.12-1.85-15.27-1.85-17.12,5.16-20.92,5.16-20.92l-11.53-5.11Z"/>
    <path class="cls-19" d="M318.37,287.17c-.15-.62-.25-1.08-.25-1.33,0-1.85,5.16-20.92,5.16-20.92l-11.53-5.11-2.36,8.62c2.06,8.9,5.77,14.83,8.98,18.75Z"/>
    <path class="cls-10" d="M338.4,259.37c1.36,7.55,.46,17.58-6.24,20.13-6.7,2.55-14.78-2.33-18.04-10.89-3.26-8.57-.46-17.58,6.24-20.13,6.7-2.55,16.42,1.87,18.04,10.89Z"/>
    <path class="cls-10" d="M315.72,263.62c.94,2.64,.12,5.34-1.82,6.03s-4.29-.88-5.23-3.52c-.94-2.64-.12-5.34,1.82-6.03,1.95-.69,4.29,.88,5.23,3.52Z"/>
    <path class="cls-26" d="M338.48,249.89c-2.28,17.72-23.81,15.43-23.81,15.43,0,0-4.44-5.84-6.44-2.78-2,3.06,2.77-17.96,15.12-18.62,4.06-.22,15.12,5.96,15.12,5.96Z"/>
    <ellipse class="cls-26" cx="304.95" cy="242.4" rx="11.66" ry="10.94"/>
  </g>
  <g>
    <g>
      <polygon class="cls-11" points="281.73 487.11 284.39 487.11 301.61 407.35 295.74 407.35 281.73 487.11"/>
      <polygon class="cls-11" points="364.61 487.11 361.94 487.11 341.91 404.54 347.77 404.54 364.61 487.11"/>
      <path class="cls-11" d="M312.14,410.34c-10.68,0-17.44-1.92-21.76-6.12-5.35-5.21-6.46-13.29-6.48-23.81-.01-8.28-.21-13.67-.66-18.03-.17-1.64,1.02-3.11,2.67-3.28,1.64-.17,3.11,1.02,3.28,2.67,.47,4.57,.68,10.14,.69,18.64,.02,10.66,1.37,16.32,4.67,19.54,3.39,3.3,9.51,4.66,19.84,4.4,9.98-.25,16.85-1.64,22.37-2.76,7.26-1.48,12.51-2.54,18.73,.43,1.49,.71,2.12,2.5,1.41,3.98-.71,1.49-2.5,2.12-3.98,1.41-4.42-2.11-8.16-1.35-14.96,.03-5.75,1.17-12.91,2.62-23.42,2.88-.82,.02-1.62,.03-2.4,.03Z"/>
    </g>
    <path class="cls-11" d="M287.88,358.73l16.35,.68-4.35,45.13s-12.18-7.78-11.99-16.15c.19-8.37,0-29.66,0-29.66Z"/>
    <path class="cls-10" d="M368.57,362.93c13.82-2.1,18.52-1.44,26.98,14.31,8.46,15.74,19.72,44.09,26.19,47.75,9.75,5.51,12.98,19.03,16.99,18.42,4-.61,6.58,1.16,2.22,4.78-4.36,3.62-11.39,6.7-13.8,6.06-2.41-.64-4.27-11.04-10.56-14.41-6.28-3.38-4.4-6.15-3.98-9.13,.41-2.99-18.34-16.73-32.48-33.83-8.64-10.45-13.09-17.34-13.75-23.59-.66-6.25,2.18-10.36,2.18-10.36Z"/>
    <path class="cls-19" d="M402.84,420.02c-3.21-8.14-6.43-21.58-9.46-33.91-4.3-17.52-8.82-21.68-11.67-23.55-3.46-.87-7.55-.47-13.13,.38,0,0-2.84,4.11-2.18,10.36,.66,6.25,5.11,13.14,13.75,23.59,7.44,9,16.17,17.07,22.7,23.13h0Z"/>
    <path class="cls-11" d="M372.78,376.79s-3.68,27.75-7.1,30.57c-2.45,2.02-4.18,2.15-5.9-6.12-1.71-8.28,2.66-39.16,2.66-39.16l10.34,14.72Z"/>
    <polygon class="cls-10" points="369.85 391.8 335.82 397.52 355.03 369.97 369.66 366.99 378.43 369.01 369.85 391.8"/>
    <path class="cls-11" d="M412.62,430.71c-1.1,4.45-.97,7.73,.95,9.38,1.92,1.65,9.16,13.89,9.16,13.89l2.26-.34-5.22-11.2-7.14-11.73Z"/>
    <path class="cls-11" d="M427.16,454.25c2.41,.64,9.44-2.44,13.8-6.06,4.36-3.62,1.78-5.39-2.22-4.78-.23,.03-.45,.02-.67-.03-2,4.47-8.58,7.82-10.7,3.1-2.1-4.68-11.11-13.98-14.74-15.97,0,.07,.01,.14,0,.21-.41,2.99-2.3,5.76,3.98,9.13,6.28,3.38,8.15,13.77,10.56,14.41Z"/>
    <path class="cls-19" d="M299.11,364.04c-12.08,21.67-3.83,35.44,10.85,36.85,14.68,1.4,37.85-1.28,51.35-12.5,13.51-11.22,24.59-23.09,23.04-24.86-1.55-1.77-85.24,.51-85.24,.51Z"/>
    <path class="cls-10" d="M367.58,380.21c2.47-7.42,5.32-13.11,10.84-13.21,5.8-.11,9.37,2.91,9.62,12.4,.3,11.3,.69,48.74,.17,65.39-.4,12.6,3.28,16.64,2.97,29.77-.23,9.89,10.31,4.9,6.24,10.03-2.8,3.53-11.14,2.37-16.26,1.72-4.56-.58,2.36-14.26-3.95-17.92-5.42-3.14-5.53-8.23-2.1-12.09,3.42-3.86,.38-15.27-1.9-23.26-2.28-7.99-5.82-16.63-8.15-35.52-.66-5.39,1.02-12.78,2.53-17.31Z"/>
    <path class="cls-11" d="M393.82,480.55c-1.75,.53-3.9,1.12-5.78,1.18-3.8,.13-4.95-4.06-5.2-9.74-.22-4.96-3.83-12.78-7.52-15.95-.07,.09-.14,.18-.21,.26-3.42,3.86-3.32,8.95,2.1,12.09,6.32,3.66-.61,17.34,3.95,17.92,5.12,.65,13.46,1.81,16.26-1.72,2.65-3.33-.64-3.6-3.61-4.04Z"/>
    <path class="cls-11" d="M375.96,454.89s-5.55,5.79-5.04,8.2c.51,2.41,2.22,8.5,2.5,13.19,.29,4.69,.54,10.08,.54,10.08,0,0,2,0,2.16-.57,.16-.57,1.27-19.07,1.27-19.07l-1.43-11.83Z"/>
    <path class="cls-7" d="M293.29,362.07s-7.16,30.4,1.89,38.82c9.05,8.42,46.63,.85,55.48,.34,5.99-.34,11.79,6.97,11.79,6.97,0,0-4.18-16.96-1.33-30.65,2.85-13.7,7.46-14.62,7.46-14.62l-6.13-.86h-69.16Z"/>
    <path class="cls-16" d="M291.67,354.12c3.06,6.5-3.3,17.72-1.07,20.95,2.23,3.23,14.99,.45,23.35-6.28,8.36-6.73,24.19-8.21,24.19-8.21l-46.47-6.47Z"/>
    <path class="cls-11" d="M304.62,409.5c25.3,.95,51.93,.5,51.93-3.27s-1.14-6.43-20.73-4.91c-19.59,1.52-32.91,3.61-38.8,2.28-5.9-1.33,7.61,5.9,7.61,5.9Z"/>
  </g>
  <rect class="cls-11" x="215.21" y="358.38" width="361.96" height="6.89" rx="3.36" ry="3.36"/>
  <g>
    <path class="cls-10" d="M621.77,266.08c2.45,8.64-3.53,17.54-10.13,19.42-6.59,1.87-11.3-4-13.75-12.64-2.45-8.64,.91-17.16,7.5-19.03,6.59-1.87,13.93,3.62,16.38,12.26Z"/>
    <path class="cls-10" d="M584.8,433.52s16.9,26.25,19.18,27.39c2.28,1.14,7.99,1.43,5.85,5.71-2.14,4.28-3,21.11-4.99,21.97-2,.86-19.12,2.85-16.55,0,2.57-2.85,4.15-1.43,5.44-6.56,1.3-5.14,3.12-14.84,.69-16.83-2.42-2-17.26-19.97-17.26-19.97l7.64-11.7Z"/>
    <path class="cls-10" d="M499.74,444.79s-20.54,33.86-24.35,36.9c-3.8,3.04-16.36,7.61-6.09,8.37,10.27,.76,15.22-3.42,21.68-5.33,6.47-1.9,14.46-3.04,11.41-7.99-3.04-4.95-1.78-15.74,4.78-22.59,6.56-6.85-7.44-9.37-7.44-9.37Z"/>
    <path class="cls-15" d="M604.58,366.28s-50.85-1.33-71.02,15.22c-11.79,17.88-40.32,70.64-42.54,76.45,1.52,1.52,10.08,4.27,13.89,3.89,11.22-13.38,26.06-24.95,31.96-35.45,7.27-12.93,9.51-19.4,21.3-20.54,11.79-1.14,38.42-4.95,46.41-4.95s0-34.62,0-34.62Z"/>
    <polygon class="cls-11" points="648.93 490.15 646.26 490.15 627.14 410.4 633.01 410.4 648.93 490.15"/>
    <polygon class="cls-11" points="569.07 490.15 571.74 490.15 593.67 407.58 587.81 407.58 569.07 490.15"/>
    <path class="cls-7" d="M633.55,362.79l-29.57,5.1s-39.29,.36-57.25,3.71c-16.34,3.04-18.75,21.61,0,47.17,10.65,14.52,19.65,26.11,38.07,39.17,4.68-3.44,6.48-4.74,7.77-13.01-1.33-1.83-4.78-13.26-5.85-15.5-10.18-21.29-23.78-29.03-23.97-31.13,2.28-3.71,60.46,19.33,72.03,5.78,11.04-12.94-1.23-41.29-1.23-41.29Z"/>
    <path class="cls-3" d="M634.78,295.86c-7.79-1.09-15.72,.39-23.14,5.76-6.48,6.61-13.82,17.5-13.37,35.47,.57,22.82-3.53,24.29,.75,30.57,17.85,7.37,48.38,39.04,41.19,5.09-5.21-24.58,11.42-42.91-1.99-70.18-1.09-2.22-2.46-4.37-3.44-6.71Z"/>
    <path class="cls-23" d="M598.27,345.68c-.35,11.9-2.03,15.4-.74,19.14,7.28,.74,20.59,3.65,23.91,8.31,3.8,5.33,7.61,6.09,5.83,2.16-1.78-3.93-6.47-9.51,.76-28.66,7.23-19.15,10.65-32.08,3.55-45.4l-33.32,44.45Z"/>
    <path class="cls-10" d="M634.78,295.86c-4.8-11.35-5.97-24.1-5.97-24.1l-12.55,3.71s7.13,15.98,.29,21.68c-1.46,1.21-3.14,2.69-4.89,4.47,7.42-5.37,15.35-6.85,23.14-5.76Z"/>
    <path class="cls-19" d="M629.18,274.77c-.74-.66-1.67-1.49-2.65-2.35l-10.24,3.03s-.01,.04-.02,.06c.25,.57,2.86,6.65,3.2,12.51,3.05-1.85,6.39-4.87,10.21-10.14-.21-1.17-.37-2.21-.5-3.09Z"/>
    <path class="cls-10" d="M625.95,299.43c-12.93,4.52-11.5,18.14-23.4,38.23-6.16,10.4-11.88,10.24-11.88,10.24,0,0-14.44,.12-31.91-2.02-10.94-1.34-11.63,1.92-4.03,4.64,15.34,5.49,31.27,11.39,44.11,9.96,12.84-1.43,34.8-34.18,35.93-42.71,1.57-11.79-2.31-20.62-8.83-18.34Z"/>
    <path class="cls-11" d="M619.3,413.39c-.8,0-1.62-.01-2.47-.03-10.51-.26-17.66-1.71-23.42-2.88-6.8-1.38-10.55-2.14-14.96-.03-1.49,.71-3.27,.08-3.98-1.41-.71-1.49-.08-3.27,1.41-3.98,6.22-2.97,11.47-1.91,18.73-.43,5.52,1.12,12.39,2.52,22.37,2.76,11.24,.28,18.12-1.41,21.63-5.3,3.14-3.48,4.06-9.28,2.91-18.25-.39-3.04-.78-5.57-1.13-7.8-.97-6.26-1.61-10.39-.82-16.76,.74-5.94,2.71-13.86,7.27-29.23,.47-1.58,2.13-2.48,3.71-2.01,1.58,.47,2.48,2.13,2.01,3.71-8.54,28.75-8.1,31.56-6.28,43.38,.35,2.26,.75,4.83,1.15,7.95,1.39,10.83,0,18.14-4.4,23.01-4.53,5.02-11.91,7.31-23.75,7.31Z"/>
    <path class="cls-23" d="M501.14,473.33c-13.63,6.67-20.97,10.49-25.34,10.12-1.03-.09-1.89-.19-2.6-.3-4.86,2.87-12.62,6.27-3.89,6.91,10.27,.76,15.22-3.42,21.68-5.33,6.47-1.9,14.46-3.04,11.41-7.99-.58-.95-1.01-2.11-1.27-3.42Z"/>
    <path class="cls-23" d="M605.47,461.46c-.33,10.79-1.82,21.49-8.42,23.51-1.75,.54-3.34,.61-4.76,.42-1.04,1.28-2.3,1.3-4,3.19-2.57,2.85,14.55,.86,16.55,0,2-.86,2.85-17.69,4.99-21.97,1.76-3.52-1.78-4.34-4.36-5.15Z"/>
    <path class="cls-7" d="M552.96,358.99h-43.3c-1.16,0-2.22-.67-2.71-1.73l-17.5-37.66c-.7-1.5-.05-3.27,1.45-3.97,1.5-.7,3.27-.05,3.97,1.45l16.7,35.93h41.4c1.65,0,2.99,1.34,2.99,2.99s-1.34,2.99-2.99,2.99Z"/>
    <path class="cls-10" d="M562.02,346.26c-8.75-.13-17.43-5.34-21.74-4.58-4.31,.76-18.39,10.53-16.61,10.91,1.78,.38,12.93-5.4,13.32-5.49,.38-.09,2.79,4.01,8.75,5.51,5.96,1.5,.04-4.47,18.52,1.11,12.01,3.63-2.23-7.46-2.23-7.46Z"/>
    <path class="cls-24" d="M633.49,285.5l1.29,10.36s-11.32,.67-16.96,3.84c-5.63,3.17-13.95,12.33-13.95,12.33l6.79-11.7,.98-7.48,21.85-7.35Z"/>
    <path class="cls-24" d="M628.67,298.18c-8.41-1.58-12.3,5.96-17.75,18.26-5.45,12.3-14.76,27.24-16.61,29.17-1.85,1.93-31.2,0-31.2,0,0,0-.89,8.5,0,9.51,.89,1.01,5.96,.89,5.96,.89,0,0,2.03,1.62,3.93,2.9,1.9,1.28,18.01,3.69,25.49,3.31,7.48-.38,14.33-1.01,15.34-2.16,1.01-1.14,21.43-32.59,22.7-43.88,1.27-11.29-3.57-17.2-7.86-18.01Z"/>
    <path class="cls-26" d="M603.87,246.44c-15.91,.76-13.41,24.69-13.41,24.69,0,0,4.13,1.28,12.79-.15-.67-2.57-.38-9.13-.38-9.13,0,0,1.01,5.33,2.28,8.56,1.83,.84,3.9,.1,7.42-.76,1.81,7.6,6.91,10.82,10.41,11.91,3.86,1.21,7.95,2.66,12.52,.38,4.57-2.28,2.05-25.62-.37-30.31-3.64-7.04-9.69-13.35-20.15-10.02-5.25,1.67-11.1,4.82-11.1,4.82Z"/>
    <path class="cls-26" d="M631.53,274.86l6.5,9.5s-7.21,18.01,13.75,26.17c16.42,6.39,14.48,17.65,7.06,28.97-7.42,11.32,4.44,21.21,4.44,21.21,0,0,1.81-12.54,17.76-14.91,21.75-3.23,27.91-32.43,11.66-47.03-13.44-12.08-17.53-2.08-26.63-12.92-9.1-10.84-26.28-3.52-26.28-3.52l-6.3-9.18-1.98,1.71Z"/>
    <path class="cls-26" d="M700.19,328.12c-.08,0-.17-.02-.25-.06-.25-.14-.34-.45-.21-.71,5.48-10.02,1.01-22.15-1.24-25.44-.24-.35-.46-.7-.7-1.07-2.21-3.45-4.96-7.75-19.63-10.39-3.51-.63-6.36-2.72-9.38-4.94-6.26-4.59-13.35-9.8-28.76-2.71-.26,.12-.57,0-.69-.25-.12-.26,0-.57,.25-.69,15.97-7.35,23.32-1.95,29.81,2.81,2.92,2.14,5.67,4.16,8.95,4.75,15.11,2.72,18,7.23,20.32,10.85,.23,.37,.46,.71,.68,1.05,1.36,1.98,3.03,6.08,3.72,10.79,.59,4.08,.66,10.12-2.42,15.74-.09,.17-.27,.27-.46,.27Z"/>
    <path class="cls-26" d="M628.06,284.53c-1.04,0-2.16-.09-3.37-.27-5.54-.83-12.98-3.98-13.57-21.7,0-.29,.22-.53,.5-.54,.3-.01,.53,.22,.54,.5,.24,7.33,1.7,12.76,4.33,16.13,2,2.57,4.66,4.02,8.35,4.57,5.18,.78,8.61-.18,10.2-2.85,.15-.25,.47-.33,.71-.18,.25,.15,.33,.47,.18,.71-1.44,2.41-4.08,3.62-7.88,3.62Z"/>
  </g>
  <g>
    <path class="cls-27" d="M131.66,297.1c-18.46,10.56-44.14,54.44-38.72,61.6,5.42,7.16,34.52-11.67,34.52-11.67l4.2-49.93Z"/>
    <path class="cls-26" d="M166.15,246.21c-7.05-.19-4.43-5.43-12.54-3.34-4.26,1.1-1.12,2.85-6.65,2.28-5.54-.57-8.26-1.14-8.96,2.47-.7,3.61-1.04,4.76-3.7,5.33-2.66,.57-3.87,5.33,0,8.56,3.87,3.23,1.99,4.57,1.13,7.23-.86,2.66,2.06,2.85,3.65,5.33,1.58,2.47-1.46,2.94,.82,5.08,2.28,2.14,5.48,1.95,5.48,1.95l9.61-18.42,11.16-16.47Z"/>
    <path class="cls-11" d="M309.77,467.36s10.27,.29,18.26-2.85c7.99-3.14,13.41-7.99,11.98-2.28-1.43,5.71-7.99,15.5-13.69,16.45-5.71,.95-7.7,7.23-10.84,7.23s-7.7-7.23-15.69-10.84c-7.28-3.29,9.99-7.7,9.99-7.7Z"/>
    <path class="cls-11" d="M228.83,466.39s4.32,5.96,11.84,10.1c7.76,4.28,16.72,6.34,11.17,8.28-5.55,1.94-13.68,3.44-21.6,1.14-5.56-1.61-12.07-1.95-13.79-4.58-1.72-2.62,2.03-9.22,.47-19.07-1.25-7.89,11.91,4.13,11.91,4.13Z"/>
    <path class="cls-28" d="M180.73,370.65s59.5,22.28,64.29,28.51c4.79,6.23,67.34,62.96,67.34,67.15s-10.65,11.79-10.65,11.79c0,0-53.64-32.91-66.96-49.65-13.32-16.74-45.81-24.81-63.09-26.36-17.28-1.55,9.07-31.44,9.07-31.44Z"/>
    <path class="cls-32" d="M183.01,370.65s40.71-1.52,49.46,0c8.75,1.52,27.94,1.5,15.39,36.93-9.84,27.77-13.09,62.93-13.09,62.93l-19.56,4.81s.78-63.22,10.11-80.05c-6.8,1.12-19.28,3.31-36.57,8.25-32.08,9.17-49.67,4.58-49.67,4.58l-4.78-16.74,48.72-20.71Z"/>
    <polygon class="cls-25" points="149.02 265.55 139.07 294.93 151.64 303.21 158.76 277.81 149.02 265.55"/>
    <path class="cls-14" d="M152.76,299.2l6-21.39-9.74-12.27-3.64,10.75c1.26,9.71,4.29,17.74,7.38,22.9Z"/>
    <path class="cls-25" d="M174.39,270.52c.32,8.94-4.07,16.67-11.05,17.36-6.98,.69-13.35-5.97-14.22-14.87-.88-8.9,4.07-16.67,11.05-17.36,6.98-.69,13.71,.77,14.22,14.87Z"/>
    <path class="cls-31" d="M134.3,294.08c-30.53,20.62-11.54,53.94-4.84,78.29,5.71,20.74,5.52,33.27,6.38,33.27s21.85-3.14,33.84-13.98c11.98-10.84,20.08-21.34,20.08-21.34,0,0-15.35-2.73-20.37-22.59-2.55-10.08-1.39-15.56-7.2-31.53-5.81-15.98-27.9-22.1-27.9-22.1Z"/>
    <path class="cls-31" d="M134.3,294.08l3.27-8s10.37,6.85,14.5,10.08c4.14,3.23,6.69,3.99,6.69,3.99,0,0,1.5,11.47,.52,10.43-12.24-13.11-24.99-16.5-24.99-16.5Z"/>
    <g>
      <polygon class="cls-11" points="120.76 490.15 123.43 490.15 142.55 410.4 136.68 410.4 120.76 490.15"/>
      <polygon class="cls-11" points="200.62 490.15 197.95 490.15 176.02 407.58 181.88 407.58 200.62 490.15"/>
      <path class="cls-11" d="M150.46,413.39c-10.68,0-17.44-1.92-21.76-6.12-5.35-5.21-6.46-13.29-6.48-23.81-.03-22.12-1.26-26.69-7.48-40.2-.69-1.5-.04-3.27,1.46-3.96,1.5-.69,3.27-.04,3.96,1.46,6.58,14.28,8,19.53,8.03,42.69,.02,10.66,1.37,16.32,4.67,19.54,3.39,3.3,9.51,4.66,19.84,4.4,9.98-.25,16.85-1.64,22.37-2.76,7.26-1.48,12.51-2.54,18.73,.43,1.49,.71,2.12,2.5,1.41,3.98-.71,1.49-2.5,2.12-3.98,1.41-4.42-2.11-8.16-1.35-14.96,.03-5.75,1.17-12.91,2.62-23.42,2.88-.82,.02-1.62,.03-2.4,.03Z"/>
    </g>
    <path class="cls-28" d="M282.38,358.65h-43.3c-1.65,0-2.99-1.34-2.99-2.99s1.34-2.99,2.99-2.99h41.4l16.7-35.93c.7-1.5,2.47-2.15,3.97-1.45,1.5,.7,2.15,2.47,1.45,3.97l-17.5,37.66c-.49,1.05-1.55,1.73-2.71,1.73Z"/>
    <path class="cls-27" d="M135.43,324.1s7.61,23.21,17.02,32.81c9.42,9.61,28.36,12.83,34.3,12.46-4.73-1.9-13.74-7.31-17.36-21.65-2.55-10.08-1.39-15.56-7.2-31.53-4.31-11.86-17.59-18.29-24.15-20.82,8.19,5.88,18.42,15.56,21.57,22.93,3.49,8.18-24.18,5.8-24.18,5.8Z"/>
    <path class="cls-25" d="M240.44,344.46s13.12-5.99,14.55-5.42c1.43,.57,15.98,9.36,15.98,10.81s-12.84-5.43-12.84-5.43c0,0,1.43,3.8,.57,5.63-.86,1.82-10.73,1.82-19.63,1.25-8.9-.57,1.37-6.85,1.37-6.85Z"/>
    <path class="cls-31" d="M135.85,306.17c-12.1,24.8,29.4,49.93,54.02,52.17,24.62,2.23,53.87-5.82,53.87-5.82l-3.3-8.05s-49.33-6.44-50.57-7.34c-1.25-.9-49.59-40.04-54.02-30.96Z"/>
    <path class="cls-25" d="M151.58,266.38c1.12,2.95,.3,6-1.84,6.81-2.14,.81-4.78-.92-5.9-3.87-1.12-2.95-.3-6,1.84-6.81,2.14-.81,4.78,.92,5.9,3.87Z"/>
    <path class="cls-26" d="M174.41,247.5c3.34-1.39,7.11-2.89,5.94,2.79-.51,2.47,0,1.78,.89,4.06,.89,2.28-2.24,4.08-3.25,5.34-1.01,1.27,1.48,2.65-.55,4.17-2.03,1.52-4.7-.56-6.59,0-5.64,1.68-4.95-2.75-8.12-3.68-3.17-.92-4.72-.78-5.33,1.25-.6,2.03,2.22,8.71-.19,8.07-2.41-.63-2.95,4.76-3.6,7.8-.65,3.04-2.3-2.1-2.19-5.58,.16-5.34-1.16-7.58-3.13-9.08-1.97-1.49-2.8-15.08,6.71-15.59,9.51-.51,9.57-1.42,13.63-2.28,4.06-.86,4.26,3.36,5.79,2.73Z"/>
  </g>
  <g>
    <path class="cls-12" d="M707.62,402.63c6.06,5.54,3.43,11.07-1.05,21.36-4.48,10.28-5.27,48.25-5.27,48.25l3.69-.53s-.53-39.02,4.48-49.57c5.01-10.55,7.12-15.82,11.6-12.39,4.48,3.43-13.45-7.12-13.45-7.12Z"/>
    <path class="cls-22" d="M704.29,395.46c.74-3.28,5.11-6.83,10.96-9.84-.87,4.84-3.66,12.75-.77,14.38,3.89,2.19,.38-8.86,1.88-14.93,5.49-2.68,12.1-4.87,18.18-5.96,0,.02-.02,.04-.02,.07-3.43,8.7-7.91,12.13-6.06,13.45,1.39,.99,5.91-9.06,11.88-14.21,4.48-.24,8.28,.37,10.52,2.14,3.47,2.75,5.8,5.18,2.31,13.54-1.99,1.42-4.57,2.44-7.57,2.74-7.91,.79-11.6,1.05-6.06,3.69,2.71,1.29,7.26-.07,10.94-.9-1.2,2.2-2.66,4.7-4.45,7.54-1.13,1.8-2.38,3.36-3.71,4.72-2.55,.49-4.77,.49-5.95-.01-3.69-1.58-13.18-6.59-15.56-4.48-2.32,2.06,17.58,3.37,16.2,8.62-9.65,5.56-20.68,2.91-22.64-2.19-2.62-6.85-12.3-8.47-10.08-18.34Z"/>
    <path class="cls-12" d="M724.23,432.95c-10.55-7.91-21.36-.53-26.89,7.91-5.54,8.44-1.58,27.42-1.58,27.42,0,0,2.11,0,2.11-.79s-5.8-22.41,7.91-32.17c8.58-6.1,14.77-3.16,15.56-.26,.79,2.9-3.43,8.17-3.43,8.17l6.33-10.28Z"/>
    <path class="cls-22" d="M699.98,416.69c10.55,0,13.97,16.35,11.07,25.84-2.9,9.49-6.86,27.16-6.86,27.16l-2.64-2.64s10.02-24.78,7.65-35.86c-2.37-11.07-8.17-12.92-9.23-12.92s0-1.58,0-1.58Z"/>
    <path class="cls-12" d="M708.82,442.61c.74-.98,1.66-1.79,2.78-2.33-.15,.79-.33,1.54-.55,2.26-1.32,4.32-2.86,10.35-4.15,15.62-.12-.68-.3-1.72-.58-3.32-.07-.38-.12-.79-.15-1.23,1.03-3.51,2.01-7.34,2.65-11Z"/>
    <path class="cls-22" d="M711.71,442.68c20.04-8.44,9.48-20.02,27.15-12.37,1.24,.54,2.76,1.9,4.28,3.77-1.57,.45-3.48,.77-5.6,.45-5.27-.79-3.43,3.43,5.27,4.48,1.64,.2,2.97,.47,4.08,.86,4.14,7.96,6.01,18.44-2.76,22.08-1.73,.72-3.86,1.13-6.24,1.28-2.71-2.15,.66-14.6-3.51-12.88-4.01,1.65,1.26,10.67,.53,12.95-3.95-.07-8.33-.72-12.52-1.75-1.66-.93-2.92-2.17-3.31-3.81-1.32-5.54,7.38-8.96,7.65-13.71,.24-4.36-3.19,9.6-12.28,11.65-8.22-3.84-12.1-9.05-2.74-12.99Z"/>
    <path class="cls-22" d="M697.43,427.77c2.11-4.48-3.43-5.54-3.16-2.11,.23,3.04,.26,10.42-2.86,12.43-5.37-.58-12.68-2.75-18.21-6.05-.07-.45,0-.9,.23-1.37,2.37-4.75,17.67-8.7,12.92-10.28-3.78-1.26-10.4,6.18-15.74,9.92-3.21-2.43-5.35-5.33-5.35-8.57,0-4.38,5.32-9.34,12.21-11.71,3.1,.31,5.98,2.01,10.47,4.55,6.64,3.76,5.1-2.32-1.17-5.93,5.42,.28,10.82,2.6,14.81,8.13,0,0-.38,2.36,2.13,6.02,6.83,9.98-1.05,15.8-10.47,15.42,.53-2.63,2.75-7.36,4.2-10.46Z"/>
    <path class="cls-12" d="M723.6,432.51c5.16,3.98,10.88,8.64,17.92,11.81,7.03,3.16,5.63,13.48,5.63,13.48,0,0,1.05-8.91-4.8-11.95-5.86-3.05-9.73-6.68-14.18-7.38-4.45-.7-6.91-1.41-6.91-1.41,0,0,1.41-2.81,.59-3.87-.82-1.05,1.77-.67,1.77-.67Z"/>
    <path class="cls-12" d="M749.01,385.72c-18.87,5.04-32.7,17.11-35.27,20.04-2.58,2.93-2.58,3.75-2.58,3.75l1.99,3.75,.94-.47s-1.52-3.16,2.46-7.27c6.87-7.07,15.23-12.66,20.98-15.12,5.74-2.46,11.48-4.69,11.48-4.69Z"/>
    <path class="cls-7" d="M700.22,464.31h.63c6.94,0,12.57,5.63,12.57,12.57v13.27h-25.77v-13.27c0-6.94,5.63-12.57,12.57-12.57Z" transform="translate(1401.08 954.46) rotate(180)"/>
    <rect class="cls-1" x="687.65" y="467.27" width="25.77" height="1.81"/>
    <rect class="cls-1" x="687.65" y="470.58" width="25.77" height="1.07"/>
  </g>
  <g>
    <g>
      <path class="cls-8" d="M391.22,118.46c0-19.53-15.71-35.39-35.18-35.64-19.56-.25-35.79,15.5-36.1,35.06-.15,9.55,3.45,18.25,9.43,24.73,2.75,2.99,4.28,6.9,4.28,10.96v15.98c0,10.34,8.46,18.79,18.79,18.79h6.27c10.34,0,18.79-8.46,18.79-18.79v-15.98c0-4.1,1.58-8.02,4.35-11.03,5.82-6.34,9.37-14.8,9.37-24.08Z"/>
      <path class="cls-2" d="M386.24,120.85c0-16.8-13.51-30.45-30.26-30.66-16.83-.22-30.79,13.34-31.06,30.16-.13,8.21,2.97,15.7,8.11,21.28,2.37,2.57,3.68,5.94,3.68,9.43v13.75c0,8.89,7.28,16.17,16.17,16.17h5.39c8.89,0,16.17-7.28,16.17-16.17v-13.74c0-3.52,1.36-6.9,3.74-9.49,5.01-5.46,8.06-12.73,8.06-20.72Z"/>
      <path class="cls-13" d="M360.84,159.99h-11.74c-.55,0-1.01-.42-1.06-.97-.02-.23-2.21-22.89-12.34-29.23-.5-.31-.65-.97-.34-1.47,.31-.5,.97-.65,1.47-.34,9.88,6.19,12.69,25.28,13.23,29.88h9.65c-.04-1.58,.05-4.62,.96-8.56,1.21-5.26,4.19-13.2,11.48-21.14,.4-.43,1.07-.46,1.51-.06,.43,.4,.46,1.07,.06,1.51-13.32,14.5-11.84,29.05-11.82,29.2,.03,.3-.06,.6-.26,.83-.2,.23-.49,.36-.8,.36Z"/>
      <path class="cls-13" d="M369.63,131.24c-3.96,0-9.37-2.82-15.06-5.87-7.35,3.91-14.21,7.42-18.06,5.1-1.81-1.09-2.67-3.24-2.64-6.55,.03-3.12,.92-5.22,2.66-6.25,3.85-2.28,10.73,1.36,18.04,5.28,7.46-3.98,14.48-7.68,18.32-5.35,1.72,1.05,2.57,3.18,2.53,6.33-.04,3.28-.99,5.49-2.81,6.56-.86,.51-1.87,.74-2.99,.74Zm-12.79-7.08c5.86,3.11,11.99,6.1,14.7,4.5,1.13-.67,1.72-2.27,1.75-4.75,.03-2.35-.48-3.86-1.51-4.48-2.62-1.59-8.97,1.57-14.94,4.73Zm-17.42-5.07c-.7,0-1.31,.13-1.8,.42-1.05,.62-1.59,2.11-1.61,4.43-.02,2.46,.52,4.04,1.61,4.71,2.63,1.6,8.78-1.37,14.68-4.48-4.77-2.54-9.78-5.07-12.89-5.07Z"/>
      <rect class="cls-13" x="348.14" y="184.03" width="15.58" height="9.39" rx="4.58" ry="4.58"/>
      <path class="cls-13" d="M332.61,158.07v11.3c0,10.83,8.86,19.68,19.68,19.68h6.56c10.83,0,19.68-8.86,19.68-19.68v-11.3h-45.93Z"/>
      <rect class="cls-4" x="330.82" y="156.22" width="50.08" height="5.41" rx="2.64" ry="2.64"/>
      <rect class="cls-4" x="330.82" y="163.04" width="50.08" height="5.41" rx="2.56" ry="2.56" transform="translate(-17.63 44.88) rotate(-7.04)"/>
      <rect class="cls-4" x="330.82" y="170.85" width="50.08" height="5.41" rx="2.56" ry="2.56" transform="translate(-18.59 44.93) rotate(-7.04)"/>
      <rect class="cls-4" x="335.76" y="178.75" width="42.15" height="5.41" rx="2.35" ry="2.35" transform="translate(-19.55 45.11) rotate(-7.04)"/>
    </g>
    <g>
      <path class="cls-4" d="M697.5,191.97h23.95c0,13.14-10.81,23.95-23.95,23.95s-23.95-10.81-23.95-23.95,10.81-23.95,23.95-23.95v23.95Z"/>
      <g>
        <path class="cls-29" d="M725.47,188.62c0-13.23-10.72-23.95-23.95-23.95v23.95h23.95Z"/>
        <path class="cls-29" d="M677.56,188.62c0,13.23,10.72,23.95,23.95,23.95-13.14,0-23.95-10.81-23.95-23.95Z"/>
        <path class="cls-29" d="M701.51,164.67c-13.23,0-23.95,10.72-23.95,23.95,0-13.14,10.81-23.95,23.95-23.95Z"/>
        <path class="cls-29" d="M701.51,212.57c13.23,0,23.95-10.72,23.95-23.95,0,13.14-10.81,23.95-23.95,23.95Z"/>
      </g>
    </g>
    <g>
      <rect class="cls-4" x="228.71" y="176.13" width="5.23" height="15.14"/>
      <rect class="cls-4" x="295.77" y="181.05" width="5.23" height="10.21"/>
      <rect class="cls-4" x="250.88" y="155.85" width="5.23" height="35.42"/>
      <rect class="cls-4" x="261.97" y="175.35" width="5.23" height="15.92"/>
      <rect class="cls-4" x="273.05" y="170.84" width="5.23" height="20.43"/>
      <rect class="cls-4" x="239.8" y="166.13" width="5.23" height="25.13"/>
      <rect class="cls-4" x="284.18" y="160.31" width="5.23" height="30.95"/>
    </g>
    <g class="cls-18">
      <path class="cls-31" d="M89.28,147.37l-27.44-16.78-4.96,31.77c12.89,2.03,25.67-4.01,32.4-15Z"/>
      <path class="cls-22" d="M89.31,147.34c.07-.12,.17-.29,.17-.28,5.79-9.71,6.03-21.76,.71-31.66-9.71,5.09-3.93,2-28.34,15.2,27.48,16.8,23.21,14.21,27.46,16.74Z"/>
      <path class="cls-4" d="M31.69,119.48l30.16,11.11,28.29-15.3c-13.23-24.47-48.86-21.54-58.45,4.19Z"/>
      <path class="cls-29" d="M56.88,162.37l4.96-31.77-30.16-11.11c-7.17,19.23,5.56,39.79,25.2,42.89Z"/>
      <path class="cls-1" d="M29.71,124.74c.56,0,1.08,.14,1.52,.39,.26-1.44,.62-2.87,1.1-4.28l16.38,6.03s0-.01,0-.02c-.03-.75,.25-1.44,.71-2l-1.64-.6-14.7-5.42c1.21-2.94,2.81-5.61,4.74-7.97-.69-.25-1.26-.75-1.63-1.37-2.08,2.54-3.81,5.43-5.1,8.6h-.02s-.37,.99-.37,.99l-.37,1h.02c-.52,1.55-.92,3.11-1.2,4.69,.19-.04,.39-.06,.58-.06Z"/>
      <path class="cls-30" d="M91.57,115.74h.02s-.51-.95-.51-.95c-.01-.02-.02-.04-.03-.06l-.41-.77h-.02c-3.2-5.55-7.77-9.99-13.26-12.85-5.38-2.8-11.49-4.05-17.68-3.62-7.28,.51-13.91,3.23-19.17,7.65,.62,.38,1.09,.96,1.36,1.65,4.93-4.14,11.15-6.7,17.97-7.17,11.9-.83,22.86,5,28.85,15.26l-8.36,4.52c-1.73,.93-4.14,2.23-8.17,4.42-2.59,1.4-5.84,3.16-10.01,5.41l-.26,.14-.84-.51-.05,.29-5.88-2.17c0,.75-.3,1.44-.79,1.98l6.34,2.33-4.66,29.84c-8.8-1.7-16.42-7.11-21.01-14.98-2.75-4.7-4.17-9.93-4.23-15.2-.33,.12-.68,.19-1.04,.19-.39,0-.76-.07-1.1-.2,.06,5.64,1.58,11.25,4.53,16.29,4.92,8.42,13.09,14.21,22.52,16.01v.02s1.05,.17,1.05,.17c0,0,1.06,.17,1.06,.17v-.02c1.37,.17,2.74,.26,4.1,.26,4.8,0,9.55-1.05,13.97-3.11,5.66-2.63,10.41-6.75,13.81-11.94h.02s.21-.33,.21-.33c0,0,.34-.56,.34-.56,.05-.09,.11-.19,.15-.25l.02-.04s.01-.02,.02-.03l.34-.55h-.02c5.45-9.59,5.76-21.43,.83-31.28Zm-33.46,45.73l4.55-29.12,11.84,7.24c4.77,2.92,7.5,4.59,9.22,5.64l4.09,2.5c-6.52,9.89-17.97,15.19-29.69,13.75Zm30.83-15.59s-.2-.12-.2-.12c-1.12-.66-1.61-.95-3.84-2.31l-20.9-12.78,17.35-9.38c2.55-1.37,3.59-1.92,6.18-3.27,.63-.33,1.36-.71,2.22-1.16,4.52,9.16,4.23,20.12-.8,29.03Z"/>
    </g>
    <g>
      <path class="cls-4" d="M155.73,94.92h75.62c4.51,0,8.17,3.66,8.17,8.17v25.22c0,4.51-3.66,8.17-8.17,8.17h-75.62c-4.51,0-8.17-3.66-8.17-8.17v-25.22c0-4.51,3.66-8.17,8.17-8.17Z"/>
      <rect class="cls-1" x="150.07" y="105.84" width="86.93" height="28.69" rx="6.6" ry="6.6"/>
      <g>
        <rect class="cls-1" x="151.35" y="97.98" width="3.6" height="3.24" rx="1.58" ry="1.58"/>
        <rect class="cls-1" x="157.9" y="97.98" width="3.6" height="3.24" rx="1.58" ry="1.58"/>
        <rect class="cls-1" x="164.45" y="97.98" width="3.6" height="3.24" rx="1.58" ry="1.58"/>
      </g>
      <path class="cls-4" d="M233.47,112.12h-45.98c-.76,0-1.38-.62-1.38-1.38s.62-1.38,1.38-1.38h45.98c.76,0,1.38,.62,1.38,1.38s-.62,1.38-1.38,1.38Z"/>
      <path class="cls-4" d="M198.88,133.35h-45.98c-.76,0-1.38-.62-1.38-1.38s.62-1.38,1.38-1.38h45.98c.76,0,1.38,.62,1.38,1.38s-.62,1.38-1.38,1.38Z"/>
      <rect class="cls-4" x="202.13" y="130.6" width="5.7" height="2.75" rx="1.34" ry="1.34"/>
      <rect class="cls-4" x="209.3" y="130.6" width="5.7" height="2.75" rx="1.34" ry="1.34"/>
      <path class="cls-4" d="M233.91,118.12h-76.15c-.51,0-.93-.42-.93-.93s.42-.93,.93-.93h76.15c.51,0,.93,.42,.93,.93s-.42,.93-.93,.93Z"/>
      <path class="cls-4" d="M233.91,122.15h-76.15c-.51,0-.93-.42-.93-.93s.42-.93,.93-.93h76.15c.51,0,.93,.42,.93,.93s-.42,.93-.93,.93Z"/>
    </g>
    <g>
      <path class="cls-17" d="M463.64,110.01h-39.27v-22.89h29.53c3.8,3.8,5.93,5.93,9.74,9.74v13.15Z"/>
      <polygon class="cls-29" points="453.18 87.13 453.18 99.34 463.64 99.34 463.64 97 453.83 87.19 453.18 87.13"/>
      <polygon class="cls-17" points="453.9 87.13 453.9 97 463.64 97 453.9 87.13"/>
      <path class="cls-1" d="M446.3,95.71h-17.5c-.38,0-.69-.31-.69-.69s.31-.69,.69-.69h17.5c.38,0,.69,.31,.69,.69s-.31,.69-.69,.69Z"/>
      <path class="cls-1" d="M446.3,99.26h-17.5c-.38,0-.69-.31-.69-.69s.31-.69,.69-.69h17.5c.38,0,.69,.31,.69,.69s-.31,.69-.69,.69Z"/>
      <path class="cls-1" d="M446.3,103h-17.5c-.38,0-.69-.31-.69-.69s.31-.69,.69-.69h17.5c.38,0,.69,.31,.69,.69s-.31,.69-.69,.69Z"/>
    </g>
    <circle class="cls-28" cx="442.83" cy="88.89" r="1.17"/>
    <rect class="cls-20" x="267.2" y="85.6" width="24.96" height="30.09" transform="translate(24.17 -51.23) rotate(10.94)"/>
    <path class="cls-4" d="M289.6,101.02l-12.99-2.51c-.35-.07-.57-.4-.51-.75s.4-.57,.75-.51l12.99,2.51c.35,.07,.57,.4,.51,.75-.07,.35-.4,.57-.75,.51Z"/>
    <path class="cls-4" d="M288.97,104.27l-12.99-2.51c-.35-.07-.57-.4-.51-.75,.07-.35,.4-.57,.75-.51l12.99,2.51c.35,.07,.57,.4,.51,.75-.07,.35-.4,.57-.75,.51Z"/>
    <path class="cls-4" d="M288.33,107.6l-12.99-2.51c-.35-.07-.57-.4-.51-.75s.4-.57,.75-.51l12.99,2.51c.35,.07,.57,.4,.51,.75s-.4,.57-.75,.51Z"/>
    <path class="cls-28" d="M280.8,87.47c-.11,.58-.67,.96-1.25,.85-.58-.11-.96-.67-.85-1.25,.11-.58,.67-.96,1.25-.85,.58,.11,.96,.67,.85,1.25Z"/>
    <path class="cls-4" d="M481.76,142.04l-37.92-3.99,2.5-23.77,30.07,3.17c2.74,3.39,4.28,5.29,7.03,8.68l-1.68,15.92Z"/>
    <polygon class="cls-1" points="475.87 119.13 447.64 116.16 445.53 136.22 480.62 139.91 481.86 128.17 475 127.45 475.87 119.13"/>
    <path class="cls-4" d="M472.04,126.42l-18.29-1.93c-.42-.04-.73-.42-.68-.84s.42-.73,.84-.68l18.29,1.93c.42,.04,.73,.42,.68,.84-.04,.42-.42,.73-.84,.68Z"/>
    <path class="cls-4" d="M471.62,130.45l-18.29-1.93c-.42-.04-.73-.42-.68-.84,.04-.42,.42-.73,.84-.68l18.29,1.93c.42,.04,.73,.42,.68,.84-.04,.42-.42,.73-.84,.68Z"/>
    <path class="cls-4" d="M471.18,134.66l-18.29-1.93c-.42-.04-.73-.42-.68-.84,.04-.42,.42-.73,.84-.68l18.29,1.93c.42,.04,.73,.42,.68,.84-.04,.42-.42,.73-.84,.68Z"/>
    <circle class="cls-28" cx="460.53" cy="119.76" r="1.17"/>
    <g>
      <path class="cls-22" d="M670.18,101.22c0,7.23-5.86,13.09-13.09,13.09s-13.09-5.86-13.09-13.09,5.86-13.09,13.09-13.09,13.09,5.86,13.09,13.09Z"/>
      <path class="cls-1" d="M655.79,105.7s-.02,0-.02,0c-.18,0-.34-.08-.46-.22l-3.56-4.04c-.23-.27-.21-.67,.06-.9,.27-.23,.67-.21,.9,.06l3.11,3.53,7.12-6.96c.25-.25,.66-.24,.91,0,.25,.25,.24,.66,0,.91l-7.6,7.44c-.12,.12-.28,.18-.45,.18Z"/>
    </g>
    <g>
      <rect class="cls-4" x="63.65" y="188.75" width="82.52" height="34" rx="16.48" ry="16.48" transform="translate(209.83 411.51) rotate(180)"/>
      <path class="cls-4" d="M136.21,217.63v18.76l-21.62-21.62s21.18,2.86,21.62,2.86Z"/>
      <rect class="cls-1" x="67.92" y="192.12" width="73.98" height="27.26" rx="13.3" ry="13.3" transform="translate(209.83 411.51) rotate(-180)"/>
      <path class="cls-4" d="M101.62,198.87h33.42c.81,0,1.47-.66,1.47-1.47s-.66-1.47-1.47-1.47h-33.42c-.81,0-1.47,.66-1.47,1.47s.66,1.47,1.47,1.47Z"/>
      <rect class="cls-4" x="72.89" y="202.82" width="63.61" height="1.65" rx=".8" ry=".8" transform="translate(209.39 407.3) rotate(180)"/>
      <rect class="cls-4" x="72.89" y="206.01" width="63.61" height="1.65" rx=".8" ry=".8" transform="translate(209.39 413.68) rotate(-180)"/>
    </g>
    <g>
      <path class="cls-4" d="M627.01,192.72h.85c1.69,0,3.06,1.37,3.06,3.06v.15c0,1.69-1.37,3.06-3.06,3.06h-.85c-1.69,0-3.06-1.37-3.06-3.06v-.15c0-1.69,1.37-3.06,3.06-3.06Z" transform="translate(1254.88 391.72) rotate(-180)"/>
      <path class="cls-4" d="M614.32,192.72h.85c1.69,0,3.06,1.37,3.06,3.06v.15c0,1.69-1.37,3.06-3.06,3.06h-.85c-1.69,0-3.06-1.37-3.06-3.06v-.15c0-1.69,1.37-3.06,3.06-3.06Z" transform="translate(1229.49 391.72) rotate(180)"/>
      <path class="cls-4" d="M601.62,192.72h.85c1.69,0,3.06,1.37,3.06,3.06v.15c0,1.69-1.37,3.06-3.06,3.06h-.85c-1.69,0-3.06-1.37-3.06-3.06v-.15c0-1.69,1.37-3.06,3.06-3.06Z" transform="translate(1204.1 391.72) rotate(180)"/>
    </g>
  </g>
</svg>