<?xml version="1.0" encoding="UTF-8"?>
<svg id="Layer_1" data-name="Layer 1" xmlns="http://www.w3.org/2000/svg" viewBox="0 0 164.98 112.89">
  <defs>
    <style>
      .cls-1 {
        fill: #fff;
      }

      .cls-1, .cls-2 {
        fill-rule: evenodd;
      }

      .cls-3 {
        fill: #deeffd;
      }

      .cls-2 {
        fill: #17a0db;
      }
    </style>
  </defs>
  <rect class="cls-3" x="0" width="164.98" height="112.89"/>
  <g>
    <path class="cls-2" d="M74.04,28.9c3.24-3.38,7.77-5.48,12.77-5.48,6.65,0,12.45,3.71,15.54,9.21,2.76-1.24,5.75-1.87,8.78-1.87,11.99,0,21.71,9.81,21.71,21.9s-9.72,21.9-21.71,21.9c-1.46,0-2.9-.15-4.27-.43-2.72,4.85-7.91,8.13-13.85,8.13-2.4,0-4.78-.55-6.94-1.6-2.76,6.49-9.18,11.03-16.66,11.03s-14.45-4.93-16.99-11.85c-1.13,.24-2.3,.36-3.45,.36-9.28,0-16.81-7.6-16.81-16.99,0-6.29,3.38-11.78,8.41-14.71-1.06-2.45-1.62-5.09-1.61-7.77,0-10.78,8.76-19.53,19.56-19.53,6.32,.01,11.95,3.02,15.53,7.7"/>
    <g>
      <path class="cls-1" d="M46.72,57.76c-.06,.17,.02,.2,.04,.23,.19,.14,.38,.23,.58,.35,1.03,.55,1.99,.7,3.01,.7,2.07,0,3.35-1.1,3.35-2.87v-.03c0-1.64-1.45-2.23-2.8-2.66l-.18-.05c-1.03-.34-1.91-.62-1.91-1.29v-.03c0-.58,.51-1,1.31-1,.89,0,1.94,.29,2.62,.67,0,0,.2,.13,.27-.06,.04-.1,.39-1.03,.42-1.13,.04-.1-.03-.19-.1-.23-.78-.47-1.85-.8-2.96-.8h-.21c-1.89,0-3.21,1.14-3.21,2.78v.03c0,1.72,1.46,2.29,2.82,2.68l.22,.06c1,.3,1.85,.57,1.85,1.27v.03c0,.64-.56,1.11-1.46,1.11-.35,0-1.46-.01-2.66-.77-.15-.08-.23-.15-.34-.21-.06-.03-.21-.1-.27,.09l-.4,1.11Zm30.24,0c-.06,.17,.02,.2,.04,.23,.19,.14,.38,.23,.58,.35,1.03,.55,1.99,.7,3.01,.7,2.07,0,3.35-1.1,3.35-2.87v-.03c0-1.64-1.45-2.23-2.8-2.66l-.18-.05c-1.03-.34-1.91-.62-1.91-1.29v-.03c0-.58,.51-1,1.31-1,.89,0,1.94,.29,2.62,.67,0,0,.2,.13,.27-.06,.04-.1,.39-1.03,.42-1.13,.04-.1-.03-.19-.1-.23-.78-.47-1.85-.8-2.96-.8h-.21c-1.89,0-3.21,1.14-3.21,2.78v.03c0,1.72,1.46,2.29,2.82,2.68l.22,.06c1,.3,1.85,.57,1.85,1.27v.03c0,.64-.56,1.11-1.46,1.11-.35,0-1.46-.01-2.66-.77-.15-.08-.23-.15-.34-.21-.04-.02-.21-.09-.27,.09l-.4,1.11Zm20.64-3.46c0,1-.19,1.78-.56,2.34s-.91,.82-1.68,.82-1.31-.27-1.67-.82c-.36-.56-.55-1.34-.55-2.34s.18-1.78,.55-2.33c.36-.55,.9-.81,1.67-.81s1.31,.26,1.68,.81c.38,.55,.56,1.33,.56,2.33m1.73-1.85c-.17-.58-.43-1.08-.79-1.5s-.8-.76-1.32-1.01c-.52-.24-1.14-.37-1.85-.37s-1.32,.13-1.85,.37c-.52,.24-.98,.59-1.32,1.01s-.62,.92-.79,1.5c-.17,.57-.25,1.2-.25,1.85s.08,1.28,.25,1.85c.17,.57,.43,1.07,.79,1.5,.36,.42,.8,.76,1.32,1s1.14,.36,1.85,.36,1.32-.13,1.85-.36c.52-.24,.98-.58,1.32-1,.35-.42,.62-.92,.79-1.5,.17-.57,.25-1.2,.25-1.85s-.08-1.28-.25-1.85m14.15,4.75c-.05-.17-.22-.1-.22-.1-.25,.09-.51,.19-.8,.23-.28,.04-.61,.06-.94,.06-.83,0-1.5-.25-1.97-.73-.47-.49-.75-1.28-.75-2.36,0-.98,.24-1.71,.66-2.27s1.06-.84,1.91-.84c.71,0,1.25,.08,1.83,.26,0,0,.14,.06,.2-.12,.15-.42,.26-.71,.42-1.18,.04-.14-.06-.19-.1-.2-.22-.08-.76-.23-1.15-.29-.37-.05-.81-.08-1.29-.08-.72,0-1.36,.13-1.92,.37-.55,.24-1.02,.59-1.39,1.01s-.65,.92-.84,1.5c-.19,.57-.28,1.2-.28,1.86,0,1.43,.39,2.58,1.14,3.43,.77,.85,1.91,1.28,3.4,1.28,.88,0,1.78-.18,2.45-.43,0,0,.13-.06,.07-.21l-.42-1.19Zm3.02-3.85c.08-.56,.23-1.02,.47-1.38,.36-.55,.9-.85,1.67-.85s1.27,.3,1.64,.85c.24,.36,.35,.84,.39,1.38h-4.17Zm5.81-1.22c-.15-.56-.5-1.11-.75-1.36-.38-.41-.75-.69-1.11-.84-.52-.22-1.09-.34-1.67-.34-.72,0-1.39,.13-1.93,.38-.54,.25-.99,.6-1.34,1.03s-.62,.93-.79,1.51c-.17,.58-.25,1.2-.25,1.86s.08,1.3,.26,1.87c.18,.57,.46,1.07,.85,1.48,.39,.42,.88,.75,1.47,.98s1.3,.35,2.12,.35c1.69-.01,2.57-.38,2.94-.59,.06-.03,.13-.09,.05-.28l-.38-1.07c-.06-.16-.22-.1-.22-.1-.42,.16-1.01,.43-2.39,.43-.9,0-1.57-.27-1.99-.68-.43-.43-.64-1.05-.68-1.94h5.84s.16,0,.17-.15c-.01-.07,.18-1.21-.19-2.52h0Zm-52.56,1.22c.08-.56,.23-1.02,.47-1.38,.36-.55,.9-.85,1.67-.85s1.27,.3,1.64,.85c.24,.36,.35,.84,.39,1.38h-4.17Zm5.81-1.22c-.15-.56-.5-1.11-.75-1.36-.38-.41-.75-.69-1.11-.84-.52-.22-1.09-.34-1.67-.34-.72,0-1.39,.13-1.93,.38-.54,.25-.99,.6-1.34,1.03s-.62,.93-.79,1.51c-.17,.58-.25,1.2-.25,1.86s.08,1.3,.26,1.87c.18,.57,.46,1.07,.84,1.48,.39,.42,.88,.75,1.47,.98,.59,.23,1.3,.35,2.12,.35,1.69-.01,2.57-.38,2.94-.59,.06-.03,.13-.09,.05-.28l-.38-1.07c-.06-.16-.22-.1-.22-.1-.42,.16-1.01,.43-2.39,.43-.9,0-1.57-.27-1.99-.68-.43-.43-.64-1.05-.68-1.94h5.84s.16,0,.17-.15c0-.07,.2-1.21-.18-2.52Zm-18.43,5.04c-.23-.18-.26-.23-.34-.35-.12-.18-.18-.43-.18-.76,0-.51,.17-.88,.52-1.13,0,0,.5-.44,1.69-.42,.54,.01,1.06,.05,1.59,.14v2.66h0s-.75,.16-1.57,.21c-1.19,.06-1.71-.35-1.71-.35h0Zm2.33-4.1c-.24-.02-.55-.02-.91-.02-.5,0-.99,.06-1.44,.19s-.86,.31-1.22,.57c-.36,.25-.64,.58-.85,.97s-.31,.84-.31,1.34,.09,.97,.26,1.33c.18,.37,.43,.68,.76,.91,.33,.23,.72,.41,1.19,.51,.46,.1,.98,.16,1.54,.16,.6,0,1.2-.05,1.77-.15,.49-.08,.99-.18,1.47-.28,.2-.04,.41-.1,.41-.1,.15-.03,.14-.19,.14-.19v-5.33c0-1.18-.31-2.04-.92-2.57-.61-.54-1.51-.81-2.68-.81-.44,0-1.14,.06-1.56,.15,0,0-1.27,.25-1.8,.66,0,0-.12,.07-.05,.23l.41,1.11c.05,.15,.19,.09,.19,.09,0,0,.04-.02,.09-.05,1.12-.61,2.54-.59,2.54-.59,.63,0,1.11,.13,1.44,.38,.31,.24,.48,.61,.48,1.39v.25c-.48-.1-.94-.15-.94-.15Zm47.08-3s.01-.04,.01-.06c0-.06-.04-.13-.1-.15-.09-.04-.6-.15-.98-.17-.73-.04-1.14,.07-1.5,.24s-.77,.43-.99,.72v-.71c0-.09-.07-.18-.17-.18h-1.5c-.09,0-.17,.08-.17,.18v8.7c0,.09,.08,.18,.18,.18h1.53c.09,0,.18-.08,.18-.18v-4.35c0-.59,.06-1.17,.19-1.53s.29-.65,.51-.86c.2-.2,.45-.35,.72-.43,.25-.07,.51-.12,.79-.12,.3,0,.64,.07,.64,.07,.12,.01,.18-.05,.21-.16,.1-.25,.39-1.05,.44-1.21"/>
      <path class="cls-1" d="M92.15,46.02c-.19-.05-.38-.1-.58-.14-.26-.04-.52-.06-.8-.06-1.06,0-1.89,.29-2.47,.89-.58,.59-.98,1.48-1.18,2.65l-.07,.4h-1.32s-.16-.01-.2,.17l-.22,1.22c-.01,.12,.03,.19,.19,.19h1.29l-1.31,7.31c-.1,.59-.22,1.07-.35,1.44-.13,.36-.25,.63-.41,.83-.15,.19-.29,.34-.54,.41-.2,.06-.43,.09-.68,.09-.14,0-.33-.02-.47-.05-.14-.03-.21-.06-.31-.1,0,0-.15-.05-.21,.09-.05,.13-.39,1.07-.43,1.19s.02,.21,.09,.23c.17,.06,.3,.1,.54,.16,.33,.07,.6,.08,.85,.08,.54,0,1.03-.07,1.43-.22,.41-.15,.77-.41,1.08-.76,.34-.38,.56-.77,.76-1.3,.2-.54,.38-1.2,.51-1.96l1.31-7.44h1.92s.16,.01,.2-.17l.22-1.22c.01-.12-.03-.19-.19-.19h-1.87s.09-.7,.3-1.31c.09-.26,.26-.47,.41-.62,.14-.14,.3-.24,.49-.3,.2-.06,.41-.09,.63-.09,.18,0,.35,.02,.48,.05,.18,.04,.25,.06,.29,.07,.19,.06,.22,0,.25-.09l.45-1.23c.04-.13-.06-.19-.1-.2m-26.08,12.62c0,.09-.07,.18-.17,.18h-1.54c-.09,0-.17-.08-.17-.18v-12.45c0-.09,.07-.18,.17-.18h1.54c.09,0,.17,.08,.17,.18v12.45Z"/>
    </g>
  </g>
</svg>