<?xml version="1.0" encoding="UTF-8"?>
<svg id="Layer_1" data-name="Layer 1" xmlns="http://www.w3.org/2000/svg" viewBox="0 0 164.98 112.89">
  <defs>
    <style>
      .cls-1 {
        fill: #fff;
        fill-rule: evenodd;
      }

      .cls-2 {
        fill: #deeffd;
      }

      .cls-3 {
        fill: #27b7ea;
      }
    </style>
  </defs>
  <rect class="cls-2" width="164.98" height="112.89"/>
  <g>
    <path class="cls-3" d="M25.4,28.19v56.49h57.71l56.48-56.48H25.4Z"/>
    <path class="cls-3" d="M98.48,78.9v4.21h.63v-1.83h.72l1.15,1.83h.72l-1.23-1.83c.62-.08,1.11-.43,1.11-1.19,0-.83-.51-1.19-1.51-1.19h-1.6Zm.64,.55h.88c.43,0,.92,.07,.92,.59,0,.66-.49,.72-1.04,.72h-.76s0-1.31,0-1.31Zm.8-2.1c-2.02,0-3.74,1.56-3.74,3.66s1.71,3.7,3.74,3.7,3.66-1.58,3.66-3.7c0-2.11-1.68-3.66-3.66-3.66h0Zm0,.59c1.64,0,2.94,1.33,2.94,3.06s-1.3,3.06-2.94,3.06-3.02-1.3-3.02-3.06c0-1.73,1.34-3.06,3.02-3.06Z"/>
    <path class="cls-1" d="M93.82,55.21h-2.47v-9.06h2.47c3.3,0,5.94,1.09,5.94,4.47,0,3.49-2.63,4.59-5.94,4.59m-26.64,6.47c-1.31,0-2.54-.24-3.6-.64l3.56-11.25h.08l3.49,11.28c-1.05,.37-2.25,.61-3.53,.61m25.98-22.88h-11.25v26.73l-9.82-26.73h-9.73l-8.39,22.34c-.89-5.63-6.72-7.58-11.31-9.03-3.03-.97-6.24-2.4-6.21-3.98,.02-1.3,1.73-2.5,5.09-2.32,2.26,.11,4.26,.3,8.23,2.21l3.9-6.8c-3.62-1.85-8.63-3.01-12.73-3.02h-.02c-4.78,0-8.77,1.56-11.24,4.11-1.71,1.79-2.65,4.05-2.69,6.56-.06,3.45,1.2,5.89,3.86,7.84,2.24,1.64,5.11,2.7,7.64,3.5,3.12,.96,5.67,1.8,5.64,3.6-.02,.66-.27,1.26-.74,1.75-.77,.81-1.97,1.11-3.62,1.15-3.18,.06-5.55-.43-9.31-2.66l-3.47,6.9c3.75,2.13,8.19,3.38,12.72,3.38h.58c3.94-.08,7.13-1.2,9.67-3.25l.41-.36-1.12,3.02h10.2l1.71-5.22c1.79,.61,3.83,.95,6,.95s4.1-.32,5.86-.9l1.65,5.16h16.65v-10.78h3.64c8.77,0,13.97-4.47,13.97-11.96,0-8.35-5.05-12.17-15.79-12.17"/>
  </g>
</svg>