<?xml version="1.0" encoding="UTF-8"?>
<svg id="Layer_1" data-name="Layer 1" xmlns="http://www.w3.org/2000/svg" viewBox="0 0 50 50">
  <defs>
    <style>
      .cls-1 {
        fill: #accafb;
      }

      .cls-2 {
        fill: #fff;
      }

      .cls-3 {
        fill: #dddedf;
      }

      .cls-4 {
        fill: #61cb7d;
      }

      .cls-5 {
        fill: #f0f1f2;
      }

      .cls-6 {
        fill: #4285f4;
      }

      .cls-7 {
        fill: #fbbc05;
      }

      .cls-8 {
        fill: #9fa2a6;
      }

      .cls-9 {
        fill: #34a853;
      }

      .cls-10 {
        fill: #ea4335;
      }
    </style>
  </defs>
  <path class="cls-2" d="M14.48,10.68l1,.76-.82,1.79-1.23-.27c-.27,.39-.59,.74-.94,1.06-.33,.3-.69,.57-1.07,.8l.18,1.25-1.85,.68-.68-1.06c-.89,.15-1.82,.12-2.74-.1l-.41,.55-.34,.45-1.79-.82,.27-1.23c-.77-.54-1.39-1.23-1.86-2.01l-1.25,.18-.68-1.85,1.06-.68c-.15-.89-.13-1.82,.1-2.74l-1.01-.76,.82-1.79,1.23,.27c.54-.77,1.23-1.39,2.01-1.86l-.18-1.25,1.85-.68,.68,1.06c.89-.15,1.82-.12,2.74,.1l.75-1.01,1.79,.82-.27,1.23c.77,.54,1.39,1.23,1.86,2.01l1.24-.18,.68,1.85-1.06,.68c.15,.89,.13,1.82-.1,2.73Z"/>
  <path class="cls-5" d="M6.65,15.64c-.1-.02-.21-.04-.31-.07l-.41,.55v-1.37c0-.41,.33-.74,.74-.74h5.82c-.33,.3-.69,.57-1.07,.8l.18,1.25-1.85,.68-.68-1.06c-.79,.13-1.62,.13-2.43-.04"/>
  <circle class="cls-5" cx="7.96" cy="9.06" r="4.32"/>
  <circle class="cls-2" cx="7.96" cy="9.06" r="3.27"/>
  <path class="cls-2" d="M39.25,46.44v1.92c0,.34-.27,.61-.61,.61H.83c-.33,0-.6-.27-.6-.61v-1.92c0-.34,.27-.61,.6-.61H38.65c.34,0,.61,.27,.61,.61h0Z"/>
  <path class="cls-5" d="M39.25,46.44v1.92c0,.34-.27,.61-.61,.61h-.66c-.12-.08-.19-.22-.19-.38v-2.76h.85c.34,0,.61,.27,.61,.61h0Zm-8.34,2.36c-.48,.39-1.18,.34-1.47-.14l-1.75-2.83h2.47l1.04,1.68c.24,.4,.13,.95-.29,1.29h0Z"/>
  <path class="cls-5" d="M39.25,46.43v1.2c0-.33-.27-.6-.6-.6,0,0,0,0,0,0H.83c-.33,0-.6,.27-.6,.6,0,0,0,0,0,0v-1.2c0-.33,.27-.6,.6-.6,0,0,0,0,0,0H38.65c.33,0,.6,.27,.6,.6,0,0,0,0,0,0Zm-2.32-23.64v23.04H2.54V22.79c0-.5,.41-.91,.91-.91H36.02c.5,0,.91,.41,.91,.91h0Z"/>
  <path class="cls-3" d="M30.16,45.83h-2.47l-.92-1.49c-.06-.1-.1-.21-.12-.33h2.38l1.12,1.81Z"/>
  <path class="cls-2" d="M4.36,23.7h30.76v20.32H4.36V23.7Z"/>
  <path class="cls-2" d="M33.27,18.22v25.28c0,.29-.23,.52-.52,.52H7c-.29,0-.52-.23-.52-.52V18.22h26.78Z"/>
  <path class="cls-5" d="M29.9,44.02h-2.38c-.02-.15,0-.29,.04-.43l-.84-1.39c-2.41,1.12-5.28,.26-6.66-2.01-1.55-2.51-.79-5.83,1.69-7.43,2.43-1.57,5.66-.87,7.23,1.56,.02,.04,.05,.07,.07,.11,.11,.17,.2,.35,.29,.53,.16,.34,.28,.68,.36,1.03,.04,.15,.07,.31,.09,.47,0,.04,.01,.09,.02,.14v.1s.02,.08,.02,.12c0,.04,0,.08,0,.12,0,.05,0,.09,0,.14,0,.14,0,.28,0,.43,0,.03,0,.06,0,.09,0,.09-.01,.17-.02,.26,0,.04,0,.07-.01,.11,0,.05-.01,.11-.02,.16,0,.04-.01,.07-.02,.11,0,.03-.01,.07-.02,.1-.01,.05-.02,.1-.03,.15-.26,1.12-.86,2.16-1.78,2.94l.84,1.39c.26,.03,.49,.17,.62,.39l.51,.82h0Z"/>
  <path class="cls-2" d="M33.27,15.3v2.92H6.48v-2.92c0-.41,.33-.74,.74-.74h25.3c.41,0,.74,.33,.74,.74h0Z"/>
  <path class="cls-5" d="M33.27,15.3v1.39h-9.79c-.24,0-.44-.26-.44-.59v-1.55h9.49c.41,0,.74,.33,.74,.74h0Z"/>
  <path class="cls-10" d="M9.1,16.39c0,.26-.21,.47-.47,.47-.26,0-.47-.21-.47-.47s.21-.47,.47-.47c.26,0,.47,.21,.47,.47Z"/>
  <path class="cls-7" d="M10.92,16.39c0,.26-.21,.47-.47,.47s-.47-.21-.47-.47,.21-.47,.47-.47,.47,.21,.47,.47Z"/>
  <path class="cls-4" d="M12.75,16.39c0,.26-.21,.47-.47,.47s-.47-.21-.47-.47,.21-.47,.47-.47,.47,.21,.47,.47Z"/>
  <path class="cls-2" d="M27.86,40.95c-1.95,1.26-4.54,.7-5.8-1.25-.02-.03-.04-.06-.06-.09-1.24-2.01-.63-4.68,1.36-5.96,1.95-1.26,4.54-.7,5.8,1.25,.02,.03,.04,.06,.06,.09,1.24,2.01,.63,4.68-1.36,5.96h0Zm1.03,3.08l1.21-.78-.87-1.45-.44-.71-1.21,.78,1.3,2.16Z"/>
  <path class="cls-5" d="M28.02,42.58c.44-.2,.85-.46,1.21-.78l-.44-.71-1.21,.78,.44,.71Z"/>
  <path class="cls-1" d="M28.69,44.34l2.67,4.31c.13,.22,.35,.35,.6,.39,.28,.05,.61-.03,.87-.25,.42-.33,.53-.89,.29-1.29l-2.67-4.31c-.29-.47-.99-.54-1.49-.12-.4,.33-.51,.88-.27,1.27h0Z"/>
  <path class="cls-6" d="M32.52,48.97s-.08,0-.13-.01c-.25-.04-.47-.17-.6-.38l-2.67-4.31c-.24-.39-.13-.94,.27-1.27,.1-.08,.21-.15,.32-.19-.26,0-.53,.08-.76,.27-.41,.34-.51,.88-.27,1.27l2.67,4.31c.13,.21,.35,.35,.6,.39,.19,.03,.39,0,.57-.07h0Z"/>
  <path class="cls-2" d="M21.11,40.18c1.51,2.46,4.72,3.24,7.19,1.73,.04-.02,.07-.05,.11-.07,1.24-.8,2.05-2.02,2.36-3.37,.01-.05,.02-.1,.03-.15,0-.03,.01-.07,.02-.1,0-.04,.01-.07,.02-.11,0-.05,.02-.11,.02-.16,.02-.15,.03-.31,.04-.46,0-.14,0-.28,0-.43,0-.05,0-.1,0-.14,0-.04,0-.08,0-.12,0-.04,0-.08-.01-.12,0-.03,0-.06-.01-.1,0-.04-.01-.09-.02-.13-.02-.16-.05-.31-.09-.47-.09-.36-.21-.7-.36-1.03-.09-.18-.18-.36-.29-.53-1.51-2.46-4.73-3.24-7.19-1.73-.04,.02-.07,.04-.11,.07-2.48,1.59-3.24,4.92-1.69,7.42h0Zm2.37-6.32c1.84-1.19,4.29-.66,5.47,1.18,.02,.03,.03,.05,.05,.08,1.17,1.9,.6,4.42-1.28,5.62-1.84,1.19-4.29,.66-5.47-1.18-.02-.03-.04-.06-.05-.08-1.17-1.9-.6-4.42,1.28-5.62h0Z"/>
  <path class="cls-10" d="M28.4,36.21l-1.3,.35c-.23-.47-.68-.81-1.2-.9v-1.35c1.14,.11,2.1,.86,2.5,1.89Z"/>
  <path class="cls-1" d="M28.61,37.3c0,1.65-1.34,3-3,3-.33,0-.67-.06-.98-.17l.56-1.23c.14,.04,.28,.06,.43,.06,.92,0,1.66-.74,1.66-1.66,0-.06,0-.13-.01-.19l1.3-.35c.03,.17,.05,.36,.05,.54h0Z"/>
  <path class="cls-2" d="M25.42,34.31v1.34c-.83,.1-1.47,.8-1.47,1.65,0,.58,.3,1.11,.79,1.41l-.55,1.22c-.94-.51-1.57-1.5-1.57-2.64,0-1.59,1.24-2.89,2.81-2.99Z"/>
  <path class="cls-5" d="M23.95,37.3c0,.58,.3,1.11,.79,1.41l-.55,1.22c-.94-.51-1.57-1.5-1.57-2.64,0-1.59,1.24-2.89,2.81-2.99v1.34c-.83,.1-1.47,.8-1.47,1.65Z"/>
  <path class="cls-2" d="M7.94,32.36h7.65v3.58H7.94v-3.58Z"/>
  <path class="cls-3" d="M13.94,25.23h2.12v5.1h-2.12v-5.1Zm4.26,1h2.12v4.1h-2.12v-4.1Zm4.26-2.82h2.12v6.92h-2.12v-6.92Zm-2.43-.76c0,.43-.35,.78-.78,.78h0c-.43,0-.78-.35-.78-.78s.35-.78,.78-.78c.43,0,.78,.35,.78,.78h0Zm4.62-2.04c0,.43-.35,.78-.77,.78h0c-.43,0-.78-.35-.78-.78,0-.43,.35-.78,.78-.78,.43,0,.78,.35,.78,.77h0s0,0,0,0Z"/>
  <circle class="cls-3" cx="15.09" cy="22.59" r=".78"/>
  <path class="cls-1" d="M14.5,24.59h2.12v5.1h-2.12v-5.1Z"/>
  <path class="cls-7" d="M18.76,25.6h2.12v4.1h-2.12v-4.1Z"/>
  <path class="cls-1" d="M23.01,22.78h2.12v6.92h-2.12v-6.92Z"/>
  <path class="cls-2" d="M49.8,30.16v18.43c0,.26-.21,.46-.46,.46h-10.33c-.26,0-.46-.21-.46-.46V30.16c0-.26,.21-.46,.46-.46h10.33c.26,0,.46,.21,.46,.46Z"/>
  <path class="cls-5" d="M41.7,37.49v1.92s-.05,.09-.11,.09h-1.73c-.06,0-.11-.04-.11-.09v-1.92s.05-.09,.11-.09h1.73c.06,0,.11,.04,.11,.09Zm3.29-2.7v4.61s-.05,.09-.11,.09h-1.73c-.06,0-.11-.04-.11-.09v-4.61s.05-.09,.11-.09h1.73c.06,0,.11,.04,.11,.09Zm3.29,1.54v3.08s-.05,.09-.11,.09h-1.73c-.06,0-.11-.04-.11-.09v-3.08s.05-.09,.11-.09h1.73c.06,0,.11,.04,.11,.09Z"/>
  <path class="cls-4" d="M42.01,37.01v1.92s-.05,.09-.11,.09h-1.73c-.06,0-.11-.04-.11-.09v-1.92s.05-.09,.11-.09h1.73c.06,0,.11,.04,.11,.09h0Z"/>
  <path class="cls-7" d="M45.3,34.31v4.61s-.05,.09-.11,.09h-1.73c-.06,0-.11-.04-.11-.09v-4.61s.05-.09,.11-.09h1.73c.06,0,.11,.04,.11,.09Z"/>
  <path class="cls-1" d="M48.59,35.85v3.08s-.05,.09-.11,.09h-1.73c-.06,0-.11-.04-.11-.09v-3.08s.05-.09,.11-.09h1.73c.06,0,.11,.04,.11,.09h0Z"/>
  <path class="cls-2" d="M40.06,40.8h4.62v3.21h-4.62v-3.21Zm-6.74-24.96h-8.99c-.24,0-.44-.26-.44-.59v-3.03c0-.32,.2-.59,.44-.59h18.98v4.21h-9.99"/>
  <path class="cls-5" d="M38.48,13.5s.02,.03,.02,.04v.03s-.41,1.3-.41,1.3c0,.02-.02,.04-.03,.05s-.03,.02-.06,.02h-.18s-.08-.02-.09-.07l-.29-.88-.29,.88s-.05,.07-.1,.07h-.18s-.08-.02-.09-.07l-.4-1.3s0-.01,0-.03c0-.02,0-.03,.02-.04,.01-.01,.03-.02,.04-.02h.21s.04,0,.05,.02c.01,.01,.02,.02,.03,.04l.27,.92,.29-.91s.01-.03,.03-.04c.01-.01,.03-.02,.06-.02h.14s.04,0,.05,.02c.01,.01,.02,.03,.03,.04l.29,.91,.27-.92s.01-.03,.03-.04c.01-.01,.03-.02,.05-.02h.21s.03,0,.04,.02h0Zm2.32,.04v.03s-.41,1.3-.41,1.3c0,.02-.02,.04-.03,.05-.02,.01-.04,.02-.06,.02h-.19s-.08-.02-.09-.07l-.29-.88-.29,.88s-.05,.07-.09,.07h-.18s-.08-.02-.09-.07l-.4-1.3s0-.01,0-.03c0-.02,0-.03,.02-.04,.01-.01,.03-.02,.04-.02h.22s.03,0,.05,.02c.01,.01,.02,.02,.03,.04l.27,.92,.29-.91s.02-.03,.03-.04c.02-.01,.04-.02,.06-.02h.14s.04,0,.05,.02c.02,.01,.02,.03,.03,.04l.29,.91,.27-.92s.04-.06,.08-.05h.21s.03,0,.04,.02c.01,.01,.02,.03,.02,.04Zm-4.63-.04s.02,.03,.02,.04v.03s-.41,1.3-.41,1.3c0,.02-.02,.04-.03,.05s-.03,.02-.06,.02h-.18s-.08-.02-.09-.07l-.29-.88-.29,.88s-.05,.07-.1,.07h-.18s-.08-.02-.09-.07l-.4-1.3s0-.01,0-.03c0-.02,0-.03,.02-.04,.01-.01,.03-.02,.04-.02h.21s.04,0,.05,.02c.01,.01,.02,.02,.03,.04l.27,.92,.29-.91s.02-.03,.03-.04c.01-.01,.03-.02,.06-.02h.14s.04,0,.05,.02c.01,.01,.02,.03,.03,.04l.29,.91,.27-.92s.01-.03,.02-.04c.01-.01,.03-.02,.05-.02h.21s.03,0,.04,.02h0Z"/>
  <path class="cls-8" d="M47.62,12.23v3.03c0,.32-.2,.59-.44,.59h-3.87v-4.21h3.87c.24,0,.44,.26,.44,.59Z"/>
  <path class="cls-1" d="M47.62,12.23v3.03c0,.32-.2,.59-.44,.59h-3.87v-4.21h3.87c.24,0,.44,.26,.44,.59Z"/>
  <g>
    <path d="M45.1,14.51c-.23,0-.44-.09-.6-.25-.33-.33-.33-.87,0-1.2,.33-.33,.87-.33,1.2,0,.33,.33,.33,.87,0,1.2-.16,.16-.38,.25-.6,.25h0Zm0-1.29c-.12,0-.23,.05-.31,.13-.17,.17-.17,.45,0,.63,.17,.17,.45,.17,.63,0,.17-.17,.17-.45,0-.63-.08-.08-.2-.13-.31-.13h0Z"/>
    <path d="M46.01,14.77c-.05,0-.1-.02-.14-.06l-.45-.45c-.08-.08-.08-.21,0-.29s.21-.08,.29,0h0l.45,.45c.08,.08,.08,.21,0,.29-.04,.04-.09,.06-.14,.06h0Z"/>
  </g>
  <g>
    <path d="M45.2,14.42c-.23,0-.44-.09-.6-.25-.33-.33-.33-.87,0-1.2,.33-.33,.87-.33,1.2,0,.33,.33,.33,.87,0,1.2-.16,.16-.38,.25-.6,.25h0Zm0-1.29c-.12,0-.23,.05-.31,.13-.17,.17-.17,.45,0,.63,.17,.17,.45,.17,.63,0,.17-.17,.17-.45,0-.63-.08-.08-.2-.13-.31-.13h0Z"/>
    <path d="M46.1,14.67c-.05,0-.1-.02-.14-.06l-.45-.45c-.08-.08-.08-.21,0-.29,.08-.08,.21-.08,.29,0l.45,.45c.08,.08,.08,.21,0,.29-.04,.04-.09,.06-.14,.06h0Z"/>
  </g>
  <g>
    <path d="M11.21,7.85c-1.06-2.88-5.11-3.05-6.4-.24-.81,1.76-.02,3.81,1.7,4.6,2.81,1.29,5.77-1.47,4.7-4.35Zm-6.05-.08c1.37-2.97,5.88-2.02,5.88,1.29,0,2.24-2.33,3.74-4.37,2.8-1.53-.7-2.23-2.52-1.51-4.08Zm9.32,6.79c0,.11,.09,.19,.19,.19h7.95c.11,0,.19-.09,.19-.19s-.09-.19-.19-.19h-7.95c-.11,0-.19,.09-.19,.19h0Zm-6.54,21.57h7.65c.11,0,.19-.09,.19-.19v-3.58c0-.11-.09-.19-.19-.19H7.94c-.11,0-.19,.09-.19,.19v3.58c0,.11,.09,.19,.19,.19Zm.19-3.58h7.26v3.19h-7.26s0-3.19,0-3.19Zm10.79,4.77H7.94c-.11,0-.19,.09-.19,.19s.09,.19,.19,.19h10.98c.11,0,.19-.09,.19-.19s-.09-.19-.19-.19Zm0,1.77H7.94c-.11,0-.19,.09-.19,.19s.09,.19,.19,.19h10.98c.11,0,.19-.09,.19-.19s-.09-.19-.19-.19Zm0,1.77H7.94c-.11,0-.19,.09-.19,.19s.09,.19,.19,.19h10.98c.11,0,.19-.09,.19-.19s-.09-.19-.19-.19Zm-4.43-10.99h2.12c.11,0,.19-.09,.19-.19v-5.1c0-.11-.09-.19-.19-.19h-2.12c-.11,0-.19,.09-.19,.19v5.1c0,.11,.09,.19,.19,.19Zm.19-5.1h1.73v4.72h-1.73v-4.72Zm6.18,.62h-2.12c-.11,0-.19,.09-.19,.19v4.1c0,.11,.09,.19,.19,.19h2.12c.11,0,.19-.09,.19-.19v-4.1c0-.11-.09-.19-.19-.19Zm-.19,4.1h-1.73v-3.71h1.73v3.71Zm2.14-6.72v6.92c0,.11,.09,.19,.19,.19h2.12c.11,0,.19-.09,.19-.19v-6.92c0-.11-.09-.19-.19-.19h-2.12c-.11,0-.19,.09-.19,.19Zm.39,.19h1.73v6.53h-1.73s0-6.53,0-6.53Zm-5.81,.29c1.94,.12,2.75-1.3,3.48-1.93,.9-.79,2.18-1.11,3.34-.86,.1,.02,.21-.04,.23-.15,.02-.1-.04-.21-.15-.23-1.28-.28-2.69,.08-3.68,.94-.77,.68-1.46,1.94-3.2,1.83-.67-.04-1.32-.33-1.8-.79,0,0,0,0-.01,0-.08-.06-.19-.06-.26,.02-.07,.08-.07,.2,0,.27,0,0,0,0,0,0,.55,.53,1.29,.85,2.05,.9Z"/>
    <path d="M49.32,29.5h-10.33c-.36,0-.66,.29-.66,.66v14.42c0,.11,.09,.19,.19,.19s.19-.09,.19-.19v-14.42c0-.15,.12-.27,.27-.27h10.33c.15,0,.27,.12,.27,.27v18.43c0,.15-.12,.27-.27,.27h-10.07c.11-.14,.18-.31,.18-.5v-1.93c0-.44-.36-.8-.8-.8h-1.52V22.79c0-.61-.5-1.1-1.1-1.1h-.91c-.11,0-.19,.09-.19,.19s.09,.19,.19,.19h.91c.39,0,.72,.32,.72,.71v22.84h-4.55l-.64-1.03c-.06-.09-.17-.12-.26-.06,0,0,0,0,0,0-.09,.06-.12,.18-.06,.26,1.4,2.26,1.04,1.69,1.73,2.8,.58,.95-1.05,1.58-1.43,.95-2.38-3.85-2.68-4.32-2.68-4.34-.19-.33-.05-.75,.24-1,.38-.32,.96-.31,1.2,.07h0s0,0,0,0l.52,.83s.06,.06,.09,.08c.04,.02,.09,.02,.14,0h1.71c.39,0,.71-.32,.71-.71V23.89h1.46v19.26c0,.11,.09,.19,.19,.19s.19-.09,.19-.19V23.7c0-.11-.09-.19-.19-.19h-1.66v-7.53s.05-.08,.05-.13-.02-.09-.05-.13c-.04-.04-.09-.07-.15-.07h-8.99c-.12,0-.25-.16-.25-.39v-3.03c0-.23,.13-.39,.25-.39h18.79v3.82h-8.36c-.11,0-.19,.09-.19,.19s.09,.19,.19,.19h12.43c.35,0,.63-.35,.63-.78v-3.03c0-.43-.28-.78-.63-.78H24.31c-.35,0-.63,.35-.63,.78v3.03c0,.43,.28,.78,.63,.78h8.75v1.99H6.66v-2.73c0-.3,.25-.55,.55-.55h6.38c.11,0,.19-.09,.19-.19s-.09-.19-.19-.19h-1.22c.43-.35,.81-.76,1.14-1.2l1.1,.24c.27,.06,.23-.26,1.04-1.9,.11-.25-.23-.31-.96-.91,.19-.84,.23-1.71,.1-2.56l.95-.61c.24-.15-.03-.35-.61-2.08-.1-.25-.37-.05-1.33,.04-.46-.73-1.05-1.37-1.74-1.88,.16-.93,.38-1.21,.14-1.32l-1.79-.82c-.08-.04-.18-.01-.24,.06l-.68,.91c-.84-.2-1.71-.23-2.56-.1-.55-.77-.59-1.13-.84-1.03-1.68,.68-2.01,.61-1.97,.89l.16,1.12c-.73,.46-1.37,1.04-1.88,1.74l-1.1-.25c-.28-.05-.23,.26-1.04,1.9-.12,.25,.24,.32,.96,.91-.19,.84-.23,1.71-.1,2.56l-.96,.61c-.24,.16,.03,.35,.61,2.08,.1,.25,.37,.05,1.33-.03,.46,.74,1.05,1.37,1.74,1.88l-.24,1.1c-.02,.09,.03,.18,.11,.22,1.66,.7,1.85,.99,2.03,.76,.09-.16,.44-.42,.21-.6-.22-.16-.35,.17-.42,.24l-1.51-.69c.18-.99,.35-1.14,.16-1.28-1.64-1.16-1.65-2.09-2-2.04l-1.09,.16-.58-1.55c.83-.57,1.06-.57,1.02-.79-.34-1.97,.31-2.65,.03-2.86l-.88-.66,.69-1.5c.99,.18,1.15,.34,1.28,.16,1.17-1.65,2.09-1.65,2.04-2l-.15-1.09,1.55-.57c.56,.82,.57,1.05,.79,1.02,2.02-.34,2.65,.31,2.86,.03l.66-.88,1.5,.69c-.18,.98-.34,1.15-.16,1.28,1.64,1.16,1.66,2.09,2,2.04l1.09-.16,.57,1.55c-.82,.56-1.05,.57-1.02,.79,.34,2.01-.31,2.64-.03,2.86l.88,.66-.69,1.5c-.97-.18-1.15-.34-1.27-.16-.43,.6-.94,1.12-1.54,1.53H7.21c-.51,0-.93,.42-.93,.93v6.39H3.44c-.61,0-1.1,.49-1.1,1.1v22.84H.82c-.44,0-.8,.36-.8,.8v1.93c0,.44,.36,.8,.8,.8H30.14c.11,0,.19-.09,.19-.19s-.09-.19-.19-.19H.82s-.02,0-.03,0c-.21-.01-.38-.19-.38-.41v-1.93c0-.22,.17-.4,.38-.41,0,0,.02,0,.03,0H29.49l1.69,2.73s0,0,0,.01c.29,.46,.88,.58,1.38,.39h6.06s.02,0,.03,0h0c.1,.06,.21,.09,.33,.09h10.33c.36,0,.66-.29,.66-.66V30.16c0-.36-.3-.66-.66-.66h0Zm-5.84-17.67h3.68c.12,0,.25,.16,.25,.39v3.03c0,.23-.13,.39-.25,.39h-3.68v-3.82Zm-14.89,31.35l-.55-.91c.16-.08,.31-.17,.46-.27,.15-.09,.29-.19,.42-.3l.55,.91c-.37,.06-.71,.3-.89,.56h0Zm-7.32-3.11c-2.14-3.48,.41-7.97,4.36-7.97,4.73,0,6.78,5.89,3.4,9.01-2.31,2.17-6.06,1.72-7.76-1.04ZM2.73,45.64V22.79c0-.39,.32-.71,.71-.71h2.84v1.43h-1.93c-.11,0-.19,.09-.19,.19v19.45c0,.11,.09,.19,.19,.19s.19-.09,.19-.19V23.89h1.74v19.6c0,.39,.32,.71,.71,.71H27.68c.11,0,.19-.09,.19-.19s-.09-.19-.19-.19H6.99c-.18,0-.33-.15-.33-.33V18.41h26.4v25.08c0,.18-.15,.33-.33,.33h-1.68l-.45-.73c-.15-.24-.38-.4-.67-.46l-.71-1.18c3.29-2.94,2.02-8.59-2.39-9.59-4.73-1.08-8.48,4.23-5.9,8.42,1.4,2.3,4.28,3.21,6.75,2.16l.71,1.17c-.07,.28-.03,.58,.12,.83l.74,1.19H2.73Zm36.33,2.72c0,.23-.18,.41-.41,.41h-5.52c.34-.39,.41-.94,.15-1.37l-.85-1.38h6.23c.23,0,.41,.18,.41,.41v1.92h0Z"/>
    <circle cx="42.88" cy="31.02" r=".24"/>
    <path d="M45.62,30.82h-1.96c-.11,0-.19,.09-.19,.19s.09,.19,.19,.19h1.96c.11,0,.19-.09,.19-.19s-.09-.19-.19-.19Zm-5.46,8.38h1.73c.17,0,.3-.13,.3-.28v-1.91c0-.15-.14-.28-.3-.28h-1.73c-.17,0-.3,.13-.3,.28v1.91c0,.15,.13,.28,.3,.28Zm.09-2.09h1.56v1.7h-1.56v-1.7Zm2.9-2.8v4.61c0,.15,.14,.28,.3,.28h1.73c.17,0,.3-.13,.3-.28v-4.61c0-.15-.14-.28-.3-.28h-1.73c-.17,0-.3,.13-.3,.28Zm.39,.11h1.56v4.4h-1.56v-4.4Zm4.94,4.79c.17,0,.3-.13,.3-.28v-3.08c0-.15-.14-.28-.3-.28h-1.73c-.17,0-.3,.13-.3,.28v3.08c0,.15,.14,.28,.3,.28h1.73Zm-1.65-3.25h1.56v2.86h-1.56v-2.86Zm-6.97,8.06c0,.11,.09,.19,.19,.19h4.62c.11,0,.19-.09,.19-.19v-3.21c0-.11-.09-.19-.19-.19h-4.62c-.11,0-.19,.09-.19,.19v3.21Zm.39-3.02h4.23v2.83h-4.23v-2.83Zm5.5,.15c0,.11,.09,.19,.19,.19h2.55c.11,0,.19-.09,.19-.19s-.09-.19-.19-.19h-2.55c-.11,0-.19,.09-.19,.19h0Zm2.74,1.16h-2.55c-.11,0-.19,.09-.19,.19s.09,.19,.19,.19h2.55c.11,0,.19-.09,.19-.19s-.09-.19-.19-.19h0Zm0,1.35h-2.55c-.11,0-.19,.09-.19,.19s.09,.19,.19,.19h2.55c.11,0,.19-.09,.19-.19s-.09-.19-.19-.19h0Zm0,1.35h-7.64c-.11,0-.19,.09-.19,.19s.09,.19,.19,.19h7.64c.11,0,.19-.09,.19-.19s-.09-.19-.19-.19Zm0,1.35h-7.64c-.11,0-.19,.09-.19,.19s.09,.19,.19,.19h7.64c.11,0,.19-.09,.19-.19s-.09-.19-.19-.19Zm-11.2-31.56s.08-.02,.1-.07l.29-.88,.29,.88c.03,.11,.13,.06,.28,.07,.06,0,.07,.12,.5-1.4,0-.03-.03-.06-.06-.06-.1,.01-.27-.03-.29,.05l-.27,.92c-.36-1.12-.23-.97-.51-.98-.11,0-.07,.07-.37,.98-.34-1.13-.19-.97-.56-.98-.12,0-.06,.08,.35,1.39,.03,.11,.13,.06,.27,.07Zm2.31,0c.12,0,.08-.1,.39-.95,.32,.91,.27,.95,.38,.95,.17,0,.21,.01,.24-.02,.04-.03,.45-1.4,.44-1.38,0-.03-.03-.06-.06-.06-.36,0-.21-.18-.56,.98-.43-1.26-.21-.91-.52-.98-.04,0-.07,.02-.08,.06l-.29,.91c-.35-1.15-.19-.97-.56-.98-.04,0-.06,.03-.06,.06,0,.01,0,.02,0,.03l.4,1.3c.03,.11,.14,.06,.28,.07Zm-4.61,0c.13,0,.07-.07,.39-.95,.31,.89,.26,.95,.38,.95,.16,0,.21,.01,.24-.02,.04-.03,.45-1.4,.44-1.38,0-.1-.19-.05-.27-.06-.1,0-.05,.02-.35,.98-.31-.96-.28-.98-.37-.98-.3,0-.16-.13-.52,.98-.27-.8-.22-.98-.35-.98-.41,0-.34-.18,.13,1.39,.04,.11,.13,.06,.28,.07Z"/>
  </g>
  <path class="cls-9" d="M40.13,24.86c-.13,0-.24-.11-.24-.24l-.06-2.06c0-.13,.1-.25,.24-.25h0c.13,0,.24,.1,.24,.24l.06,2.06c0,.13-.1,.25-.24,.25h0Zm-.1-3.55c-.13,0-.24-.1-.24-.24l-.04-1.24c0-.13,.1-.25,.24-.25,0,0,0,0,0,0,.13,0,.25,.1,.25,.24l.04,1.24c0,.13-.1,.25-.24,.25h0s0,0,0,0Zm5.92,6.3c-.13,0-.24-.1-.24-.24l-.06-2.06c0-.13,.1-.25,.24-.25h0c.13,0,.24,.1,.24,.24l.06,2.06c0,.13-.1,.25-.24,.25h0Zm-2.84-21.21c-.13,0-.24-.1-.24-.24l-.06-2.06c0-.13,.1-.25,.24-.25h0c.13,0,.24,.1,.24,.24l.06,2.06c0,.13-.1,.25-.24,.25,0,0,0,0,0,0Zm-.1-3.55c-.13,0-.24-.11-.24-.24l-.04-1.24c0-.13,.1-.25,.24-.25,0,0,0,0,0,0h0c.13,0,.24,.1,.24,.24l.04,1.24c0,.13-.1,.25-.24,.25h0s0,0,0,0ZM20.45,11.2c-.13,0-.24-.1-.24-.24l-.06-2.06c0-.13,.1-.25,.24-.25h0c.13,0,.25,.1,.25,.24l.06,2.06c0,.13-.1,.25-.24,.25,0,0,0,0,0,0Zm-.1-3.55c-.13,0-.24-.1-.24-.24l-.04-1.24c0-.13,.1-.25,.24-.25,.13,0,.25,.1,.25,.24l.04,1.24c0,.13-.1,.25-.24,.25,0,0,0,0,0,0Zm8.05-1.62c-.13,0-.24-.11-.24-.24l-.06-2.06c0-.13,.1-.25,.24-.25h0c.13,0,.24,.1,.24,.24l.06,2.06c0,.13-.1,.25-.24,.25h0s0,0,0,0Zm-.1-3.55c-.13,0-.24-.1-.24-.24l-.04-1.24c0-.13,.1-.25,.24-.25h0s0,0,0,0c.13,0,.24,.1,.24,.24l.04,1.24c0,.13-.1,.25-.24,.25h0s0,0,0,0h0Z"/>
  <path class="cls-10" d="M20.41,22.3c0,.43-.35,.78-.78,.78-.43,0-.78-.35-.78-.78,0-.43,.35-.78,.78-.78,.43,0,.78,.35,.78,.78h0Zm4.62-2.04c0,.43-.35,.78-.77,.78h0c-.43,0-.78-.35-.78-.78,0-.43,.35-.78,.78-.78,.43,0,.78,.35,.78,.77h0s0,0,0,0Z"/>
  <circle class="cls-10" cx="15.48" cy="22.23" r=".78"/>
</svg>