<?xml version="1.0" encoding="UTF-8"?>
<svg id="Layer_1" data-name="Layer 1" xmlns="http://www.w3.org/2000/svg" viewBox="0 0 164.98 112.89">
  <defs>
    <style>
      .cls-1 {
        fill: #deeffd;
      }

      .cls-2, .cls-3 {
        fill-rule: evenodd;
      }

      .cls-2, .cls-4 {
        fill: #010101;
      }

      .cls-3 {
        fill: #74c050;
      }
    </style>
  </defs>
  <rect class="cls-1" x="0" width="164.98" height="112.89"/>
  <g>
    <g>
      <path class="cls-2" d="M70.03,36.54c-2.02,0-3.99,.7-5.54,2v-1.79h-5.06v19.71h5.26v-12.61c1.15-1.49,2.9-2.39,4.78-2.44,.72-.03,1.44,.07,2.12,.31v-5.06c-.51-.09-1.03-.13-1.55-.13"/>
      <path class="cls-2" d="M24.14,50.43c1.5,1.27,3.41,1.97,5.38,1.95,1.41,0,2.51-.69,2.51-1.67,0-2.97-9.52-1.91-9.52-8.25,0-3.78,3.64-6.14,7.53-6.14,2.36,0,4.67,.7,6.64,2l-2.46,3.81c-1.09-.83-2.4-1.29-3.77-1.34-1.45,0-2.67,.57-2.67,1.59,0,2.56,9.52,1.55,9.52,8.37,0,3.78-3.68,6.1-7.82,6.1-2.84-.02-5.6-.95-7.9-2.64l2.55-3.78Z"/>
      <path class="cls-2" d="M57.18,46.41c0-5.49-3.84-10.08-9.27-10.08-5.83,0-9.56,4.79-9.56,10.29-.23,5.43,3.98,10.01,9.41,10.24,.29,.02,.59,0,.88,0,3.07,.04,6.01-1.25,8.06-3.54l-3-3.01c-1.26,1.4-3.05,2.22-4.94,2.27-2.73,.09-5.05-1.96-5.3-4.67h13.61c.08-.5,.12-1.01,.12-1.51Zm-13.48-2.35c.39-2.02,2.16-3.47,4.21-3.45,1.98,0,3.65,1.49,3.89,3.45h-8.11Z"/>
      <polygon class="cls-2" points="84.12 48.77 89.51 36.74 94.98 36.74 85.95 56.45 82.3 56.45 73.27 36.74 78.73 36.74 84.12 48.77"/>
      <path class="cls-2" d="M99.4,27.48c1.87,.03,3.35,1.58,3.32,3.45s-1.58,3.35-3.45,3.32c-1.84-.03-3.32-1.54-3.32-3.38s1.51-3.38,3.38-3.38c.02,0,.04,0,.07,0"/>
      <rect class="cls-4" x="96.76" y="36.74" width="5.26" height="19.71"/>
      <path class="cls-2" d="M123.79,52.43c-2.02,2.89-5.38,4.56-8.91,4.43-5.67,.14-10.38-4.34-10.53-10.01-.14-5.67,4.34-10.38,10.01-10.53,.19,0,.37,0,.56,0,3.21-.02,6.25,1.43,8.26,3.94l-3.73,3.29c-1.05-1.46-2.73-2.33-4.54-2.35-2.92,0-5.29,2.34-5.3,5.25v.15c-.09,2.87,2.16,5.27,5.02,5.36,.13,0,.26,0,.4,0,1.9-.04,3.66-1.01,4.69-2.6l4.06,3.07Z"/>
      <path class="cls-2" d="M142.91,53.32c-2.05,2.29-4.99,3.58-8.06,3.54-5.43,.26-10.03-3.94-10.29-9.37-.02-.29-.02-.59,0-.88,0-5.49,3.73-10.29,9.56-10.29,5.43,0,9.27,4.59,9.27,10.08,0,.5-.04,1.01-.12,1.5h-13.61c.26,2.71,2.58,4.76,5.3,4.68,1.88-.06,3.67-.88,4.94-2.27l3,3.01Zm-4.9-9.26c-.24-1.97-1.9-3.45-3.88-3.45-2.05,0-3.83,1.44-4.21,3.45h8.1Z"/>
    </g>
    <g>
      <path class="cls-2" d="M43.78,84.99v-19.71h5.06v1.59c1.56-1.29,3.52-2,5.54-1.99,2.63,0,5.12,1.16,6.8,3.17,1.51,1.97,2.24,4.44,2.02,6.92v10.03h-5.26v-10.45c.15-1.35-.28-2.69-1.17-3.7-.8-.74-1.87-1.14-2.96-1.1-1.88,.06-3.64,.95-4.78,2.44v12.81h-5.26Z"/>
      <path class="cls-3" d="M76.77,64.88c-6.36-.02-11.53,5.14-11.55,11.5,0,3.18,1.3,6.22,3.61,8.4,.81,.78,2.07,.84,2.96,.16,2.92-2.17,6.91-2.17,9.82,0,.9,.69,2.16,.61,2.97-.17,4.62-4.38,4.81-11.67,.43-16.29-2.15-2.27-5.12-3.57-8.25-3.59m-.07,17.28c-3.08,.08-5.65-2.35-5.74-5.44v-.3c0-3.17,2.57-5.74,5.74-5.74s5.74,2.57,5.74,5.74c.08,3.08-2.35,5.65-5.44,5.73h-.31"/>
      <polygon class="cls-2" points="98.6 84.99 94.67 84.99 86.86 65.28 92.11 65.28 96.4 76.54 100.6 65.28 104.99 65.28 109.16 76.54 113.48 65.28 118.74 65.28 110.92 84.99 107 84.99 102.79 73.77 98.6 84.99"/>
      <path class="cls-4" d="M118.8,82.76h-.45v.83h-.38v-2.28h.93c.4,0,.74,.32,.74,.73h0c0,.3-.18,.56-.45,.67l.52,.89h-.41l-.49-.84Zm-.45-.34h.55c.21,0,.39-.17,.39-.39s-.17-.39-.39-.39h-.54v.78Z"/>
      <path class="cls-4" d="M118.75,80.38c1.17,0,2.12,.95,2.12,2.12s-.95,2.12-2.12,2.12-2.12-.95-2.12-2.12h0c0-1.17,.94-2.12,2.12-2.12m0-.33c-1.35,0-2.46,1.1-2.46,2.46s1.1,2.46,2.46,2.46,2.46-1.1,2.46-2.46c0-1.36-1.11-2.46-2.46-2.46h0Z"/>
    </g>
  </g>
</svg>