<?xml version="1.0" encoding="UTF-8"?>
<svg id="Layer_1" data-name="Layer 1" xmlns="http://www.w3.org/2000/svg" viewBox="0 0 50 50">
  <defs>
    <style>
      .cls-1 {
        fill: #fc5c9c;
      }

      .cls-2 {
        fill: #fff;
      }

      .cls-3 {
        fill: #a1b8c6;
      }

      .cls-4 {
        fill: #9e637b;
      }

      .cls-5 {
        fill: #9bbbcf;
      }

      .cls-6 {
        fill: #fcefee;
      }

      .cls-7 {
        fill: #b1d2e7;
      }

      .cls-8 {
        fill: #feeeed;
      }

      .cls-9 {
        fill: #b1c8d6;
      }

      .cls-10 {
        fill: #f4abcc;
      }

      .cls-11 {
        fill: #f5eae9;
      }

      .cls-12 {
        fill: #fccde2;
      }

      .cls-13 {
        fill: #c5e3f6;
      }
    </style>
  </defs>
  <circle class="cls-8" cx="28.44" cy="21.62" r="20.58"/>
  <circle class="cls-8" cx="13.7" cy="35.75" r="12.72"/>
  <circle class="cls-8" cx="33.86" cy="33.98" r="14.98"/>
  <circle class="cls-8" cx="15.55" cy="16.05" r="14.35"/>
  <path class="cls-5" d="M44.4,13.89v23.69H5.24V13.89c0-1.65,1.34-2.98,2.98-2.98H41.42c1.65,0,2.98,1.34,2.98,2.98h0Z"/>
  <path class="cls-5" d="M2.45,37.58v1.68c0,1.17,.95,2.12,2.12,2.12H45.07c1.17,0,2.12-.95,2.12-2.11h0v-1.68H2.45Z"/>
  <path class="cls-9" d="M2.45,37.58v.04c0,1.17,.95,2.12,2.12,2.12H45.07c1.17,0,2.12-.95,2.12-2.11h0v-.05H2.45Z"/>
  <path class="cls-2" d="M7.48,37.58V13.89c0-.41,.33-.75,.75-.75H41.42c.41,0,.75,.33,.75,.75v23.69H7.48Z"/>
  <path class="cls-7" d="M29.9,37.58v1.15c0,.41-.33,.75-.75,.75h-8.67c-.41,0-.75-.33-.75-.75v-1.15h10.16Z"/>
  <path class="cls-13" d="M19.74,37.58h10.16v.89h-10.16v-.89Z"/>
  <path class="cls-3" d="M38.92,9.04h-2.92c-.68,0-1.23-.55-1.23-1.23,0-.42,.22-.81,.56-1.03,.03-.71,.74-1.25,1.43-1.11,.48-.66,1.41-.81,2.08-.32,.38,.28,.61,.72,.61,1.2h0c.47,.21,.77,.68,.77,1.19,0,.72-.58,1.3-1.3,1.3h0Zm-2.41-2.63c-.23,0-.42,.19-.42,.42,0,.03,0,.06,0,.09,.03,.15-.03,.31-.16,.39-.04,.03-.08,.05-.12,.07-.18,.07-.29,.24-.29,.43,0,.26,.21,.47,.47,.47h2.92c.3,0,.54-.24,.54-.54,0-.27-.2-.5-.47-.53-.21-.02-.36-.21-.34-.42,0-.02,0-.05,.01-.07,.1-.39-.14-.78-.53-.88-.06-.01-.11-.02-.17-.02-.3,0-.57,.18-.67,.46-.08,.2-.3,.29-.5,.22-.02,0-.04-.02-.06-.03-.07-.04-.15-.06-.22-.06h0Zm-18.78-1.64h.76v.83h-.76v-.83Zm0,2.2h.76v.83h-.76v-.83Zm1.06-1.06h.83v.76h-.83v-.76Zm-2.2,0h.83v.76h-.83v-.76Zm30.02,13.17h.76v.83h-.76v-.83Zm0,2.2h.76v.83h-.76v-.83Zm1.06-1.06h.83v.76h-.83v-.76Zm-2.2,0h.83v.76h-.83v-.76ZM2.41,12.05h.76v2.73h-.76v-2.73Z"/>
  <path class="cls-3" d="M1.42,13.03h2.73v.76H1.42v-.76ZM19.82,46.41c-.77,0-1.4-.63-1.4-1.4,.03-.77,.67-1.38,1.45-1.36,.74,.02,1.33,.62,1.36,1.36,0,.77-.63,1.4-1.4,1.4Zm0-2.05c-.36,0-.64,.29-.64,.64,0,.36,.29,.64,.64,.64s.64-.29,.64-.64c0-.36-.29-.64-.64-.64Zm18.99,.3l.54-.54,1.93,1.93-.54,.54-1.93-1.93Z"/>
  <path class="cls-3" d="M38.82,46.05l1.93-1.93,.54,.54-1.93,1.93-.54-.54Z"/>
  <path class="cls-10" d="M19.01,15.66v7.31c0,.38-.31,.69-.7,.69h-7.31c-.39,0-.7-.31-.7-.69v-7.31c0-.39,.31-.7,.7-.7h7.31c.39,0,.7,.31,.7,.7Z"/>
  <path class="cls-1" d="M17.54,14.96v6.53c0,.38-.31,.69-.69,.69h-6.54v-6.53c0-.39,.31-.7,.7-.7h6.53Z"/>
  <path class="cls-12" d="M19.01,27.31v7.31c0,.38-.31,.69-.7,.69h-7.31c-.39,0-.7-.31-.7-.69v-7.31c0-.39,.31-.7,.7-.7h7.31c.39,0,.7,.31,.7,.7Z"/>
  <path class="cls-6" d="M17.43,26.61v6.43c0,.38-.31,.69-.7,.69h-6.43v-6.42c0-.39,.31-.7,.7-.7h6.43Z"/>
  <path class="cls-11" d="M16.94,23.94v19.9c0,1.1-.89,1.99-1.99,1.99H3.55c-1.1,0-1.99-.89-1.99-1.99V23.94c0-1.1,.89-1.99,1.99-1.99H14.95c1.1,0,1.99,.89,1.99,1.99h0Z"/>
  <path class="cls-2" d="M3.06,42.49V25.06c0-.37,.3-.66,.66-.66H14.78c.37,0,.66,.3,.66,.66v17.43H3.06Z"/>
  <path class="cls-5" d="M10.1,44.17c0,.46-.38,.84-.85,.84-.47,0-.84-.38-.84-.84,0-.47,.38-.84,.84-.84s.85,.37,.85,.84Z"/>
  <path class="cls-10" d="M9.15,27.27v4.01c0,.21-.17,.38-.38,.38H4.76c-.21,0-.38-.17-.38-.38v-4.01c0-.21,.17-.38,.38-.38h4.02c.21,0,.38,.17,.38,.38Z"/>
  <path class="cls-1" d="M7.99,26.89v3.22c0,.21-.17,.38-.38,.38h-3.23v-3.22c0-.21,.17-.38,.38-.38h3.23Z"/>
  <path class="cls-6" d="M9.15,34.33v4.01c0,.21-.17,.38-.38,.38H4.76c-.21,0-.38-.17-.38-.38v-4.01c0-.21,.17-.38,.38-.38h4.02c.21,0,.38,.17,.38,.38Z"/>
  <path class="cls-12" d="M7.99,33.95v3.22c0,.21-.17,.38-.38,.38h-3.23v-3.22c0-.21,.17-.38,.38-.38h3.23Z"/>
  <path class="cls-4" d="M18.26,42.15l.34,.68c1.38-.7,2.92-1.07,4.47-1.07h14.59v-.76h-14.59c-1.67,0-3.33,.4-4.81,1.16h0Zm20.91-1.16h1.49v.76h-1.49v-.76Zm4.85-20.98h.76v1.49h-.76v-1.49Zm0,16.07h.76v-8.19c0-1.54,.45-3.03,1.29-4.32l-.64-.42c-.92,1.41-1.42,3.05-1.41,4.73v8.19h0Zm0-22.2v4.64h.76v-4.64c0-1.86-1.51-3.36-3.37-3.36h-3.67v.76h3.67c1.44,0,2.6,1.16,2.61,2.6Zm-7.8-2.6v-.76H20.14c-1.8,0-3.59-.6-5.02-1.69l-.46,.61c1.58,1.19,3.5,1.84,5.48,1.84h16.09ZM5.62,15.6v-1.7c0-1.44,1.17-2.6,2.6-2.6h2.98v-.76h-2.98c-1.86,0-3.36,1.51-3.36,3.36v1.7c0,1.72-.42,3.43-1.21,4.95l.67,.35c.85-1.64,1.3-3.46,1.3-5.31Zm7.08-5.07h1.49v.76h-1.49v-.76Z"/>
  <path class="cls-4" d="M26.05,12.48c0-.27-.22-.49-.49-.49s-.5,.22-.5,.49,.23,.5,.5,.5,.49-.22,.49-.5Zm-8.73,24.72v-1.51h.99c.59,0,1.07-.48,1.07-1.07v-7.31c0-.59-.48-1.08-1.07-1.08h-.99v-2.18h.99c.59,0,1.07-.49,1.07-1.08v-7.3c0-.59-.48-1.08-1.07-1.08h-7.32c-.59,0-1.07,.49-1.07,1.08v5.91h-2.07v-3.89h-.76v3.89H3.56c-1.31,0-2.37,1.06-2.37,2.37v3.32h.76v-3.32c0-.89,.72-1.61,1.61-1.61H12.35v-.76h-1.66v-5.91c0-.17,.14-.32,.31-.32h7.32c.17,0,.31,.14,.31,.32v7.3c0,.17-.14,.32-.31,.32h-1.1c-.29-1.01-1.21-1.71-2.26-1.71h-1.1v.76h1.1c.88,0,1.6,.71,1.6,1.6v19.9c0,.88-.73,1.61-1.61,1.61h-2.71c-1.54,0-3.03,.32-4.43,.96l.32,.69c1.3-.59,2.68-.89,4.11-.89h2.71c1.31,0,2.37-1.06,2.37-2.37v-5.88h2.04v.77c0,.62,.5,1.13,1.13,1.13h8.66c.62,0,1.13-.5,1.13-1.13v-.77h16.53v1.29c0,.96-.78,1.74-1.74,1.74h-2.91v.76h2.91c1.38,0,2.5-1.12,2.5-2.5v-2.05H17.33Zm0-10.21h.99c.17,0,.31,.14,.31,.32v7.31c0,.17-.14,.31-.31,.31h-.99v-7.94Zm12.19,11.74c0,.21-.16,.37-.37,.37h-8.66c-.21,0-.37-.16-.37-.37v-.77h9.39v.77Zm-5.14-22.21h15.73v.76h-15.73v-.76Z"/>
  <path class="cls-4" d="M21.58,19.54h18.54v.76H21.58v-.76Zm0,3.02h14.65v.76h-14.65v-.76Zm2.8,5.01h15.73v.76h-15.73v-.76Zm-2.8,3.02h18.54v.76H21.58v-.76Zm0,3.02h14.65v.76h-14.65v-.76ZM1.94,43.84v-12.01h-.76v12.01c0,1.31,1.06,2.37,2.37,2.37h.43v-.76h-.43c-.89,0-1.61-.72-1.61-1.61h0Zm-.76-15.05h.76v1.52h-.76v-1.52Zm4.29,16.66h1.49v.76h-1.49v-.76Zm1.91-22.42h3.73v.76h-3.73v-.76Zm2.92,4.08h4.73v.76h-4.73v-.76Zm0,1.78h4.73v.76h-4.73v-.76Zm.9,1.78h3.84v.76h-3.84v-.76Zm-2.43-4.17H4.76c-.42,0-.76,.34-.76,.77v4c0,.43,.34,.77,.76,.77h4.01c.42,0,.76-.34,.76-.77v-4c0-.43-.34-.77-.76-.77h0Zm0,.77v4.01H4.76v-4.02h4.01Zm1.53,6.91h4.73v.76h-4.73v-.76Zm0,1.78h4.73v.76h-4.73v-.76Zm.9,1.78h3.84v.76h-3.84v-.76Zm-2.43-4.17H4.76c-.42,0-.76,.34-.76,.77v4c0,.43,.34,.77,.76,.77h4.01c.42,0,.76-.34,.76-.77v-4c0-.43-.34-.77-.76-.77h0Zm0,4.78H4.76v-4.02h4.01v4.02Z"/>
</svg>