<?xml version="1.0" encoding="UTF-8"?>
<svg id="Layer_1" data-name="Layer 1" xmlns="http://www.w3.org/2000/svg" viewBox="0 0 50 50">
  <defs>
    <style>
      .cls-1, .cls-2 {
        fill: #ff3358;
      }

      .cls-3, .cls-4 {
        fill: #fff;
      }

      .cls-5 {
        fill: #61305d;
      }

      .cls-4, .cls-6, .cls-2, .cls-7, .cls-8, .cls-9, .cls-10 {
        fill-rule: evenodd;
      }

      .cls-6 {
        fill: #f7b679;
      }

      .cls-7 {
        fill: #ffe4cb;
      }

      .cls-11 {
        stroke: #500049;
      }

      .cls-11, .cls-12 {
        fill: none;
        stroke-miterlimit: 10;
        stroke-width: .5px;
      }

      .cls-13, .cls-8 {
        fill: #e000ce;
      }

      .cls-12 {
        stroke: #001850;
      }

      .cls-9 {
        fill: #e77c7c;
      }

      .cls-10 {
        fill: #fff2e6;
      }

      .cls-14 {
        fill: #85007a;
      }

      .cls-15 {
        fill: #b55c6c;
      }
    </style>
  </defs>
  <path class="cls-9" d="M7.77,44.93h2.44c2.79,0,2.79-4.22,0-4.22H3.6c-2.79,0-2.79-4.22,0-4.22h6.48c2.79,0,2.79-4.22,0-4.22h-2.33c-2.79,0-2.79-4.22,0-4.22H29.76c2.79,0,2.79,4.22,0,4.22h-1.16c-2.79,0-2.79,4.22,0,4.22h3.17c2.79,0,2.79,4.22,0,4.22h-3.31c-2.79,0-2.79,4.22,0,4.22h1.02c2.79,0,2.79,4.22,0,4.22H7.77c-2.79,0-2.79-4.22,0-4.22Z"/>
  <path class="cls-7" d="M20.41,28.05h21.74c2.79,0,2.79,4.22,0,4.22h-2.17c-2.95,0-3.21,4.22,.32,4.22h6.1c2.79,0,2.79,4.22,0,4.22h-8.78c-2.79,0-2.79,4.22,0,4.22h2.13c2.79,0,2.79,4.22,0,4.22H19.24c-2.79,0-2.79-4.22,0-4.22h1.17c2.81,0,2.93-4.22,0-4.22h-4.97c-2.79,0-2.79-4.22,0-4.22h3.6c3.09,.1,3.46-4.22,0-4.22h-2.2c-2.79,0-2.79-4.22,0-4.22h3.57Zm24.47,16.89h-.01c-1.16,0-2.11,.95-2.11,2.11h0c0,1.16,.95,2.11,2.11,2.11h.01c1.16,0,2.11-.95,2.11-2.11h0c0-1.16-.95-2.11-2.11-2.11Z"/>
  <path class="cls-11" d="M2.74,44.55l.45,.45m1.23-.45l-.45,.45m-.78,.78l-.45,.45m1.23-.45l.45,.45"/>
  <rect class="cls-3" x="7.81" y="39.64" width="18.85" height="6.35"/>
  <path class="cls-4" d="M35.84,36.56h.57c1.83,0,3.33,1.5,3.33,3.33v3.71c0,1.83-1.5,3.33-3.33,3.33h-.57c-1.83,0-3.33-1.5-3.33-3.33v-3.71c0-1.83,1.5-3.33,3.33-3.33Z"/>
  <path class="cls-2" d="M35.84,37.68c-1.21,0-2.21,1-2.21,2.21v3.71c0,1.21,1,2.21,2.21,2.21h.57c1.21,0,2.21-1,2.21-2.21v-3.71c0-1.21-1-2.21-2.21-2.21h-.57Z"/>
  <path class="cls-11" d="M35.84,36.56h.57c1.83,0,3.33,1.5,3.33,3.33v3.71c0,1.83-1.5,3.33-3.33,3.33h-.57c-1.83,0-3.33-1.5-3.33-3.33v-3.71c0-1.83,1.5-3.33,3.33-3.33Z"/>
  <path class="cls-11" d="M39.63,39.06c-.37,1.43-1.68,2.5-3.22,2.5h-.57c-1.54,0-2.85-1.06-3.22-2.5"/>
  <line class="cls-11" x1="36.12" y1="36.56" x2="36.12" y2="38.03"/>
  <line class="cls-11" x1="36.12" y1="40.07" x2="36.12" y2="41.15"/>
  <path class="cls-11" d="M36.67,38.57v.71c0,.72-1.09,.72-1.09,0v-.71c0-.72,1.09-.72,1.09,0Z"/>
  <path class="cls-10" d="M11.64,10.49h26.73c.81,0,1.47,.69,1.47,1.54V30.78c0,.85-.66,1.54-1.47,1.54H11.64c-.81,0-1.47-.69-1.47-1.54V12.03c0-.85,.66-1.54,1.47-1.54Z"/>
  <polygon class="cls-6" points="22.5 32.32 27.64 32.32 27.64 35.51 22.5 35.51 22.5 32.32"/>
  <path class="cls-10" d="M21.86,35.51h6.42c.37,0,.67,.3,.67,.67v.67h-7.75v-.67c0-.37,.3-.67,.67-.67Z"/>
  <circle class="cls-5" cx="24.91" cy="30.04" r=".66"/>
  <path class="cls-11" d="M22.5,35.51v-3.19m5.14,0v3.19m-5.78,0h6.42c.37,0,.67,.3,.67,.67v.67h-7.75v-.67c0-.37,.3-.67,.67-.67Z"/>
  <path class="cls-11" d="M11.64,10.49h26.73c.81,0,1.47,.69,1.47,1.54V30.78c0,.85-.66,1.54-1.47,1.54H11.64c-.81,0-1.47-.69-1.47-1.54V12.03c0-.85,.66-1.54,1.47-1.54Z"/>
  <rect class="cls-3" x="11.8" y="11.9" width="26.39" height="16.12"/>
  <rect class="cls-14" x="30.58" y="20.36" width="3.83" height="6.73"/>
  <rect class="cls-11" x="14.82" y="21.81" width="4.53" height="4.53"/>
  <polygon class="cls-11" points="17.73 19.54 20.77 13.8 23.81 19.54 17.73 19.54"/>
  <circle class="cls-11" cx="24.27" cy="23.83" r="2.74"/>
  <circle class="cls-14" cx="24.27" cy="23.83" r="1.92"/>
  <rect class="cls-1" x="15.63" y="22.62" width="2.91" height="2.91"/>
  <polygon class="cls-8" points="19.19 18.68 20.77 15.71 22.35 18.68 19.19 18.68"/>
  <polyline class="cls-12" points="29.81 27.85 29.81 19.61 35.18 19.61 35.18 27.85"/>
  <polyline class="cls-12" points="31.39 27.85 31.39 19.61 33.6 19.61 33.6 27.85"/>
  <polyline class="cls-12" points="35.18 19.61 33.6 16.31 31.39 16.31 29.81 19.61"/>
  <polyline class="cls-12" points="31.39 16.31 32.5 13.35 33.6 16.31"/>
  <polygon class="cls-2" points="31.05 18.89 33.95 18.89 33.09 17.08 31.9 17.08 31.05 18.89"/>
  <rect class="cls-11" x="7.05" y="38.89" width="20.38" height="7.85"/>
  <rect class="cls-15" x="8.36" y="40.1" width="1.31" height="1.23"/>
  <rect class="cls-15" x="10.71" y="40.1" width="1.31" height="1.23"/>
  <rect class="cls-15" x="13.06" y="40.1" width="1.31" height="1.23"/>
  <rect class="cls-15" x="15.41" y="40.1" width="1.31" height="1.23"/>
  <rect class="cls-15" x="17.75" y="40.1" width="3.66" height="1.23"/>
  <rect class="cls-15" x="22.45" y="40.1" width="1.31" height="1.23"/>
  <rect class="cls-15" x="24.79" y="40.1" width="1.31" height="1.23"/>
  <rect class="cls-15" x="8.36" y="42.12" width="1.31" height="1.23"/>
  <rect class="cls-15" x="10.71" y="42.12" width="1.31" height="1.23"/>
  <rect class="cls-15" x="13.06" y="42.12" width="1.31" height="1.23"/>
  <rect class="cls-15" x="15.41" y="42.12" width="1.31" height="1.23"/>
  <rect class="cls-15" x="17.75" y="42.12" width="1.31" height="1.23"/>
  <rect class="cls-15" x="20.1" y="42.12" width="1.31" height="1.23"/>
  <rect class="cls-15" x="22.45" y="42.12" width="1.31" height="1.23"/>
  <rect class="cls-15" x="8.36" y="44.14" width="1.31" height="1.23"/>
  <rect class="cls-15" x="10.71" y="44.14" width="6" height="1.23"/>
  <rect class="cls-15" x="17.75" y="44.14" width="1.31" height="1.23"/>
  <rect class="cls-15" x="22.45" y="44.14" width="1.31" height="1.23"/>
  <rect class="cls-15" x="24.79" y="42.12" width="1.31" height="3.25"/>
  <path class="cls-11" d="M46.01,26.35l.45,.45m1.23-.45l-.45,.45m-.78,.78l-.45,.45m1.23-.45l.45,.45"/>
  <rect class="cls-11" x="3.7" y="6.44" width="3.3" height="3.3"/>
  <rect class="cls-14" x="4.38" y="7.12" width="1.94" height="1.94"/>
  <rect class="cls-11" x="3.7" y="11.19" width="3.3" height="3.3"/>
  <rect class="cls-15" x="4.38" y="11.87" width="1.94" height="1.94"/>
  <rect class="cls-11" x="3.7" y="15.94" width="3.3" height="3.3"/>
  <rect class="cls-1" x="4.38" y="16.62" width="1.94" height="1.94"/>
  <rect class="cls-11" x="3.7" y="20.69" width="3.3" height="3.3"/>
  <rect class="cls-13" x="4.38" y="21.37" width="1.94" height="1.94"/>
  <path class="cls-11" d="M2.13,1.71l.45,.45m1.23-.45l-.45,.45m-.78,.78l-.45,.45m1.23-.45l.45,.45"/>
  <rect class="cls-1" x="43.14" y="7.17" width="3.16" height="15.9"/>
  <rect class="cls-11" x="42.4" y="6.44" width="4.64" height="17.36"/>
  <path class="cls-11" d="M44.81,7.88h1.12m-1.12,14.48h1.12m-1.12-2.07h1.12m-1.12-2.07h1.12m-1.12-2.07h1.12m-1.12-2.07h1.12m-1.12-2.07h1.12m-1.12-2.07h1.12"/>
  <circle class="cls-11" cx="46.65" cy="33.7" r=".81"/>
  <path class="cls-11" d="M43.38,1.71l.45,.45m1.23-.45l-.45,.45m-.78,.78l-.45,.45m1.23-.45l.45,.45m-29.38-.12s3.39-4.76,8.06-.98m2.1,1.95c4.67,3.78,8.06-.98,8.06-.98"/>
  <rect class="cls-11" x="14.64" y="2.23" width="2.1" height="2.1"/>
  <rect class="cls-11" x="23.75" y="2.23" width="2.1" height="2.1"/>
  <rect class="cls-11" x="32.87" y="2.23" width="2.1" height="2.1"/>
  <circle class="cls-11" cx="36.37" cy="7.81" r=".81"/>
  <path class="cls-11" d="M15.42,7.81h1.14m6.42,0h1.14m1.38,0h1.14m1.38,0h1.14m1.38,0h1.14m1.38,0h1.14m-13.73,0h1.14m-3.65,0h1.14"/>
  <circle class="cls-11" cx="12.85" cy="7.81" r=".81"/>
</svg>