<?xml version="1.0" encoding="UTF-8"?>
<svg id="Layer_1" data-name="Layer 1" xmlns="http://www.w3.org/2000/svg" viewBox="0 0 779.91 579">
  <defs>
    <style>
      .cls-1 {
        fill: #01305a;
      }

      .cls-2 {
        fill: #fff;
      }

      .cls-3 {
        opacity: .5;
      }

      .cls-4 {
        fill: #fb9e82;
      }

      .cls-5 {
        fill: #fd7c78;
      }

      .cls-6 {
        fill: #fdbeab;
      }

      .cls-7 {
        fill: #001336;
      }

      .cls-8 {
        fill: #375bc7;
      }

      .cls-9 {
        fill: #b2304f;
      }

      .cls-10 {
        fill: #015288;
      }

      .cls-11 {
        fill: #fc7972;
      }

      .cls-12 {
        fill: #3b73a9;
      }

      .cls-13 {
        fill: #d64e5a;
      }

      .cls-14 {
        fill: #ededed;
      }

      .cls-15 {
        fill: #cadff5;
      }
    </style>
  </defs>
  <g>
    <path class="cls-15" d="M349.45,172.65c-23.31-84.57-128.37-111.81-188.57-48.61-.86,.91-1.73,1.83-2.59,2.77-86.31,93.83-45.54,325.04,134.6,383.65,180.13,58.6,367.5-48.41,378.03-144.08,10.53-95.66-72.58-125.72-201.55-98.97-72.87,15.11-105.4-42.11-119.91-94.76Z"/>
    <path class="cls-15" d="M122.94,372.62c-14.6-19.57-36.63-15.65-41.48,7.85-1.6,7.77-1.24,17.48,2.69,29.54,14.98,45.94,45.36,58.65,60.8,29.08,9.53-18.25-7.54-47.08-22.01-66.48Z"/>
    <path class="cls-15" d="M680.2,374.73c-.89,17.45,14.82,27.55,29.82,18.79,4.96-2.9,9.68-7.81,13.38-15.8,14.09-30.45,1.66-53.17-23.02-47.24-15.23,3.66-19.3,26.96-20.18,44.25Z"/>
    <path class="cls-15" d="M94.32,229.54c-2.55,11.55-14.62,15.33-22.84,6.92-2.72-2.78-4.92-6.83-5.9-12.72-3.74-22.41,8.46-35.02,23.51-26.71,9.29,5.13,7.76,21.06,5.23,32.51Z"/>
    <path class="cls-15" d="M503.71,89.94c0,1.91-.78,3.65-2.04,4.91-1.25,1.27-2.99,2.04-4.9,2.04h-148.63c-3.82,0-6.95-3.13-6.95-6.95,0-1.91,.78-3.65,2.05-4.91,1.25-1.27,2.99-2.05,4.9-2.05h7.03c2.77-6.45,9.18-10.95,16.64-10.95,5.02,0,9.56,2.04,12.85,5.34,4.38-7.43,12.45-12.41,21.7-12.41,2.54,0,4.99,.39,7.3,1.08,4.84-9.09,14.39-15.29,25.41-15.29,13.23,0,24.36,8.93,27.72,21.09,2.44-1.22,5.19-1.92,8.11-1.92,8.25,0,15.21,5.51,17.4,13.06h4.48c3.82,0,6.94,3.13,6.94,6.95Z"/>
    <path class="cls-15" d="M592.48,212.57c0,1.79-.73,3.42-1.92,4.61-1.17,1.19-2.81,1.92-4.6,1.92h-139.46c-3.58,0-6.52-2.93-6.52-6.52,0-1.79,.73-3.42,1.92-4.6,1.17-1.19,2.81-1.92,4.6-1.92h6.59c2.6-6.05,8.62-10.28,15.61-10.28,4.71,0,8.97,1.92,12.05,5.01,4.11-6.97,11.69-11.65,20.36-11.65,2.39,0,4.68,.36,6.85,1.02,4.54-8.53,13.51-14.34,23.85-14.34,12.42,0,22.86,8.38,26.01,19.79,2.29-1.14,4.87-1.8,7.61-1.8,7.74,0,14.27,5.17,16.33,12.25h4.2c3.58,0,6.52,2.94,6.52,6.52Z"/>
  </g>
  <g>
    <g>
      <path class="cls-12" d="M627.15,106.69c-5.4,0-9.8-4.4-9.8-9.8s4.4-9.8,9.8-9.8,9.8,4.4,9.8,9.8-4.4,9.8-9.8,9.8Zm0-16.53c-3.71,0-6.73,3.02-6.73,6.73s3.02,6.73,6.73,6.73,6.73-3.02,6.73-6.73-3.02-6.73-6.73-6.73Z"/>
      <path class="cls-5" d="M662.43,141.08c-5.4,0-9.8-4.4-9.8-9.8s4.4-9.8,9.8-9.8,9.8,4.4,9.8,9.8-4.4,9.8-9.8,9.8Zm0-16.53c-3.71,0-6.73,3.02-6.73,6.73s3.02,6.73,6.73,6.73,6.73-3.02,6.73-6.73-3.02-6.73-6.73-6.73Z"/>
      <g>
        <g>
          <path class="cls-12" d="M674.54,172.93c-.85,0-1.54-.69-1.54-1.54v-6.78c0-.85,.69-1.54,1.54-1.54s1.54,.69,1.54,1.54v6.78c0,.85-.69,1.54-1.54,1.54Z"/>
          <path class="cls-12" d="M674.54,184.79c-.85,0-1.54-.69-1.54-1.54v-6.78c0-.85,.69-1.54,1.54-1.54s1.54,.69,1.54,1.54v6.78c0,.85-.69,1.54-1.54,1.54Z"/>
        </g>
        <g>
          <path class="cls-12" d="M684.06,175.47h-6.09c-.85,0-1.54-.69-1.54-1.54s.69-1.54,1.54-1.54h6.09c.85,0,1.54,.69,1.54,1.54s-.69,1.54-1.54,1.54Z"/>
          <path class="cls-12" d="M671.12,175.47h-6.09c-.85,0-1.54-.69-1.54-1.54s.69-1.54,1.54-1.54h6.09c.85,0,1.54,.69,1.54,1.54s-.69,1.54-1.54,1.54Z"/>
        </g>
      </g>
      <g>
        <g>
          <path class="cls-10" d="M620.42,134.94c-.85,0-1.54-.69-1.54-1.54v-6.78c0-.85,.69-1.54,1.54-1.54s1.54,.69,1.54,1.54v6.78c0,.85-.69,1.54-1.54,1.54Z"/>
          <path class="cls-10" d="M620.42,146.8c-.85,0-1.54-.69-1.54-1.54v-6.78c0-.85,.69-1.54,1.54-1.54s1.54,.69,1.54,1.54v6.78c0,.85-.69,1.54-1.54,1.54Z"/>
        </g>
        <g>
          <path class="cls-10" d="M629.94,137.48h-6.09c-.85,0-1.54-.69-1.54-1.54s.69-1.54,1.54-1.54h6.09c.85,0,1.54,.69,1.54,1.54s-.69,1.54-1.54,1.54Z"/>
          <path class="cls-10" d="M617,137.48h-6.09c-.85,0-1.54-.69-1.54-1.54s.69-1.54,1.54-1.54h6.09c.85,0,1.54,.69,1.54,1.54s-.69,1.54-1.54,1.54Z"/>
        </g>
      </g>
    </g>
    <g>
      <path class="cls-12" d="M158.7,84.15c0-5.4,4.4-9.8,9.8-9.8s9.8,4.4,9.8,9.8-4.4,9.8-9.8,9.8-9.8-4.4-9.8-9.8Zm3.07,0c0,3.71,3.02,6.73,6.73,6.73s6.73-3.02,6.73-6.73-3.02-6.73-6.73-6.73-6.73,3.02-6.73,6.73Z"/>
      <path class="cls-5" d="M119.34,121.51c0-5.4,4.4-9.8,9.8-9.8s9.8,4.4,9.8,9.8-4.4,9.8-9.8,9.8-9.8-4.4-9.8-9.8Zm3.07,0c0,3.71,3.02,6.73,6.73,6.73s6.73-3.02,6.73-6.73-3.02-6.73-6.73-6.73-6.73,3.02-6.73,6.73Z"/>
      <g>
        <g>
          <path class="cls-12" d="M98.96,135.27c.85,0,1.54-.69,1.54-1.54v-6.78c0-.85-.69-1.54-1.54-1.54s-1.54,.69-1.54,1.54v6.78c0,.85,.69,1.54,1.54,1.54Z"/>
          <path class="cls-12" d="M98.96,147.13c.85,0,1.54-.69,1.54-1.54v-6.78c0-.85-.69-1.54-1.54-1.54s-1.54,.69-1.54,1.54v6.78c0,.85,.69,1.54,1.54,1.54Z"/>
        </g>
        <g>
          <path class="cls-12" d="M89.45,137.81h6.09c.85,0,1.54-.69,1.54-1.54s-.69-1.54-1.54-1.54h-6.09c-.85,0-1.54,.69-1.54,1.54s.69,1.54,1.54,1.54Z"/>
          <path class="cls-12" d="M102.39,137.81h6.09c.85,0,1.54-.69,1.54-1.54s-.69-1.54-1.54-1.54h-6.09c-.85,0-1.54,.69-1.54,1.54s.69,1.54,1.54,1.54Z"/>
        </g>
      </g>
      <g>
        <g>
          <path class="cls-10" d="M134.39,83.15c.85,0,1.54-.69,1.54-1.54v-6.78c0-.85-.69-1.54-1.54-1.54s-1.54,.69-1.54,1.54v6.78c0,.85,.69,1.54,1.54,1.54Z"/>
          <path class="cls-10" d="M134.39,95.01c.85,0,1.54-.69,1.54-1.54v-6.78c0-.85-.69-1.54-1.54-1.54s-1.54,.69-1.54,1.54v6.78c0,.85,.69,1.54,1.54,1.54Z"/>
        </g>
        <g>
          <path class="cls-10" d="M124.87,85.69h6.09c.85,0,1.54-.69,1.54-1.54s-.69-1.54-1.54-1.54h-6.09c-.85,0-1.54,.69-1.54,1.54s.69,1.54,1.54,1.54Z"/>
          <path class="cls-10" d="M137.82,85.69h6.09c.85,0,1.54-.69,1.54-1.54s-.69-1.54-1.54-1.54h-6.09c-.85,0-1.54,.69-1.54,1.54s.69,1.54,1.54,1.54Z"/>
        </g>
      </g>
    </g>
    <g>
      <path class="cls-5" d="M519.65,119.91v28.36c0,3.75-3.04,6.79-6.79,6.79h-51.5l-15.55,5.58c-1.6,.57-3.13-1-2.51-2.58l5.88-15.19v-22.97c0-3.75,3.04-6.79,6.79-6.79h56.89c3.75,0,6.79,3.04,6.79,6.79Z"/>
      <g class="cls-3">
        <path class="cls-13" d="M508.8,127.94h-47.25c-1.04,0-1.87-.84-1.87-1.87h0c0-1.03,.84-1.87,1.87-1.87h47.25c1.03,0,1.87,.84,1.87,1.87h0c0,1.03-.84,1.87-1.87,1.87Z"/>
        <path class="cls-13" d="M508.8,135.49h-47.25c-1.04,0-1.87-.84-1.87-1.87h0c0-1.03,.84-1.87,1.87-1.87h47.25c1.03,0,1.87,.84,1.87,1.87h0c0,1.04-.84,1.87-1.87,1.87Z"/>
        <path class="cls-13" d="M508.8,143.03h-47.25c-1.04,0-1.87-.84-1.87-1.87h0c0-1.03,.84-1.87,1.87-1.87h47.25c1.03,0,1.87,.84,1.87,1.87h0c0,1.03-.84,1.87-1.87,1.87Z"/>
      </g>
    </g>
    <g>
      <g>
        <path class="cls-15" d="M323.12,49.32c.17,.04,.34,.04,.52,0,1.88-.49,2.97-.69,2.98-.69,.57-.1,.95-.65,.84-1.22-.1-.57-.65-.95-1.22-.84-.05,0-1.17,.21-3.13,.73-.56,.15-.89,.72-.75,1.28,.1,.38,.4,.66,.76,.75Z"/>
        <g>
          <path class="cls-15" d="M262.33,97.28c-.97,1.78-1.91,3.62-2.79,5.48-.22,.46-.73,.69-1.2,.57-.06-.02-.13-.04-.19-.07-.52-.25-.75-.87-.5-1.39,.89-1.9,1.85-3.78,2.85-5.59,.28-.51,.91-.69,1.42-.41,.51,.28,.69,.91,.41,1.42Z"/>
          <path class="cls-15" d="M257.08,108.39c-.75,1.88-1.47,3.82-2.13,5.77-.18,.52-.72,.81-1.25,.68-.03,0-.05-.01-.08-.02-.55-.19-.84-.78-.66-1.33,.67-1.99,1.4-3.97,2.17-5.88,.22-.54,.83-.8,1.36-.58,.54,.22,.8,.82,.58,1.36Z"/>
          <path class="cls-15" d="M248.21,139.04c-.51-.13-.85-.62-.78-1.15,.27-2.08,.58-4.17,.94-6.19,.1-.57,.64-.95,1.21-.85,.58,.1,.95,.64,.85,1.21-.35,1.99-.66,4.05-.92,6.1-.07,.57-.6,.98-1.17,.9-.04,0-.08-.01-.13-.02Z"/>
          <path class="cls-15" d="M252.41,118.75c.56,.16,.88,.73,.73,1.29-.26,.92-.5,1.85-.74,2.76-.27,1.06-.53,2.14-.77,3.21-.13,.56-.69,.92-1.25,.79,0,0-.02,0-.03,0-.55-.14-.89-.69-.76-1.24,.25-1.09,.51-2.19,.78-3.26,.24-.93,.49-1.88,.75-2.81,.15-.55,.72-.87,1.26-.73,0,0,.02,0,.02,0Z"/>
          <path class="cls-15" d="M265.45,91.98c-.25,.39-.71,.56-1.14,.46-.1-.03-.21-.07-.3-.13-.49-.31-.63-.96-.33-1.44,1.12-1.76,2.3-3.51,3.52-5.2,.34-.47,.99-.57,1.46-.23,.47,.34,.57,.99,.23,1.46-1.2,1.65-2.35,3.36-3.45,5.09Z"/>
          <path class="cls-15" d="M317.77,51.1c-1.91,.65-3.85,1.38-5.76,2.17-.22,.09-.45,.1-.66,.05-.31-.08-.58-.3-.71-.62-.22-.53,.03-1.15,.57-1.37,1.95-.81,3.93-1.55,5.88-2.22,.55-.19,1.14,.11,1.33,.65,.19,.55-.1,1.14-.65,1.33Z"/>
          <path class="cls-15" d="M300.93,58.63c-.24,.14-.52,.16-.77,.1-.27-.07-.51-.24-.66-.5-.28-.5-.1-1.14,.4-1.42,1.82-1.02,3.69-1.99,5.57-2.9,.52-.25,1.15-.03,1.4,.49,.25,.52,.03,1.15-.49,1.4-1.84,.89-3.68,1.85-5.46,2.84Z"/>
          <path class="cls-15" d="M281.08,73.08c-.27,.25-.64,.34-.97,.25-.19-.05-.36-.15-.51-.3-.4-.42-.37-1.08,.05-1.48,1.52-1.42,3.1-2.82,4.72-4.15,.45-.37,1.1-.31,1.47,.14,.37,.45,.3,1.11-.14,1.47-1.58,1.3-3.13,2.67-4.62,4.06Z"/>
          <path class="cls-15" d="M290.56,65.26c-.26,.19-.58,.24-.87,.17-.23-.06-.44-.19-.59-.4-.34-.47-.24-1.12,.23-1.46,1.68-1.22,3.42-2.41,5.19-3.54,.49-.31,1.13-.17,1.44,.32,.31,.49,.17,1.13-.32,1.45-1.73,1.1-3.44,2.27-5.08,3.47Z"/>
          <path class="cls-15" d="M272.66,82.03c-.27,.32-.68,.44-1.06,.35-.15-.04-.29-.11-.41-.21-.45-.37-.51-1.03-.14-1.47,1.33-1.61,2.73-3.19,4.15-4.71,.4-.42,1.06-.44,1.48-.05,.42,.4,.44,1.06,.05,1.48-1.4,1.49-2.77,3.04-4.07,4.61Z"/>
        </g>
      </g>
      <g>
        <polygon class="cls-5" points="324.16 42.24 322.04 24.8 377.52 33.27 324.16 42.24"/>
        <polygon class="cls-13" points="377.52 33.27 326.27 46.68 326.14 46.71 323.56 49.86 324.16 42.24 377.52 33.27"/>
        <polygon class="cls-9" points="323.56 49.86 328.17 49.8 326.14 46.71 323.56 49.86"/>
        <polygon class="cls-5" points="332.59 45.03 326.14 46.71 336.63 62.62 377.52 33.27 332.59 45.03"/>
      </g>
    </g>
  </g>
  <g>
    <g>
      <path class="cls-12" d="M206.42,539.92c-19.63-19.95-59.81-63.95-85.35-113.74-37.6-73.28-75.29-66.73-82.69-40.82-16.74,58.62,67.44,121.69,120.05,154.56h47.99Z"/>
      <path class="cls-10" d="M190.78,539.92c-29.83-23.41-55.05-50.01-72.57-70.44-25.2-29.37-40.39-52.65-40.54-52.89-.54-.84-1.66-1.07-2.5-.53-.84,.54-1.08,1.66-.53,2.5,.15,.23,15.44,23.68,40.78,53.22,16.94,19.75,41.03,45.24,69.54,68.13h5.82Z"/>
    </g>
    <g>
      <path class="cls-10" d="M203.17,515.61c-8.82-17.6-25.54-54.46-31.74-92.03-9.26-56.13-35.44-59.78-45.77-44.3-28.38,42.5,39.63,120.69,61.32,143.83l16.19-7.5Z"/>
      <path class="cls-1" d="M197.01,518.47c-16.56-23.24-28.78-48.46-36.59-67.01-10.38-24.63-15.45-43.15-15.5-43.34-.18-.66-.87-1.06-1.53-.87-.67,.18-1.06,.86-.88,1.53,.05,.19,5.16,18.83,15.59,43.61,7.82,18.58,20.04,43.82,36.61,67.15l2.3-1.07Z"/>
    </g>
    <g>
      <path class="cls-12" d="M589.58,359.87c16.81-19.7,53.32-65.67,74.68-116.35,30.66-72.73,67.16-69.18,76.09-44.96,23.1,62.65-79.35,140.32-122.07,169.38l-28.7-8.08Z"/>
      <path class="cls-10" d="M599.68,362.71c29.58-25.87,54-55.68,70.43-78.02,21.97-29.88,34.81-53.22,34.94-53.45,.46-.84,1.51-1.15,2.35-.68,.84,.46,1.15,1.51,.69,2.35-.12,.23-13.05,23.74-35.15,53.79-16.23,22.08-40.21,51.4-69.28,77.13l-3.97-1.12Z"/>
    </g>
    <g>
      <path class="cls-10" d="M592.23,334.89c7.16-17.45,20.49-53.88,23.71-90.22,4.82-54.3,29.57-59.67,40.55-45.62,30.17,38.58-29.19,118.18-48.26,141.85l-16.01-6.01Z"/>
      <path class="cls-1" d="M598.33,337.17c14.16-23.4,24.02-48.38,30.15-66.67,8.15-24.29,11.66-42.35,11.7-42.53,.12-.65,.75-1.07,1.4-.95,.65,.12,1.08,.75,.95,1.4-.03,.18-3.57,18.37-11.76,42.8-6.14,18.32-16,43.31-30.16,66.8l-2.28-.85Z"/>
    </g>
    <path class="cls-12" d="M693.17,417.09c5.26-27.88,15.38-53.3,26.88-42.81,11.51,10.5-6.73,53.92-33.94,77.99l-7.3,10.4c19.53-17.88,50.94-28.55,59.47-18.45,8.47,10.04-13.08,15.24-33.56,16.7-15.59,1.12-25.54,5.42-30.37,8.1l-34.48,49.12c31-28.23,80.6-45.01,94.1-29.03,13.45,15.92-20.76,24.18-53.25,26.5-24.56,1.76-40.31,8.5-48.03,12.76l-6.87,9.79c-1.89-.93-3.76-1.86-5.64-2.81l41.02-58.43c.24-6.01-.32-14.5-3.3-25.08-5.58-19.76-8.02-41.8,4.3-37.24,10.69,3.96,12.64,29.17,6.45,51.71l14.19-20.21c3.32-7,8.08-16.98,10.35-29.02Z"/>
    <path class="cls-12" d="M149.98,194.17c-2.78-23.08-9.67-44.42-19.64-36.47-9.98,7.96,2.56,44.46,23.5,65.62l5.4,8.9c-14.99-15.69-40.1-26.12-47.62-18.33-7.48,7.74,9.87,13.17,26.53,15.49,12.69,1.76,20.59,5.83,24.39,8.28l25.51,42.04c-23.81-24.78-63.45-41.2-75.36-28.87-11.86,12.29,15.65,20.9,42.1,24.58,19.98,2.78,32.49,9.15,38.58,13.06l5.09,8.38c1.59-.65,3.18-1.32,4.76-1.99l-30.35-50.02c.13-4.92,1.05-11.84,4.07-20.32,5.64-15.85,8.84-33.74-1.49-30.69-8.96,2.65-11.93,23.16-8.09,41.93l-10.5-17.3c-2.33-5.91-5.68-14.33-6.88-24.29Z"/>
  </g>
  <g>
    <g>
      <path class="cls-1" d="M382.47,530.9c.27-4.48,.52-8.75,.76-12.7,.95-16.17,1.56-27.2,1.56-27.2l-6.33-.28-3.57-.16-43.05-1.91s-.78,12.34-1.71,30.47c-.19,3.71-.38,7.66-.58,11.8h52.92Z"/>
      <path class="cls-7" d="M378.46,490.71l6.33,.28s-.61,11.04-1.56,27.2c-16.54,1.38-34.6,1.94-53.1,.91,.92-18.13,1.71-30.47,1.71-30.47l43.05,1.91,3.57,.16Z"/>
      <path class="cls-7" d="M376.2,530.9c1-17.27,1.82-32.07,2.26-40.19l-3.57-.16c-.45,8.16-1.27,23.02-2.27,40.35h3.58Z"/>
    </g>
    <g>
      <path class="cls-1" d="M396.35,530.9h52.92c-.2-4.14-.39-8.09-.58-11.8-.92-18.13-1.71-30.47-1.71-30.47l-43.05,1.91-3.57,.16-6.33,.28s.61,11.04,1.56,27.2c.23,3.96,.49,8.22,.76,12.7Z"/>
      <path class="cls-7" d="M400.36,490.71l-6.33,.28s.61,11.04,1.56,27.2c16.54,1.38,34.6,1.94,53.1,.91-.92-18.13-1.71-30.47-1.71-30.47l-43.05,1.91-3.57,.16Z"/>
      <path class="cls-7" d="M406.2,530.9c-1-17.33-1.82-32.19-2.27-40.35l-3.57,.16c.44,8.12,1.26,22.92,2.26,40.19h3.58Z"/>
    </g>
    <g>
      <path class="cls-12" d="M453.1,482.66c0,5.09-.01,9.12-.05,11.84-12.05,3.24-24.09,5.6-36.13,7.03-.32,.04-.64,.08-.96,.12-.54,.06-1.07,.13-1.6,.19-.14,.01-.27,.03-.4,.04-2.09,.23-4.17,.43-6.26,.6-4.34,.36-10.65,.66-14.99,.79l-3.37-20.05-3.37,20.05c-2.49-.04-6.84-.12-9.33-.23-.91-.05-1.82-.09-2.72-.15-.81-.04-1.63-.09-2.45-.15-.37-.02-.74-.04-1.11-.07-.69-.05-1.37-.1-2.06-.16-15.22-1.23-30.42-3.89-45.63-8.01-.08-5.99-.16-18.19-.18-33.94,0-.86,0-1.74,0-2.62-.02-17.36,.05-38.67,.25-60.61,.02-1.73,.04-3.47,.06-5.21,.02-2.35,.05-4.71,.08-7.09,0-.48,.01-.95,.02-1.43,0-.95,.02-1.91,.04-2.86,.02-1.39,.04-2.77,.06-4.15,.05-3.15,.09-6.29,.14-9.41,.73-43.56,2.2-83.6,5-93.79,.26-.94,.53-1.63,.81-2.03,.3-.45,.67-.91,1.08-1.38,.52-.59,1.13-1.21,1.81-1.83,4.66-4.29,12.76-9.28,20.96-14.01,.95-.55,1.92-1.1,2.87-1.64,.14-.08,22.3-7.55,22.44-7.64l23.17,1.62c2.78,1.64,24.71,9.09,27.4,10.76,.8,.5,1.58,1,2.35,1.49,6.31,4.07,11.66,8.1,14,11.53,3.37,4.96,5.41,49.44,6.59,97.82,.03,1.11,.06,2.23,.09,3.34,.12,5.12,.23,10.27,.33,15.41,.1,5.08,.19,10.15,.28,15.18,.14,8.23,.25,16.34,.35,24.14,.01,.89,.02,1.77,.03,2.65,.09,7.61,.16,14.91,.22,21.72,0,.89,.01,1.77,.02,2.65,.08,10.23,.12,19.29,.13,26.56h0c0,1.02,0,1.99,0,2.94Z"/>
      <g>
        <g>
          <polygon class="cls-14" points="390.5 279.74 403.98 393.52 389.39 421.67 374.42 393.52 388.7 279.77 390.5 279.74"/>
          <polygon class="cls-2" points="398.86 275.21 389.49 290.25 379.82 275.34 389.34 257.15 398.86 275.21"/>
        </g>
        <path class="cls-10" d="M376.03,243.02s-8.34-.09-11.16,6.63c0,0-.85,20.62,14.95,25.69l9.52-18.19s-11.86-3.66-13.31-14.13Z"/>
        <path class="cls-10" d="M401.78,243.02s7.15,1.04,9.97,7.77c0,0,2.89,19.48-12.91,24.55l-9.5-18.19s11-3.66,12.44-14.13Z"/>
      </g>
      <path class="cls-10" d="M392.71,433.4c0,1.86-1.51,3.37-3.37,3.37s-3.37-1.51-3.37-3.37,1.51-3.37,3.37-3.37,3.37,1.51,3.37,3.37Z"/>
      <path class="cls-10" d="M392.71,460.24c0,1.86-1.51,3.37-3.37,3.37s-3.37-1.51-3.37-3.37,1.51-3.37,3.37-3.37,3.37,1.51,3.37,3.37Z"/>
      <path class="cls-10" d="M405.89,312.16h28.48v22.16c0,4.85-3.94,8.79-8.79,8.79h-10.89c-4.85,0-8.79-3.94-8.79-8.79v-22.16h0Z"/>
    </g>
    <g>
      <path class="cls-1" d="M357.44,185.76s.52-12.35-1.14-17.27c-2.94-8.7-1.53-15.38,4.98-17.45,7.45-2.38,1.32-7.56,8.51-9.83,7.18-2.27,8.93,3.85,13.29,1.51,4.36-2.33,5.84-4.02,10.15-4.6,6.56-.88,6.98,5.37,11.51,4.54,7.52-1.39,11.73,3.47,13.26,8.38,1.53,4.92,.36,6.31,3.84,7.75,5.17,2.14,4.22,10.65,1.39,14.24-2.84,3.59-2.37,5.02-2.57,10.7-.2,5.68-63.21,2.03-63.21,2.03Z"/>
      <g>
        <path class="cls-4" d="M417.43,196.79s5.44-7.25,9.48-1.25c4.04,6-1.67,23.7-11.57,19.38l2.09-18.13Z"/>
        <path class="cls-11" d="M417.5,209.44c.37,0,.7-.24,.81-.61,1.53-5.47,7.2-7.68,7.26-7.7,.43-.16,.65-.65,.48-1.08-.16-.43-.65-.65-1.08-.49-.26,.1-6.51,2.52-8.27,8.82-.12,.44,.14,.91,.58,1.03,.08,.02,.15,.03,.23,.03Z"/>
        <path class="cls-11" d="M423.22,206.69c.16,0,.31-.04,.45-.13,.39-.25,.5-.77,.25-1.16-.04-.06-1.04-1.59-3.14-2.53-.42-.19-.92,0-1.1,.42-.19,.42,0,.92,.42,1.1,1.62,.73,2.41,1.9,2.42,1.91,.16,.25,.43,.38,.7,.38Z"/>
      </g>
      <g>
        <path class="cls-4" d="M361.39,196.79s-5.44-7.25-9.48-1.25c-4.04,6,1.67,23.7,11.57,19.38l-2.09-18.13Z"/>
        <path class="cls-11" d="M361.32,209.44c-.37,0-.7-.24-.81-.61-1.53-5.47-7.2-7.68-7.25-7.7-.43-.16-.65-.65-.48-1.08,.16-.43,.65-.65,1.08-.49,.26,.1,6.51,2.52,8.27,8.82,.12,.44-.13,.91-.58,1.03-.08,.02-.15,.03-.23,.03Z"/>
        <path class="cls-11" d="M355.61,206.69c-.16,0-.31-.04-.45-.13-.39-.25-.5-.77-.25-1.16,.04-.06,1.04-1.59,3.14-2.53,.42-.19,.92,0,1.1,.42,.19,.42,0,.92-.42,1.1-1.62,.73-2.41,1.9-2.42,1.91-.16,.25-.43,.38-.7,.38Z"/>
      </g>
      <path class="cls-6" d="M376.03,229.93v17.61s5.25,8.97,12.35,9.58c7.1,.62,13.4-7.72,13.4-7.72v-18.23l-25.75-1.24Z"/>
      <path class="cls-4" d="M376.03,229.93v7.81c4.77,5.29,13.23,6.61,25.75,4.76v-11.34l-25.75-1.24Z"/>
      <path class="cls-6" d="M357.47,184.71c.32,6.84,.97,15.4,2.28,22.24v.02s0,.04,.01,.07c0,0,0,0,0,.01,.32,1.67,.68,3.24,1.08,4.65,.24,.83,.49,1.7,.78,2.58,4.17,13.1,13.84,32.05,38.15,23.38,10.24-3.65,15.57-14.22,18.28-25.68,.16-.68,.31-1.36,.44-2.01,.09-.43,.18-.85,.26-1.27l.12-.61c.02-.11,.03-.18,.04-.22,0-.03,0-.04,0-.04,1.6-8.82,1.85-17.73,1.73-24.1-.12-6.49-3.67-12.44-9.33-15.64-15.31-8.68-31.48-5.44-42.12-1.35-7.39,2.83-12.12,10.08-11.73,17.98Z"/>
      <path class="cls-1" d="M359.74,206.95s0,0,0,.02c0,.02,0,.04,.01,.07,0,0,0,0,0,.01,.16,.57,1.01,3.71,1.86,7.24,4.17,13.1,13.84,32.05,38.15,23.38,10.24-3.65,15.57-14.22,18.28-25.68,.16-.68,.31-1.36,.44-2.01,.09-.43,.18-.85,.26-1.27l.12-.61c.02-.11,.03-.18,.04-.22,0-.03,0-.04,0-.04l-3.58-.72c-.68,3.39-2.2,6.57-4.05,9.41-3.02-7.24-18.37-2.43-18.37-2.43l-.07,.03c-.93,.29-1.89,.44-2.86,.44s-1.98-.16-2.94-.47c0,0-15.16-5.02-18.3,1.89-3.14-4.86-5.27-9.28-5.27-9.28l-3.73,.26h0Zm30.21,10.41c17.35-2.34,14.62,7,14.62,7-1.93,1.76-3.69,3.04-4.87,3.7-3.79,2.11-7.51,2.91-10.22,2.78-2.66-.11-3.39,.43-10.12-3.21-1.19-.64-2.39-1.58-3.57-2.71h0c-.29-1.83-3.23-10.56,14.17-7.57Z"/>
      <path class="cls-1" d="M374.23,197.45c0,1.88,.97,3.4,2.16,3.4s2.16-1.52,2.16-3.4-.97-3.4-2.16-3.4-2.16,1.52-2.16,3.4Z"/>
      <path class="cls-1" d="M401.28,197.45c0,1.88,.97,3.4,2.16,3.4s2.16-1.52,2.16-3.4-.97-3.4-2.16-3.4-2.16,1.52-2.16,3.4Z"/>
      <path class="cls-1" d="M368.69,185.97s8.94-3.53,15.83-.56l-.69,3.83s-10.1-.85-15.2,1.21c-.46-1.47-.52-2.96,.06-4.48Z"/>
      <path class="cls-1" d="M411.21,185.99s-9.01-3.56-15.94-.56l.69,3.86s10.18-.86,15.31,1.22c.46-1.48,.53-2.99-.06-4.51Z"/>
      <path class="cls-4" d="M389.12,212.66c-1.41,0-2.81-.55-3.03-.64-.43-.17-.63-.66-.46-1.09,.17-.43,.66-.63,1.09-.46,.76,.31,2.57,.79,3.36,.32,.15-.09,.36-.27,.41-.78,.3-2.92-.5-12.71-.51-12.81-.04-.46,.3-.86,.77-.9,.46-.04,.86,.3,.9,.77,.03,.41,.82,10.05,.5,13.12-.12,1.16-.73,1.75-1.22,2.04-.54,.32-1.18,.43-1.82,.43Z"/>
      <path class="cls-2" d="M399.79,219.03c-.64,3.2-2.75,9.07-9.86,9.07s-9.13-5.37-9.81-9.07h19.67Z"/>
      <path class="cls-1" d="M357.46,184.71c.33,6.84,.98,15.4,2.28,22.24l3.74-.26s-.91-5.78-1.32-9.54c-.42-3.76-1.13-10.8,2.08-11.68,3.2-.87,1.32-8.9,5.78-12.38,4.46-3.49,14.43-4.45,21.01-.4,6.58,4.04,13.99-.31,17.01,.4,3.04,.69,7.15,4.88,6.04,8.78-1.12,3.9,2.23,6.27,3.04,10.32,.81,4.04-1.78,14.92-1.78,14.92l3.57,.72c1.61-8.82,1.85-17.73,1.73-24.09-.13-6.5-3.67-12.44-9.33-15.64-15.32-8.68-31.48-5.45-42.12-1.36-7.39,2.84-12.11,10.09-11.74,17.98Z"/>
    </g>
    <path class="cls-12" d="M333.75,266.5s-22,14.68-36.14,19.05l9.47,39.68s1.31-.54,17.35-7.36l9.32-51.37Z"/>
    <path class="cls-12" d="M441.63,266.5s42.06,21.56,56.2,25.92c-5.41,9.75-8.86,18.83-13.47,31.9,0,0-20.21-5.35-36.25-12.17l-6.48-45.66Z"/>
  </g>
  <g>
    <g>
      <g>
        <path class="cls-8" d="M612.51,531.17c-.78-14.72-1.39-24.34-1.39-24.34l-43.17,1.92-3.58,.16-6.35,.28s.48,8.7,1.26,21.98h53.23Z"/>
        <path class="cls-1" d="M612.51,531.17c-.78-14.72-1.39-24.34-1.39-24.34l-43.17,1.92-3.58,.16-6.35,.28s.48,8.7,1.26,21.98h53.23Z"/>
        <path class="cls-7" d="M569.2,531.17c-.53-9.43-.96-17.26-1.25-22.42l-3.58,.16c.28,5.12,.71,12.89,1.24,22.26h3.59Z"/>
      </g>
      <g>
        <path class="cls-1" d="M545.7,531.17c.78-13.28,1.26-21.98,1.26-21.98l-6.89-.31-3.57-.16-42.64-1.9s-.47,7.38-1.11,19.1c-.09,1.66-.18,3.42-.28,5.24h53.23Z"/>
        <path class="cls-7" d="M538.83,531.17c.53-9.38,.96-17.16,1.24-22.28l-3.57-.16c-.28,5.16-.72,13-1.25,22.45h3.58Z"/>
      </g>
      <g>
        <path class="cls-1" d="M518.76,192.63c0,19.46,11.98,32.86,31.42,32.86s33.02-14.41,33.02-33.87c0-5.37-.87-10.38-2.56-14.81-.1-.26-.2-.53-.31-.78-.21-.5-.42-1.01-.65-1.49-.34-.75-.72-1.49-1.11-2.2-5.07-9.11-14.15-14.91-26.35-14.91-23.33,0-33.46,15.74-33.46,35.2Z"/>
        <path class="cls-1" d="M530.59,162.62c0,11.27,9.13,20.4,20.4,20.4s20.4-9.13,20.4-20.4-9.13-20.4-20.4-20.4-20.4,9.13-20.4,20.4Z"/>
        <g>
          <path class="cls-4" d="M523.13,201.01s-5.4-7.21-9.42-1.25c-4.02,5.96,1.66,23.56,11.5,19.26l-2.08-18.02Z"/>
          <path class="cls-11" d="M523.06,213.58c-.36,0-.7-.24-.8-.61-1.52-5.43-7.15-7.64-7.21-7.66-.43-.16-.64-.64-.48-1.07,.16-.43,.64-.65,1.07-.48,.26,.1,6.47,2.51,8.22,8.76,.12,.44-.13,.9-.58,1.02-.07,.02-.15,.03-.22,.03Z"/>
          <path class="cls-11" d="M517.38,210.85c-.15,0-.31-.04-.45-.13-.39-.25-.5-.76-.25-1.15,.04-.06,1.04-1.58,3.12-2.52,.42-.19,.91,0,1.1,.42,.19,.42,0,.91-.42,1.1-1.61,.72-2.39,1.89-2.4,1.9-.16,.25-.43,.38-.7,.38Z"/>
        </g>
        <g>
          <path class="cls-4" d="M578.83,201.01s5.4-7.21,9.42-1.25c4.02,5.96-1.66,23.56-11.5,19.26l2.08-18.02Z"/>
          <path class="cls-11" d="M578.9,213.58c.36,0,.7-.24,.8-.61,1.52-5.43,7.15-7.64,7.21-7.66,.43-.16,.64-.64,.48-1.07-.16-.43-.64-.65-1.07-.48-.26,.1-6.47,2.51-8.22,8.76-.12,.44,.13,.9,.58,1.02,.08,.02,.15,.03,.23,.03Z"/>
          <path class="cls-11" d="M584.58,210.85c.15,0,.31-.04,.45-.13,.39-.25,.5-.76,.25-1.15-.04-.06-1.04-1.58-3.12-2.52-.42-.19-.91,0-1.1,.42-.19,.42,0,.91,.42,1.1,1.61,.72,2.39,1.89,2.4,1.9,.16,.25,.43,.38,.7,.38Z"/>
        </g>
        <path class="cls-6" d="M564.28,233.95v17.5s-5.22,8.91-12.28,9.52c-7.05,.62-13.32-7.67-13.32-7.67v-18.12l25.6-1.23Z"/>
        <path class="cls-4" d="M564.28,233.95v7.77c-4.74,5.26-13.15,6.57-25.6,4.73v-11.27l25.6-1.23Z"/>
        <path class="cls-6" d="M519.94,193.46c0,.32,.01,.64,.02,.97,.02,.85,.05,1.71,.09,2.61,.02,.45,.04,.9,.07,1.35,.03,.46,.05,.91,.08,1.38,0,.02,0,.08,0,.15,.03,.41,.06,.82,.09,1.24,.26,3.42,.68,7.01,1.32,10.59,.01,.08,.03,.16,.04,.24,.1,.58,.22,1.16,.34,1.74,2.5,12.29,7.81,24.04,18.69,27.92,25.79,9.21,35.01-12.9,38.69-25.8,.33-1.17,.64-2.46,.91-3.81,.06-.3,.12-.6,.18-.91,.01-.08,.03-.15,.04-.24,1.26-6.7,1.9-14.99,2.23-21.68,0-.07,0-.13,0-.19,.37-7.84-4.33-15.05-11.67-17.87-10.58-4.07-26.64-7.29-41.87,1.34-5.62,3.19-9.15,9.09-9.27,15.55-.03,1.65-.03,3.48,0,5.43Z"/>
        <path class="cls-1" d="M521.62,211.74c.01,.08,.03,.16,.04,.24,2.35,12.9,7.63,25.59,19.02,29.66,25.79,9.21,35.01-12.9,38.69-25.8,.41-1.43,.77-3.03,1.09-4.72,.01-.08,.03-.15,.04-.24l-2.77-.19s-2.18,4.51-5.39,9.47c-3.21-7.05-18.7-1.92-18.7-1.92-.98,.31-1.98,.47-3,.47s-1.96-.15-2.92-.45l-.08-.02s-15.67-4.92-18.76,2.48c-1.89-2.9-3.44-6.15-4.14-9.61l-3.14,.64Zm29.07,9.84c17.77-3.06,14.77,5.86,14.47,7.72h0c-1.2,1.15-2.43,2.12-3.64,2.77-6.88,3.72-7.63,3.16-10.35,3.28-2.76,.13-6.57-.68-10.44-2.84-1.21-.68-3.01-1.98-4.98-3.78,0,0-2.79-9.54,14.94-7.15Z"/>
        <path class="cls-1" d="M539.92,203.29c0,1.87-.96,3.38-2.15,3.38s-2.15-1.51-2.15-3.38,.96-3.38,2.15-3.38,2.15,1.51,2.15,3.38Z"/>
        <path class="cls-1" d="M565.27,203.22c0,1.87-.96,3.38-2.15,3.38s-2.15-1.51-2.15-3.38,.96-3.38,2.15-3.38,2.15,1.52,2.15,3.38Z"/>
        <path class="cls-1" d="M570.13,191.6s-6.79-2.68-12.01-.42l.52,2.91s7.67-.65,11.53,.92c.35-1.12,.4-2.25-.04-3.4Z"/>
        <path class="cls-1" d="M530.59,191.6s6.79-2.68,12.01-.42l-.52,2.91s-7.67-.65-11.53,.92c-.35-1.12-.4-2.25,.04-3.4Z"/>
        <path class="cls-4" d="M552.01,217.47c1.4,0,2.79-.55,3.01-.63,.42-.17,.63-.66,.45-1.08-.17-.42-.66-.63-1.08-.46-.75,.3-2.55,.78-3.34,.32-.15-.09-.36-.27-.41-.77-.3-2.9,.49-12.64,.5-12.73,.04-.46-.3-.86-.76-.9-.46-.04-.86,.3-.9,.76-.03,.41-.82,9.99-.5,13.04,.12,1.15,.72,1.74,1.21,2.03,.53,.32,1.17,.43,1.81,.43Z"/>
        <path class="cls-2" d="M540.1,223.82c1.38,4.8,5.31,9.58,10.72,9.65,5.41-.07,9.34-4.85,10.72-9.65h-21.44Z"/>
        <path class="cls-1" d="M519.94,193.46c0,.32,.01,.64,.02,.97,.02,.85,.06,1.72,.09,2.61,.02,.45,.04,.9,.07,1.35,.03,.46,.05,.91,.08,1.38,0,.02,0,.08,0,.15,.03,.41,.06,.82,.09,1.24,.26,3.42,.68,7.01,1.32,10.59,.01,.08,.03,.16,.04,.24,.1,.58,.22,1.16,.34,1.74l2.86-2.14c-.18-1.85-1.65-14-1.42-15.14,.81-4.02,5.62-8.31,4.51-12.18-1.11-3.89-2.76-8.89,.26-9.58,3.01-.7,15.41-.81,23.14-.56,7.67,.25,18.7-1.24,23.13,2.23,4.43,3.46-8.29,10.39,1.53,13.41,3.1,.95,2.03,17.15,1.62,20.93l2.67,1.34c.06-.3,.12-.6,.18-.91,.01-.08,.03-.15,.04-.24,1.26-6.7,1.9-14.99,2.23-21.68,0-.07,0-.13,0-.19,.37-7.84-4.33-15.05-11.67-17.87-10.58-4.07-26.64-7.29-41.87,1.34-5.62,3.19-9.15,9.09-9.27,15.55-.03,1.65-.03,3.48,0,5.43Z"/>
      </g>
      <g>
        <path class="cls-5" d="M564.8,251.82c2.17,1.53,4.97,3.32,9,5.5,2.05,1.11,4.28,2.3,6.6,3.53,3.59,1.89,7.41,3.89,11.19,5.94h0c5.61,3.04,11.13,6.17,15.71,9.15,4.58,2.99,8.22,5.85,10.01,8.33,2.59,3.58,4.27,26.76,5.35,57.27,.04,1.07,.08,2.15,.12,3.24,0,.13,0,.26,0,.39,.04,1.11,.08,2.25,.11,3.39,.1,3.43,.21,6.94,.3,10.5,.03,.75,.04,1.51,.06,2.27,.02,.57,.03,1.13,.04,1.7,.11,4.37,.21,8.82,.3,13.33,.06,3.08,.12,6.19,.17,9.31,.95,54.4,.72,113.39,.5,129.43-11.76,2.97-23.52,5.21-35.28,6.73h0c-3.06,.39-6.13,.74-9.19,1.04-1.02,.1-2.05,.19-3.06,.27-5.51,.47-11.02,.79-16.53,.95-9.11,.26-18.21,.07-27.33-.55-6.26-.42-12.52-1.05-18.78-1.89-11.35-1.51-22.71-3.7-34.07-6.55-.21-19.13,.24-100.93,2.53-162.11,.04-.98,.08-1.95,.11-2.92,1.37-35.24,3.36-63.03,6.22-66.95,3.44-4.72,12.78-10.54,22.65-16.09,4.02-2.26,8.13-4.47,11.96-6.55,6.33-3.42,11.94-6.49,15.18-8.75h0s6.27,9.87,13.33,9.25c6.42-.55,11.43-8.17,12.28-9.52l.51,.37Z"/>
        <path class="cls-13" d="M589.62,476.98h0c-23.69-.1-43.9-10.88-56.69-19.91-13.83-9.76-22.21-19.65-22.3-19.75-.41-.48-.34-1.2,.14-1.61,.48-.41,1.2-.34,1.61,.14,.08,.1,8.31,9.8,21.92,19.39,12.51,8.82,32.27,19.35,55.34,19.45,.63,0,1.14,.52,1.13,1.14,0,.63-.51,1.13-1.14,1.13Z"/>
        <path class="cls-13" d="M564.94,485.03c-20.55,0-41.05-11.71-41.98-12.25-.54-.32-.73-1.01-.42-1.56,.32-.54,1.01-.73,1.56-.42,.24,.14,24.36,13.91,45.74,11.7,.63-.07,1.19,.39,1.25,1.02,.07,.63-.39,1.19-1.02,1.25-1.71,.18-3.42,.26-5.14,.26Z"/>
        <path class="cls-13" d="M533.95,290.75c-.54,0-1.02-.38-1.12-.93-.12-.62,.29-1.21,.91-1.33,28.88-5.48,37.58-24.06,37.67-24.24,.26-.57,.93-.83,1.51-.57,.57,.26,.83,.93,.57,1.51-.36,.81-9.29,19.85-39.32,25.55-.07,.01-.14,.02-.21,.02Z"/>
        <path class="cls-13" d="M576.75,318.77h28.48v22.16c0,4.85-3.94,8.79-8.79,8.79h-10.89c-4.85,0-8.79-3.94-8.79-8.79v-22.16h0Z"/>
      </g>
      <g>
        <g>
          <path class="cls-6" d="M443.09,531.17c-.01-.06-.02-.12-.03-.18-2.19-12.95,4.04-24.67,6.73-24.29,2.7,.38-2.23,14.14,.17,19.1,2.39,4.96,5.48-4.68,8.56-10.52,3.19-6.07,3-19.31,1.55-28.76-1.45-9.45,15.68-66.86,15.76-83.49l2.09-7.05,7.64-25.82,11.96-40.43s-7.17-30.6-19.25-27.97c0,0-6.4,21.32-13.23,45.36-1.16,4.08-2.33,8.24-3.49,12.39-4.87,17.43-9.45,34.64-11.58,44.85-5.62,26.96-6.06,82.99-6.06,82.99,0,0-9.92,20.59-10.15,29.75-.13,5.24,1.28,9.9,2.53,14.09h6.79Z"/>
          <path class="cls-4" d="M461.56,359.49l16.37,36.48,7.64-25.82-20.52-23.05c-1.16,4.08-2.33,8.24-3.49,12.39Z"/>
        </g>
        <path class="cls-5" d="M460.75,348.63c7.18,12.31,14.48,24.56,21.75,36.82,2.4-8.02,4.88-15.72,7.21-22.8,0-.02,.01-.03,.02-.05,.93-2.83,1.84-5.56,2.71-8.17,.01-.05,.03-.09,.05-.13,.3-.92,.6-1.82,.9-2.7h0c3.47-10.5,6.16-18.85,6.93-23.71,2.07-13.09-2.78-36.33-9.99-42.93l-.82-.62c-.47-.28-.64-.69-1.17-.16-2.46,2.52-8.39,11.03-11.46,18.8-.39,.99-.8,2.02-1.21,3.07-4.45,11.43-9.89,26.31-14.92,42.59Z"/>
      </g>
      <path class="cls-13" d="M481.41,392.68c2.37-9.79,5.35-20.67,8.3-30.04,0-.02,.01-.03,.02-.05,.91-2.9,1.82-5.65,2.71-8.17,.01-.05,.03-.09,.05-.13,.27-.8,.56-1.57,.83-2.32,.04-.13,.07-.26,.07-.39h0c0-.46-.28-.88-.73-1.04-.58-.21-1.22,.09-1.43,.67-3.02,8.24-6.6,20.11-9.66,31.76-.05,3.22-.1,6.47-.15,9.72Z"/>
      <path class="cls-13" d="M613.57,351.58h0c0,.13,.03,.26,.07,.39,.28,.75,.55,1.51,.83,2.31,.02,.04,.03,.09,.05,.14,.89,2.52,1.8,5.27,2.71,8.17,0,.02,.01,.03,.02,.06,2.25,7.18,4.54,15.25,6.54,23.03-.05-3.12-.11-6.22-.17-9.31-2.61-9.4-5.43-18.47-7.88-25.16-.21-.58-.85-.87-1.43-.66-.45,.17-.73,.59-.73,1.04Z"/>
      <g>
        <path class="cls-6" d="M667.52,377.12h0c-6.33-13.51-49.79-92.11-49.79-92.11-8.2,4.88,5.68,82.19,5.68,82.19l17.24,44.01c3.95,10.39,16.26,14.76,25.89,9.22,.16-.09,.33-.19,.5-.29,16.62-9.87,.48-43.02,.48-43.02Z"/>
        <path class="cls-5" d="M617.74,285.01l40.15,57.41s-15.96,34.8-34.29,33.48c0,0-22.59-79.11-5.86-90.88Z"/>
        <g>
          <polygon class="cls-1" points="668.53 341.05 668.03 346.86 667.17 356.64 667 358.52 666.28 366.84 665.48 375.9 665.45 376.32 664.54 386.7 663.74 395.94 662.74 407.41 630.86 407.41 630.63 404.79 629.66 393.63 629.07 386.91 628.12 375.9 628.1 375.71 627.51 369.01 626.6 358.52 626.53 357.76 625.95 351.09 625.08 341.05 668.53 341.05"/>
          <polygon class="cls-2" points="667 358.52 666.28 366.84 665.48 375.9 628.12 375.9 628.1 375.71 627.51 369.01 626.6 358.52 667 358.52"/>
          <g>
            <rect class="cls-10" x="622.85" y="332.57" width="47.91" height="8.48"/>
            <path class="cls-1" d="M627.93,325.36h37.74c.82,0,1.48,.66,1.48,1.48v5.73h-40.69v-5.73c0-.82,.66-1.48,1.48-1.48Z"/>
          </g>
        </g>
        <path class="cls-6" d="M669.62,347.13s-6.04,.41-14.7,2.43c-4.4,1.03-13.95,6.79-9.87,8.91,3.22,1.67,17.68-2.37,20.55-1.06,0,0-6.84,1.4-12.67,2.3-5.27,.81-13.41,3.89-10.24,5.57,2.99,1.59,10.5,.94,13.17,1.01,3.55,.09,8.04,.03,8.04,.03,0,0-5.67,.94-12.34,2.96-3.05,.92-11.87,1.81-9.07,5.79,1.41,2,13.3,.56,19.28,1.09,0,0-11.01,1.86-14.2,4.86-2.52,2.37,.91,2.69,5.36,3,5.73,.41,7.49,0,10.97,0s9.33-2.47,9.46-6.04c.12-3.57-1.87-5.06-1.25-7.31,.62-2.24,2.07-5.67,1.25-7.64-.82-1.97-.57-3.62,.24-6.19,.8-2.52-.63-8.68-3.99-9.72Z"/>
      </g>
    </g>
    <g>
      <path class="cls-2" d="M554.54,204.53c0-5.72,4.65-10.37,10.37-10.37s10.37,4.65,10.37,10.37-4.65,10.37-10.37,10.37-10.37-4.65-10.37-10.37Zm1.62,0c0,4.82,3.92,8.75,8.75,8.75s8.75-3.93,8.75-8.75-3.93-8.75-8.75-8.75-8.75,3.93-8.75,8.75Z"/>
      <path class="cls-2" d="M526.21,204.53c0-5.72,4.65-10.37,10.37-10.37s10.37,4.65,10.37,10.37-4.65,10.37-10.37,10.37-10.37-4.65-10.37-10.37Zm1.62,0c0,4.82,3.92,8.75,8.75,8.75s8.75-3.93,8.75-8.75-3.93-8.75-8.75-8.75-8.75,3.93-8.75,8.75Z"/>
      <path class="cls-2" d="M583.46,196.7c0-.44-.36-.81-.8-.82-5.62-.05-9.51,3.74-9.7,3.93-.32,.31-.32,.83,0,1.14,.16,.16,.37,.24,.57,.24s.41-.08,.57-.23c.04-.04,3.58-3.47,8.54-3.45,.45,0,.82-.36,.82-.81h0Z"/>
      <path class="cls-2" d="M528.21,199.71c-.23-.15-4.45-2.87-9.19-3.77-.5-.09-.96,.29-.96,.8h0c0,.38,.27,.72,.65,.79,4.45,.84,8.57,3.5,8.62,3.53,.14,.09,.29,.13,.44,.13,.26,0,.52-.13,.68-.37,.24-.37,.14-.87-.23-1.12Z"/>
      <path class="cls-2" d="M546.37,202.21s1.94-2.62,4.46-2.62,4.23,2.59,4.25,2.62l1.35-.88c-.09-.14-2.22-3.35-5.6-3.35s-5.68,3.16-5.77,3.29l1.31,.95Z"/>
    </g>
  </g>
  <g>
    <g>
      <path class="cls-6" d="M279.32,315.85l20.52,74.61,.4,1.36c0,.34,.01,.69,.02,1.06,.75,18.08,17.37,74.1,15.93,83.47-1.47,9.57-1.66,22.98,1.57,29.12,3.11,5.92,6.25,15.67,8.67,10.65,2.42-5.02-2.56-18.95,.16-19.33,2.73-.39,9.04,11.49,6.81,24.6-2.22,13.11,5.66,16.62,5.06,10.15-.59-6.48,4.6-14.34,4.35-24.23-.24-9.28-10.28-30.12-10.28-30.12,0,0-.44-56.74-6.13-84.03-5.69-27.29-28.3-113.02-28.3-113.02-12.77,13.54-18.8,35.72-18.8,35.72Z"/>
      <path class="cls-4" d="M299.85,390.5l.39,1.32c0,.33,.01,.66,.02,1.03,3.97-1.36,7.78-2.52,10.59-3.05,.63-.12,1.05-.73,.93-1.36-.12-.65-.73-1.07-1.36-.93-2.85,.54-6.64,1.66-10.57,3Z"/>
    </g>
    <g>
      <g>
        <path class="cls-1" d="M305.81,530.86c-.79-5.07-1.56-10.17-2.31-15.22-.5-3.38-.98-6.74-1.46-10.05-1.81-12.67-3.43-24.66-4.73-34.6-.5-3.78-.94-7.27-1.34-10.38-1.26-9.93-2-16.09-2-16.09l-55.76,2.11-55.93-2.11s-1.44,12.2-3.75,29.89c-.42,3.22-.87,6.62-1.34,10.16-1.24,9.28-2.66,19.53-4.19,30.03-.02,.15-.05,.31-.07,.46-.48,3.27-.96,6.56-1.46,9.86,0,.05-.01,.09-.02,.13h0c-.29,1.94-.59,3.88-.88,5.82h135.25Z"/>
        <g>
          <path class="cls-7" d="M195.14,461.26c0,2.9-2.35,5.26-5.26,5.26s-5.26-2.35-5.26-5.26,2.35-5.26,5.26-5.26,5.26,2.35,5.26,5.26Z"/>
          <path class="cls-7" d="M208.18,481.62c0,2.9-2.35,5.26-5.26,5.26s-5.26-2.35-5.26-5.26,2.35-5.26,5.26-5.26,5.26,2.35,5.26,5.26Z"/>
          <path class="cls-7" d="M233.84,471.11c0,2.9-2.35,5.26-5.26,5.26s-5.26-2.35-5.26-5.26,2.35-5.26,5.26-5.26,5.26,2.35,5.26,5.26Z"/>
          <path class="cls-7" d="M193.34,503.24c0,2.9-2.35,5.26-5.26,5.26s-5.26-2.35-5.26-5.26,2.35-5.26,5.26-5.26,5.26,2.35,5.26,5.26Z"/>
          <path class="cls-7" d="M225.41,500.99c0,2.9-2.35,5.26-5.26,5.26s-5.26-2.35-5.26-5.26,2.35-5.26,5.26-5.26,5.26,2.35,5.26,5.26Z"/>
          <path class="cls-7" d="M181.96,479.33c0,2.74-2.09,4.99-4.76,5.23,.47-3.54,.92-6.94,1.34-10.16,2,.75,3.42,2.67,3.42,4.93Z"/>
          <path class="cls-7" d="M277.55,530.86c-.47-2.42-2.6-4.25-5.16-4.25s-4.69,1.83-5.16,4.25h10.31Z"/>
          <circle class="cls-7" cx="269.91" cy="503.24" r="5.26"/>
          <path class="cls-7" d="M303.51,515.63c-.63,.27-1.33,.42-2.06,.42-2.9,0-5.25-2.35-5.25-5.25s2.35-5.25,5.25-5.25c.21,0,.4,.01,.6,.04,.48,3.31,.96,6.67,1.46,10.05Z"/>
          <path class="cls-7" d="M176.02,519.84c0,2.67-1.99,4.87-4.57,5.2,.01-.05,.02-.09,.02-.13,.5-3.29,.99-6.59,1.46-9.86,1.82,.83,3.08,2.66,3.08,4.79Z"/>
          <path class="cls-7" d="M210.87,525.12c0,2.9-2.35,5.26-5.26,5.26s-5.26-2.35-5.26-5.26,2.35-5.26,5.26-5.26,5.26,2.35,5.26,5.26Z"/>
          <path class="cls-7" d="M239.09,519.86c0,2.9-2.35,5.26-5.26,5.26s-5.26-2.35-5.26-5.26,2.35-5.26,5.26-5.26,5.26,2.35,5.26,5.26Z"/>
          <path class="cls-7" d="M251.8,492.13c0,2.9-2.35,5.26-5.26,5.26s-5.26-2.35-5.26-5.26,2.35-5.26,5.26-5.26,5.26,2.35,5.26,5.26Z"/>
          <path class="cls-7" d="M297.32,470.98c-.36,.09-.74,.13-1.13,.13-2.91,0-5.25-2.35-5.25-5.25s2.23-5.14,5.04-5.25c.4,3.11,.85,6.6,1.34,10.38Z"/>
          <path class="cls-7" d="M269.91,471.11c0,2.9-2.35,5.26-5.26,5.26s-5.26-2.35-5.26-5.26,2.35-5.26,5.26-5.26,5.26,2.35,5.26,5.26Z"/>
          <path class="cls-7" d="M289.16,489.84c0,2.9-2.35,5.26-5.26,5.26s-5.26-2.35-5.26-5.26,2.35-5.26,5.26-5.26,5.26,2.35,5.26,5.26Z"/>
        </g>
      </g>
      <path class="cls-5" d="M296.46,445.89c-29.41,19.2-83.42,17.7-117.36,0,3.24-20.19,7.51-40.41,6.59-67.29-.1-2.95-.23-5.87-.38-8.78-.13-2.52-.28-5.03-.44-7.51-2.93-44.71-10.56-81.27-6.81-86,1.64-2.07,4.36-4.3,7.73-6.59,1.32-.9,2.74-1.81,4.23-2.72,3.52-2.15,7.44-4.31,11.37-6.42,9.33-4.98,18.8-9.6,23.55-12.76,4.71,2.05,8.46,3.17,12.5,3.15,.11,0,.23,0,.35-.01,.11,.01,.23,.01,.34,.01,4.04,.02,7.79-1.1,12.5-3.15,4.4,2.93,12.7,7.01,21.16,11.47,6.22,3.28,12.52,6.75,17.44,10.13,3.21,2.21,5.84,4.37,7.45,6.4,1.86,2.34,1.08,12.61-.51,27.82-1.57,14.97-3.93,34.74-5.35,56.46-.39,6.03-.72,12.22-.93,18.49-.91,26.88,3.35,47.1,6.59,67.29Z"/>
      <path class="cls-13" d="M275.82,424.85h0c-23.69-.1-43.9-10.88-56.69-19.91-13.83-9.76-22.21-19.65-22.3-19.75-.41-.48-.34-1.2,.14-1.61,.48-.41,1.2-.34,1.61,.14,.08,.1,8.31,9.8,21.92,19.39,12.51,8.82,32.27,19.35,55.34,19.45,.63,0,1.14,.52,1.13,1.14,0,.63-.51,1.13-1.14,1.13Z"/>
      <path class="cls-13" d="M251.13,432.9c-20.55,0-41.05-11.71-41.98-12.25-.54-.32-.73-1.01-.42-1.56,.32-.54,1.01-.73,1.56-.42,.24,.14,24.36,13.91,45.74,11.7,.63-.07,1.19,.39,1.25,1.02,.07,.63-.39,1.19-1.02,1.25-1.71,.18-3.42,.26-5.14,.26Z"/>
      <path class="cls-13" d="M232.93,305.43c-.54,0-1.02-.38-1.12-.93-.12-.62,.29-1.21,.91-1.33,28.88-5.48,37.58-24.06,37.67-24.24,.26-.57,.93-.83,1.51-.57,.57,.26,.83,.93,.57,1.51-.36,.81-9.29,19.85-39.32,25.55-.07,.01-.14,.02-.21,.02Z"/>
      <path class="cls-6" d="M271.78,259.3c-5.73,13.07-19.2,30.81-37.52,27.64-17.75-3.07-26.79-16.65-32.86-26.36,9.33-4.98,18.8-9.6,23.54-12.76,4.71,2.05,8.46,3.17,12.49,3.15,.11,0,.23,0,.35-.01,.11,.01,.23,.01,.34,.01,4.04,.02,7.79-1.1,12.5-3.15,4.4,2.93,12.7,7.01,21.15,11.47Z"/>
    </g>
    <path class="cls-1" d="M238.13,251.44v.02c-.11,0-.23,0-.34,0,.11,0,.23,0,.34,0Z"/>
    <g>
      <path class="cls-1" d="M267.43,156.92s13.86,21.48,12.35,43.84c-1.52,22.37,2.04,48.19-17.97,47.06-20.02-1.13-55.72,8.02-67.07-9.4-11.35-17.42,72.69-81.5,72.69-81.5Z"/>
      <g>
        <g>
          <path class="cls-4" d="M208.66,196.26s-5.52-7.37-9.63-1.27c-4.11,6.09,1.7,24.08,11.76,19.69l-2.12-18.42Z"/>
          <path class="cls-11" d="M208.59,209.12c-.37,0-.71-.25-.82-.62-1.56-5.55-7.31-7.81-7.37-7.83-.44-.17-.66-.66-.49-1.1,.17-.44,.66-.66,1.09-.49,.27,.1,6.61,2.56,8.41,8.96,.13,.45-.14,.92-.59,1.05-.08,.02-.15,.03-.23,.03Z"/>
          <path class="cls-11" d="M202.78,206.32c-.16,0-.32-.04-.46-.14-.39-.25-.51-.78-.25-1.18,.04-.07,1.06-1.62,3.19-2.57,.43-.19,.93,0,1.12,.43,.19,.43,0,.93-.43,1.12-1.65,.74-2.45,1.93-2.45,1.94-.16,.25-.44,.39-.72,.39Z"/>
        </g>
        <g>
          <path class="cls-4" d="M265.59,196.26s5.52-7.37,9.63-1.27c4.11,6.09-1.7,24.08-11.76,19.69l2.12-18.42Z"/>
          <path class="cls-11" d="M265.66,209.12c.37,0,.71-.25,.82-.62,1.56-5.55,7.31-7.81,7.37-7.83,.44-.17,.66-.66,.49-1.1-.17-.44-.66-.66-1.09-.49-.27,.1-6.61,2.56-8.41,8.96-.13,.45,.14,.92,.59,1.05,.08,.02,.15,.03,.23,.03Z"/>
          <path class="cls-11" d="M271.47,206.32c.16,0,.32-.04,.46-.14,.39-.25,.51-.78,.25-1.18-.04-.07-1.06-1.62-3.19-2.57-.43-.19-.93,0-1.12,.43-.19,.43,0,.93,.43,1.12,1.65,.74,2.45,1.93,2.45,1.94,.16,.25,.44,.39,.72,.39Z"/>
        </g>
        <path class="cls-6" d="M250.72,229.94v17.89s-5.34,9.11-12.55,9.73c-7.21,.63-13.61-7.85-13.61-7.85v-18.52l26.17-1.26Z"/>
        <path class="cls-4" d="M250.72,229.94v7.94c-4.84,5.37-13.44,7.28-26.16,5.4v-12.08s26.16-1.26,26.16-1.26Z"/>
        <path class="cls-6" d="M269.59,183.99c-.33,6.95-.99,15.65-2.32,22.6-.33,1.73-.71,3.37-1.12,4.83-3.77,13.18-13.18,35.79-39.55,26.37-11.64-4.16-17.04-17.13-19.45-30.32-1.63-8.96-1.88-18.01-1.76-24.48,.13-6.6,3.73-12.64,9.48-15.89,15.56-8.82,31.98-5.53,42.79-1.38,7.51,2.88,12.31,10.25,11.92,18.27Z"/>
        <path class="cls-1" d="M225.51,197.31c0,1.91-.98,3.46-2.2,3.46s-2.2-1.55-2.2-3.46,.98-3.46,2.2-3.46,2.2,1.55,2.2,3.46Z"/>
        <path class="cls-1" d="M252.66,197.31c0,1.91-.98,3.46-2.2,3.46s-2.2-1.55-2.2-3.46,.98-3.46,2.2-3.46,2.2,1.55,2.2,3.46Z"/>
        <path class="cls-1" d="M218.96,187.02c1.83-.52,5.51-1.4,9.4-1.41,1.02,0,1.81,.91,1.63,1.91v.03c-.15,.8-.87,1.37-1.69,1.34-2.65-.12-9.6,.25-12.88,1.58-.07-.57,.27-1.19,.75-1.75,.72-.84,1.72-1.39,2.78-1.7Z"/>
        <path class="cls-1" d="M254.48,187.09c-1.83-.52-5.51-1.4-9.4-1.41-1.02,0-1.81,.91-1.63,1.91v.03c.15,.8,.87,1.37,1.69,1.34,2.65-.12,9.6,.25,12.88,1.58,.07-.57-.27-1.19-.75-1.75-.72-.84-1.72-1.39-2.78-1.7Z"/>
        <path class="cls-4" d="M237.42,213.09c-.65,0-1.3-.11-1.85-.44-.5-.3-1.11-.9-1.24-2.07-.32-3.12,.48-12.92,.51-13.33,.04-.47,.45-.82,.92-.78,.47,.04,.82,.45,.78,.92,0,.1-.82,10.05-.51,13.02,.05,.52,.26,.7,.42,.79,.8,.48,2.64-.01,3.41-.32,.43-.18,.93,.03,1.11,.47,.18,.43-.03,.93-.47,1.11-.22,.09-1.64,.65-3.08,.65Z"/>
        <path class="cls-2" d="M226.63,218.46c.64,3.23,2.78,9.18,9.97,9.18s9.23-5.44,9.93-9.18h-19.9Z"/>
        <path class="cls-4" d="M236.5,232.6c-2.08,0-3.91-1.12-3.99-1.17-.4-.25-.52-.77-.28-1.17,.25-.4,.77-.52,1.17-.28h0s1.51,.91,3.09,.91c1.71,0,3.25-.91,3.26-.92,.4-.24,.92-.11,1.17,.29,.24,.4,.11,.92-.29,1.17-.08,.05-1.94,1.16-4.14,1.16Z"/>
      </g>
      <path class="cls-1" d="M273.01,182.6c-.27,.77-1.03,1.27-2.05,1.57,.07,1.87-.12,4.13-.31,6.29-1.05,12.28-4.15,14.44-4.85,11.4-.46-2.02-.43-13.59-.21-17.36-2.43-.16-4.5-.56-4.5-.56l-2.85-11.93-1,11.78c-4.27,1.49-14.25-.89-14.25-.89l-3.35-11.76-2.07,11.31c-6.41,3.12-14.42,1.04-14.42,1.04l-1.84-12.2-4.25,12.2s-13.68,4.91-13.82,0c-.09-2.85,2-10.9,3.77-17.12,1.93-6.79,6.39-12.53,12.42-15.77,16.96-9.11,34.9-4.26,41.06-.59,13.05,7.79,12.51,32.58,12.51,32.58Z"/>
      <path class="cls-1" d="M211.18,157.83s-11.65,13.39-15.36,37.31c-3.7,23.92-8.83,41.59,5.58,49.48,15.6,8.55,18.6-6.01,18.38-10.77-.22-4.76-17.85-20.76-8.99-57.44,2.86-11.84,.39-18.58,.39-18.58Z"/>
      <path class="cls-2" d="M269.79,215.08c0,1.1-.89,1.99-1.99,1.99s-1.99-.89-1.99-1.99,.89-1.99,1.99-1.99,1.99,.89,1.99,1.99Z"/>
    </g>
    <path class="cls-6" d="M184.88,362.32c-2.93-44.71-10.56-81.27-6.81-86,1.64-2.07,4.36-4.3,7.73-6.59,3.43,16.09,12.09,64.5-.92,92.59Z"/>
    <path class="cls-6" d="M296.16,303.65c-1.57,14.97-3.93,34.74-5.35,56.46-11.53-28.02-5.01-74.43-1.58-90.69,3.21,2.21,5.84,4.37,7.45,6.4,1.86,2.34,1.08,12.61-.51,27.82Z"/>
    <g>
      <g>
        <path class="cls-6" d="M191.26,323.94l-12.97,41.67-14.21,39.62c-2.29,8.29-11.44,12.56-19.26,8.99-.14-.06-.27-.12-.41-.18-13.51-6.39-6.06-32.89-6.06-32.89l2.55-.2c1.04-2.91,3.85-10.31,7.42-19.61,.43-1.14,.88-2.32,1.34-3.51,.76-1.98,1.55-4.02,2.35-6.11,1.14-2.96,2.32-6.01,3.51-9.08,8.76-22.72,16.01-47.37,16.01-47.37l6.05-17.95,13.69,46.62Z"/>
        <path class="cls-4" d="M154.82,389.63c-.06,0-.11,0-.16,0-.52,0-.98-.37-1.06-.9-1.98-12.56-3.96-21.84-5.28-27.41,.43-1.14,.89-2.32,1.34-3.51,1.23,4.9,3.65,15.35,6.05,30.58,.09,.58-.31,1.12-.89,1.22Z"/>
        <path class="cls-6" d="M152.88,390.25s-1.86-30.19-8.3-36.61c-6.44-6.42-12.32-8.87-18.36-8.65-6.04,.22-11.72,.97-11.35,3.45,0,0-13.88-2.1-20.07,1.5-6.2,3.6,18.35,6.75,25.64,6.93,7.29,.19,11.14,4.26,11.43,8.61,.29,4.34,4.5,33.11,4.5,33.11l16.52-8.34Z"/>
      </g>
      <g>
        <path class="cls-7" d="M160.23,350.39l-91.98,.62c-3.46,.02-6.28-2.76-6.31-6.22v-.05c-.02-3.46,2.76-6.28,6.22-6.31l91.98-.62c3.46-.02,6.28,2.76,6.31,6.22v.05c.02,3.46-2.76,6.28-6.22,6.31Z"/>
        <path class="cls-1" d="M62.01,351.05l-20.14-73.43c-1.13-4.12,1.96-8.2,6.23-8.23l43.22-.29c2.92-.02,5.49,1.9,6.3,4.71l22.15,76.86-57.76,.39Z"/>
        <path class="cls-7" d="M97.63,273.81l21.96,76.23,4.94-.03-21.96-76.23c-.81-2.8-3.38-4.73-6.3-4.71l-4.94,.03c2.92-.02,5.49,1.91,6.3,4.71Z"/>
        <path class="cls-12" d="M86.78,313.3c1.16,4.85-1.84,8.8-6.69,8.83-4.85,.03-9.72-3.87-10.88-8.71-1.16-4.84,1.84-8.8,6.69-8.83,4.85-.03,9.72,3.87,10.88,8.71Z"/>
      </g>
    </g>
  </g>
  <g>
    <path class="cls-10" d="M102.07,530.85H680.11c6.15,0,11.14,4.99,11.14,11.14v1.07c0,6.15-4.99,11.14-11.14,11.14H102.06c-6.15,0-11.14-4.99-11.14-11.14v-1.06c0-6.15,4.99-11.15,11.15-11.15Z"/>
    <path class="cls-12" d="M691.25,542v.53H90.92v-.53c0-6.15,4.99-11.14,11.14-11.14H680.1c6.16,0,11.15,4.99,11.15,11.14Z"/>
  </g>
</svg>