<?xml version="1.0" encoding="utf-8"?>
<!-- Generator: Adobe Illustrator 27.0.0, SVG Export Plug-In . SVG Version: 6.00 Build 0)  -->
<svg version="1.1" id="Layer_1" xmlns="http://www.w3.org/2000/svg" xmlns:xlink="http://www.w3.org/1999/xlink" x="0px" y="0px"
	 viewBox="0 0 826.59 500" style="enable-background:new 0 0 826.59 500;" xml:space="preserve">
<style type="text/css">
	.st0{fill:#7055A4;}
	.st1{fill:#F6F6F6;}
	.st2{fill:#FFFFFF;}
	.st3{fill:#78CCC7;}
	.st4{opacity:0.2;fill:#6C5278;enable-background:new    ;}
	.st5{fill:#D8A453;}
	.st6{fill:#9660A7;}
	.st7{opacity:0.1;fill:#FFFFFF;enable-background:new    ;}
	.st8{opacity:0.2;fill:#5A5143;enable-background:new    ;}
	.st9{fill:#FFD493;}
	.st10{fill:#EFC484;}
	.st11{fill:#FFD9A0;}
	.st12{opacity:0.25;fill:#EFC484;enable-background:new    ;}
	.st13{fill:#E4A648;}
	.st14{opacity:0.25;fill:#2D1C36;enable-background:new    ;}
	.st15{fill:#2D1C36;}
	.st16{fill:#EAEFEE;}
	.st17{opacity:0.2;fill:#F3FAF9;enable-background:new    ;}
</style>
<g>
	<path class="st0" d="M762.22,42.22V494.8h-11.64V42.19c0-13.77-9.66-25.01-21.57-25.01H102.37c-11.89,0-21.57,11.23-21.57,25.01
		v452.6H69.15V42.22c0-20.89,14.34-37.92,32.23-38.51c0.32-0.02,0.66-0.02,0.98-0.02h626.65C747.36,3.68,762.22,20.94,762.22,42.22
		L762.22,42.22z"/>
	<path class="st1" d="M750.59,42.19v454.12H80.79V42.19c0-13.77,9.68-25.01,21.57-25.01h626.65
		C740.93,17.19,750.59,28.42,750.59,42.19z"/>
	<path class="st2" d="M704.66,436.6h-42.4c-2.75,0-4.99,2.23-4.99,4.99c0,2.76,2.23,4.99,4.99,4.99h42.4c2.75,0,4.99-2.23,4.99-4.99
		C709.65,438.84,707.42,436.6,704.66,436.6z M581.24,446.58h61.39c2.75,0,4.99-2.23,4.99-4.99c0-2.75-2.23-4.99-4.99-4.99h-61.39
		c-2.75,0-4.99,2.23-4.99,4.99C576.25,444.35,578.48,446.58,581.24,446.58z M607.38,418.31h97.28c2.75,0,4.99-2.23,4.99-4.99
		s-2.23-4.99-4.99-4.99h-97.28c-2.75,0-4.99,2.23-4.99,4.99C602.4,416.08,604.63,418.31,607.38,418.31z M503.46,418.31h85.36
		c2.76,0,4.99-2.23,4.99-4.99s-2.23-4.99-4.99-4.99h-85.36c-2.76,0-4.99,2.23-4.99,4.99C498.47,416.08,500.7,418.31,503.46,418.31z
		 M564.83,436.6h-42.4c-2.75,0-4.99,2.23-4.99,4.99c0,2.76,2.23,4.99,4.99,4.99h42.4c2.75,0,4.99-2.23,4.99-4.99
		C569.82,438.84,567.59,436.6,564.83,436.6z M704.66,357.43h-42.4c-2.75,0-4.99,2.23-4.99,4.99c0,2.76,2.23,4.99,4.99,4.99h42.4
		c2.75,0,4.99-2.23,4.99-4.99S707.42,357.43,704.66,357.43z M581.24,367.4h61.39c2.75,0,4.99-2.23,4.99-4.99s-2.23-4.99-4.99-4.99
		h-61.39c-2.75,0-4.99,2.23-4.99,4.99S578.48,367.4,581.24,367.4z M607.38,339.13h97.28c2.75,0,4.99-2.23,4.99-4.99
		s-2.23-4.99-4.99-4.99h-97.28c-2.75,0-4.99,2.23-4.99,4.99S604.63,339.13,607.38,339.13z M503.46,339.13h85.36
		c2.76,0,4.99-2.23,4.99-4.99s-2.23-4.99-4.99-4.99h-85.36c-2.76,0-4.99,2.23-4.99,4.99S500.7,339.13,503.46,339.13z M564.83,357.43
		h-42.4c-2.75,0-4.99,2.23-4.99,4.99c0,2.76,2.23,4.99,4.99,4.99h42.4c2.75,0,4.99-2.23,4.99-4.99S567.59,357.43,564.83,357.43z"/>
	<path class="st2" d="M704.36,303.46H546.14v-57.24h158.22V303.46z"/>
	<path class="st3" d="M620.19,47.19H130.66c-8.66,0-15.67,7.96-15.67,17.77c0,9.81,7.02,17.77,15.67,17.77h489.52
		c8.66,0,15.67-7.96,15.67-17.77C635.87,55.15,628.85,47.19,620.19,47.19L620.19,47.19z M664.01,60.1c-2.69,0-4.87,2.18-4.87,4.87
		c0,2.69,2.18,4.86,4.87,4.86c2.69,0,4.87-2.18,4.87-4.86C668.88,62.27,666.7,60.1,664.01,60.1z M683.73,60.1
		c-2.69,0-4.87,2.18-4.87,4.87c0,2.69,2.18,4.86,4.87,4.86c2.69,0,4.87-2.18,4.87-4.86C688.59,62.27,686.41,60.1,683.73,60.1z
		 M703.44,60.1c-2.69,0-4.87,2.18-4.87,4.87c0,2.69,2.18,4.86,4.87,4.86c2.69,0,4.87-2.18,4.87-4.86
		C708.31,62.27,706.13,60.1,703.44,60.1z"/>
	<path class="st4" d="M173.23,159.34c1.11,0,2,0.9,2,2s-0.9,2-2,2c-1.11,0-2-0.89-2-2C171.22,160.24,172.12,159.34,173.23,159.34
		C173.23,159.34,173.23,159.34,173.23,159.34z"/>
	<circle class="st4" cx="158.21" cy="161.35" r="2"/>
	<circle class="st4" cx="143.19" cy="161.35" r="2"/>
	<circle class="st4" cx="128.17" cy="161.35" r="2"/>
	<path class="st4" d="M165.72,147.81c1.11,0,2,0.9,2,2s-0.9,2-2,2c-1.11,0-2-0.9-2-2C163.72,148.7,164.61,147.81,165.72,147.81z
		 M150.7,147.81c1.11,0,2,0.9,2,2s-0.9,2-2,2c-1.11,0-2-0.9-2-2C148.7,148.7,149.6,147.81,150.7,147.81z M135.68,147.81
		c1.11,0,2,0.9,2,2c0,1.11-0.9,2-2,2c-1.11,0-2-0.9-2-2C133.68,148.7,134.58,147.81,135.68,147.81z M120.66,147.81c1.11,0,2,0.9,2,2
		c0,1.11-0.9,2-2,2c-1.11,0-2-0.9-2-2C118.66,148.7,119.56,147.81,120.66,147.81z"/>
	<path class="st5" d="M784.36,104.51H366.6c-7.93,0-14.36,6.43-14.36,14.36v85.93c0,7.93,6.43,14.36,14.36,14.36h417.77
		c7.93,0,14.36-6.43,14.36-14.36v-85.93C798.72,110.94,792.29,104.51,784.36,104.51L784.36,104.51z"/>
	<path class="st2" d="M425.64,146.07c7.37,0,12.92,4.14,14.68,10.85h-8.29c-1.28-2.65-3.62-3.97-6.48-3.97
		c-4.63,0-7.8,3.44-7.8,8.91c0,5.47,3.17,8.91,7.8,8.91c2.87,0,5.2-1.32,6.48-3.97h8.29c-1.76,6.7-7.32,10.8-14.68,10.8
		c-9.13,0-15.57-6.48-15.57-15.74S416.51,146.07,425.64,146.07z M459.59,177.69c-8.78,0-15.92-6.57-15.92-15.88
		s7.14-15.83,15.92-15.83c8.82,0,15.83,6.53,15.83,15.83S468.37,177.69,459.59,177.69z M459.59,170.81c4.94,0,8.16-3.57,8.16-9
		c0-5.51-3.22-9-8.16-9c-5.03,0-8.2,3.48-8.2,9C451.39,167.24,454.57,170.81,459.59,170.81z M479.61,146.42h8.91l8.69,21.43
		l8.6-21.43h8.87v30.96h-7.54v-18.57l-6.92,18.56h-6.09l-6.97-18.61v18.61h-7.54L479.61,146.42L479.61,146.42z M520.09,146.42h7.54
		v30.96h-7.54V146.42z M560.79,146.42v30.96h-7.54l-12.61-19.09v19.09h-7.54v-30.96h7.54l12.61,19.18v-19.18H560.79z M595.14,156.21
		h-8.33c-1.15-2.07-3.26-3.17-6.09-3.17c-4.85,0-8.07,3.44-8.07,8.82c0,5.73,3.26,9.08,8.69,9.08c3.75,0,6.35-1.99,7.5-5.47h-9.57
		v-5.55h16.4v7.01c-1.59,5.34-6.75,10.67-14.9,10.67c-9.26,0-15.79-6.48-15.79-15.74c0-9.26,6.48-15.79,15.74-15.79
		C588.13,146.07,593.5,149.86,595.14,156.21L595.14,156.21z M620.4,177.69c-6.66,0-11.86-3.31-12.08-9.57h8.03
		c0.22,2.38,1.72,3.53,3.84,3.53c2.21,0,3.62-1.1,3.62-2.91c0-5.73-15.48-2.65-15.39-13.63c0-5.87,4.8-9.13,11.29-9.13
		c6.75,0,11.29,3.35,11.6,9.26h-8.16c-0.13-1.98-1.54-3.17-3.57-3.22c-1.81-0.04-3.17,0.88-3.17,2.82c0,5.38,15.3,2.96,15.3,13.32
		C631.69,173.37,627.63,177.69,620.4,177.69L620.4,177.69z M650.96,177.69c-8.78,0-15.92-6.57-15.92-15.88s7.14-15.83,15.92-15.83
		c8.82,0,15.83,6.53,15.83,15.83S659.73,177.69,650.96,177.69z M650.96,170.81c4.94,0,8.16-3.57,8.16-9c0-5.51-3.22-9-8.16-9
		c-5.03,0-8.2,3.48-8.2,9C642.76,167.24,645.93,170.81,650.96,170.81z M685.62,177.69c-8.78,0-15.92-6.57-15.92-15.88
		s7.14-15.83,15.92-15.83c8.82,0,15.83,6.53,15.83,15.83S694.39,177.69,685.62,177.69z M685.62,170.81c4.94,0,8.16-3.57,8.16-9
		c0-5.51-3.22-9-8.16-9c-5.03,0-8.2,3.48-8.2,9C677.41,167.24,680.59,170.81,685.62,170.81z M733.32,146.42v30.96h-7.54
		l-12.61-19.09v19.09h-7.54v-30.96h7.54l12.61,19.18v-19.18H733.32z"/>
	<path class="st6" d="M148.71,384.06c-1.16-0.99-2.89-1.02-4.45-0.99c-11.33,0.19-22.67,0.37-34.01,0.55
		c-2.11,0.03-4.56-0.1-5.74-1.75c-0.76-1.07-0.73-2.47-0.56-3.75c0.58-4.38,2.43-8.57,2.85-12.97c0.43-4.4-1.06-9.45-5.22-11.39
		c-3.86-1.79-8.54-0.27-12.24,1.84c-3.7,2.12-7.15,4.88-11.36,5.77c-1.87,0.4-4.11,0.27-5.27-1.17c-0.69-0.86-0.83-2-0.93-3.09
		c-0.63-6.77-0.67-13.68-2.61-20.22c-1.01-3.4-2.67-6.84-5.74-8.82c-3.07-1.98-7.83-1.92-10.07,0.91
		c-2.68,3.38-1.99,9.94-6.41,10.33c-3.37,0.29-4.9-3.72-6.26-6.65c-3.57-7.74-13.66-12.11-22.2-9.63
		c-8.54,2.49-14.39,11.5-12.88,19.84c0.27,1.47,0.8,3.01,2.06,3.9c1.37,0.97,3.23,0.94,4.94,0.84c3.1-0.18,6.28-0.46,9.28,0.3
		c3,0.76,5.86,2.81,6.51,5.7c1.15,5.08-4.55,9.05-9.51,11.29c-4.97,2.24-10.88,5.49-10.65,10.7c0.19,4.38,4.98,7.34,9.53,8.03
		c4.55,0.69,9.25-0.09,13.8,0.63c4.01,0.64,8.38,3.4,8,7.26c-0.38,3.89-5.11,5.82-9.11,6.73s-8.76,2.23-9.94,5.97
		c-0.81,2.58,0.49,5.27,1.75,7.67c4.55,8.63,10.35,18.2,20.31,20.17c3.25,0.64,7.15,0.62,9.07,3.19c0.94,1.25,1.14,2.87,1.13,4.41
		c-0.03,4.23-1.45,8.35-1.95,12.56c-0.49,4.21,0.17,8.93,3.48,11.74c3.64,3.1,9.21,2.87,14,1.83c7.67-1.65,14.96-4.9,22.77-5.76
		c6.45-0.71,13.71,0.75,18.08,5c0.24,0.83,0.81,1.47,1.57,1.91l-0.49-0.72c0.2,0.25,0.4,0.5,0.59,0.77c1.9,1.05,4.87,0.89,6.62-0.65
		c2.63-2.31,3.09-6.04,3.34-9.43c0.48-6.55,0.8-13.1,0.95-19.66c0.07-3.02,0.14-6.18,1.71-8.81c1.12-1.88,2.9-3.3,4.66-4.66
		c6.36-4.9,13.08-9.6,17.83-15.95c4.74-6.34,7.21-14.85,4-21.97C149.64,385.22,149.28,384.55,148.71,384.06L148.71,384.06z"/>
	<path class="st1" d="M114.77,391.6c-1.27,10.04-3.95,18.54-6.79,28.24c-1.04,3.45-2.65,5.95-4.52,9.92
		c-5.94-10.97-13.22-21.14-21.05-30.81c1.03-2.54,1.99-5.67,2.72-8.19c2.11-7.59,3.99-14.95,4.86-22.77l-0.09-0.01
		c-0.99,7.8-3.61,14.24-5.82,21.78c-0.79,2.63-1.9,5.14-2.9,7.69c-0.94-1.14-1.88-2.28-2.83-3.41c-5.98-6.97-12.24-13.7-18.75-20.18
		c0.14-1.49,0.45-3.16,0.46-4.62c-0.03-4.1-0.37-8.19-1.05-12.23l-0.04,0.01c0.62,4.04,0.22,7.64,0.19,11.72
		c-0.02,1.45-0.22,2.88-0.36,4.33c-6.08-6-12.38-11.78-18.9-17.3l-0.13,0.15c11.32,9.86,21.94,20.51,31.84,31.78
		c-1.32,0.22-2.63,0.48-3.96,0.58c-4.07,0.3-7.64,0.92-11.71,0.56l-0.01,0.04c4.07,0.42,8.18,0.49,12.27,0.26
		c1.3-0.09,2.75-0.42,4.09-0.67c1.78,2.05,3.56,4.1,5.29,6.19c1.44,1.75,2.87,3.52,4.28,5.31c0.04,0.06,0.07,0.11,0.09,0.12
		c0,0,0,0,0-0.01c2.39,3.03,4.72,6.12,6.98,9.25c-3.5,1.06-7.19,1.75-9.61,2.16c-6.71,1.14-17.93,1.46-27.21,0.65l-0.01,0.1
		c9.28,0.95,16.41,1.7,27.96,0.59c3.21-0.31,6.87-1.12,10.17-1.67c6.4,9.09,12.11,18.64,16.5,28.82l1.36,3.08
		c0.46,1.02,0.75,2.11,1.13,3.17l2.16,6.37c1.17,4.36,2.41,8.7,3.47,13.08c2,7.65,3.78,15.35,5.4,23.08
		c0.11,0.52,0.61,0.85,1.14,0.75c0.01,0,0.03-0.01,0.04-0.01c0.54-0.1,0.89-0.62,0.78-1.15c-1.63-7.76-3.43-15.49-5.44-23.17
		c-1.13-4.39-2.44-8.73-3.67-13.09l-2.28-6.45c-0.4-1.07-0.71-2.17-1.19-3.2l-1.42-3.11c-1.07-2.39-2.21-4.74-3.4-7.06
		c1.36-3.49,3.27-7.34,4.29-10.86c2.71-9.78,4.68-19.76,5.8-29.83L114.77,391.6L114.77,391.6z"/>
	<path class="st7" d="M10.5,335.53c0,0,8.95-16.23,25.22-5.08c0,0-12.06-4.37-20.31,3.12C7.17,341.07,10.5,335.53,10.5,335.53z
		 M54.62,335.58c0,0,10.4-3.6,11.48,7.41C66.1,342.99,62.05,320.74,54.62,335.58z M16.73,370.04c0,0-4.57,10.01,6.29,12.13
		C23.02,382.17,1.25,376.02,16.73,370.04z M89.4,360.02c0,0,8.76-6.01,11.73-0.9c2.97,5.11-1.01,16.26-1.01,16.26
		s1.76-10.52-2.36-12.91C93.64,360.08,92.71,367.34,89.4,360.02L89.4,360.02z M29.88,399.65c0,0-9.65,4.45-6.78,9.62
		c2.87,5.17,14.49,7.45,14.49,7.45s-9.94-3.87-9.89-8.64C27.76,403.31,34.48,406.23,29.88,399.65z M59,449.19
		c0,0-7.79,7.23-3.45,11.25c4.33,4.02,16.08,2.58,16.08,2.58s-10.65-0.59-12.08-5.14C58.12,453.33,65.41,454.02,59,449.19L59,449.19
		z M120.51,387.8c-0.05-0.92,22.29-1.86,22.29-1.86s10.33,7.06-1.65,19.35c0,0,5.5-11.13-0.14-15.49
		C141.02,389.8,121.21,400.84,120.51,387.8L120.51,387.8z"/>
	<path class="st6" d="M595.52,317.2c0,0-17.35,35.29-17.92,53.74c-0.57,18.41-10.77,32.41-10.77,32.41l-17.37,2.39l10.45,13.56
		c-20.02,29.31-57.84,30.48-67.08,30.29c-1.35-0.02-2.08-0.06-2.08-0.06c-26.24-35.07,15.27-74.19,42.61-101.27
		C560.67,321.23,595.52,317.2,595.52,317.2L595.52,317.2z"/>
	<path class="st8" d="M565.3,343.35l-21.04,39.18l-7.74-1.53l-1.82,8.32c0,0-35.49,36.85-42.14,60.24l8.76-19.83l17.11-28.98
		l15.62-21.38C534.07,379.38,554.84,353.38,565.3,343.35L565.3,343.35z"/>
	<path class="st7" d="M595.52,317.2c0,0-17.35,35.29-17.92,53.74c-0.57,18.41-10.77,32.41-10.77,32.41l-17.37,2.39l10.45,13.56
		c-20.02,29.31-57.84,30.48-67.08,30.29c0.89-0.63,1.51-1.02,1.51-1.02c51.41-17.46,50.42-33.07,50.42-33.07l-8.07-19.68l15.97-4.48
		c0,0,8.99-16.43,10.72-31.43C565.11,344.97,595.52,317.2,595.52,317.2L595.52,317.2z"/>
	<path class="st1" d="M565.21,343.26c-15.57,15.62-29.83,32.54-42.73,50.46c-12.69,18.02-24.26,37.13-31.54,58.14l-1.4,3.92
		c-0.48,1.3-0.74,2.68-1.12,4.01l-2.1,8.07c-1.05,5.42-2.19,10.83-3.1,16.27c-0.14,0.82-0.26,1.64-0.39,2.45h2.46
		c0.11-0.68,0.21-1.37,0.33-2.05c0.83-5.44,1.89-10.84,2.86-16.25l1.96-7.96c0.36-1.32,0.59-2.67,1.04-3.96l1.33-3.89
		c6.95-20.82,18.24-39.97,30.69-58.06c12.59-18.04,26.59-35.16,41.91-50.99L565.21,343.26L565.21,343.26z"/>
	<path class="st6" d="M386.85,441.82c7.76-10.19,16.43-21.31,28.89-26.44c14.15-5.82,29.12-3.8,43.91-4.1
		c16.48-0.33,31.61-6.24,42.43-18.69c10.2-11.73,23.67-41.15,23.21-39.96c-4.91,12.77-9.94,25.87-18.38,37.04
		c-8.97,11.88-20.91,19.73-35.9,22.49c-15.59,2.87-31.42-0.98-46.97,2.55c-16.06,3.65-26.42,16.18-35.73,28.4
		C387.54,444.14,386.08,442.83,386.85,441.82L386.85,441.82z"/>
	<path class="st3" d="M465.02,395.88c0,0-0.45,0.17-1.14,0.53c-2.74,1.4-9.49,5.84-8,14.92c0.13,0.61,0.27,1.29,0.45,1.98l0.22,0.71
		l0.06-0.02c2.72,10.75,12.12,11.03,15.16,10.84l0.96-0.11l-0.1-1.34c-0.02-0.15-0.03-0.3-0.07-0.44c-0.85-6.98-5.49-9.26-9.58-9.84
		c-1.43-0.22-2.8-0.23-3.9-0.18c0.83-0.44,1.81-0.99,2.77-1.71c3.58-2.61,7.04-7.27,3.55-14.56
		C465.31,396.41,465.17,396.15,465.02,395.88L465.02,395.88z M477.32,408.89c0,0,0.07-0.01,0.11-0.02
		c-5.89-11.6,4.97-18.34,4.97-18.34c7.43,8.78,0.92,15.4-2.58,18.04c4.49-0.29,13.47,0.54,13.83,11.79
		C493.65,420.36,480.26,422.64,477.32,408.89L477.32,408.89z M493.1,379.69l-0.39,0.86c-1.13,2.61-3.66,10.8,4.83,16.66
		c0.35,0.24,0.73,0.46,1.12,0.72c0.08,0.16,0.19,0.32,0.3,0.47l0.01,0.03c4.74,7.5,11.85,7.2,15.6,6.36
		c0.73-0.16,1.3-0.33,1.75-0.47c0.48-0.18,0.75-0.29,0.75-0.29c-0.05-0.17-0.11-0.37-0.19-0.53c-3.14-9.19-10.66-8.89-15.18-7.73
		c-0.52,0.13-0.97,0.27-1.4,0.39c0.28-0.71,0.59-1.52,0.83-2.46l-0.01-0.03c1.11-4.1,1.05-9.91-6.35-13.31L493.1,379.69
		L493.1,379.69z M509.75,363.84l-0.56,0.7c-1.24,1.62-3.99,6.06-2.4,11.29c0.54,1.76,1.56,3.59,3.3,5.42
		c0.01,0.03,0.02,0.06,0.05,0.08c0.06,0.1,0.14,0.14,0.23,0.24c0.18,0.16,0.29,0.34,0.5,0.53c0.23,0.24,0.49,0.47,0.71,0.68
		c8.32,7.65,17.41,1.09,17.41,1.09c-0.06-0.1-0.12-0.18-0.17-0.26c-0.31-0.5-0.6-0.96-0.94-1.36c-4.61-6.05-10.54-4.74-14.23-2.99
		c-0.27,0.11-0.52,0.22-0.76,0.36c1.24-1.84,2.56-4.54,2.42-7.44c-0.11-2.42-1.23-4.96-4.19-7.32l-0.01-0.03L509.75,363.84
		L509.75,363.84z M510.78,347.44l-0.14,0.66c-0.01,0.07-0.02,0.13-0.01,0.19c-0.47,2.75-0.93,11.31,9.66,14.47
		c0.07,0.01,0.1,0.03,0.17,0.04c0.19,0.22,0.41,0.43,0.6,0.63c6.96,6.94,14.58,3.54,17.07,2.12c0.53-0.32,0.83-0.53,0.83-0.53
		c-0.18-0.29-0.36-0.57-0.57-0.85c-5.41-8.07-13.02-4.94-16.44-2.91c-0.45,0.26-0.84,0.5-1.12,0.71c0.04-0.17,0.08-0.34,0.14-0.57
		c0,0-0.01-0.03,0.01-0.07c0.69-3.44,1.26-11.75-8.5-13.65c-0.1-0.03-0.23-0.05-0.34-0.08L510.78,347.44z"/>
	<path class="st3" d="M524.29,355.52c-9.62-9.11-1.1-18.25-1.1-18.25C535.04,345.12,524.29,355.52,524.29,355.52z"/>
	<path class="st1" d="M532.14,363.63c0,0,3.41,0.48,5.99,1.93c0.53-0.32,0.83-0.53,0.83-0.53c-0.18-0.29-0.36-0.57-0.57-0.85
		l-5.96-0.61L532.14,363.63L532.14,363.63z M465.02,395.88c0,0-0.45,0.17-1.14,0.53c-0.21,2.86-1.41,5.77-1.6,6.17l0.19-0.18
		l2.91-5.73C465.31,396.41,465.17,396.15,465.02,395.88L465.02,395.88z M466.67,419.22c0,0,3.53,2.55,5.1,5.6l0.95-0.1l-0.14-1.74
		l-5.63-3.68L466.67,419.22L466.67,419.22z M481.58,398.62c0,0,0.92-4.22,0.04-7.54l0.78-0.55l1.07,1.39l-1.73,6.45L481.58,398.62
		L481.58,398.62z M487.6,414.85c0,0,3.53,2.54,5.1,5.6l0.95-0.1l-0.14-1.74l-5.63-3.68L487.6,414.85L487.6,414.85z M496.59,386.99
		c0,0-1.39-4.04-3.9-6.44l0.4-0.84l1.67,0.67l1.84,6.32L496.59,386.99L496.59,386.99z M511.88,401.91c0.35,0.14,2.47,0.99,4.43,2.41
		c0.48-0.18,0.75-0.29,0.75-0.29c-0.05-0.17-0.11-0.37-0.19-0.53l-4.74-1.6L511.88,401.91L511.88,401.91z M511.17,371.23
		c0,0-0.29-3.98-1.98-6.7l0.56-0.68l1.34,0.97l0.16,6.15L511.17,371.23z M523.16,381.86c0,0,3.08,0.43,5.66,1.75
		c-0.31-0.5-0.6-0.96-0.94-1.36l-4.45-0.44L523.16,381.86L523.16,381.86z M515.63,353.24c0,0-2.19-3.34-5.02-4.97l0.17-0.84
		l1.67,0.25l3.12,5.3L515.63,353.24L515.63,353.24z M524.61,344.66c0,0-0.29-3.98-1.98-6.7l0.56-0.68l1.34,0.97l0.16,6.15
		L524.61,344.66z"/>
	<path class="st6" d="M380.22,421.6c5.71-12.23,12.13-25.63,23.81-33.71c13.26-9.17,29.14-10.45,44.29-14.08
		c16.89-4.05,31.14-13.53,39.49-28.78c7.86-14.37,15.12-47.68,14.92-46.36c-2.19,14.26-4.42,28.87-10.6,42.26
		c-6.57,14.24-17.1,25.01-31.92,31.22c-15.4,6.46-32.58,6.05-47.79,13.18c-15.72,7.36-23.56,22.6-30.41,37.27
		C381.44,423.83,379.65,422.81,380.22,421.6L380.22,421.6z"/>
	<path class="st3" d="M450.38,356.73c0,0-0.42,0.27-1.06,0.81c-2.51,2.05-8.46,8.15-4.88,17.16c0.27,0.6,0.56,1.26,0.9,1.93
		l0.38,0.68l0.05-0.03c5.22,10.46,14.95,8.63,18.05,7.76l0.97-0.33l-0.4-1.35c-0.05-0.15-0.1-0.3-0.18-0.44
		c-2.45-6.99-7.73-8.3-12.08-7.98c-1.52,0.1-2.94,0.39-4.06,0.7c0.76-0.64,1.64-1.42,2.47-2.39c3.1-3.5,5.61-9.06,0.38-15.78
		C450.8,357.22,450.59,356.98,450.38,356.73L450.38,356.73z M465.96,367.36l0.11-0.05c-8.67-10.62,0.99-20,0.99-20
		c9.62,7.38,4.41,15.65,1.4,19.16c4.55-1.31,13.99-2.47,16.89,9.03C485.36,375.5,472.08,380.87,465.96,367.36z M475.65,333.75
		l-0.21,0.98c-0.58,2.94-1.35,11.95,8.71,16.07c0.41,0.16,0.85,0.31,1.31,0.49c0.12,0.15,0.27,0.28,0.41,0.42l0.02,0.03
		c6.56,6.66,13.82,4.74,17.49,3.05c0.71-0.33,1.26-0.63,1.7-0.88c0.45-0.29,0.71-0.47,0.71-0.47c-0.09-0.16-0.2-0.36-0.32-0.5
		c-5.3-8.76-12.97-6.76-17.37-4.55c-0.51,0.25-0.94,0.49-1.35,0.72c0.13-0.79,0.27-1.7,0.31-2.72l-0.02-0.03
		c0.22-4.47-1.15-10.44-9.53-12.28L475.65,333.75L475.65,333.75z M489.24,313.69l-0.42,0.85c-0.92,1.95-2.75,7.14,0.07,12.16
		c0.95,1.69,2.41,3.35,4.61,4.84c0.02,0.03,0.03,0.05,0.07,0.07c0.09,0.09,0.17,0.12,0.29,0.2c0.22,0.13,0.38,0.29,0.64,0.43
		c0.29,0.2,0.61,0.38,0.88,0.55c10.29,6,18.17-2.79,18.17-2.79c-0.09-0.09-0.16-0.16-0.24-0.23c-0.43-0.44-0.84-0.86-1.28-1.19
		c-6.1-5.19-11.92-2.51-15.33,0.12c-0.26,0.18-0.49,0.34-0.7,0.54c0.86-2.17,1.62-5.25,0.82-8.21c-0.66-2.46-2.39-4.83-5.96-6.6
		l-0.02-0.03L489.24,313.69L489.24,313.69z M486.61,296.58l0.01,0.72c0,0.07,0.01,0.14,0.04,0.19c0.14,2.94,1.58,11.85,13.2,12.73
		c0.07,0,0.11,0.01,0.18,0.01c0.25,0.19,0.52,0.36,0.75,0.51c8.73,5.59,15.81,0.37,18.06-1.65c0.47-0.44,0.74-0.73,0.74-0.73
		c-0.25-0.25-0.5-0.51-0.78-0.75c-7.38-7.09-14.52-2.16-17.58,0.7c-0.4,0.37-0.75,0.71-0.99,0.99c0.01-0.18,0.01-0.37,0.01-0.62
		c0,0-0.02-0.03,0-0.07c-0.06-3.7-1.34-12.38-11.82-12.14c-0.11-0.01-0.25,0-0.37-0.01L486.61,296.58L486.61,296.58z"/>
	<path class="st3" d="M502.34,301.86c-11.95-7.22-5.23-18.54-5.23-18.54C511.07,288.73,502.34,301.86,502.34,301.86z"/>
	<path class="st1" d="M512.24,308.45c0,0,3.62-0.27,6.6,0.64c0.47-0.44,0.74-0.73,0.74-0.73c-0.25-0.25-0.5-0.51-0.78-0.75
		l-6.27,0.72L512.24,308.45L512.24,308.45z M450.38,356.73c0,0-0.42,0.27-1.06,0.81c0.42,2.99-0.15,6.26-0.26,6.71l0.16-0.23
		l1.71-6.56C450.8,357.22,450.59,356.98,450.38,356.73z M457.33,380.4c0,0,4.21,1.83,6.51,4.62l0.96-0.32l-0.53-1.76l-6.62-2.52
		L457.33,380.4L457.33,380.4z M468.05,355.83c0,0,0-4.56-1.66-7.77l0.68-0.74l1.41,1.19l-0.33,7.03L468.05,355.83L468.05,355.83z
		 M477.89,371.2c0,0,4.21,1.83,6.51,4.62l0.96-0.32l-0.53-1.76l-6.62-2.52L477.89,371.2L477.89,371.2z M480.89,340.48
		c0,0-2.34-3.85-5.46-5.76l0.22-0.96l1.87,0.32l3.32,6.1L480.89,340.48L480.89,340.48z M499.98,352.41c0.39,0.07,2.77,0.46,5.1,1.48
		c0.45-0.29,0.71-0.47,0.71-0.47c-0.09-0.16-0.2-0.36-0.32-0.5l-5.24-0.58L499.98,352.41z M492.36,320.98c0,0-1.19-4.03-3.54-6.46
		l0.42-0.83l1.59,0.7l1.54,6.29L492.36,320.98z M507.09,329.24c0,0,3.27-0.25,6.22,0.54c-0.43-0.44-0.84-0.86-1.28-1.19l-4.68,0.54
		L507.09,329.24L507.09,329.24z M492.91,301.46c0,0-3-2.95-6.28-3.99l-0.01-0.9l1.78-0.11l4.4,4.75L492.91,301.46z M500.23,290.61
		c0,0-1.19-4.03-3.54-6.46l0.42-0.82l1.59,0.7l1.55,6.3L500.23,290.61z"/>
	<path class="st3" d="M669.09,408.84c0,0-29.35,24-37.23,39.96c-7.87,15.92-22.43,24.12-22.43,24.12l-16.2-4.86l3.74,16.08
		c-29.3,17.69-62.94,3.58-70.96-0.29c-1.18-0.56-1.8-0.89-1.8-0.89c-8.97-41.26,43.1-58.95,77.92-71.76
		C636.91,398.42,669.09,408.84,669.09,408.84z"/>
	<path class="st8" d="M632.12,419.68l-34.14,25.94l-6.18-4.44l-4.93,6.57c0,0-45.89,18.11-61.09,35.96l15.62-13.88l26.62-18.57
		l22.26-12.49C590.29,438.78,618.92,424.29,632.12,419.68L632.12,419.68z"/>
	<path class="st7" d="M669.09,408.84c0,0-29.35,24-37.23,39.96c-7.87,15.92-22.43,24.12-22.43,24.12l-16.2-4.86l3.74,16.08
		c-29.3,17.69-62.94,3.58-70.96-0.29c1.03-0.2,1.73-0.29,1.73-0.29c52.08,5.27,57.47-8.82,57.47-8.82l0.8-20.5l15.81,2.46
		c0,0,14.46-10.82,21.98-23.27C631.3,421.02,669.09,408.84,669.09,408.84L669.09,408.84z"/>
	<path class="st1" d="M632.08,419.57c-19.91,7.47-39.2,16.6-57.69,27.15c-18.35,10.73-36.14,22.85-50.94,38.36l-2.8,2.88
		c-0.42,0.43-0.8,0.89-1.18,1.35h2.58c0.02-0.02,0.03-0.04,0.05-0.06l2.72-2.88c14.43-15.48,32-27.76,50.17-38.64
		c18.27-10.79,37.4-20.19,57.18-27.95L632.08,419.57L632.08,419.57z"/>
	<path class="st3" d="M31.95,205.48c0,0,21.7,39.75,23.26,60.95c1.56,21.16,13.99,36.76,13.99,36.76l20.11,1.9l-11.36,16.11
		c24.48,32.74,68.05,32.23,78.67,31.56c1.55-0.09,2.39-0.17,2.39-0.17c28.47-41.64-21.22-84.61-54.01-114.42
		C72.25,208.4,31.95,205.48,31.95,205.48L31.95,205.48z"/>
	<path class="st8" d="M68,234.09l26.13,44.05l8.83-2.14l2.5,9.48c0,0,42.65,40.65,51.45,67.24l-11.06-22.38l-21.12-32.51
		l-19.03-23.83C105.71,274.01,80.54,245.11,68,234.09L68,234.09z"/>
	<path class="st7" d="M31.95,205.48c0,0,21.7,39.75,23.26,60.95c1.56,21.16,13.99,36.76,13.99,36.76l20.11,1.9l-11.36,16.11
		c24.48,32.74,68.05,32.23,78.67,31.56c-1.05-0.68-1.78-1.09-1.78-1.09c-60.01-17.56-59.64-35.57-59.64-35.57l8.32-23.04l-18.6-4.37
		c0,0-11.15-18.47-13.88-35.63C68.3,235.94,31.95,205.48,31.95,205.48L31.95,205.48z"/>
	<path class="st1" d="M68.1,233.97c18.68,17.21,35.93,35.98,51.65,55.96c15.49,20.11,29.74,41.52,39.15,65.34l1.8,4.44
		c0.62,1.48,0.98,3.04,1.48,4.56l2.82,9.18c1.47,6.18,3.05,12.35,4.37,18.57c1.12,5.18,2.15,10.38,3.14,15.59
		c-0.87,0.39-1.75,0.77-2.63,1.13c-1.02-5.39-2.08-10.77-3.24-16.13c-1.22-6.22-2.71-12.37-4.09-18.56l-2.64-9.06
		c-0.47-1.5-0.8-3.05-1.4-4.51l-1.72-4.41c-9.02-23.61-22.95-45.09-38.16-65.3c-15.38-20.14-32.32-39.14-50.72-56.61L68.1,233.97
		L68.1,233.97z"/>
	<path class="st3" d="M464.99,295.03c-4.35,8.3-11.15,10.68-17.32,9.42c-6.16-1.58-13.47-5.33-17.04-10.27
		c-3.69-4.45,2.77-14.75,17.52-17.45C463.18,274.42,469.73,286.85,464.99,295.03z"/>
	<path class="st1" d="M12.62,290.76c1.64,9.23,7.4,13.55,13.66,14.22c6.35,0.35,14.46-1.01,19.35-4.65
		c4.86-3.12,1.82-14.9-11.43-21.93C20.57,271.67,10.58,281.54,12.62,290.76L12.62,290.76z"/>
	<path class="st6" d="M585.49,387.09c1.14,6.41,5.14,9.42,9.49,9.88c4.41,0.25,10.05-0.71,13.45-3.23
		c3.38-2.17,1.26-10.35-7.94-15.24C591.02,373.82,584.07,380.68,585.49,387.09L585.49,387.09z"/>
	<path class="st9" d="M323.44,352.72c0,0,22.56-195.6,20.77-196.67c-3.04-1.83-2.74,0.55-9.95-10.09
		c-4.99-7.36-11.47-7.02-10.88-10.07c1.16-6,14.32,2.05,14.32,2.05s-6.14-10.65-1.38-12.84c2.57-1.18,4.59,3.42,4.59,3.42
		s-0.17-5.18,2.42-5.49c3.83-0.47,5.13,4.12,5.13,4.12s0.89-2.73,3.76-2.24c3.28,0.57,3.32,4.26,3.32,4.26s0.7-2.13,2.29-2.37
		c1.59-0.24,4.58,0.23,4.99,8.88c0.33,7.05,29.66,202.77,20.7,217.23C375.62,365.68,323.44,352.72,323.44,352.72z"/>
	<path class="st10" d="M329.03,139.04c-0.05,0.31-0.17,0.65-0.34,1c-0.08,0.14-0.26,0.2-0.4,0.12c-0.14-0.07-0.2-0.24-0.13-0.39
		c0.38-0.77,0.42-1.39,0.11-1.86c-0.76-1.16-3.52-1.28-4.51-1.23c-0.16,0.01-0.3-0.12-0.31-0.28c-0.01-0.16,0.12-0.3,0.28-0.31
		c0,0,0,0,0,0c0.16-0.01,3.94-0.19,5.04,1.49C329.04,138.01,329.12,138.49,329.03,139.04L329.03,139.04z M352.1,145.6
		c-0.12,0.71-0.39,1.45-0.81,2.22c-0.08,0.14-0.26,0.2-0.4,0.12s-0.2-0.26-0.12-0.4c0.9-1.65,1.05-3.14,0.46-4.42
		c-1.31-2.84-5.86-3.84-5.91-3.85c-0.16-0.03-0.28-0.17-0.23-0.35c0.03-0.16,0.19-0.26,0.35-0.23c0.2,0.04,4.89,1.07,6.33,4.18
		C352.15,143.7,352.26,144.62,352.1,145.6L352.1,145.6z M358.38,152.45c0,0.02-0.01,0.04-0.02,0.07c-0.38,0.9-1,1.5-1.85,1.77
		c-1.8,0.58-4.08-0.49-4.9-0.93c-0.38,0.91-0.98,1.56-1.77,1.91c-1.63,0.73-3.49-0.04-3.57-0.07c-0.15-0.06-0.22-0.23-0.16-0.39
		c0.06-0.15,0.24-0.22,0.39-0.16c0.02,0.01,1.71,0.7,3.1,0.08c0.73-0.33,1.25-0.96,1.57-1.89c0.05-0.16,0.22-0.24,0.38-0.18
		c0.02,0.01,0.04,0.02,0.06,0.03c0.03,0.02,2.79,1.67,4.72,1.05c0.68-0.22,1.17-0.69,1.48-1.44c0.06-0.15,0.24-0.22,0.39-0.16
		C358.33,152.18,358.4,152.31,358.38,152.45L358.38,152.45z"/>
	<path class="st10" d="M353.94,145.53c-0.03,0.16-0.18,0.27-0.34,0.24c-0.04-0.01-0.08-0.02-0.12-0.05
		c-0.02-0.02-2.32-1.66-0.82-4.86c0.07-0.15,0.25-0.21,0.39-0.14c0.15,0.07,0.21,0.25,0.14,0.39c-1.28,2.73,0.55,4.07,0.62,4.12
		C353.92,145.31,353.96,145.42,353.94,145.53z"/>
	<path class="st11" d="M361.25,138.68l-0.27-0.04l-5.19-0.78l-0.27-0.04l-5.46-0.83l-1.69,11.2l5.74,0.86l0.56-3.74l5.19,0.78
		l-0.26,1.7l5.74,0.86l1.38-9.17L361.25,138.68z"/>
	<path class="st11" d="M369.15,140.33c-0.12,0.82-0.58,1.56-1.26,2.04c-0.64,0.45-1.42,0.63-2.19,0.51l-52.5-7.92
		c0.31-0.75,0.55-1.57,0.67-2.44c0.05-0.33,0.08-0.66,0.1-0.98c0.05-0.92-0.02-1.81-0.19-2.64l52.82,7.97
		C368.25,137.12,369.4,138.67,369.15,140.33L369.15,140.33z"/>
	<path class="st12" d="M367.89,142.37c-0.64,0.45-1.42,0.63-2.19,0.51l-52.5-7.92c0.31-0.75,0.55-1.57,0.67-2.44
		c0.05-0.33,0.08-0.66,0.1-0.98l51.34,7.74C366.83,139.51,367.92,140.85,367.89,142.37z"/>
	<path class="st11" d="M318.77,129.66c-0.34-6.02-3.88-10.95-8.85-11.7c-5.93-0.89-11.67,4.49-12.81,12.04
		c-1.14,7.54,2.75,14.38,8.68,15.28c5.26,0.79,10.38-3.36,12.25-9.58c0.24-0.79,0.43-1.61,0.55-2.46
		C318.78,132.02,318.83,130.82,318.77,129.66L318.77,129.66z M306.65,139.59c-3.32-0.5-5.47-4.48-4.81-8.88
		c0.66-4.39,3.9-7.57,7.21-7.07c2.36,0.36,4.14,2.48,4.72,5.26c0.24,1.12,0.28,2.35,0.09,3.62c-0.13,0.87-0.36,1.69-0.67,2.44
		C311.92,138.03,309.31,139.99,306.65,139.59L306.65,139.59z"/>
	<path class="st9" d="M335.76,129.75c0,0,0.41,7.52,1.94,8.19c1.52,0.66,3.16-0.09,3.91-1.65c0,0,1.03,3.15,3.09,2.83
		c2.05-0.32,3.2-3.79,3.2-3.79s1.1,3.4,4.2,2.56c3.1-0.84,3.1-3.09,3.1-3.09s1.23,2.97,3.66,2.92s3.02-4.65,3.02-4.65
		s-0.37-3.19-1.33-3.68c-0.95-0.49-3.88,2.03-6.68,1.2c-2.8-0.83-5.82-1.82-8.24-1.8c-2.42,0.02-5.29,2.26-6.75,1.54
		C337.41,129.62,336.77,127.72,335.76,129.75L335.76,129.75z"/>
	<path class="st10" d="M342.27,135.41c-0.11,0.64-0.32,1.22-0.67,1.67c-1.98,2.61-4.06,1.11-4.08,1.09
		c-0.13-0.1-0.16-0.29-0.06-0.42c0.1-0.13,0.28-0.16,0.41-0.06c0.07,0.05,1.64,1.16,3.26-0.97c1.7-2.25-0.48-8.3-0.5-8.36
		c-0.05-0.15,0.02-0.32,0.18-0.38c0.15-0.06,0.32,0.02,0.38,0.18C341.27,128.38,342.77,132.53,342.27,135.41L342.27,135.41z
		 M355.91,133.52c-0.12,0.72-0.32,1.48-0.63,2.25c-0.82,2.04-3.13,2.76-4.89,2.41c-1.76-0.36-2.83-1.67-2.79-3.42
		c0-0.17,0.14-0.3,0.3-0.29c0.16,0,0.29,0.14,0.29,0.3c-0.03,1.47,0.84,2.52,2.32,2.83c1.52,0.31,3.51-0.3,4.22-2.05
		c1.29-3.19,0.56-6.28,0.55-6.31c-0.04-0.16,0.06-0.32,0.22-0.36c0.16-0.04,0.32,0.06,0.36,0.22
		C355.87,129.21,356.32,131.11,355.91,133.52z"/>
	<path class="st10" d="M348.29,134.16c-0.15,0.88-0.35,1.77-0.61,2.59c-0.69,2.17-2.33,2.86-3.65,2.59
		c-1.35-0.28-2.62-1.63-2.4-3.65c0.02-0.18,0.16-0.28,0.33-0.26c0.16,0.02,0.28,0.16,0.26,0.33c-0.18,1.75,0.88,2.79,1.94,3.01
		c0.99,0.2,2.35-0.25,2.97-2.18c1.23-3.89,1.06-9.35,1.06-9.4c-0.01-0.16,0.12-0.3,0.28-0.31c0.16-0.01,0.3,0.12,0.31,0.29
		C348.77,127.32,348.88,130.76,348.29,134.16L348.29,134.16z M362.08,134.21c0,0,0,0.01,0,0.01c-0.53,3.04-2.45,3.91-3.94,3.72
		c-1.56-0.2-3.13-1.61-2.96-3.83c0.01-0.16,0.15-0.28,0.32-0.27c0.16,0.01,0.28,0.15,0.27,0.32c-0.14,1.86,1.15,3.04,2.44,3.2
		c1.23,0.15,2.82-0.6,3.28-3.23c0,0,0-0.01,0-0.01c0.37-2.13-0.56-4.98-0.57-5.01c-0.05-0.15,0.03-0.32,0.19-0.37
		c0.16-0.05,0.32,0.03,0.37,0.19C361.53,129.04,362.47,131.93,362.08,134.21L362.08,134.21z M342.19,132.17
		c-0.02,0.1-0.09,0.19-0.19,0.23c-2.97,1.07-1.61,5.11-1.55,5.28c0.05,0.16-0.03,0.32-0.18,0.38c-0.15,0.05-0.32-0.03-0.38-0.18
		c-0.57-1.64-0.91-5.02,1.91-6.03c0.15-0.05,0.32,0.02,0.38,0.18C342.2,132.07,342.2,132.13,342.19,132.17L342.19,132.17z"/>
	<path class="st10" d="M348.32,132.72c-0.02,0.14-0.14,0.24-0.28,0.25c-1.24,0.03-2.15,0.43-2.71,1.18
		c-1.23,1.67-0.43,4.58-0.42,4.61c0.05,0.15-0.05,0.32-0.2,0.37s-0.32-0.05-0.37-0.2c-0.04-0.13-0.89-3.22,0.51-5.12
		c0.67-0.91,1.74-1.39,3.18-1.42c0.16,0,0.3,0.13,0.3,0.29C348.32,132.69,348.32,132.71,348.32,132.72z M355.86,132.4
		c-0.03,0.16-0.18,0.27-0.34,0.24c-1.08-0.19-1.98,0.01-2.65,0.6c-1.64,1.4-1.6,4.56-1.6,4.6c0.01,0.16-0.13,0.3-0.29,0.3
		c-0.16,0-0.3-0.13-0.3-0.29c0,0,0,0,0,0c0-0.14-0.04-3.47,1.81-5.06c0.82-0.7,1.88-0.95,3.14-0.73
		C355.78,132.08,355.89,132.24,355.86,132.4L355.86,132.4z M362.14,132.29c0,0.01,0,0.01,0,0.01c-0.03,0.16-0.19,0.26-0.35,0.23
		c-0.86-0.19-1.61-0.05-2.23,0.41c-1.67,1.25-1.9,4.47-1.9,4.5c-0.01,0.16-0.15,0.29-0.32,0.28c-0.16-0.01-0.29-0.15-0.28-0.32
		c0.01-0.15,0.25-3.51,2.13-4.93c0.76-0.57,1.67-0.74,2.71-0.52C362.07,131.98,362.17,132.13,362.14,132.29L362.14,132.29z"/>
	<path class="st9" d="M307.85,262.17c0,0,31.27,49.76,26.23,88.16c-5.05,38.4-52.37-73.89-52.37-73.89L307.85,262.17z"/>
	<path class="st13" d="M259.19,187.67c0,0,45.48,37.64,61.4,91.55l-30.7,17.05C289.89,296.26,255.82,219.16,259.19,187.67z"/>
	<path class="st14" d="M266.73,233.53c9.16,31.05,23.16,62.74,23.16,62.74l30.7-17.05c-0.18-0.6-0.38-1.19-0.56-1.79
		C302,263.12,284.51,248.15,266.73,233.53z"/>
	<path class="st13" d="M335.62,482.58c-21.83-112.09-29.13-309.85-108.21-306.8c-79.93,3.09-141.52,243.24-109.97,306.8H335.62z"/>
	<path class="st14" d="M146.83,482.58c-3.81-11.57-5.38-23.89-0.09-34.9c6.69-13.92,22.64-19.6,36.52-23.46
		c13.76-3.83,29.27-5.8,41.72-13.29c-3.52-4.73-9.94-6.96-15.23-8.94c-6.46-2.41-12.44-5.03-18.28-8.74
		c-6.11-3.88-11.9-8.29-17.16-13.27c-4.8-4.54-9.61-9.89-11.85-16.23c-5.01-14.16,4.3-27.55,9.25-40.26
		c4.65-11.94,5.81-25.61,5.92-38.33c0.09-11.08-0.82-22.97-5.08-33.38c-2.64,5.84-6,11.35-9.89,16.45
		c-8.38,11.01-18.54,20.21-29.05,29.06c-23.71,70.65-32.66,152.07-16.16,185.28L146.83,482.58L146.83,482.58z"/>
	<path class="st15" d="M213.76,90.74c0,0-10.31,7.98-9.1,25.99s-1.04,48.17,23.63,39.27C252.95,147.1,234.77,94.6,213.76,90.74
		L213.76,90.74z"/>
	<path class="st9" d="M218.71,144.29l-5.74,38.27c0,0,5.42,33.97,28.72,25.86c11.02-3.83,2.57-47.49,2.57-47.49L218.71,144.29z"/>
	<path class="st10" d="M225.47,178.24c5.52-1.31,11.2-0.9,16.55-3.1c1.48-0.61,2.82-1.38,4.07-2.26
		c-0.86-6.85-1.84-11.94-1.84-11.94l-25.54-16.65l-5.74,38.27c0,0,0.33,2.09,1.19,5.1C216.41,183.15,220.05,179.53,225.47,178.24z"
		/>
	<path class="st9" d="M204.18,137.35c0.74-8.21,11.14-5.03,11.14-5.03s-10.55-8.52-4.65-26.46c5.9-17.94,55.17-27.59,64.25-3.64
		c4.16,10.96,10.62,50.55-10,63.98c-20.62,13.43-24.58,5.6-35.82-1.32c-9.67-5.95-10.49-13.13-10.49-13.13
		S202.89,151.58,204.18,137.35L204.18,137.35z"/>
	<path class="st15" d="M286.01,96.24c-3.86-15.44-13.93-18.53-13.93-18.53s0.13-5.6-9.52-11.5c-11.73-7.17-20.97-1.67-25.65,2.53
		c1.79-4.49,2.64-8.66,0.07-9.48c-5.96-1.88-7.4,11.55-7.4,11.55s-0.88-9.15-7.56-9.94c-6.68-0.79-0.36,10.53-0.36,10.53
		s-9.01-9.58-11.48-2.46c-1.32,3.81,0.75,7.94,5.01,10.48c-26.93,12.75-16.38,43.24,0.12,52.89c4.36,2.55-0.33,7.11,4.82,6.68
		c5.15-0.43,13.27-17.76,9.22-34.3c20.23,11.13,48.56,9.58,48.56,9.58S289.87,111.68,286.01,96.24L286.01,96.24z M208.73,141.16
		c-0.21,0-0.41-0.13-0.49-0.33c-1.79-4.57,2.79-7.28,2.83-7.31c0.25-0.15,0.57-0.06,0.72,0.19c0.14,0.25,0.06,0.57-0.19,0.72
		c-0.16,0.09-3.84,2.29-2.38,6.01c0.11,0.27-0.03,0.58-0.3,0.68C208.86,141.14,208.8,141.16,208.73,141.16z"/>
	<path class="st10" d="M227.94,142.84c-0.33,1.94,1.79,3.92,4.73,4.42c2.94,0.49,5.59-0.68,5.91-2.62c0.33-1.94-1.79-3.92-4.73-4.42
		C230.91,139.73,228.27,140.9,227.94,142.84z M244.25,160.94c-0.33,1.94,1.79,3.92,4.73,4.42c2.94,0.49,5.59-0.68,5.91-2.62
		c0.33-1.94-1.79-3.92-4.73-4.42C247.23,157.83,244.58,159,244.25,160.94z M261.4,144.57c-0.33,1.94,1.79,3.92,4.73,4.42
		c2.94,0.49,5.59-0.68,5.91-2.62c0.33-1.94-1.79-3.92-4.73-4.42C264.38,141.46,261.73,142.63,261.4,144.57z"/>
	<path class="st15" d="M253.24,145.47c0.28,0,0.56-0.04,0.84-0.12c1.74-0.51,2.48-2.47,2.51-2.55c0.09-0.24,0.06-0.51-0.08-0.73
		c-2.95-4.53-2.16-10.63-2.16-10.69c0.06-0.45-0.26-0.86-0.7-0.92c-0.46-0.07-0.86,0.26-0.92,0.7c-0.04,0.27-0.83,6.45,2.16,11.42
		c-0.24,0.43-0.68,1.03-1.27,1.2c-0.55,0.16-1.23-0.06-2.01-0.65c-0.36-0.27-0.88-0.21-1.15,0.15c-0.28,0.36-0.21,0.88,0.15,1.15
		C251.51,145.12,252.4,145.47,253.24,145.47L253.24,145.47z"/>
	<path class="st16" d="M262.56,156.17c0,0-9.37,4.25-19.87-0.64C240.31,159.9,252.75,171.25,262.56,156.17z"/>
	<path class="st15" d="M242.27,128.81c0,2.57-1.41,4.64-3.16,4.64c-1.75,0-3.16-2.07-3.16-4.64c0-2.55,1.41-4.64,3.16-4.64
		c0.78,0,1.49,0.4,2.05,1.09c-0.62,0.16-1.06,0.7-1.06,1.33c0,0.78,0.62,1.39,1.39,1.39c0.26,0,0.5-0.06,0.7-0.2
		C242.25,128.12,242.27,128.47,242.27,128.81z M247.66,121.08c0,0-13.99-0.7-15.39-2.08c-1.41-1.38,2.97-4.28,9.14-2.72
		C247.56,117.83,249.26,121.03,247.66,121.08L247.66,121.08z M268.88,128.81c0,2.57-1.41,4.64-3.16,4.64s-3.16-2.07-3.16-4.64
		c0-2.55,1.41-4.64,3.16-4.64c0.78,0,1.49,0.4,2.05,1.09c-0.62,0.16-1.06,0.7-1.06,1.33c0,0.78,0.62,1.39,1.39,1.39
		c0.26,0,0.5-0.06,0.7-0.2C268.86,128.12,268.88,128.47,268.88,128.81z M274.27,121.08c0,0-13.99-0.7-15.39-2.08
		s2.97-4.28,9.14-2.72C274.17,117.83,275.87,121.03,274.27,121.08L274.27,121.08z"/>
	<path class="st11" d="M57.38,441l446.35-10.3L624,493.71H118.56L57.38,441z"/>
	<path class="st9" d="M228.37,418.15L117.83,389.8c0,0,14.81-35.42,30.25-65.57c-3.8-1.38-52.52-23.43-61.24-24.7
		c-30.2,48.03-48.37,96.27-27.79,122.48c21.99,28.02,139.49,25.33,167.66,11.98C243.61,427.86,228.37,418.15,228.37,418.15
		L228.37,418.15z"/>
	<path class="st13" d="M147.78,332.98c32.13-63.04,74.85-154.37,45.6-141.59c-36.95,16.15-84.68,64.06-117.22,114.43
		C76.17,319.86,134.96,339.15,147.78,332.98L147.78,332.98z"/>
	<path class="st15" d="M237.07,472.48l-85.74-26.56l182.65-1.35L237.07,472.48z"/>
	<path class="st0" d="M237.17,467.86l-86.62-22.22l183.53-5.68L237.17,467.86z"/>
	<path class="st3" d="M254.42,337.94l-19.82,126.28c-0.89,5.7,2.39,9.91,7.52,9.66l206.61-10.25c5.13-0.25,10.39-4.89,12.04-10.63
		l25.93-122.18c1.21-4.14,0.61-7.9-1.67-10.5c-1.66-1.9-4.23-2.7-7-2.57l-208.84,5.95c-2.77,0.14-5.76,1.22-8.32,3.33
		C257.35,329.93,255.04,333.83,254.42,337.94L254.42,337.94z"/>
	<path class="st6" d="M485.02,320.32c-1.66-1.9-4.23-2.7-7-2.57l-34.26,0.98c2.54,1.02,5.03,2.15,7.44,3.46
		c7.68,4.15,14.92,10.52,16.52,19.52c1.46,8.25-1.89,15.95-7.9,21.52c-6.12,5.67-13.86,9.32-20.96,13.57
		c-6.88,4.12-14.16,9.13-17.11,16.94c-3.47,9.17,0.48,19.5,2.81,28.46c2.22,8.55,4.2,18.67-2.34,25.88
		c-4.02,4.43-9.85,6.66-15.53,8.06c-6.9,1.7-14.02,2.06-21.05,2.95c-6.92,0.88-13.77,2.33-19.87,5.84
		c-1.65,0.95-3.25,1.98-4.82,3.05l87.77-4.35c5.13-0.25,10.39-4.89,12.04-10.63l25.93-122.18
		C487.9,326.68,487.3,322.93,485.02,320.32L485.02,320.32z"/>
	<circle class="st6" cx="375.26" cy="369.91" r="14.39"/>
	<path class="st9" d="M246.11,441.82L246.11,441.82c-1.49-0.17-3.59-0.63-6.6-1.63c0,0,0.02,0,0.06,0
		c-1.52-0.44-3.07-1.01-4.59-1.65c-2.63-1.11-4.48-2.06-5.76-2.81c0-0.01-0.01-0.01-0.02-0.01c-1.88-1.1-2.5-1.74-2.5-1.74
		s-11.26,2.13-14.6,0.67c-5.11-6.34,3.48-18.65,3.48-18.65c2.77-2,9.14,2.36,14.18,0.14c5.88-2.58,14.8-14.59,16.81-10.13
		c2.02,4.47-6.46,10.31-6.46,10.31s0.13-0.01,0.37-0.02c1.44-0.07,6.91-0.2,11.71,1.36h0.01c1.33,0.44,2.62,1.01,3.75,1.75
		c0.2,0.13,0.4,0.26,0.59,0.4c0.34,0.25,0.66,0.52,0.96,0.81c0.05,0.04,0.1,0.09,0.15,0.15c0.15,0.15,0.29,0.3,0.43,0.45l0.02,0.02
		c0,0.01,0,0.01,0,0.01c0.24,0.51,0.37,1.19,0.23,2.11c-0.45,2.96-2.83,2.97-2.83,2.97s1.95,1.28,1.22,3.6
		c-0.78,2.48-2.6,1.81-2.6,1.81s1.58,1.96,0.9,3.89c-0.72,2.03-2.82,1.23-2.82,1.23s1.32,1.23,0.5,3.62
		C251.97,442.63,246.11,441.82,246.11,441.82L246.11,441.82z"/>
	<path class="st17" d="M250.96,431.66c0.05,0.07,0.08,0.15,0.03,0.25c-0.56,1.17-1.05,2.3-0.82,3.61c0.07,0.44,0.15,0.94-0.12,1.33
		c-0.13,0.18-0.31,0.3-0.47,0.43c-0.22,0.19-0.34,0.4-0.45,0.67c-0.38,0.86-0.57,1.8-0.66,2.72c-0.04,0.43-0.05,0.86-0.04,1.3
		c1.73,0.01,3.87-0.24,4.3-1.48c0.82-2.39-0.5-3.62-0.5-3.62s2.1,0.81,2.82-1.23c0.68-1.93-0.89-3.89-0.89-3.89s1.82,0.66,2.6-1.81
		c0.73-2.33-1.21-3.6-1.21-3.6s2.37-0.02,2.83-2.97c0.14-0.92,0.01-1.6-0.23-2.11c0-0.01,0-0.01,0-0.01l-0.02-0.02
		c-0.14-0.15-0.28-0.31-0.43-0.45c-0.05-0.05-0.1-0.1-0.15-0.15c-0.3-0.29-0.62-0.56-0.96-0.81c-0.19-0.14-0.39-0.27-0.59-0.4
		c0.11,0.71,0.03,1.48-0.09,2.17c-0.14,0.78-0.38,1.6-0.98,2.15c-0.62,0.59-1.5,0.74-2.17,1.25c-0.69,0.55-0.91,1.52-0.78,2.37
		c0.11,0.73,0.5,1.34,0.32,2.1c-0.2,0.84-0.79,1.5-1.29,2.19C250.97,431.64,250.96,431.65,250.96,431.66L250.96,431.66z
		 M245.3,405.74c0,0-2.62,2.82-3.31,2.74c-0.69-0.08-0.76-0.92-0.76-0.92S244.15,405.28,245.3,405.74z"/>
	<circle class="st2" cx="722.03" cy="39.37" r="12.38"/>
	<path class="st3" d="M721.88,41.73l-2.19,3.73h-3.37l3.91-6.19l-3.99-5.99h3.45l2.45,3.68l2.15-3.68h3.37l-3.87,6.14l4.03,6.04
		h-3.45L721.88,41.73L721.88,41.73z"/>
	<path class="st13" d="M821.19,113.93c0,19.5-15.8,35.3-35.3,35.3c-19.5,0-35.3-15.81-35.3-35.3s15.8-35.3,35.3-35.3
		S821.19,94.43,821.19,113.93L821.19,113.93z"/>
	<path class="st5" d="M798.7,127.22c-2.98,0.27-17.91,0-17.91,0s-14.93,0.27-17.91,0c-2.99-0.27-0.49-6.7,1.99-7.42
		c2.48-0.72,2.48-4.26,2.99-17.02c0.02-0.73,0.09-1.43,0.2-2.11c1.47-9.65,11.55-12.78,18.63-9.41c-1.42,2.13-2.25,4.7-2.25,7.45
		c0,6.11,4.08,11.28,9.67,12.91c0.33,5.71,0.84,7.66,2.61,8.17C799.21,120.52,801.69,126.95,798.7,127.22z"/>
	<path class="st5" d="M786.34,129.57c0,3.06-2.48,5.55-5.55,5.55c-3.06,0-5.55-2.48-5.55-5.55c0-3.06,2.48-5.55,5.55-5.55
		C783.85,124.02,786.34,126.5,786.34,129.57z M797.9,87.38c-6.25,0-11.33,5.07-11.33,11.33c0,6.25,5.07,11.33,11.33,11.33
		c6.26,0,11.33-5.07,11.33-11.33C809.23,92.45,804.15,87.38,797.9,87.38z"/>
	<path class="st2" d="M797.9,89.79c-4.93,0-8.92,3.99-8.92,8.91c0,4.93,3.99,8.92,8.92,8.92s8.92-3.99,8.92-8.92
		C806.81,93.78,802.82,89.79,797.9,89.79z M797.9,106.16c-4.12,0-7.46-3.33-7.46-7.45c0-4.12,3.34-7.45,7.46-7.45
		c4.12,0,7.45,3.33,7.45,7.45C805.35,102.82,802.01,106.16,797.9,106.16z"/>
	<path class="st2" d="M799.07,98.71c0,0.65-0.53,1.17-1.17,1.17c-0.65,0-1.18-0.53-1.18-1.17s0.53-1.17,1.18-1.17
		C798.54,97.54,799.07,98.06,799.07,98.71z"/>
	<path class="st2" d="M797.89,92.39c-0.42,0-0.75,0.34-0.75,0.75v5.23c0,0.42,0.34,0.75,0.75,0.75s0.75-0.34,0.75-0.75v-5.23
		C798.65,92.73,798.31,92.39,797.89,92.39L797.89,92.39z"/>
	<path class="st2" d="M802.29,94.55c-0.29-0.29-0.77-0.29-1.06,0l-3.7,3.7c-0.29,0.29-0.3,0.77,0,1.06c0,0,0,0,0,0
		c0.29,0.29,0.77,0.29,1.06,0l3.7-3.7C802.59,95.32,802.59,94.84,802.29,94.55z"/>
</g>
</svg>
