<?xml version="1.0" encoding="UTF-8"?>
<svg id="Layer_1" data-name="Layer 1" xmlns="http://www.w3.org/2000/svg" viewBox="0 0 49.96 50">
  <defs>
    <style>
      .cls-1 {
        fill: #accafb;
      }

      .cls-2 {
        fill: #fff;
      }

      .cls-3 {
        fill: #dddedf;
      }

      .cls-4 {
        fill: #61cb7d;
      }

      .cls-5 {
        fill: #888988;
      }

      .cls-6 {
        fill: #f0f1f2;
      }

      .cls-7 {
        fill: #cde0ff;
      }

      .cls-8 {
        fill: #4285f4;
      }

      .cls-9 {
        fill: #fbbc05;
      }

      .cls-10 {
        fill: none;
      }

      .cls-11 {
        fill: #34a853;
      }

      .cls-12 {
        fill: #ea4335;
      }
    </style>
  </defs>
  <polygon class="cls-3" points="18.13 2.39 18 3.45 19.01 3.81 17.07 5.01 16.06 4.66 16.19 3.59 18.13 2.39"/>
  <polygon class="cls-2" points="9.76 18.54 7.6 18.54 7.6 16.78 7.6 15.54 9.76 15.53 9.76 18.54"/>
  <path class="cls-6" d="M9.76,15.53h-2.16v1.25c.35,.05,.71,.08,1.08,.08,.37,0,.73-.03,1.08-.08v-1.25Z"/>
  <path class="cls-2" d="M8.68,14.61c-3.24,0-5.86-2.63-5.86-5.86,0-3.24,2.62-5.86,5.86-5.86s5.86,2.62,5.86,5.86c0,3.24-2.63,5.86-5.86,5.86Z"/>
  <path class="cls-7" d="M8.68,14.61c-3.24,0-5.86-2.62-5.86-5.86S5.44,2.88,8.68,2.88s5.86,2.62,5.86,5.86-2.62,5.86-5.86,5.86Z"/>
  <polygon class="cls-2" points="9.76 18.54 7.6 18.54 7.6 16.78 7.6 15.54 9.76 15.53 9.76 18.54"/>
  <path class="cls-6" d="M9.76,15.53h-2.16v1.25c.35,.05,.71,.08,1.08,.08,.37,0,.73-.03,1.08-.08v-1.25Z"/>
  <path class="cls-2" d="M10.06,18.78v5.81c0,.38-.15,.72-.4,.97-.29,.29-.7,.45-1.15,.39-.69-.08-1.2-.7-1.2-1.39v-5.8c0-.83,.73-1.48,1.58-1.36,.68,.1,1.18,.7,1.18,1.39Z"/>
  <path class="cls-6" d="M10.06,21.43v3.16c0,.38-.15,.72-.4,.97-.29,.29-.7,.45-1.15,.39-.69-.08-1.2-.7-1.2-1.39v-3.13s2.75,0,2.75,0Z"/>
  <path class="cls-6" d="M8.98,25.93s.09-.08,.13-.12c.25-.25,.4-.59,.4-.97v-5.81c0-.69-.49-1.29-1.18-1.39-.17-.02-.34-.02-.49,.02,.28-.22,.65-.33,1.04-.27,.68,.1,1.17,.7,1.18,1.39v5.81c0,.38-.15,.72-.4,.97-.18,.18-.42,.31-.68,.37Z"/>
  <path class="cls-2" d="M13.96,6.39c.17,.39,.3,.78,.38,1.18m-.15,3.19c-.82,2.25-2.98,3.85-5.51,3.85-3.24,0-5.86-2.63-5.86-5.86,0-3.24,2.62-5.86,5.86-5.86s5.86,2.62,5.86,5.86c0,.27-.02,.54-.06,.81"/>
  <path class="cls-7" d="M8.68,1.16C4.49,1.16,1.09,4.56,1.09,8.75s3.4,7.59,7.59,7.59,7.59-3.4,7.59-7.59S12.87,1.16,8.68,1.16Zm0,13.45c-3.24,0-5.86-2.62-5.86-5.86S5.44,2.88,8.68,2.88s5.86,2.62,5.86,5.86-2.62,5.86-5.86,5.86Z"/>
  <polygon class="cls-12" points="18.23 1.98 18.1 3.05 19.11 3.4 17.17 4.6 16.15 4.25 16.29 3.18 18.23 1.98"/>
  <line class="cls-10" x1="8.65" y1="8.9" x2="19.01" y2="2.48"/>
  <circle class="cls-8" cx="27.59" cy="13.2" r="2.21"/>
  <path class="cls-2" d="M15.15,15.71l.82,2.59c-.72,.23-1.48-.17-1.71-.89-.23-.71,.17-1.48,.89-1.71Z"/>
  <path class="cls-6" d="M15.15,15.71l.82,2.59c-.26,.08-.52,.08-.77,.01l-.69-2.18c.16-.19,.38-.35,.64-.43Z"/>
  <path class="cls-2" d="M20.85,22.83l-2,.63c-.08,.03-.16,0-.21-.07-.42-.58-.78-1.19-1.09-1.85-.4-.84-.72-1.76-.95-2.73l2.41-.76c-.04,1.33,.4,2.47,1.11,3.49,.24,.34,.51,.67,.81,.99,.09,.1,.05,.26-.08,.31Z"/>
  <path class="cls-6" d="M20.85,22.83l-2,.63c-.08,.03-.16,0-.21-.07-.42-.58-.78-1.19-1.09-1.85h2.56c.24,.34,.51,.67,.81,.99,.09,.1,.05,.26-.08,.31Z"/>
  <path class="cls-9" d="M19.29,17.96l-3.19,1.01c-.13,.04-.27-.03-.32-.16l-1.08-3.41c-.04-.13,.03-.27,.16-.32l3.19-1.01,1.23,3.89Z"/>
  <path class="cls-2" d="M25.1,8.11l3.38,10.7c-3.3-.87-6.39-1.2-9.19-.84l-1.23-3.88c2.5-1.32,4.84-3.36,7.04-5.97Z"/>
  <path class="cls-6" d="M25.11,8.11l3.38,10.69c-.23-.06-.45-.12-.68-.17l-3.16-9.99c.15-.17,.31-.35,.46-.53Z"/>
  <path class="cls-9" d="M28.74,18.72l-.26,.08-3.38-10.7,.26-.08c.52-.16,1.07,.12,1.24,.64l2.79,8.82c.16,.52-.12,1.07-.64,1.24Z"/>
  <g>
    <path class="cls-2" d="M39.69,46.53v1.85c0,.32-.26,.58-.58,.58H.94c-.32,0-.58-.26-.58-.58v-1.85c0-.32,.26-.58,.58-.58H39.11c.32,0,.58,.26,.58,.58Z"/>
    <path class="cls-6" d="M39.69,46.53v1.85c0,.32-.26,.58-.58,.58h-.18c-.23,0-.42-.19-.42-.42v-2.59h.59c.32,0,.58,.26,.58,.58Z"/>
    <path class="cls-6" d="M39.69,46.53v1.15c0-.32-.26-.58-.58-.58H.94c-.32,0-.58,.26-.58,.58v-1.15c0-.32,.26-.58,.58-.58H39.11c.32,0,.58,.26,.58,.58Zm-2.22-23.64v23.06H2.58V22.89c0-.48,.39-.87,.87-.87H36.6c.48,0,.87,.39,.87,.87Z"/>
    <path class="cls-3" d="M37.47,22.89v.44h-2.78v-1.31h1.91c.48,0,.87,.39,.87,.87Z"/>
    <rect class="cls-2" x="4.32" y="23.76" width="31.4" height="20.44"/>
    <rect class="cls-6" x="6.16" y="26.83" width="26.55" height="5.34"/>
    <rect class="cls-6" x="6.16" y="34.18" width="10.44" height="8.14"/>
    <rect class="cls-1" x="6.75" y="26.24" width="26.55" height="5.34"/>
    <rect class="cls-1" x="6.75" y="33.59" width="10.44" height="8.14"/>
  </g>
  <g>
    <path class="cls-2" d="M49.6,31.93v16.61c0,.23-.19,.42-.42,.42h-9.31c-.23,0-.42-.19-.42-.42V31.93c0-.23,.19-.42,.42-.42h9.31c.23,0,.42,.19,.42,.42Z"/>
    <path class="cls-6" d="M48.65,33.53v13.93c0,.09-.07,.16-.16,.16h-7.91c-.09,0-.16-.07-.16-.16v-13.93c0-.09,.07-.16,.16-.16h7.91c.09,0,.16,.07,.16,.16Z"/>
  </g>
  <g>
    <path class="cls-3" d="M47.59,39.2c.21,2.08-1.53,3.82-3.61,3.61-1.54-.15-2.79-1.4-2.94-2.94-.21-2.08,1.53-3.81,3.61-3.61,1.54,.15,2.79,1.4,2.94,2.94Z"/>
    <path class="cls-2" d="M41.48,38.67c-.21,2.08,1.53,3.82,3.61,3.61,1.54-.15,2.79-1.4,2.94-2.94,.21-2.08-1.53-3.81-3.61-3.61-1.54,.15-2.79,1.4-2.94,2.94Z"/>
    <path class="cls-6" d="M46.27,39.48l-2.3,1.63c-.1,.07-.24,0-.24-.12v-3.26c0-.12,.14-.19,.24-.12l2.3,1.63c.08,.06,.08,.19,0,.25Z"/>
    <path class="cls-4" d="M46.49,39.13l-2.3,1.63c-.1,.07-.24,0-.24-.12v-3.26c0-.12,.14-.19,.24-.12l2.3,1.63c.08,.06,.08,.19,0,.25Z"/>
  </g>
  <g>
    <rect class="cls-2" x="35.29" y="12.87" width="14.27" height="9.86"/>
    <polygon class="cls-8" points="49.6 22.73 40.83 22.73 42.07 21.11 45.22 17 49.6 22.73"/>
    <polygon class="cls-5" points="43.3 22.73 40.83 22.73 42.07 21.11 43.3 22.73"/>
    <polygon class="cls-8" points="42.53 22.73 35.29 22.73 38.91 18 42.53 22.73"/>
    <circle class="cls-9" cx="40.83" cy="15.81" r="1.15"/>
  </g>
  <g>
    <path class="cls-2" d="M41.04,4.56c-1.52,1.73-1.51,4.37,.02,6.1,.63,.71,1.42,1.18,2.26,1.41,.08,.02,.15,.07,.19,.14l.73,1.21c.12,.21,.42,.21,.54,0l.72-1.2c.04-.07,.11-.12,.19-.14,.85-.22,1.66-.69,2.29-1.4,1.54-1.73,1.55-4.39,.02-6.13-1.86-2.1-5.12-2.1-6.97,.02Z"/>
    <path class="cls-6" d="M46.8,7.17c.05,1.72-2.45,3.11-2.45,3.11,0,0-2.5-1.39-2.45-3.11,.02-.81,.65-1.46,1.46-1.46,.38,0,.73,.15,.99,.39,.26-.24,.61-.39,.99-.39,.81,0,1.44,.65,1.46,1.46Z"/>
    <path class="cls-12" d="M47.17,6.96c.05,1.72-2.45,3.11-2.45,3.11,0,0-2.5-1.39-2.45-3.11,.02-.81,.65-1.46,1.46-1.46,.38,0,.73,.15,.99,.39,.26-.24,.61-.39,.99-.39,.81,0,1.44,.65,1.46,1.46Z"/>
  </g>
  <g>
    <path class="cls-11" d="M12.19,8.87c0,.11,.08,.2,.19,.2,.1,0,.19-.08,.19-.19,.02-.53-.07-1.04-.25-1.53-.04-.1-.15-.15-.25-.11-.1,.04-.15,.15-.11,.25,.17,.44,.24,.91,.23,1.38Zm-2.31-3.48c.6,.23,1.13,.61,1.52,1.11,.04,.05,.09,.07,.15,.07,.04,0,.08-.01,.12-.04,.08-.07,.1-.19,.03-.27-.44-.55-1.02-.98-1.69-1.23-.1-.04-.21,.01-.25,.11-.04,.1,.01,.21,.11,.25Zm-4.89,2.15s.05,.01,.07,.01c.08,0,.15-.05,.18-.12,.57-1.45,2-2.36,3.56-2.27,.11,0,.2-.07,.2-.18,0-.11-.07-.2-.18-.2-1.7-.1-3.3,.9-3.94,2.52-.04,.1,0,.21,.11,.25Zm2.17,4.51c-1.37-.59-2.23-1.98-2.16-3.47,0-.11-.08-.2-.18-.2-.11,0-.2,.08-.2,.18-.08,1.65,.88,3.18,2.4,3.84,.02,.01,.05,.02,.08,.02,.07,0,.15-.04,.18-.12,.04-.1,0-.21-.1-.25Zm4.92-1.81c-.1-.05-.21,0-.26,.09-.63,1.29-2.01,2.13-3.51,2.01-.1,0-.2,.07-.21,.18,0,.11,.07,.2,.18,.21,1.64,.13,3.18-.77,3.89-2.22,.05-.1,0-.21-.09-.26Zm-2.82-4.34s.03,0,.04,0c.09,0,.17-.06,.19-.15l.31-1.32c.06-.25-.32-.34-.37-.09l-.31,1.32c-.02,.1,.04,.21,.14,.23Zm-1.38,5.84c-.1-.02-.21,.04-.23,.14l-.31,1.32c-.02,.1,.04,.21,.14,.23,.01,0,.03,0,.04,0,.09,0,.17-.06,.19-.15l.31-1.32c.02-.1-.04-.21-.14-.23Zm-2.42-3.46c.09,0,.17-.06,.19-.15,.02-.1-.04-.21-.14-.23l-1.32-.31c-.1-.02-.21,.04-.23,.14s.04,.21,.14,.23l1.32,.31s.03,0,.04,0Zm6.26,1.09c-.1-.02-.21,.04-.23,.14s.04,.21,.14,.23c1.05,.18,1.47,.49,1.55,.17,.02-.1-.44-.24-1.46-.54Zm7.35,9.72c-.1,.02-.17,.12-.15,.23,.14,.69,.41,1.35,.83,2.01,.04,.06,.1,.09,.16,.09,.03,0,.07,0,.1-.03,.09-.06,.12-.18,.06-.27-.39-.62-.64-1.23-.78-1.88-.02-.1-.12-.17-.23-.15Zm-14.76,4.47c-.11,0-.19,.09-.19,.19v20.44c0,.11,.09,.19,.19,.19h31.4c.11,0,.19-.09,.19-.19V23.76c0-.11-.09-.19-.19-.19-6.45,0-24.82,0-31.4,0Zm31.21,20.44H4.51V23.95h31.02v20.06Z"/>
    <path class="cls-11" d="M18.63,34.17h14.07c.11,0,.19-.08,.19-.19s-.09-.19-.19-.19h-14.07c-.11,0-.19,.09-.19,.19s.09,.19,.19,.19Zm0,2.11h14.07c.11,0,.19-.08,.19-.19s-.09-.19-.19-.19h-14.07c-.11,0-.19,.09-.19,.19s.09,.19,.19,.19Zm0,2.11h14.07c.11,0,.19-.09,.19-.19s-.09-.19-.19-.19h-14.07c-.11,0-.19,.09-.19,.19s.09,.19,.19,.19Zm0,2.11h9.75c.11,0,.19-.09,.19-.19s-.09-.19-.19-.19h-9.75c-.11,0-.19,.09-.19,.19s.09,.19,.19,.19Z"/>
    <path class="cls-11" d="M49.19,31.32h-9.31c-.34,0-.61,.27-.61,.61v13.2c0,.11,.08,.19,.19,.19s.19-.09,.19-.19v-13.2c0-.13,.1-.23,.23-.23h9.31c.13,0,.23,.1,.23,.23v16.61c0,.13-.1,.23-.22,.23h-9.31s-.06,0-.09-.02c-.08-.03-.13-.11-.13-.21v-2.47c0-.05-.02-.1-.05-.13-.01-.01-.03-.02-.04-.03-.13-.09-.28-.15-.45-.15h-1.45V23.9c0-.11-.09-.19-.19-.19s-.19,.08-.19,.19v21.85H2.77V22.89c0-.38,.31-.68,.68-.68h31.65v.52c0,.11,.09,.19,.19,.19h14.27s.01,0,.02,0c0,0,0,0,0,0,0,0,.01,0,.02,0,.04,0,.08-.01,.12-.04,.08-.06,.1-.19,.04-.27h0V12.87c0-.11-.09-.19-.19-.19h-4.11l.21-.35s.04-.05,.08-.06c.92-.24,1.75-.74,2.39-1.46,1.62-1.82,1.63-4.56,.02-6.39-1.94-2.2-5.35-2.17-7.26,.02-1.59,1.81-1.58,4.54,.02,6.35,1.16,1.32,2.35,1.39,2.43,1.52l.22,.37h-8.28c-.11,0-.19,.08-.19,.19v8.11c0,.11,.09,.19,.19,.19s.19-.09,.19-.19v-7.92h8.32c.19,.26,.29,.71,.71,.71,.18,0,.34-.09,.44-.25l.28-.46h4.14v9.05l-4-5.23c-.07-.1-.23-.1-.31,0l-2.94,3.84c-.06,.08-.05,.21,.04,.27,.08,.06,.21,.05,.27-.04l2.79-3.64,4,5.22h-6.59l-3.56-4.66c-.07-.1-.23-.1-.31,0l-2.78,3.63c-.06,.08-.05,.21,.04,.27,.08,.06,.21,.05,.27-.04l2.63-3.43,3.23,4.22h-6.66v-.52c0-.11-.09-.19-.19-.19H17.91c-.45-.87-.81-1.84-1.08-2.89,2.04-.65,.59-.19,1.98-.63,0,.17,.01,.34,.03,.5,.01,.11,.11,.18,.21,.17,.1-.01,.18-.11,.17-.21-.02-.19-.03-.39-.03-.58l.13-.04c3.01-.38,6.15,.06,9.09,.83,0,0,.01,0,.02,0h0s.03,0,.05,0c.02,0,.04,0,.06,0h.02s.24-.08,.24-.08c.62-.2,.96-.86,.77-1.48l-.69-2.19c.58-.36,1-.97,1.1-1.7h0c.18-1.31-.74-2.53-2.05-2.71-.15-.02-.3-.03-.45-.02l-.69-2.19c-.2-.61-.85-.97-1.48-.77-.24,.08-.29,.08-.34,.13,0,0,0,0,0,0-2.25,2.66-4.57,4.64-6.92,5.89h0s-.02,0-.03,0l-3.19,1.01c-.11,.04-.21,.11-.26,.22-.06,.11-.07,.23-.03,.34l.1,.32c-.51,.38-.75,1.06-.55,1.7,.13,.4,.4,.72,.77,.91,.21,.11,.43,.17,.66,.17l.1,.3c.03,.11,.11,.21,.22,.26,.07,.03,.13,.05,.21,.05,.04,0,.09,0,.13-.02l.31-.1c.26,1,.6,1.93,1.01,2.77H7.5v-3.07s0-.01,0-.02c0-.7,.63-1.25,1.36-1.15,.58,.09,.99,.59,1.01,1.15,0,.02,0,.03,0,.05v2.45c0,.11,.09,.19,.19,.19s.19-.09,.19-.19v-2.45c0-.34-.11-.67-.29-.93v-1.43c3.69-.61,6.51-3.82,6.51-7.67,0-1.39-.37-2.7-1.01-3.83l.73-.45,.92,.33s.04,0,.07,0c.03,0,.07,0,.1-.03l1.95-1.2c.06-.04,.1-.11,.09-.18s-.06-.14-.13-.16l-.63-.22,.57-.35c.09-.06,.12-.17,.06-.26s-.17-.12-.26-.06l-.57,.35,.08-.67c0-.07-.02-.15-.09-.18-.06-.04-.14-.04-.21,0l-1.94,1.2c-.05,.03-.08,.08-.09,.14l-.12,.98-.73,.45c-1.38-2.17-3.81-3.62-6.57-3.62C4.39,.97,.9,4.46,.9,8.75c0,3.86,2.82,7.07,6.5,7.67v1.42c-.19,.26-.29,.58-.29,.91v3.07H3.45c-.59,0-1.06,.48-1.06,1.06v22.86H.93c-.43,0-.77,.35-.77,.77v1.85c0,.43,.35,.77,.77,.77H39.11c.15,0,.29-.04,.41-.12,.1,.08,.23,.12,.36,.12h9.31c.33,0,.61-.27,.61-.61V31.93c0-.34-.27-.61-.61-.61Zm-4.67-17.94c-.12,0-.14-.16-.26-.33-.01-.02-.61-1.01-.57-.95-.26-.45-1.23-.18-2.47-1.58-.74-.83-1.11-1.88-1.11-2.93,0-4.08,5.08-5.99,7.77-2.93,1.48,1.68,1.47,4.2-.02,5.87-.59,.66-1.35,1.13-2.2,1.35-.13,.03-.24,.12-.31,.23-.01,.02-.6,1-.56,.93-.12,.17-.14,.33-.27,.33Zm-16.64-2.18c1.1,.15,1.88,1.18,1.72,2.28-.08,.58-.4,1.06-.84,1.37l-1.16-3.67c.09,0,.18,0,.28,.02Zm-2.45-2.99c.41-.13,.86,.1,.99,.52,0,.02,2.81,8.91,2.79,8.82,.03,.08,.04,.16,.04,.24,0,.34-.22,.65-.55,.75l-.08,.02c-2.21-7-1.15-3.62-3.26-10.33l.07-.03Zm-.39,.29c.8,2.53,.08,.26,3.17,10.03-2.82-.71-5.88-1.13-8.77-.78l-1.13-3.57c2.56-1.39,4.83-3.47,6.73-5.68Zm-10.01,9.54c-.28-.14-.48-.39-.58-.68-.13-.42-.02-.87,.31-1.19l.63,2c-.13-.02-.25-.06-.36-.12Zm1.02,.74s-.04,0-.04,0c-.01,0-.03-.02-.03-.03l-.07-.23-.93-2.95-.08-.24s0-.04,0-.05c0,0,.02-.02,.04-.03l3.01-.95,1.11,3.52-.1,.03c-.3,.09,1.08-.34-2.91,.92Zm2.62-15.33l-1.52,.94-.54-.19,1.52-.94,.55,.19Zm-2.2-.15l1.52-.94-.07,.58-1.52,.94,.07-.58ZM1.29,8.75C1.29,4.67,4.6,1.35,8.68,1.35c2.62,0,4.93,1.37,6.24,3.44l-1.13,.7c-.87-1.38-2.2-2.32-4.03-2.7-3.6-.7-7.14,2.13-7.14,5.96s3.61,6.78,7.42,5.9c.02-.02,1.9-.33,3.34-2.1,.03-.1,1.93-2.12,1.15-5.31-.13-.5-.31-.98-.55-1.41l1.13-.7c.61,1.07,.95,2.31,.95,3.63,0,4.07-3.31,7.4-7.4,7.4-4.05,0-7.39-3.29-7.39-7.4Zm7.39,5.67c-3.13,0-5.67-2.54-5.67-5.67C3.01,3.07,10.44,.98,13.46,5.7l-4.49,2.78c-.06-.04-.12-.07-.2-.09-.31-.07-.62,.12-.7,.43-.07,.31,.12,.62,.43,.7,.31,.07,.62-.12,.7-.43,.02-.1,.02-.2-.01-.3h0s4.46-2.76,4.46-2.76c2.02,3.67-.58,8.39-4.97,8.39Zm0,2.11c.3,0,.6-.02,.89-.05v.99c-.19-.14-.42-.23-.66-.27-.4-.06-.79,.04-1.12,.26v-.99c.29,.03,.59,.05,.89,.05Zm30.43,32.24H.93c-.22,0-.39-.17-.39-.39v-1.85c0-.22,.17-.39,.39-.39,1.02,0,35.01,0,38.18,0,.06,0,.11,.01,.16,.03v2.37c0,.06,0,.12,.03,.18-.05,.03-.12,.05-.19,.05Z"/>
    <circle class="cls-11" cx="43.38" cy="32.31" r=".22"/>
    <path class="cls-11" d="M45.85,32.5c.11,0,.19-.09,.19-.19s-.09-.19-.19-.19h-1.76c-.11,0-.19,.09-.19,.19s.09,.19,.19,.19h1.76Zm-4.58,6.51c0,1.92,1.56,3.49,3.49,3.49s3.48-1.56,3.48-3.49-1.56-3.48-3.48-3.48-3.49,1.56-3.49,3.48Zm3.49-3.1c1.71,0,3.1,1.39,3.1,3.1s-1.39,3.1-3.1,3.1-3.1-1.39-3.1-3.1c0-1.71,1.39-3.1,3.1-3.1ZM31.1,9.77c1.44,.68,2.06,2.4,1.38,3.83-.05,.1,0,.21,.09,.26,.03,.01,.05,.02,.08,.02,.07,0,.14-.04,.17-.11,.77-1.63,.06-3.58-1.57-4.35-.1-.05-.21,0-.26,.09-.05,.1,0,.21,.09,.26Z"/>
    <path class="cls-11" d="M30.61,10.57c.49,.23,.87,.64,1.06,1.16,.19,.52,.16,1.07-.07,1.57-.05,.1,0,.21,.09,.26,.03,.01,.05,.02,.08,.02,.07,0,.14-.04,.17-.11,.28-.59,.31-1.25,.09-1.86-.22-.61-.67-1.1-1.25-1.38-.1-.05-.21,0-.26,.09-.05,.1,0,.21,.09,.26Z"/>
    <path class="cls-11" d="M30.13,11.37c.29,.14,.52,.38,.63,.69,.11,.31,.1,.64-.04,.93-.05,.1,0,.21,.09,.26,.03,.01,.05,.02,.08,.02,.07,0,.14-.04,.17-.11,.18-.39,.2-.82,.06-1.22s-.44-.72-.82-.9c-.1-.05-.21,0-.26,.09-.05,.1,0,.21,.09,.26Zm7.56-7.81h0c-.13,0-.24,.12-.24,.25l.06,2.05c0,.13,.11,.24,.24,.24h0c.13,0,.24-.12,.24-.25l-.06-2.05c0-.13-.11-.24-.24-.24Zm-.04-.99h0c.13,0,.24-.12,.24-.25l-.04-1.24c0-.13-.11-.24-.24-.24h0c-.13,0-.24,.12-.24,.25l.04,1.24c0,.13,.11,.24,.24,.24Zm-5.06,15.29h0c-.13,0-.24,.12-.24,.25l.06,2.05c0,.13,.11,.24,.24,.24h0c.13,0,.24-.12,.24-.25l-.06-2.05c0-.13-.11-.24-.24-.24ZM23.83,4.56h0c.13,0,.24-.12,.24-.25l-.06-2.05c0-.13-.11-.24-.24-.24h0c-.13,0-.24,.12-.24,.25l.06,2.05c0,.13,.11,.24,.24,.24ZM3.94,19.27h0c.13,0,.24-.12,.24-.25l-.06-2.05c0-.13-.11-.24-.24-.24h0c-.13,0-.24,.12-.24,.25l.06,2.05c0,.13,.11,.24,.24,.24Zm39.97,5.71c-.13,0-.24,.12-.24,.25l.06,2.05c0,.13,.11,.24,.24,.24h0c.13,0,.24-.12,.24-.25l-.06-2.05c0-.13-.11-.24-.25-.24Z"/>
  </g>
</svg>