<?xml version="1.0" encoding="utf-8"?>
<!-- Generator: Adobe Illustrator 27.0.0, SVG Export Plug-In . SVG Version: 6.00 Build 0)  -->
<svg version="1.1" id="Layer_1" xmlns="http://www.w3.org/2000/svg" xmlns:xlink="http://www.w3.org/1999/xlink" x="0px" y="0px"
	 viewBox="0 0 49.96 50" style="enable-background:new 0 0 49.96 50;" xml:space="preserve">
<style type="text/css">
	.st0{fill:#DDDEDF;}
	.st1{fill:#FFFFFF;}
	.st2{fill:#F0F1F2;}
	.st3{fill:#CDE0FF;}
	.st4{fill:#EA4335;}
	.st5{fill:none;}
	.st6{fill:#4285F4;}
	.st7{fill:#FBBC05;}
	.st8{fill:#ACCAFB;}
	.st9{fill:#61CB7D;}
	.st10{fill:#888988;}
	.st11{fill:#34A853;}
	.st12{fill:none;stroke:#33A852;stroke-width:0.5;stroke-miterlimit:10;}
	.st13{fill:#A4ADD2;}
	.st14{fill:#DEDEDE;}
	.st15{fill:#F0F0F0;}
	.st16{fill:#E6E6E6;}
	.st17{fill:#FC5185;}
	.st18{fill:#43DDE6;}
	.st19{fill:#FE004D;}
	.st20{fill:#D3D3D3;}
	.st21{fill:#6193CB;}
	.st22{fill:#888889;}
	.st23{fill:#364F6B;}
</style>
<g>
	<g transform="matrix(.95 0 0 .95 7.2 7.2)">
		<circle class="st13" cx="18.71" cy="18.74" r="26.29"/>
		<path class="st13" d="M18.71,16.91h24.47c1.01,0,1.83,0.82,1.83,1.83V43.2c0,1.01-0.82,1.83-1.83,1.83H18.71
			c-1.01,0-1.83-0.82-1.83-1.83V18.74C16.89,17.73,17.71,16.91,18.71,16.91z"/>
	</g>
	<g>
		<polygon class="st14" points="20.32,9.61 20.23,10.33 20.92,10.58 19.6,11.39 18.91,11.15 19,10.42 		"/>
		<polygon class="st1" points="14.62,20.6 13.15,20.6 13.15,19.41 13.15,18.56 14.62,18.56 		"/>
		<path class="st15" d="M14.62,18.56l-1.47,0v0.85c0.24,0.03,0.49,0.05,0.74,0.05c0.25,0,0.5-0.02,0.74-0.05V18.56z"/>
		<path class="st1" d="M13.88,17.93c-2.2,0-3.99-1.79-3.99-3.99c0-2.2,1.79-3.99,3.99-3.99s3.99,1.79,3.99,3.99
			C17.87,16.14,16.09,17.93,13.88,17.93z"/>
		<path class="st16" d="M13.88,17.93c-2.2,0-3.99-1.79-3.99-3.99c0-2.2,1.79-3.99,3.99-3.99s3.99,1.79,3.99,3.99
			C17.87,16.14,16.09,17.93,13.88,17.93z"/>
		<polygon class="st1" points="14.62,20.6 13.15,20.6 13.15,19.41 13.15,18.56 14.62,18.56 		"/>
		<path class="st15" d="M14.62,18.56l-1.47,0v0.85c0.24,0.03,0.49,0.05,0.74,0.05c0.25,0,0.5-0.02,0.74-0.05V18.56z"/>
		<path class="st1" d="M14.82,20.77v3.95c0,0.26-0.1,0.49-0.28,0.66c-0.2,0.2-0.48,0.31-0.78,0.27c-0.47-0.06-0.82-0.47-0.82-0.95
			v-3.95c0-0.56,0.5-1.01,1.07-0.93C14.48,19.89,14.82,20.3,14.82,20.77z"/>
		<path class="st15" d="M14.82,22.57v2.15c0,0.26-0.1,0.49-0.28,0.66c-0.2,0.2-0.48,0.31-0.78,0.27c-0.47-0.06-0.82-0.47-0.82-0.95
			v-2.13C12.95,22.57,14.82,22.57,14.82,22.57z"/>
		<path class="st15" d="M14.08,25.63c0.03-0.02,0.06-0.05,0.09-0.08c0.17-0.17,0.27-0.4,0.28-0.66l0-3.95c0-0.47-0.34-0.88-0.8-0.95
			c-0.12-0.02-0.23-0.01-0.34,0.01c0.19-0.15,0.44-0.22,0.71-0.19c0.46,0.07,0.8,0.48,0.8,0.95l0,3.95c0,0.26-0.1,0.49-0.27,0.66
			C14.42,25.5,14.26,25.59,14.08,25.63z"/>
		<path class="st1" d="M17.48,12.33c0.12,0.26,0.2,0.53,0.26,0.81 M17.63,15.31c-0.56,1.53-2.03,2.62-3.75,2.62
			c-2.2,0-3.99-1.79-3.99-3.99c0-2.2,1.79-3.99,3.99-3.99s3.99,1.79,3.99,3.99c0,0.19-0.01,0.37-0.04,0.55"/>
		<path class="st16" d="M13.88,8.77c-2.85,0-5.17,2.31-5.17,5.17c0,2.85,2.31,5.17,5.17,5.17s5.17-2.31,5.17-5.17
			C19.05,11.08,16.74,8.77,13.88,8.77z M13.88,17.93c-2.2,0-3.99-1.79-3.99-3.99c0-2.2,1.79-3.99,3.99-3.99s3.99,1.79,3.99,3.99
			C17.87,16.14,16.09,17.93,13.88,17.93z"/>
		<polygon class="st17" points="20.39,9.33 20.3,10.05 20.98,10.3 19.66,11.12 18.97,10.87 19.06,10.15 		"/>
		<line class="st5" x1="13.86" y1="14.04" x2="20.92" y2="9.67"/>
		<circle class="st18" cx="26.76" cy="16.97" r="1.51"/>
		<path class="st1" d="M18.29,18.67l0.56,1.77c-0.49,0.15-1.01-0.12-1.16-0.6C17.53,19.35,17.8,18.83,18.29,18.67z"/>
		<path class="st15" d="M18.29,18.67l0.56,1.77c-0.18,0.06-0.36,0.06-0.52,0.01l-0.47-1.48C17.96,18.83,18.11,18.73,18.29,18.67z"/>
		<path class="st1" d="M22.17,23.52l-1.36,0.43c-0.05,0.02-0.11,0-0.14-0.05c-0.28-0.39-0.53-0.81-0.74-1.26
			c-0.27-0.57-0.49-1.2-0.65-1.86l1.64-0.52c-0.02,0.91,0.27,1.68,0.76,2.38c0.16,0.23,0.35,0.46,0.55,0.67
			C22.28,23.39,22.26,23.5,22.17,23.52z"/>
		<path class="st15" d="M22.17,23.52l-1.36,0.43c-0.05,0.02-0.11,0-0.14-0.05c-0.28-0.39-0.53-0.81-0.74-1.26h1.74
			c0.16,0.23,0.35,0.46,0.55,0.67C22.28,23.39,22.26,23.5,22.17,23.52z"/>
		<path class="st19" d="M21.11,20.21l-2.17,0.69c-0.09,0.03-0.19-0.02-0.22-0.11l-0.73-2.32c-0.03-0.09,0.02-0.19,0.11-0.22
			l2.17-0.69L21.11,20.21z"/>
		<path class="st1" d="M25.06,13.5l2.3,7.28c-2.25-0.59-4.35-0.82-6.26-0.57l-0.83-2.64C21.98,16.67,23.57,15.28,25.06,13.5z"/>
		<path class="st15" d="M25.06,13.5l2.3,7.28c-0.16-0.04-0.31-0.08-0.46-0.12l-2.15-6.8C24.86,13.74,24.96,13.62,25.06,13.5z"/>
		<path class="st19" d="M27.54,20.72l-0.18,0.06l-2.3-7.28l0.18-0.06c0.35-0.11,0.73,0.08,0.84,0.44l1.9,6
			C28.09,20.24,27.89,20.61,27.54,20.72z"/>
		<g>
			<path class="st1" d="M34.99,39.65v1.26c0,0.22-0.18,0.39-0.39,0.39H8.61c-0.22,0-0.4-0.18-0.4-0.39v-1.26
				c0-0.22,0.18-0.39,0.4-0.39H34.6C34.82,39.26,34.99,39.44,34.99,39.65z"/>
			<path class="st15" d="M34.99,39.65v1.26c0,0.22-0.18,0.39-0.39,0.39h-0.12c-0.16,0-0.28-0.13-0.28-0.28v-1.76h0.4
				C34.82,39.26,34.99,39.44,34.99,39.65z"/>
			<path class="st15" d="M34.99,39.65v0.79c0-0.22-0.18-0.39-0.39-0.39H8.61c-0.22,0-0.4,0.18-0.4,0.39v-0.79
				c0-0.22,0.18-0.39,0.4-0.39H34.6C34.82,39.26,34.99,39.44,34.99,39.65z M33.48,23.56v15.7H9.73v-15.7c0-0.33,0.27-0.59,0.59-0.59
				h22.56C33.22,22.97,33.48,23.24,33.48,23.56z"/>
			<path class="st14" d="M33.48,23.56v0.3h-1.89v-0.89h1.3C33.22,22.97,33.48,23.24,33.48,23.56z"/>
			<rect x="10.92" y="24.16" class="st1" width="21.38" height="13.92"/>
			<rect x="12.16" y="26.25" class="st15" width="18.07" height="3.63"/>
			<rect x="12.16" y="31.25" class="st15" width="7.11" height="5.54"/>
			<rect x="12.57" y="25.84" class="st20" width="18.07" height="3.63"/>
			<rect x="12.57" y="30.84" class="st20" width="7.11" height="5.54"/>
		</g>
		<g>
			<path class="st1" d="M41.74,29.72v11.31c0,0.16-0.13,0.28-0.28,0.28h-6.34c-0.16,0-0.28-0.13-0.28-0.28V29.72
				c0-0.16,0.13-0.28,0.28-0.28h6.34C41.62,29.43,41.74,29.56,41.74,29.72z"/>
			<path class="st15" d="M41.09,30.81v9.48c0,0.06-0.05,0.11-0.11,0.11H35.6c-0.06,0-0.11-0.05-0.11-0.11v-9.48
				c0-0.06,0.05-0.11,0.11-0.11h5.38C41.04,30.69,41.09,30.74,41.09,30.81z"/>
		</g>
		<g>
			<path class="st14" d="M40.37,34.67c0.14,1.42-1.04,2.6-2.46,2.46c-1.05-0.1-1.9-0.95-2-2c-0.14-1.42,1.04-2.6,2.46-2.46
				C39.42,32.77,40.27,33.62,40.37,34.67z"/>
			<path class="st1" d="M36.21,34.31c-0.14,1.42,1.04,2.6,2.46,2.46c1.05-0.1,1.9-0.95,2-2c0.14-1.42-1.04-2.6-2.46-2.46
				C37.17,32.41,36.32,33.26,36.21,34.31z"/>
			<path class="st15" d="M39.47,34.86l-1.56,1.11c-0.07,0.05-0.16,0-0.16-0.08v-2.22c0-0.08,0.09-0.13,0.16-0.08l1.56,1.11
				C39.53,34.73,39.53,34.82,39.47,34.86z"/>
			<path class="st21" d="M39.62,34.62l-1.56,1.11c-0.07,0.05-0.16,0-0.16-0.08v-2.22c0-0.08,0.09-0.13,0.16-0.08l1.56,1.11
				C39.68,34.49,39.68,34.58,39.62,34.62z"/>
		</g>
		<g>
			<rect x="32" y="16.74" class="st1" width="9.72" height="6.71"/>
			<polygon class="st18" points="41.74,23.45 35.77,23.45 36.61,22.36 38.76,19.55 			"/>
			<polygon class="st22" points="37.45,23.45 35.77,23.45 36.61,22.36 			"/>
			<polygon class="st18" points="36.93,23.45 32,23.45 34.46,20.23 			"/>
			<circle class="st19" cx="35.77" cy="18.75" r="0.78"/>
		</g>
		<g>
			<path class="st1" d="M35.91,11.09c-1.03,1.18-1.03,2.97,0.01,4.15c0.43,0.48,0.97,0.8,1.54,0.96c0.05,0.01,0.1,0.05,0.13,0.1
				l0.5,0.83c0.08,0.14,0.29,0.14,0.37,0l0.49-0.82c0.03-0.05,0.08-0.08,0.13-0.1c0.58-0.15,1.13-0.47,1.56-0.96
				c1.05-1.18,1.06-2.99,0.01-4.17C39.4,9.64,37.17,9.65,35.91,11.09z"/>
			<path class="st15" d="M39.83,12.86c0.03,1.17-1.67,2.12-1.67,2.12s-1.7-0.95-1.67-2.12c0.01-0.55,0.45-0.99,0.99-0.99
				c0.26,0,0.5,0.1,0.67,0.26c0.18-0.16,0.41-0.26,0.67-0.26C39.39,11.86,39.82,12.31,39.83,12.86z"/>
			<path class="st17" d="M40.08,12.72c0.03,1.17-1.67,2.12-1.67,2.12s-1.7-0.95-1.67-2.12c0.01-0.55,0.45-0.99,0.99-0.99
				c0.26,0,0.5,0.1,0.67,0.26c0.18-0.16,0.41-0.26,0.67-0.26C39.64,11.72,40.07,12.17,40.08,12.72z"/>
		</g>
		<g>
			<path class="st23" d="M16.27,14.02c0,0.07,0.06,0.14,0.13,0.14c0.07,0,0.13-0.06,0.13-0.13c0.01-0.36-0.05-0.71-0.17-1.04
				c-0.03-0.07-0.1-0.1-0.17-0.08c-0.07,0.03-0.1,0.1-0.08,0.17C16.23,13.38,16.29,13.7,16.27,14.02z M14.7,11.65
				c0.41,0.16,0.77,0.42,1.04,0.76c0.03,0.03,0.06,0.05,0.1,0.05c0.03,0,0.06-0.01,0.08-0.03c0.06-0.05,0.07-0.13,0.02-0.18
				c-0.3-0.38-0.7-0.67-1.15-0.84c-0.07-0.03-0.14,0.01-0.17,0.08C14.6,11.55,14.63,11.63,14.7,11.65z M11.37,13.12
				c0.02,0.01,0.03,0.01,0.05,0.01c0.05,0,0.1-0.03,0.12-0.08c0.39-0.99,1.36-1.61,2.42-1.55c0.08,0,0.13-0.05,0.14-0.12
				c0-0.07-0.05-0.13-0.12-0.14c-1.16-0.07-2.25,0.61-2.68,1.71C11.27,13.01,11.31,13.09,11.37,13.12z M12.85,16.19
				c-0.93-0.4-1.52-1.35-1.47-2.36c0-0.07-0.05-0.13-0.12-0.14c-0.07,0-0.13,0.05-0.14,0.12c-0.05,1.12,0.6,2.17,1.63,2.61
				c0.02,0.01,0.03,0.01,0.05,0.01c0.05,0,0.1-0.03,0.12-0.08C12.95,16.29,12.92,16.22,12.85,16.19z M16.2,14.96
				c-0.07-0.03-0.14,0-0.18,0.06c-0.43,0.88-1.37,1.45-2.39,1.37c-0.07,0-0.14,0.05-0.14,0.12c-0.01,0.07,0.05,0.14,0.12,0.14
				c1.12,0.09,2.17-0.53,2.65-1.51C16.29,15.07,16.27,14.99,16.2,14.96z M14.28,12c0.01,0,0.02,0,0.03,0c0.06,0,0.11-0.04,0.13-0.1
				l0.21-0.9c0.04-0.17-0.22-0.23-0.26-0.06l-0.21,0.9C14.17,11.92,14.21,11.99,14.28,12z M13.34,15.98
				c-0.07-0.02-0.14,0.03-0.16,0.1l-0.21,0.9c-0.02,0.07,0.03,0.14,0.1,0.16c0.01,0,0.02,0,0.03,0c0.06,0,0.11-0.04,0.13-0.1
				l0.21-0.9C13.46,16.07,13.41,16,13.34,15.98z M11.7,13.62c0.06,0,0.11-0.04,0.13-0.1c0.02-0.07-0.03-0.14-0.1-0.16l-0.9-0.21
				c-0.07-0.02-0.14,0.03-0.16,0.1s0.03,0.14,0.1,0.16l0.9,0.21C11.68,13.62,11.69,13.62,11.7,13.62z M15.96,14.36
				c-0.07-0.02-0.14,0.03-0.16,0.1s0.03,0.14,0.1,0.16c0.71,0.13,1,0.34,1.06,0.11C16.97,14.66,16.66,14.57,15.96,14.36z
				 M20.96,20.98c-0.07,0.01-0.12,0.08-0.1,0.15c0.1,0.47,0.28,0.92,0.56,1.37c0.02,0.04,0.07,0.06,0.11,0.06
				c0.02,0,0.05-0.01,0.07-0.02c0.06-0.04,0.08-0.12,0.04-0.18c-0.27-0.42-0.44-0.84-0.53-1.28C21.1,21.01,21.03,20.97,20.96,20.98z
				 M10.92,24.02c-0.07,0-0.13,0.06-0.13,0.13v13.92c0,0.07,0.06,0.13,0.13,0.13h21.38c0.07,0,0.13-0.06,0.13-0.13V24.16
				c0-0.07-0.06-0.13-0.13-0.13C27.9,24.02,15.4,24.02,10.92,24.02z M32.16,37.94H11.05V24.29c6.26,0,14.86,0,21.12,0V37.94z"/>
			<path class="st23" d="M20.66,31.25h9.58c0.07,0,0.13-0.06,0.13-0.13c0-0.07-0.06-0.13-0.13-0.13h-9.58
				c-0.07,0-0.13,0.06-0.13,0.13C20.53,31.19,20.58,31.25,20.66,31.25z M20.66,32.68h9.58c0.07,0,0.13-0.06,0.13-0.13
				c0-0.07-0.06-0.13-0.13-0.13h-9.58c-0.07,0-0.13,0.06-0.13,0.13C20.53,32.63,20.58,32.68,20.66,32.68z M20.66,34.12h9.58
				c0.07,0,0.13-0.06,0.13-0.13c0-0.07-0.06-0.13-0.13-0.13h-9.58c-0.07,0-0.13,0.06-0.13,0.13C20.53,34.06,20.58,34.12,20.66,34.12
				z M20.66,35.56h6.64c0.07,0,0.13-0.06,0.13-0.13s-0.06-0.13-0.13-0.13h-6.64c-0.07,0-0.13,0.06-0.13,0.13
				S20.58,35.56,20.66,35.56z"/>
			<path class="st23" d="M41.46,29.3h-6.34c-0.23,0-0.42,0.19-0.42,0.42v8.98c0,0.07,0.06,0.13,0.13,0.13
				c0.07,0,0.13-0.06,0.13-0.13v-8.98c0-0.09,0.07-0.15,0.15-0.15h6.34c0.09,0,0.15,0.07,0.15,0.15v11.31
				c0,0.09-0.07,0.15-0.15,0.15h-6.34c-0.02,0-0.04-0.01-0.06-0.01c-0.05-0.02-0.09-0.08-0.09-0.14v-1.68
				c0-0.04-0.01-0.07-0.04-0.09c-0.01-0.01-0.02-0.01-0.03-0.02c-0.09-0.06-0.19-0.1-0.31-0.1h-0.99V24.25
				c0-0.07-0.06-0.13-0.13-0.13c-0.07,0-0.13,0.06-0.13,0.13v14.88H9.86V23.56c0-0.26,0.21-0.46,0.46-0.46c2.48,0,18.94,0,21.54,0
				v0.35c0,0.07,0.06,0.13,0.13,0.13c1.14,0,8.66,0,9.72,0c0,0,0.01,0,0.01,0c0,0,0,0,0,0c0,0,0.01,0,0.01,0
				c0.03,0,0.06-0.01,0.08-0.03c0.06-0.04,0.07-0.13,0.02-0.18l0,0v-6.63c0-0.07-0.06-0.13-0.13-0.13h-2.79l0.14-0.24
				c0.01-0.02,0.03-0.03,0.05-0.04c0.63-0.16,1.19-0.51,1.63-1c1.1-1.24,1.11-3.11,0.01-4.35c-1.32-1.49-3.64-1.48-4.94,0.01
				c-1.08,1.24-1.08,3.09,0.01,4.32c0.79,0.9,1.6,0.94,1.65,1.04l0.15,0.25H32c-0.07,0-0.13,0.06-0.13,0.13v5.52
				c0,0.07,0.06,0.13,0.13,0.13c0.07,0,0.13-0.06,0.13-0.13v-5.39h5.66c0.13,0.17,0.2,0.48,0.49,0.48c0.12,0,0.23-0.06,0.3-0.17
				l0.19-0.31h2.82v6.16l-2.72-3.56c-0.05-0.06-0.16-0.06-0.21,0l-2,2.62c-0.04,0.06-0.03,0.14,0.02,0.18
				c0.06,0.04,0.14,0.03,0.18-0.02l1.9-2.48l2.72,3.56h-4.49l-2.43-3.17c-0.05-0.06-0.16-0.06-0.21,0l-1.89,2.47
				c-0.04,0.06-0.03,0.14,0.02,0.18c0.06,0.04,0.14,0.03,0.18-0.02l1.79-2.34l2.2,2.87h-4.53V23.1v-0.13c0-0.07-0.06-0.13-0.13-0.13
				H20.17c-0.3-0.59-0.55-1.25-0.73-1.97c1.39-0.44,0.4-0.13,1.35-0.43c0,0.12,0.01,0.23,0.02,0.34c0.01,0.07,0.07,0.12,0.15,0.12
				c0.07-0.01,0.12-0.07,0.12-0.15c-0.01-0.13-0.02-0.26-0.02-0.4l0.09-0.03c2.05-0.26,4.19,0.04,6.19,0.57c0,0,0.01,0,0.01,0
				c0,0,0,0,0,0c0.01,0,0.02,0,0.03,0c0.01,0,0.03,0,0.04-0.01l0.01,0l0.16-0.05c0.42-0.13,0.66-0.58,0.52-1.01l-0.47-1.49
				c0.39-0.25,0.68-0.66,0.75-1.16v0c0.12-0.89-0.5-1.72-1.4-1.85c-0.1-0.01-0.2-0.02-0.31-0.01l-0.47-1.49
				c-0.13-0.42-0.58-0.66-1.01-0.52c-0.16,0.06-0.2,0.05-0.23,0.09c0,0-0.01,0-0.01,0.01c-1.53,1.81-3.11,3.16-4.71,4.01h0
				c-0.01,0-0.01,0-0.02,0.01l-2.17,0.69c-0.08,0.02-0.14,0.08-0.18,0.15c-0.04,0.07-0.04,0.15-0.02,0.23l0.07,0.21
				c-0.35,0.26-0.51,0.72-0.37,1.16c0.09,0.27,0.27,0.49,0.52,0.62c0.14,0.07,0.3,0.11,0.45,0.12l0.07,0.21
				c0.02,0.08,0.08,0.14,0.15,0.18c0.04,0.02,0.09,0.03,0.14,0.03c0.03,0,0.06,0,0.09-0.01l0.21-0.07c0.18,0.68,0.41,1.31,0.69,1.89
				h-6.8v-2.09c0-0.01,0-0.01,0-0.01c0.01-0.47,0.43-0.85,0.92-0.78c0.39,0.06,0.67,0.4,0.68,0.78c0,0.01,0,0.02,0,0.03v1.67
				c0,0.07,0.06,0.13,0.13,0.13c0.07,0,0.13-0.06,0.13-0.13v-1.67c0-0.23-0.07-0.45-0.2-0.63v-0.97c2.51-0.41,4.43-2.6,4.43-5.22
				c0-0.95-0.25-1.84-0.69-2.61l0.5-0.31l0.63,0.22c0.01,0.01,0.03,0.01,0.04,0.01c0.02,0,0.05-0.01,0.07-0.02l1.32-0.82
				c0.04-0.03,0.07-0.08,0.06-0.13c-0.01-0.05-0.04-0.09-0.09-0.11l-0.43-0.15l0.39-0.24c0.06-0.04,0.08-0.12,0.04-0.18
				c-0.04-0.06-0.12-0.08-0.18-0.04L20.46,9.8l0.06-0.45c0.01-0.05-0.02-0.1-0.06-0.13c-0.04-0.03-0.1-0.03-0.14,0l-1.32,0.82
				c-0.03,0.02-0.06,0.06-0.06,0.09l-0.08,0.67l-0.49,0.31c-0.94-1.48-2.59-2.46-4.47-2.46c-2.92,0-5.3,2.38-5.3,5.3
				c0,2.63,1.92,4.81,4.43,5.22v0.97c-0.13,0.18-0.2,0.4-0.2,0.62v2.09h-2.49c-0.4,0-0.72,0.32-0.72,0.72v15.56H8.61
				c-0.29,0-0.53,0.24-0.53,0.53v1.26c0,0.29,0.24,0.53,0.53,0.53H34.6c0.1,0,0.2-0.03,0.28-0.08c0.07,0.05,0.15,0.08,0.25,0.08
				h6.34c0.23,0,0.41-0.19,0.41-0.42V29.72C41.87,29.49,41.69,29.3,41.46,29.3z M38.28,17.09c-0.08,0-0.1-0.11-0.18-0.22
				c-0.01-0.01-0.41-0.69-0.39-0.65c-0.18-0.3-0.84-0.12-1.68-1.08c-0.5-0.57-0.75-1.28-0.75-1.99c0-2.78,3.46-4.08,5.29-1.99
				c1.01,1.14,1,2.86-0.01,4c-0.4,0.45-0.92,0.77-1.5,0.92c-0.09,0.02-0.17,0.08-0.21,0.16c-0.01,0.01-0.41,0.68-0.38,0.64
				C38.37,16.99,38.36,17.09,38.28,17.09z M26.95,15.61c0.75,0.1,1.28,0.8,1.17,1.55c-0.05,0.39-0.27,0.72-0.57,0.94l-0.79-2.5
				C26.82,15.59,26.89,15.6,26.95,15.61z M25.28,13.57c0.28-0.09,0.59,0.07,0.68,0.35c0,0.01,1.92,6.07,1.9,6
				c0.02,0.05,0.02,0.11,0.02,0.16c0,0.23-0.15,0.44-0.38,0.51l-0.05,0.02c-1.51-4.77-0.78-2.47-2.22-7.03L25.28,13.57z
				 M25.01,13.77c0.54,1.72,0.06,0.18,2.16,6.83c-1.92-0.49-4-0.77-5.97-0.53l-0.77-2.43C22.18,16.68,23.72,15.26,25.01,13.77z
				 M18.2,20.26c-0.19-0.1-0.33-0.26-0.39-0.47c-0.09-0.28-0.01-0.59,0.21-0.81l0.43,1.36C18.36,20.33,18.28,20.3,18.2,20.26z
				 M18.9,20.77c-0.01,0-0.02,0-0.03,0c-0.01,0-0.02-0.01-0.02-0.02l-0.05-0.15l-0.63-2.01l-0.05-0.16c0-0.01,0-0.02,0-0.03
				c0-0.01,0.01-0.02,0.02-0.02l2.05-0.65l0.76,2.4l-0.07,0.02C20.67,20.21,21.61,19.91,18.9,20.77z M20.68,10.33l-1.04,0.64
				l-0.37-0.13l1.04-0.64L20.68,10.33z M19.18,10.23l1.04-0.64l-0.05,0.39l-1.04,0.64L19.18,10.23z M8.85,13.93
				c0-2.78,2.26-5.03,5.03-5.03c1.79,0,3.36,0.93,4.25,2.34l-0.77,0.48c-0.6-0.94-1.5-1.58-2.75-1.84
				c-2.45-0.48-4.86,1.45-4.86,4.06c0,2.64,2.46,4.61,5.05,4.02c0.01-0.01,1.3-0.22,2.28-1.43c0.02-0.07,1.32-1.45,0.79-3.62
				c-0.09-0.34-0.21-0.66-0.38-0.96l0.77-0.48c0.41,0.73,0.65,1.57,0.65,2.47c0,2.77-2.25,5.03-5.03,5.03
				C11.13,18.97,8.85,16.73,8.85,13.93z M13.88,17.79c-2.13,0-3.86-1.73-3.86-3.86c0-3.87,5.06-5.29,7.11-2.08l-3.06,1.89
				c-0.04-0.03-0.08-0.05-0.14-0.06c-0.21-0.05-0.43,0.08-0.48,0.29c-0.05,0.21,0.08,0.43,0.29,0.48c0.21,0.05,0.43-0.08,0.48-0.29
				c0.02-0.07,0.01-0.14-0.01-0.2l0,0l3.04-1.88C18.64,14.58,16.88,17.79,13.88,17.79z M13.88,19.23c0.2,0,0.41-0.01,0.61-0.04v0.67
				c-0.13-0.09-0.28-0.16-0.45-0.18c-0.27-0.04-0.54,0.03-0.76,0.18V19.2C13.48,19.22,13.68,19.23,13.88,19.23z M34.6,41.18H8.61
				c-0.15,0-0.26-0.12-0.26-0.26v-1.26c0-0.15,0.12-0.26,0.26-0.26c0.69,0,23.83,0,25.99,0c0.04,0,0.08,0.01,0.11,0.02v1.61
				c0,0.04,0.01,0.08,0.02,0.12C34.69,41.17,34.65,41.18,34.6,41.18z"/>
			<circle class="st23" cx="37.5" cy="29.98" r="0.15"/>
			<path class="st23" d="M39.18,30.11c0.07,0,0.13-0.06,0.13-0.13c0-0.07-0.06-0.13-0.13-0.13h-1.2c-0.07,0-0.13,0.06-0.13,0.13
				c0,0.07,0.06,0.13,0.13,0.13H39.18z M36.07,34.54c0,1.31,1.06,2.37,2.37,2.37c1.31,0,2.37-1.06,2.37-2.37
				c0-1.31-1.06-2.37-2.37-2.37C37.13,32.16,36.07,33.23,36.07,34.54z M38.44,32.43c1.16,0,2.11,0.95,2.11,2.11
				c0,1.16-0.95,2.11-2.11,2.11c-1.16,0-2.11-0.95-2.11-2.11C36.33,33.37,37.28,32.43,38.44,32.43z M29.15,14.63
				c0.98,0.46,1.4,1.63,0.94,2.61c-0.03,0.07,0,0.14,0.06,0.17c0.02,0.01,0.04,0.01,0.06,0.01c0.05,0,0.1-0.03,0.12-0.08
				c0.52-1.11,0.04-2.44-1.07-2.96c-0.07-0.03-0.14,0-0.17,0.06C29.05,14.52,29.08,14.6,29.15,14.63z"/>
			<path class="st23" d="M28.82,15.18c0.34,0.16,0.59,0.44,0.72,0.79c0.13,0.35,0.11,0.73-0.05,1.07c-0.03,0.07,0,0.14,0.06,0.17
				c0.02,0.01,0.04,0.01,0.06,0.01c0.05,0,0.1-0.03,0.12-0.08c0.19-0.4,0.21-0.85,0.06-1.27c-0.15-0.42-0.45-0.75-0.85-0.94
				c-0.07-0.03-0.14,0-0.17,0.06C28.72,15.07,28.75,15.15,28.82,15.18z"/>
			<path class="st23" d="M28.48,15.72c0.2,0.09,0.35,0.26,0.43,0.47c0.08,0.21,0.06,0.43-0.03,0.63c-0.03,0.07,0,0.14,0.06,0.17
				c0.02,0.01,0.04,0.01,0.06,0.01c0.05,0,0.1-0.03,0.12-0.08c0.12-0.26,0.14-0.56,0.04-0.83c-0.1-0.27-0.3-0.49-0.56-0.62
				c-0.07-0.03-0.14,0-0.17,0.06C28.39,15.61,28.42,15.69,28.48,15.72z M33.63,10.41C33.63,10.41,33.63,10.41,33.63,10.41
				c-0.1,0-0.17,0.08-0.17,0.17l0.04,1.4c0,0.09,0.08,0.16,0.16,0.16c0,0,0,0,0,0c0.09,0,0.16-0.08,0.16-0.17l-0.04-1.4
				C33.8,10.48,33.72,10.41,33.63,10.41z M33.61,9.73C33.61,9.73,33.61,9.73,33.61,9.73c0.1,0,0.17-0.08,0.17-0.17l-0.02-0.84
				c0-0.09-0.08-0.16-0.16-0.16c0,0,0,0,0,0c-0.09,0-0.16,0.08-0.16,0.17l0.02,0.84C33.44,9.66,33.52,9.73,33.61,9.73z M30.16,20.14
				C30.16,20.14,30.15,20.14,30.16,20.14c-0.1,0-0.17,0.08-0.17,0.17l0.04,1.4c0,0.09,0.08,0.16,0.16,0.16c0,0,0,0,0,0
				c0.09,0,0.16-0.08,0.16-0.17l-0.04-1.4C30.32,20.21,30.25,20.14,30.16,20.14z M24.2,11.09C24.2,11.09,24.2,11.09,24.2,11.09
				c0.1,0,0.17-0.08,0.17-0.17l-0.04-1.4c0-0.09-0.08-0.16-0.16-0.16c0,0,0,0,0,0c-0.09,0-0.16,0.08-0.16,0.17l0.04,1.4
				C24.03,11.01,24.11,11.09,24.2,11.09z M10.66,21.1C10.66,21.1,10.66,21.1,10.66,21.1c0.1,0,0.17-0.08,0.17-0.17l-0.04-1.4
				c0-0.09-0.08-0.16-0.16-0.16c0,0,0,0,0,0c-0.09,0-0.16,0.08-0.16,0.17l0.04,1.4C10.5,21.03,10.57,21.1,10.66,21.1z M37.87,24.98
				c-0.09,0-0.16,0.08-0.16,0.17l0.04,1.4c0,0.09,0.08,0.16,0.16,0.16c0,0,0,0,0,0c0.09,0,0.16-0.08,0.16-0.17l-0.04-1.4
				C38.04,25.05,37.96,24.98,37.87,24.98z"/>
		</g>
	</g>
</g>
</svg>
